<svg width="246" height="92" viewBox="0 0 246 92" fill="none" xmlns="http://www.w3.org/2000/svg">
<g clip-path="url(#clip0_2_54)">
<path d="M105.94 75.93C105.94 71.75 108.75 69.23 112.87 69.23H114.15L113.84 70.51H113C109.55 70.51 107.32 72.51 107.32 75.93C107.32 79.35 109.55 81.44 113 81.44H113.84L114.15 82.72H112.87C108.75 82.72 105.94 80.2 105.94 75.93Z" fill="#0A0A23"/>
<path d="M128.27 80H122L121 82.68H119.56L125.18 68.53L130.79 82.68H129.36L128.27 80ZM125.09 72L122.5 78.7H127.77L125.09 72Z" fill="#0A0A23"/>
<path d="M137.93 69.23H140.56C141.838 69.23 143.064 69.7378 143.968 70.6417C144.872 71.5456 145.38 72.7716 145.38 74.05C145.38 75.3283 144.872 76.5543 143.968 77.4582C143.064 78.3622 141.838 78.87 140.56 78.87H139.26V82.72H137.93V69.23ZM139.26 77.59H140.48C141.419 77.59 142.319 77.217 142.983 76.5531C143.647 75.8893 144.02 74.9888 144.02 74.05C144.02 73.1111 143.647 72.2107 142.983 71.5468C142.319 70.8829 141.419 70.51 140.48 70.51H139.26V77.59Z" fill="#0A0A23"/>
<path d="M153.3 69.23H154.62V82.72H153.3V69.23Z" fill="#0A0A23"/>
<path d="M166.87 70.51V82.72H165.55V70.51H162.32L162 69.23H170.4L170.09 70.51H166.87Z" fill="#0A0A23"/>
<path d="M184.32 80H178.06L177.06 82.68H175.62L181.24 68.53L186.85 82.68H185.42L184.32 80ZM181.13 72L178.54 78.7H183.81L181.13 72Z" fill="#0A0A23"/>
<path d="M194 69.23H195.32V81.44H199.83L200.14 82.72H194V69.23Z" fill="#0A0A23"/>
<path d="M134.13 48.83H116.48L113.81 55.4H106.7L125.44 11.61L144.12 55.4H136.87L134.13 48.83ZM125.24 27.21L119.08 42.33H131.47L125.24 27.21Z" fill="#0A0A23"/>
<path d="M159.86 20.3V55.4H153V20.3H143.9L142.73 13.66H170.1L169 20.3H159.86Z" fill="#0A0A23"/>
<path d="M173.54 34.39C173.54 22.15 182.09 13 195 13C207.91 13 216.41 22.17 216.41 34.41C216.41 46.94 207.31 56.1 195 56.1C182.69 56.1 173.54 46.92 173.54 34.39ZM209.26 34.39C209.26 26.18 203.51 19.82 194.96 19.82C186.41 19.82 180.66 26.18 180.66 34.39C180.66 42.88 186.4 49.24 194.96 49.24C203.52 49.24 209.26 42.88 209.26 34.39Z" fill="#0A0A23"/>
<path d="M225 13.66H231.84V48.76H244.57L245.73 55.4H225V13.66Z" fill="#0A0A23"/>
<path d="M92.39 34.57C89.59 23.87 78.69 15.57 68.79 9.76999C57.09 2.87999 31.32 -9.31001 10.28 14.77C0.800023 25.53 -1.81998 41 2.56002 54.45C6.94002 67.9 17.74 79 30.91 85.54C40 90 50.72 92.45 60.59 89.82C74.62 86.07 83.71 73.2 89 60.35C92.31 52.14 94.63 43.12 92.39 34.57ZM72.54 77.37C60.91 84.68 44.36 84.37 32.89 76.82C21.42 69.27 13.38 54.87 16.21 42.15C18.21 33.15 21.69 23.71 31.53 16.99C38.81 11.99 43.45 11.67 50.7 12.99C58.56 14.49 62.54 17 68 20.2C77.23 25.7 82.46 33.41 85.72 43.09C89.89 55.49 84.17 70.06 72.54 77.37Z" stroke="#0A0A23" stroke-miterlimit="10"/>
</g>
<defs>
<clipPath id="clip0_2_54">
<rect width="245.72" height="91.41" fill="white"/>
</clipPath>
</defs>
</svg>
