<svg width="200" height="200" viewBox="0 0 200 200" fill="none" xmlns="http://www.w3.org/2000/svg">
<path d="M100.17 134.574C108.69 134.574 115.596 127.668 115.596 119.149C115.596 110.63 108.69 103.723 100.17 103.723C91.6511 103.723 84.7449 110.63 84.7449 119.149C84.7449 127.668 91.6511 134.574 100.17 134.574Z" stroke="#FFF" stroke-width="2" stroke-linecap="round" stroke-linejoin="round"/>
<path d="M69.8506 78.1915C78.0762 78.1915 84.7443 71.2853 84.7443 62.766C84.7443 54.2467 78.0762 47.3405 69.8506 47.3405C61.6251 47.3405 54.957 54.2467 54.957 62.766C54.957 71.2853 61.6251 78.1915 69.8506 78.1915Z" stroke="#FFF" stroke-width="2" stroke-linecap="round" stroke-linejoin="round"/>
<path d="M145.915 118.617C154.435 118.617 161.341 111.949 161.341 103.723C161.341 95.4979 154.435 88.8298 145.915 88.8298C137.396 88.8298 130.49 95.4979 130.49 103.723C130.49 111.949 137.396 118.617 145.915 118.617Z" stroke="#FFF" stroke-width="2" stroke-linecap="round" stroke-linejoin="round"/>
<path d="M135.276 54.7872C143.795 54.7872 150.702 48.1191 150.702 39.8936C150.702 31.6681 143.795 25 135.276 25C126.757 25 119.851 31.6681 119.851 39.8936C119.851 48.1191 126.757 54.7872 135.276 54.7872Z" stroke="#FFF" stroke-width="2" stroke-linecap="round" stroke-linejoin="round"/>
<path d="M145.915 169.681C154.435 169.681 161.341 162.775 161.341 154.255C161.341 145.736 154.435 138.83 145.915 138.83C137.396 138.83 130.49 145.736 130.49 154.255C130.49 162.775 137.396 169.681 145.915 169.681Z" stroke="#FFF" stroke-width="2" stroke-linecap="round" stroke-linejoin="round"/>
<path d="M54.4255 175C62.9448 175 69.8511 168.094 69.8511 159.574C69.8511 151.055 62.9448 144.149 54.4255 144.149C45.9062 144.149 39 151.055 39 159.574C39 168.094 45.9062 175 54.4255 175Z" stroke="#FFF" stroke-width="2" stroke-linecap="round" stroke-linejoin="round"/>
<path d="M93.2548 104.787L77.2974 76.0638" stroke="#FFF" stroke-width="2" stroke-linecap="round" stroke-linejoin="round"/>
<path d="M147.511 88.8298L141.128 53.7234" stroke="#FFF" stroke-width="2" stroke-linecap="round" stroke-linejoin="round"/>
<path d="M131.553 107.979L114.531 114.362" stroke="#FFF" stroke-width="2" stroke-linecap="round" stroke-linejoin="round"/>
<path d="M133.681 145.213L112.404 128.192" stroke="#FFF" stroke-width="2" stroke-linecap="round" stroke-linejoin="round"/>
<path d="M89.0004 129.255L65.5962 149.468" stroke="#FFF" stroke-width="2" stroke-linecap="round" stroke-linejoin="round"/>
</svg>
