<svg width="200" height="200" viewBox="0 0 200 200" fill="none" xmlns="http://www.w3.org/2000/svg">
<path d="M83.2789 118.828L76.4821 126.484C71.2459 131.711 64.5779 135.269 57.3205 136.708C50.0632 138.146 42.5422 137.401 35.7081 134.567C28.874 131.733 23.0333 126.936 18.9243 120.784C14.8152 114.631 12.6221 107.399 12.6221 100C12.6221 92.6015 14.8152 85.369 18.9243 79.2164C23.0333 73.0638 28.874 68.2673 35.7081 65.433C42.5422 62.5987 50.0632 61.8538 57.3205 63.2925C64.5779 64.7311 71.2459 68.2887 76.4821 73.5157L123.513 126.484C128.749 131.711 135.418 135.269 142.675 136.708C149.932 138.146 157.453 137.401 164.287 134.567C171.121 131.733 176.962 126.936 181.071 120.784C185.18 114.631 187.373 107.399 187.373 100C187.373 92.6015 185.18 85.369 181.071 79.2164C176.962 73.0638 171.121 68.2673 164.287 65.433C157.453 62.5987 149.932 61.8538 142.675 63.2925C135.418 64.7311 128.749 68.2887 123.513 73.5157L116.716 81.172" stroke="#FFF" stroke-width="2" stroke-linecap="round" stroke-linejoin="round"/>
</svg>
