<svg width="345" height="345" viewBox="0 0 345 345" fill="none" xmlns="http://www.w3.org/2000/svg">
<path d="M107.812 215.625H280.312C283.172 215.625 285.914 214.489 287.936 212.467C289.958 210.445 291.094 207.703 291.094 204.844V64.6875C291.094 61.8281 289.958 59.0859 287.936 57.064C285.914 55.0421 283.172 53.9062 280.312 53.9062H129.375C126.516 53.9062 123.773 55.0421 121.752 57.064C119.73 59.0859 118.594 61.8281 118.594 64.6875V75.4688" stroke="white" stroke-width="2" stroke-linecap="round" stroke-linejoin="round"/>
<path d="M140.156 183.281L107.812 215.625L140.156 247.969" stroke="white" stroke-width="2" stroke-linecap="round" stroke-linejoin="round"/>
<path d="M237.188 129.375H64.6875C61.8281 129.375 59.0859 130.511 57.064 132.533C55.0421 134.555 53.9062 137.297 53.9062 140.156V280.312C53.9062 283.172 55.0421 285.914 57.064 287.936C59.0859 289.958 61.8281 291.094 64.6875 291.094H215.625C218.484 291.094 221.227 289.958 223.249 287.936C225.27 285.914 226.406 283.172 226.406 280.312V269.531" stroke="white" stroke-width="2" stroke-linecap="round" stroke-linejoin="round"/>
<path d="M204.844 161.719L237.188 129.375L204.844 97.0312" stroke="white" stroke-width="2" stroke-linecap="round" stroke-linejoin="round"/>
</svg>
