<svg width="1198" height="648" viewBox="0 0 1198 648" fill="none" xmlns="http://www.w3.org/2000/svg">
<path opacity="0.2" d="M374.375 375.75H973.375C983.304 375.75 992.826 371.806 999.847 364.785C1006.87 357.764 1010.81 348.242 1010.81 338.312V-148.375C1010.81 -158.304 1006.87 -167.826 999.847 -174.847C992.826 -181.868 983.304 -185.812 973.375 -185.812H449.25C439.321 -185.812 429.799 -181.868 422.778 -174.847C415.757 -167.826 411.812 -158.304 411.812 -148.375V-110.938" stroke="white" stroke-width="2" stroke-linecap="round" stroke-linejoin="round" stroke-dasharray="0.1 8"/>
<path opacity="0.2" d="M486.688 263.438L374.375 375.75L486.688 488.062" stroke="white" stroke-width="2" stroke-linecap="round" stroke-linejoin="round" stroke-dasharray="0.1 8"/>
<path opacity="0.2" d="M823.625 76.25H224.625C214.696 76.25 205.174 80.1943 198.153 87.2152C191.132 94.2361 187.188 103.758 187.188 113.688V600.375C187.188 610.304 191.132 619.826 198.153 626.847C205.174 633.868 214.696 637.812 224.625 637.812H748.75C758.679 637.812 768.201 633.868 775.222 626.847C782.243 619.826 786.188 610.304 786.188 600.375V562.938" stroke="white" stroke-width="2" stroke-linecap="round" stroke-linejoin="round" stroke-dasharray="0.1 8"/>
<path opacity="0.4" d="M711.312 188.562L823.625 76.25L711.312 -36.0625" stroke="white" stroke-width="2" stroke-linecap="round" stroke-linejoin="round" stroke-dasharray="0.1 8"/>
</svg>
