<svg width="32" height="32" viewBox="0 0 32 32" fill="none" xmlns="http://www.w3.org/2000/svg">
<path d="M13 4V11.725C12.9988 11.9048 12.9514 12.0813 12.8625 12.2375L4.91245 25.4875C4.82223 25.6387 4.7735 25.8109 4.7712 25.987C4.7689 26.163 4.81311 26.3365 4.89935 26.49C4.98559 26.6434 5.11082 26.7714 5.26237 26.861C5.41392 26.9505 5.58643 26.9985 5.76245 27H26.2375C26.4135 26.9985 26.586 26.9505 26.7375 26.861C26.8891 26.7714 27.0143 26.6434 27.1006 26.49C27.1868 26.3365 27.231 26.163 27.2287 25.987C27.2264 25.8109 27.1777 25.6387 27.0875 25.4875L19.1375 12.2375C19.0485 12.0813 19.0012 11.9048 19 11.725V4" stroke="#0A0A23" stroke-width="2" stroke-linecap="round" stroke-linejoin="round"/>
<path d="M11 4H21" stroke="#0A0A23" stroke-width="2" stroke-linecap="round" stroke-linejoin="round"/>
<path d="M7.82495 20.625C9.29995 19.5375 11.8375 18.925 16 21C20.4625 23.2375 23.0624 22.35 24.4874 21.1375" stroke="#0A0A23" stroke-width="2" stroke-linecap="round" stroke-linejoin="round"/>
</svg>
