<svg width="32" height="32" viewBox="0 0 32 32" fill="none" xmlns="http://www.w3.org/2000/svg">
<path d="M21.1 23.5875L21.5875 26.5375" stroke="#0A0A23" stroke-width="2" stroke-linecap="round" stroke-linejoin="round"/>
<path d="M16 24V28" stroke="#0A0A23" stroke-width="2" stroke-linecap="round" stroke-linejoin="round"/>
<path d="M10.9 23.5875L10.4125 26.5375" stroke="#0A0A23" stroke-width="2" stroke-linecap="round" stroke-linejoin="round"/>
<path d="M22.125 8.59998C26.7875 9.57498 30 11.625 30 14C30 17.3125 23.7375 20 16 20C8.2625 20 2 17.3125 2 14C2 11.625 5.2375 9.56248 9.925 8.59998" stroke="#0A0A23" stroke-width="2" stroke-linecap="round" stroke-linejoin="round"/>
<path d="M9.00002 12.4876C8.99802 12.939 9.15075 13.3776 9.43278 13.7301C9.71482 14.0826 10.1091 14.3279 10.55 14.4251C12.3387 14.8248 14.1673 15.0178 16 15.0001C17.8327 15.0178 19.6614 14.8248 21.45 14.4251C21.8909 14.3279 22.2852 14.0826 22.5673 13.7301C22.8493 13.3776 23.002 12.939 23 12.4876V12.0001C23.0001 11.0734 22.8162 10.1559 22.4589 9.30091C22.1017 8.44588 21.5782 7.67028 20.9189 7.01912C20.2596 6.36795 19.4776 5.85417 18.6182 5.50758C17.7588 5.16098 16.8391 4.98848 15.9125 5.00006C12.0625 5.05006 9.00002 8.26256 9.00002 12.1001V12.4876Z" stroke="#0A0A23" stroke-width="2" stroke-linecap="round" stroke-linejoin="round"/>
</svg>
