<svg width="32" height="32" viewBox="0 0 32 32" fill="none" xmlns="http://www.w3.org/2000/svg">
<path d="M16 28C22.6274 28 28 22.6274 28 16C28 9.37258 22.6274 4 16 4C9.37258 4 4 9.37258 4 16C4 22.6274 9.37258 28 16 28Z" stroke="#0A0A23" stroke-width="2" stroke-linecap="round" stroke-linejoin="round"/>
<path d="M11.5 15C12.3284 15 13 14.3284 13 13.5C13 12.6716 12.3284 12 11.5 12C10.6716 12 10 12.6716 10 13.5C10 14.3284 10.6716 15 11.5 15Z" fill="#0A0A23"/>
<path d="M19 13.5H22" stroke="#0A0A23" stroke-width="2" stroke-linecap="round" stroke-linejoin="round"/>
<path d="M21.2 19C20.6714 19.9107 19.9128 20.6667 19.0003 21.1922C18.0877 21.7176 17.0531 21.9942 16 21.9942C14.947 21.9942 13.9124 21.7176 12.9998 21.1922C12.0873 20.6667 11.3287 19.9107 10.8 19" stroke="#0A0A23" stroke-width="2" stroke-linecap="round" stroke-linejoin="round"/>
</svg>
