<svg width="345" height="345" viewBox="0 0 345 345" fill="none" xmlns="http://www.w3.org/2000/svg">
<path d="M172.795 232.141C187.49 232.141 199.404 220.228 199.404 205.532C199.404 190.836 187.49 178.923 172.795 178.923C158.099 178.923 146.186 190.836 146.186 205.532C146.186 220.228 158.099 232.141 172.795 232.141Z" stroke="white" stroke-width="2" stroke-linecap="round" stroke-linejoin="round"/>
<path d="M120.493 134.88C134.682 134.88 146.185 122.967 146.185 108.271C146.185 93.5755 134.682 81.6622 120.493 81.6622C106.304 81.6622 94.8018 93.5755 94.8018 108.271C94.8018 122.967 106.304 134.88 120.493 134.88Z" stroke="white" stroke-width="2" stroke-linecap="round" stroke-linejoin="round"/>
<path d="M251.704 204.614C266.4 204.614 278.313 193.112 278.313 178.923C278.313 164.734 266.4 153.231 251.704 153.231C237.008 153.231 225.095 164.734 225.095 178.923C225.095 193.112 237.008 204.614 251.704 204.614Z" stroke="white" stroke-width="2" stroke-linecap="round" stroke-linejoin="round"/>
<path d="M233.352 94.508C248.048 94.508 259.961 83.0055 259.961 68.8165C259.961 54.6275 248.048 43.125 233.352 43.125C218.656 43.125 206.743 54.6275 206.743 68.8165C206.743 83.0055 218.656 94.508 233.352 94.508Z" stroke="white" stroke-width="2" stroke-linecap="round" stroke-linejoin="round"/>
<path d="M251.704 292.699C266.4 292.699 278.313 280.786 278.313 266.09C278.313 251.395 266.4 239.481 251.704 239.481C237.008 239.481 225.095 251.395 225.095 266.09C225.095 280.786 237.008 292.699 251.704 292.699Z" stroke="white" stroke-width="2" stroke-linecap="round" stroke-linejoin="round"/>
<path d="M93.8844 301.875C108.58 301.875 120.493 289.962 120.493 275.266C120.493 260.57 108.58 248.657 93.8844 248.657C79.1887 248.657 67.2754 260.57 67.2754 275.266C67.2754 289.962 79.1887 301.875 93.8844 301.875Z" stroke="white" stroke-width="2" stroke-linecap="round" stroke-linejoin="round"/>
<path d="M160.865 180.758L133.339 131.21" stroke="white" stroke-width="2" stroke-linecap="round" stroke-linejoin="round"/>
<path d="M254.456 153.231L243.445 92.6729" stroke="white" stroke-width="2" stroke-linecap="round" stroke-linejoin="round"/>
<path d="M226.929 186.263L197.567 197.274" stroke="white" stroke-width="2" stroke-linecap="round" stroke-linejoin="round"/>
<path d="M230.6 250.492L193.897 221.13" stroke="white" stroke-width="2" stroke-linecap="round" stroke-linejoin="round"/>
<path d="M153.526 222.965L113.153 257.832" stroke="white" stroke-width="2" stroke-linecap="round" stroke-linejoin="round"/>
</svg>
