<svg width="1198" height="648" viewBox="0 0 1198 648" fill="none" xmlns="http://www.w3.org/2000/svg">
<path opacity="0.4" d="M600.021 433.101C651.052 433.101 692.42 391.733 692.42 340.702C692.42 289.672 651.052 248.303 600.021 248.303C548.99 248.303 507.622 289.672 507.622 340.702C507.622 391.733 548.99 433.101 600.021 433.101Z" stroke="white" stroke-width="2" stroke-linecap="round" stroke-linejoin="round" stroke-dasharray="0.1 8"/>
<path opacity="0.4" d="M418.406 95.3671C467.677 95.3671 507.619 53.9987 507.619 2.96815C507.619 -48.0624 467.677 -89.4308 418.406 -89.4308C369.135 -89.4308 329.193 -48.0624 329.193 2.96815C329.193 53.9987 369.135 95.3671 418.406 95.3671Z" stroke="white" stroke-width="2" stroke-linecap="round" stroke-linejoin="round" stroke-dasharray="0.1 8"/>
<path opacity="0.4" d="M874.033 337.516C925.063 337.516 966.432 297.574 966.432 248.303C966.432 199.032 925.063 159.09 874.033 159.09C823.002 159.09 781.634 199.032 781.634 248.303C781.634 297.574 823.002 337.516 874.033 337.516Z" stroke="white" stroke-width="2" stroke-linecap="round" stroke-linejoin="round" stroke-dasharray="0.1 8"/>
<path opacity="0.4" d="M874.033 643.388C925.063 643.388 966.432 602.02 966.432 550.989C966.432 499.959 925.063 458.59 874.033 458.59C823.002 458.59 781.634 499.959 781.634 550.989C781.634 602.02 823.002 643.388 874.033 643.388Z" stroke="white" stroke-width="2" stroke-linecap="round" stroke-linejoin="round" stroke-dasharray="0.1 8"/>
<path opacity="0.4" d="M326.009 675.25C377.04 675.25 418.408 633.882 418.408 582.851C418.408 531.821 377.04 490.452 326.009 490.452C274.979 490.452 233.61 531.821 233.61 582.851C233.61 633.882 274.979 675.25 326.009 675.25Z" stroke="white" stroke-width="2" stroke-linecap="round" stroke-linejoin="round" stroke-dasharray="0.1 8"/>
<path opacity="0.4" d="M558.597 254.676L463.012 82.6223" stroke="white" stroke-width="2" stroke-linecap="round" stroke-linejoin="round" stroke-dasharray="0.1 8"/>
<path opacity="0.4" d="M883.59 159.09L845.355 -51.1969" stroke="white" stroke-width="2" stroke-linecap="round" stroke-linejoin="round" stroke-dasharray="0.1 8"/>
<path opacity="0.4" d="M788.002 273.793L686.045 312.027" stroke="white" stroke-width="2" stroke-linecap="round" stroke-linejoin="round" stroke-dasharray="0.1 8"/>
<path opacity="0.4" d="M800.749 496.824L673.302 394.867" stroke="white" stroke-width="2" stroke-linecap="round" stroke-linejoin="round" stroke-dasharray="0.1 8"/>
<path opacity="0.4" d="M533.112 401.239L392.921 522.314" stroke="white" stroke-width="2" stroke-linecap="round" stroke-linejoin="round" stroke-dasharray="0.1 8"/>
</svg>
