<svg width="797" height="611" viewBox="0 0 797 611" fill="none" xmlns="http://www.w3.org/2000/svg">
<g clip-path="url(#clip0_8_243)">
<path d="M4.16958 61.1275C-0.590419 68.9375 1.36958 77.7075 1.55958 78.5175C3.43958 86.4075 8.80958 87.9975 20.6896 99.8275C31.9096 110.998 39.1396 118.148 41.1296 128.998C42.5596 136.758 39.8596 138.628 41.9996 145.998C45.0796 156.488 53.3796 161.998 57.6596 165.558C73.6596 178.768 65.8196 190.978 82.4496 224.268C94.4496 248.268 111.35 267.738 118.54 276.018C126.92 285.658 130.08 288.018 135.06 295.588C145.52 311.528 141.68 322.768 150.72 344.298C154.49 353.298 158.07 358.738 162.9 366.468C195.9 419.468 199.46 437.648 227.26 476.468C250.1 508.378 270.78 528.298 295.53 552.128C332.17 587.408 348.29 595.457 359.89 599.967C387.7 610.777 410.8 609.557 424.69 608.667C444.79 607.377 461.16 606.078 470.35 593.448C476.71 584.698 479.18 571.148 474.26 560.448C471.45 554.298 467.19 551.177 459.04 545.227C448.874 537.826 437.347 532.504 425.12 529.568C411.65 526.348 411.82 529.388 396.42 526.568C383.473 524.203 370.985 519.798 359.42 513.518C343.79 504.748 346.26 500.948 331.59 493.518C315.28 485.248 309.89 488.758 300.28 480.468C292.05 473.208 293 467.998 284.66 455.998C276.32 443.998 272.36 444.878 256.83 429.908C237 410.778 223.05 397.308 222 378.998C221.52 370.258 224.25 365.068 220.26 357.248C215.72 348.348 208.99 348.818 204.6 339.418C200.89 331.418 204.66 328.868 201.12 318.548C197.84 308.958 193.83 309.008 189.82 300.278C185.25 290.328 186.24 281.098 187.64 268.098C188.64 258.958 189.64 249.288 195.47 238.098C200.839 227.719 208.774 218.885 218.52 212.438C225.59 207.918 242.39 197.178 256.79 202.868C267.89 207.268 269.34 218.198 282.01 219.868C287.71 220.608 290.86 218.868 295.06 221.608C299.97 224.848 303.15 232.208 301.15 237.268C299.75 240.798 296.57 241.268 296.8 243.358C297.18 246.878 307.16 250.788 310.71 247.698C315.18 243.818 304.57 233.098 305.06 214.218C305.47 198.218 313.42 191.518 309.41 185.948C304.88 179.678 291.32 183.458 278.97 185.078C278.97 185.078 255.2 188.198 211.56 175.948C146.25 157.578 95.1696 80.9975 102 49.8175C102.63 46.9875 106.07 33.8175 99.8296 22.4175C98.7196 20.4175 95.0696 13.6775 88.9596 12.8475C86.0696 12.4675 82.4996 13.3775 72.8696 21.9875C67.6357 26.7532 62.6998 31.8361 58.0896 37.2075C40.3696 55.9975 14.2996 44.4675 4.16958 61.1275Z" stroke="white" stroke-width="2" stroke-linecap="round" stroke-linejoin="round" stroke-dasharray="0.1 8"/>
<path d="M543.84 478.998C547.1 485.488 513.11 500.188 512.97 522.478C512.97 528.288 515.17 537.178 514.71 537.268C514.25 537.358 513.71 533.268 512.97 533.348C512.23 533.428 511.11 539.348 512.53 545.098C513.44 548.798 515.31 551.478 519.05 556.838C522.45 561.688 523.51 562.048 524.27 562.058C527.14 562.058 527.43 557.228 531.67 555.058C536.28 552.728 539.27 556.818 544.67 555.488C549.34 554.348 550.81 550.488 556.85 542.488C562.52 534.978 562.7 536.488 569.46 528.138C586.81 506.738 582.46 500.778 594.68 490.298C596.82 488.468 601.68 484.588 600.77 481.598C599.92 478.848 594.94 479.518 593.38 476.388C591.48 472.578 597.47 468.828 598.16 462.908C599.36 452.578 583.66 442.348 574.24 438.118C567.41 435.048 551.74 429.698 547.24 435.508C543.24 440.778 549.81 453.328 550.24 454.208C553.89 460.998 557.24 461.658 556.76 464.638C555.48 471.748 536.16 470.998 532.53 472.028C527.88 473.338 526.88 481.028 531.53 479.788C532.14 479.708 542.07 475.498 543.84 478.998Z" stroke="white" stroke-width="2" stroke-linecap="round" stroke-linejoin="round" stroke-dasharray="0.1 8"/>
<path d="M563 389.888C556.65 398.068 568 421.887 579.52 421.627C585.6 421.507 592.07 414.628 593 406.848C594 398.358 588.14 391.517 582.13 388.577C575.84 385.517 566.55 385.278 563 389.888Z" stroke="white" stroke-width="2" stroke-linecap="round" stroke-linejoin="round" stroke-dasharray="0.1 8"/>
<path d="M324.66 173.078C312.41 182.558 318.77 204.808 319.01 205.938C320.15 211.208 322.76 217.368 325.1 217.238C327.03 217.138 327.1 212.848 331.19 208.108C332.11 207.038 335.72 202.858 340.76 201.588C349.29 199.428 354.7 207.438 359.46 204.588C362.76 202.638 360.55 198.588 364.68 192.848C369.03 186.848 373.96 187.988 375.55 183.718C377.55 178.298 372.31 169.218 365.11 166.318C362.94 165.448 360.57 165.128 343.8 169.318C333.68 171.998 326.4 171.718 324.66 173.078Z" stroke="white" stroke-width="2" stroke-linecap="round" stroke-linejoin="round" stroke-dasharray="0.1 8"/>
<path d="M405.67 129.998C396.02 137.638 392.85 141.938 391.09 148.998C389.83 154.058 393.99 160.808 398.16 163.748C400.38 165.318 405.16 166.798 425.56 155.488C456.95 138.048 460.17 126.358 475.56 126.358C481.05 126.358 488.08 127.838 492.95 123.358C496.67 119.908 495.81 116.038 499.48 112.488C504.76 107.368 513.54 108.658 517.31 109.008C533.87 110.548 537.48 101.678 570.79 92.9175C593.62 86.9175 606.39 83.5575 622.54 87.6975C630.82 89.8175 645.04 93.4675 652.98 105.528C661.47 118.418 656.15 130.838 666.9 139.018C673.23 143.828 681.79 144.648 681.69 148.148C681.6 151.008 675.83 152.018 675.6 155.538C675.38 158.848 680.25 161.538 681.69 162.538C698.44 173.308 702.79 230.718 684.3 250.378C682.9 251.858 677.01 257.778 678.64 261.258C679.83 263.778 683.91 262.698 686.03 265.168C689.54 269.238 684.92 279.728 679.51 287.778C667.07 306.298 654.21 306.318 653.42 315.608C652.56 325.718 667.56 327.768 670.81 342.608C673.72 355.828 665.23 369.918 656.9 377.398C651.42 382.308 649.47 381.258 627.76 390.878C602.27 402.168 599.13 406.198 599.06 409.578C598.99 412.778 601.68 415.878 608.19 420.008C615.51 424.658 646.26 444.178 669.94 432.188C689.18 422.458 694.2 396.778 699.52 369.568C705.78 337.568 702.08 309.738 717.78 299.568C720.35 297.908 726.78 294.568 728.65 287.828C730.38 281.698 727.11 277.198 725.65 272.178C720.17 253.868 742.56 243.128 743.48 219.558C743.94 207.708 738.27 210.658 731.3 183.458C726.65 165.328 723.03 150.388 730 136.928C732.76 131.588 735.15 130.438 746.52 119.928C755.9 111.298 770.16 98.1675 777.83 88.1875C794.16 66.9375 801.83 32.4175 789.57 21.1875C784.74 16.7675 774.57 17.3675 754.35 18.5775C733.49 19.7475 732 22.2775 720 22.4175C705.78 22.5875 703.47 19.1175 667.82 9.41754C632.41 -0.302458 625.55 0.617542 621.25 1.54754C602.95 5.54754 590.5 18.6075 586.46 22.8575C575.22 34.6675 579.18 37.7775 570.37 47.2075C548.07 71.0875 512.06 62.6075 498.18 81.9975C496.89 83.7975 494.41 87.7775 489.48 89.8275C482 92.9975 476.78 88.2475 469 88.9975C461.22 89.7475 459.53 95.2375 446.83 106.388C441.17 111.358 417.36 120.758 405.67 129.998Z" stroke="white" stroke-width="2" stroke-linecap="round" stroke-linejoin="round" stroke-dasharray="0.1 8"/>
<path d="M634.34 344.627C632.92 346.137 633.339 349.367 634.699 351.337C637.289 355.167 644.38 355.997 647.4 352.787C651.47 348.477 646.259 338.927 643.949 338.997C642.849 338.997 642.949 341.267 640.509 342.807C637.859 344.487 635.74 343.127 634.34 344.627Z" stroke="white" stroke-width="2" stroke-linecap="round" stroke-linejoin="round" stroke-dasharray="0.1 8"/>
<path d="M619 322.138C617.86 325.328 617.28 326.917 617.91 327.987C619.02 329.897 623.1 330.337 625.59 328.717C629.13 326.417 628.41 320.618 628.15 318.478C627.63 314.268 625.52 309.887 624.15 310.067C623.33 310.177 623.43 311.798 621.59 316.288C620.44 319.058 620 319.488 619 322.138Z" stroke="white" stroke-width="2" stroke-linecap="round" stroke-linejoin="round" stroke-dasharray="0.1 8"/>
<path d="M82.9978 40.2875C78.9978 37.9575 72.2278 42.3575 59.0878 51.1675C49.0078 57.9075 49.0878 59.1675 43.8678 61.1675C36.2578 64.1675 32.5078 62.9775 29.0778 66.8175C26.6278 69.5775 26.2478 73.1875 25.5978 80.2975C24.9878 86.9675 24.4678 92.7175 26.0378 98.9975C28.2078 107.688 32.8378 111.198 38.2078 118.568C45.5078 128.568 47.1278 136.068 51.6878 148.568C67.6878 192.568 85.4678 241.198 116.918 268.568C122.128 273.098 130.918 279.858 138.228 292.488C139.518 294.708 140.598 296.848 150.838 324.228C156.918 340.478 157.058 341.128 159.978 348.588C164.118 359.208 169.538 372.508 169.538 372.508C169.538 372.508 171.998 375.798 173.458 375.508C174.918 375.218 175.458 371.708 175.628 369.418C176.068 361.238 170.568 354.788 167.798 350.718C159.398 338.368 165.108 331.768 159.108 313.318C154.448 299.018 148.408 294.988 142.108 284.188C124.028 253.028 145.478 236.998 132.538 209.818C117.968 179.238 67.5378 150.718 61.2178 138.938C60.4978 137.588 58.3378 133.588 59.9178 130.678C60.7878 129.058 62.0178 129.228 63.8278 127.198C65.6378 125.168 67.5878 121.438 66.4378 118.938C65.2878 116.438 61.6978 117.528 59.9178 115.018C57.0478 111.018 63.3378 103.738 61.2178 101.538C58.9278 99.1675 49.4278 105.378 48.6078 104.148C47.7878 102.918 59.3378 97.3675 59.9578 88.6075C60.3978 82.3675 55.1278 77.7375 57.3478 75.1175C58.4578 73.8075 60.8778 73.6775 62.5578 74.2475C67.1278 75.7975 66.3578 82.4875 70.3878 83.8175C73.7778 84.9375 76.2778 80.8175 78.6578 82.0775C81.4478 83.5375 80.6578 90.6375 79.9578 96.8675C79.0178 105.258 77.3178 109.118 78.6578 109.868C79.9978 110.618 84.1078 107.458 86.4778 103.788C90.5778 97.4275 90.8678 88.0775 86.4778 82.0375C83.4778 77.8475 80.9678 79.1775 79.4778 75.9475C76.4778 69.2775 86.7978 63.1175 86.4778 50.2975C86.4078 47.6075 86.2578 42.1675 82.9978 40.2875Z" stroke="white" stroke-miterlimit="10"/>
<path d="M86.0477 119.877C85.3177 121.667 83.8977 125.187 85.6077 127.267C87.0077 128.957 90.0877 129.207 92.1377 128.137C95.8477 126.197 95.6777 120.137 95.6177 118.137C95.4077 111.357 91.6177 105.617 90.3977 105.957C89.3977 106.237 91.1877 110.567 88.6577 115.527C87.6477 117.497 86.9477 117.607 86.0477 119.877Z" stroke="white" stroke-miterlimit="10"/>
<path d="M193.898 388.188C185.898 385.188 181.898 383.758 180.848 384.708C178.728 386.598 179.908 392.708 182.588 393.838C184.178 394.518 185.018 392.908 187.808 392.968C191.918 393.068 193.178 396.638 196.068 396.018C198.068 395.578 199.838 393.328 199.548 391.668C199.338 390.298 197.718 389.608 193.898 388.188Z" stroke="white" stroke-miterlimit="10"/>
<path d="M228.248 423.848C226.108 419.198 220.948 420.848 216.508 415.588C213.308 411.808 214.768 409.518 211.288 406.458C208.698 404.168 204.168 402.158 201.718 403.848C198.808 405.848 200.048 412.188 201.288 415.588C202.908 420.028 204.978 420.688 208.288 425.148C215.288 434.718 214.908 444.238 218.288 444.288C220.288 444.288 221.218 440.938 223.068 441.238C225.118 441.578 225.708 445.988 226.548 449.068C229.388 459.468 238.838 468.448 246.988 472.118C252.158 474.448 255.298 473.948 259.168 477.768C262.168 480.768 262.648 483.388 265.248 483.858C268.368 484.418 272.248 481.458 273.518 477.768C274.069 475.92 274.074 473.953 273.533 472.102C272.992 470.252 271.927 468.597 270.468 467.338C266.698 464.108 263.608 467.208 259.168 464.728C252.398 460.948 255.978 451.728 247.858 445.588C245.108 443.508 243.208 443.438 241.768 440.808C239.438 436.548 242.108 432.458 240.028 430.808C237.508 428.808 232.188 433.738 229.598 431.678C227.728 430.228 229.888 427.408 228.248 423.848Z" stroke="white" stroke-miterlimit="10"/>
<path d="M247.338 482.608C245.338 482.678 243.568 485.258 242.998 486.088C242.337 486.984 241.864 488.004 241.608 489.088C241.1 490.849 241.286 492.739 242.128 494.368C242.814 495.544 243.859 496.47 245.11 497.01C246.36 497.549 247.751 497.675 249.078 497.368C249.98 497.048 250.801 496.531 251.479 495.855C252.157 495.178 252.676 494.359 252.998 493.458C254.698 488.748 250.588 482.428 247.338 482.608Z" stroke="white" stroke-miterlimit="10"/>
<path d="M259.558 498.608C257.776 499.842 256.532 501.708 256.078 503.828C255.768 505.668 256.018 508.518 257.818 509.908C259.618 511.298 263.038 511.218 263.038 511.218C263.038 511.218 263.208 504.138 263.468 502.958C264.398 498.798 266.348 497.208 265.648 496.428C264.948 495.648 261.598 496.988 259.558 498.608Z" stroke="white" stroke-miterlimit="10"/>
<path d="M270.428 516.038C268.338 517.168 268.598 522.888 270.868 523.868C272.078 524.388 273.748 523.518 274.658 522.658C275.107 522.267 275.467 521.784 275.714 521.243C275.96 520.701 276.088 520.113 276.088 519.518C275.838 516.978 272.128 515.128 270.428 516.038Z" stroke="white" stroke-miterlimit="10"/>
<path d="M282.608 532.607C284.678 532.607 282.948 526.987 284.448 525.877C285.948 524.767 286.548 528.578 287.388 527.818C288.618 526.738 282.638 516.697 280.868 517.387C278.858 518.127 282.008 532.607 282.608 532.607Z" stroke="white" stroke-miterlimit="10"/>
<path d="M279.128 484.728C277.128 485.918 277.838 490.558 278.258 493.428C278.988 498.428 280.748 500.088 282.608 505.608C285.258 513.508 283.058 514.368 285.218 517.348C289.648 523.458 302.808 525.098 310.878 520.828C313.058 519.668 314.878 518.078 317.828 518.218C321.758 518.388 323.038 521.368 326.528 521.218C329.748 521.118 333.478 518.428 333.528 515.998C333.528 512.938 327.618 511.778 314.828 505.568C308.518 502.658 302.417 499.317 296.568 495.568C286.038 488.698 281.618 483.218 279.128 484.728Z" stroke="white" stroke-miterlimit="10"/>
<path d="M335.658 549.087C337.488 563.167 347.478 572.847 354.358 579.527C359.718 584.727 362.358 587.327 366.098 588.227C372.578 589.807 377.378 586.657 386.978 587.797C389.467 588.071 391.935 588.505 394.368 589.097C398.088 590.097 398.488 590.737 400.458 590.837C404.578 591.037 405.238 588.317 409.158 587.837C414.868 587.077 416.858 592.447 421.768 591.307C424.828 590.607 424.618 588.387 429.158 586.097C433.018 584.097 434.908 584.877 437.858 583.917C446.588 581.087 452.938 567.317 449.158 560.917C448.018 558.917 446.228 558.198 443.508 557.008C419.668 546.578 419.828 545.118 412.638 544.008C403.898 542.608 404.878 544.948 394.808 544.008C378.808 542.528 353.988 534.558 342.618 523.138C341.758 522.278 339.518 519.927 337.838 520.527C336.158 521.127 335.768 524.737 335.658 536.617C335.598 544.367 335.558 548.307 335.658 549.087Z" stroke="white" stroke-miterlimit="10"/>
<path d="M516.998 549.528C516.728 551.628 517.528 554.678 519.608 555.178C521.328 555.588 523.198 554.098 523.958 552.568C525.488 549.488 523.148 544.898 520.958 544.738C519.188 544.608 517.338 547.148 516.998 549.528Z" stroke="white" stroke-miterlimit="10"/>
<path d="M562.228 468.608C555.848 482.718 570.028 495.338 563.538 505.138C560.968 509.018 558.098 508.008 553.538 514.268C549.628 519.638 551.428 520.788 547.888 526.008C543.448 532.548 536.108 537.388 530.888 540.798C528.598 542.308 526.298 543.668 526.538 544.278C526.918 545.218 533.148 543.598 535.238 542.968C543.638 540.468 548.918 534.968 563.508 517.748C577.008 501.748 579.578 498.048 581.768 492.088C583.755 486.214 584.639 480.023 584.378 473.828C584.168 468.628 583.958 464.668 580.898 462.088C577.838 459.508 572.978 459.428 569.588 460.778C565.008 462.658 562.968 467.018 562.228 468.608Z" stroke="white" stroke-miterlimit="10"/>
<path d="M630.068 19.8575C628.538 20.5675 622.678 23.7675 622.678 23.7675C622.678 23.7675 620.968 27.6575 621.808 28.5475C622.648 29.4375 626.468 25.8175 630.938 24.6375C636.148 23.2675 639.688 26.1475 657.468 35.0775C666.048 39.3775 669.828 41.0775 673.558 39.4175C676.158 38.2975 678.778 35.5675 678.338 33.3375C677.668 29.8775 670.258 30.5675 657.468 26.8075C642.658 22.4675 636.558 16.8275 630.068 19.8575Z" stroke="white" stroke-miterlimit="10"/>
<path d="M695.338 35.9476C689.778 36.1076 686.988 36.2176 686.208 37.6876C685.028 39.8776 687.208 44.1676 689.688 44.6876C691.888 45.1076 692.578 42.2176 695.778 42.0776C698.158 41.9776 700.518 43.4576 703.168 45.0776C705.258 46.3876 705.718 47.0775 706.168 46.8175C707.538 46.1575 707.298 39.4775 703.558 36.8175C702.088 35.7675 699.808 35.8076 695.338 35.9476Z" stroke="white" stroke-miterlimit="10"/>
<path d="M711.828 83.3475C714.018 91.0175 717.828 104.348 712.698 108.568C710.488 110.398 708.378 109.108 706.608 111.178C703.718 114.538 705.228 122.708 709.218 125.528C716.298 130.528 732.638 119.698 740.958 112.528C755.598 99.8275 760.488 85.2075 767.958 62.9575C773.298 46.9575 772.658 42.0375 770.138 39.4675C767.768 37.0675 761.418 37.5475 748.828 38.6075C733.438 39.8375 733.038 41.4275 725.338 40.7275C718.828 40.1375 716.018 38.7275 713.598 40.7275C710.858 42.9875 712.508 46.3975 710.988 56.3775C709.758 64.3775 708.248 65.0875 708.378 70.2975C708.458 75.0075 709.728 76.0375 711.828 83.3475Z" stroke="white" stroke-miterlimit="10"/>
<path d="M695.738 115.528C695.448 120.998 696.908 127.598 698.738 127.698C700.398 127.788 702.298 122.778 702.648 118.568C703.178 112.418 700.598 105.868 698.738 105.958C696.878 106.048 695.928 111.838 695.738 115.528Z" stroke="white" stroke-miterlimit="10"/>
<path d="M701.388 134.658C692.778 137.658 708.178 196.498 706.168 223.808C705.44 231.929 705.732 240.109 707.038 248.158C707.918 253.508 708.358 253.318 708.778 256.858C710.058 267.608 706.338 272.608 703.128 286.428C698.958 304.278 702.788 306.008 697.908 313.828C692.658 322.238 684.908 325.588 686.168 329.048C686.988 331.248 691.168 332.718 694.428 331.658C701.188 329.438 700.008 317.428 706.118 296.418C710.908 279.958 713.228 281.868 715.738 269.908C717.488 261.598 717.068 251.788 716.168 232.508C714.398 194.508 714.398 194.508 714.438 193.798C715.568 170.588 720.818 162.678 715.298 149.878C711.918 142.018 704.958 133.428 701.388 134.658Z" stroke="white" stroke-miterlimit="10"/>
<path d="M679.208 360.358C676.388 363.428 674.858 368.828 677.038 370.798C678.568 372.188 681.658 371.598 683.558 370.358C688.198 367.358 688.268 358.758 685.728 357.308C683.958 356.308 680.758 358.658 679.208 360.358Z" stroke="white" stroke-miterlimit="10"/>
<path d="M670.498 400.858C667.498 403.328 661.998 399.078 659.798 401.408C658.688 402.568 658.798 404.968 659.798 405.758C661.228 406.908 663.668 404.008 666.508 404.848C669.558 405.758 669.238 409.848 671.588 410.478C675.058 411.388 682.378 404.158 680.478 399.048C679.348 396.048 675.058 393.928 673.038 395.048C671.018 396.168 672.538 399.158 670.498 400.858Z" stroke="white" stroke-miterlimit="10"/>
</g>
<defs>
<clipPath id="clip0_8_243">
<rect width="796.58" height="610.18" fill="white"/>
</clipPath>
</defs>
</svg>
