<svg width="1345" height="536" viewBox="0 0 1345 536" fill="none" xmlns="http://www.w3.org/2000/svg">
<g opacity="0.2" clip-path="url(#clip0_41_933)">
<path d="M66.976 448.916C78.0415 470.988 113.078 518.542 373.876 532.078C531.52 540.26 690.026 531.774 691.259 512.001C691.941 501.002 643.234 497.467 570.212 453.695C507.409 416.051 494.504 408.381 495.876 399.211C497.617 387.562 518.877 377.609 536.852 379.133C562.638 381.317 566.162 405.835 595.95 412.591C619.288 417.889 624.702 404.567 644.557 409.724C672.907 417.139 671.781 447.005 701.741 473.764C739.119 507.148 800.188 513.607 813.258 495.754C820.282 486.164 815.805 466.341 805.635 457.517C796.845 449.839 788.811 454.914 775.133 446.049C769.382 442.35 766.565 438.716 755.113 423.104C732.497 392.266 734.354 393.749 732.243 391.557C709.323 367.78 679.98 388.954 642.651 365.754C640.45 364.386 610.736 345.527 614.055 328.473C617.826 309.104 662.022 303.394 675.059 301.705C717.834 296.177 727.224 308.56 763.698 308.403C833.853 308.09 851.482 262.052 907.614 273.99C931.051 278.974 927.043 286.801 961.939 299.794C1001.73 314.624 1034.23 314.624 1082.99 314.137C1156.46 313.421 1193.2 313.058 1228.81 293.104C1266.2 272.153 1287.05 242.394 1295.53 230.019C1318.02 197.171 1324.98 167.495 1331.75 137.3C1343.18 86.2769 1354 37.9728 1328.89 13.9896C1313.64 -0.568326 1291.69 0.0743009 1257.4 1.56552C1210.27 3.60875 1182.86 15.0936 1143.03 26.4138C1097.61 39.3322 1050.87 52.6131 996.253 52.2259C928.891 51.7398 920.536 30.9698 855.195 35.9708C819.312 38.7225 788.038 41.12 757.98 61.7912C705.323 97.9842 718.015 147.829 671.247 169.802C642.249 183.429 612.396 175.997 572.118 165.979C522.558 153.621 501.043 136.542 453.939 112.427C359.541 64.164 292.45 29.8329 230.904 51.2702C193.313 64.3699 185.722 88.592 139.407 94.285C99.2359 99.2283 85.2952 83.3933 58.3997 95.2407C17.4484 113.267 6.48154 168.986 4.10743 181.254C2.25087 190.679 -9.85789 257.199 28.8918 295.954C39.9408 307.003 59.1308 319.806 140.401 322.722C252.304 326.735 357.488 307.53 396.788 340.848C399.408 343.072 406.884 349.416 405.364 354.236C402.571 363.15 370.985 360.645 327.216 356.147C256.124 348.831 218.935 343.023 171.856 339.892C91.8836 334.578 78.6905 343.328 71.7817 350.413C49.963 372.773 51.6635 418.432 66.976 448.916Z" stroke="white" stroke-width="2" stroke-linecap="round" stroke-linejoin="round" stroke-dasharray="0.1 8"/>
<path d="M906.283 463.4C894.158 471.235 867.164 491.626 871.617 502.18C874.779 509.677 892.154 508.211 911.615 507.527C973.982 505.352 964.683 514.546 1024.98 512.874C1067.34 511.704 1151.18 504.973 1151.65 492.82C1152.06 482.225 1089.64 454.452 1030.31 468.747C1003.12 475.338 976.044 490.818 960.978 478.106C951.12 469.818 954.488 456.306 943.645 451.363C932.637 446.362 918.655 455.4 906.283 463.4Z" stroke="white" stroke-width="2" stroke-linecap="round" stroke-linejoin="round" stroke-dasharray="0.1 8"/>
<path d="M1258.28 491.478C1250.36 496.792 1243.28 501.537 1243.61 507.527C1244.43 522.357 1290.48 544.503 1312.95 524.911C1325.1 514.316 1329.38 492.359 1320.95 482.118C1309.26 467.915 1275.9 479.672 1258.28 491.478Z" stroke="white" stroke-width="2" stroke-linecap="round" stroke-linejoin="round" stroke-dasharray="0.1 8"/>
<path d="M629.746 112.18C624.283 117.255 619.387 121.794 619.625 127.52C620.224 141.708 651.983 162.881 667.501 144.179C675.889 134.046 678.846 113.053 673.022 103.265C664.946 89.6466 641.92 100.893 629.746 112.18Z" stroke="white" stroke-width="2" stroke-linecap="round" stroke-linejoin="round" stroke-dasharray="0.1 8"/>
<path d="M499.301 121.605C498.422 123.071 499.991 125.897 502.053 127.125C505.027 128.896 509.586 127.685 510.063 125.873C510.539 124.06 506.875 120.995 503.31 120.6C502.751 120.542 500.123 120.287 499.301 121.605Z" stroke="white" stroke-width="2" stroke-linecap="round" stroke-linejoin="round" stroke-dasharray="0.1 8"/>
<path d="M524.8 131.549C523.979 134.021 525.457 138.684 527.437 140.727C530.296 143.668 534.666 141.658 535.118 138.643C535.57 135.627 532.07 130.536 528.645 129.876C528.103 129.769 525.589 129.283 524.8 131.549Z" stroke="white" stroke-width="2" stroke-linecap="round" stroke-linejoin="round" stroke-dasharray="0.1 8"/>
<path d="M184.285 118.639C144.385 148.941 112.544 134.598 73.7616 163.129C60.3384 173.015 37.616 186.815 41.6331 201.595C46.0856 218.073 54.1198 290.575 126.838 268.643C187.053 250.518 325.573 265.941 397.782 280.729C474.492 296.432 516.076 376.563 558.925 339.151C624.398 281.932 781.598 272.54 726.64 265.29C698.184 261.533 466.039 271.304 383.496 143.899C362.647 111.768 351.302 66.3885 311.525 57.3917C279.372 50.1004 239.423 68.9261 216.413 86.2275C196.697 101.033 202.735 104.682 184.285 118.639Z" stroke="white" stroke-miterlimit="10"/>
<path d="M809.413 236.882C796.089 241.002 779.413 244.841 777.835 254.365C776.948 259.646 780.924 265.504 785.459 268.56C798.857 277.623 819.279 263.51 838.856 256.548C874.566 243.819 894.93 259.308 942.322 264.194C984.662 268.552 1015.52 261.038 1065.39 248.903C1112.06 237.541 1168.02 223.914 1221.13 181.18C1256.72 152.533 1309.73 95.768 1295.18 66.4873C1287.88 51.781 1263.51 43.9706 1249.44 51.1961C1231.23 60.5553 1242.35 88.9462 1222.22 125.477C1218.21 132.752 1198.49 168.525 1166.67 174.622C1142.2 179.318 1132.88 162.173 1071.92 134.251C1004.76 103.447 983.019 109.107 976.077 111.315C958.004 117.082 944.861 129.868 931.429 142.993C907.68 166.152 913.052 172.99 894.396 191.05C864.519 219.902 817.809 234.295 809.413 236.882Z" stroke="white" stroke-miterlimit="10"/>
<path d="M140.705 365.803C117.309 369.239 92.9762 394.911 94.9642 416.06C99.1456 460.492 219.403 482.951 282.264 494.699C437.279 523.659 554.103 503.811 558.9 502.345C565.768 500.26 541.559 487.943 509.545 490.81C488.926 492.664 464.076 497.039 444.171 497.871C400.575 499.708 403.762 489.731 402.07 480.487C398.743 462.362 459.821 445.291 456.526 423.689C453.15 401.625 384.934 389.761 333.451 389.827C264.092 389.918 244.533 411.636 202.76 394.194C172.956 381.712 163.345 362.45 140.705 365.803Z" stroke="white" stroke-miterlimit="10"/>
<path d="M595.243 352.662C594.487 352.604 592.499 352.539 585.615 356.493C575.264 362.433 564.519 368.604 564.749 374.511C565.168 385.403 603.014 399.178 611.574 388.707C618.581 380.106 607.081 353.659 595.243 352.662Z" stroke="white" stroke-miterlimit="10"/>
<path d="M760.305 142.408C760.042 142.853 759.483 144.056 761.841 150.07C765.414 159.133 769.128 168.467 775.371 170.873C786.872 175.305 810.982 157.608 802.217 147.747C795.004 139.64 764.379 135.43 760.305 142.408Z" stroke="white" stroke-miterlimit="10"/>
<path d="M672.52 410.045C671.756 415.302 694.577 429.662 705.191 420.97C713.866 413.86 710.662 394.375 705.191 392.571C702.094 391.549 700.049 396.756 689.944 402.4C679.257 408.373 672.907 407.36 672.52 410.045Z" stroke="white" stroke-miterlimit="10"/>
<path d="M730.304 447.713C729.713 449.88 739.981 457.6 745.715 454.304C752.394 450.514 748.262 434.531 746.816 434.432C745.912 434.383 746.619 440.628 742.224 444.385C737.385 448.521 730.723 446.041 730.304 447.713Z" stroke="white" stroke-miterlimit="10"/>
<path d="M776.956 471.013C776.077 472.479 777.647 475.305 779.709 476.533C782.682 478.296 787.242 477.085 787.718 475.272C788.195 473.459 784.531 470.403 780.965 470.007C780.415 469.941 777.778 469.653 776.956 471.013Z" stroke="white" stroke-miterlimit="10"/>
<path d="M1284.19 507.807C1285.36 509.883 1289.61 511.514 1292.29 511.226C1296.16 510.798 1297.52 506.283 1295.69 504.182C1293.87 502.081 1288.08 501.71 1285.44 503.91C1285.03 504.256 1283.1 505.863 1284.19 507.807Z" stroke="white" stroke-miterlimit="10"/>
</g>
<defs>
<clipPath id="clip0_41_933">
<rect width="1345" height="536" fill="white"/>
</clipPath>
</defs>
</svg>
