<svg width="1424" height="1022" viewBox="0 0 1424 1022" fill="none" xmlns="http://www.w3.org/2000/svg">
<g opacity="0.4">
<path d="M768.821 114.416C754.691 155.399 767.615 192.402 788.856 255.32C823.468 357.879 840.781 409.427 841.036 422.813C841.953 469.604 828.59 492.722 837.185 558.054C839.651 576.724 842.097 595.29 850.401 618.339C873.811 683.195 921.486 722.12 934.5 732.168C941.058 737.235 1028.44 802.639 1135.12 781.489C1202.4 768.149 1240.57 727.675 1286.43 679.068C1333.99 628.637 1369.38 591.12 1376.23 531.419C1384.06 463.144 1350.27 403.277 1306.7 326.089C1285.46 288.461 1272.3 265.137 1246.43 238.392C1196.48 186.756 1167.4 192.931 1082.66 139.718C987.427 79.9144 989.46 50.3367 932.144 39.1164C924.521 37.6199 841.276 22.5539 793.047 73.7207C782.254 85.3975 774.02 99.229 768.821 114.416Z" fill="#F1EFDF"/>
<path opacity="0.4" d="M846.118 194.269C829.995 225.945 832.716 264.213 855.578 358.864C861.524 383.485 869.826 416.002 880.823 454.185C880.823 454.185 907.524 518.455 892.346 527.165C886.23 530.649 876.586 521.204 866.817 526.282C858.368 530.674 852.323 544.614 858.511 553.119C863.2 559.554 873.486 559.667 875.914 559.655C885.336 559.691 886.979 555.022 894.95 554.432C906.24 553.587 920.052 561.678 923.864 571.774C927.485 581.422 919.704 586.846 919.31 597.686C919.038 604.99 921.962 619.104 956.597 644.23C988.8 667.602 1019.38 689.787 1065.76 693.43C1118.39 697.565 1155.55 675.009 1175.27 663.039C1182.77 658.545 1188.4 654.477 1247.98 594.609C1302.98 539.398 1308.03 532.973 1311.84 519.572C1321.86 484.296 1314.04 433.278 1286.65 416.01C1274.66 408.429 1258.91 407.367 1256.92 398.047C1255.38 390.909 1263.77 387.621 1268.66 375.991C1276.61 357.109 1267 335.81 1265.02 331.728C1252.86 306.53 1223.34 297.682 1209.38 293.705C1130.85 271.389 1096.03 331.662 1047.24 312.02C984.487 286.75 998.163 169.479 936.168 153.585C917.08 148.664 886.913 152.32 865.836 169.251C861.163 173.011 853.153 180.451 846.118 194.269Z" fill="white"/>
<g opacity="0.5">
<path d="M955.529 123.012C1013.54 145.147 1066.89 179.032 1112.07 222.43C1126.28 236.102 1139.96 250.932 1157.28 260.184C1205.47 279.028 1248.27 288.534 1267.23 344.316C1274.57 366.224 1274.76 390.448 1285.95 410.645" stroke="#0A0A23" stroke-width="2" stroke-linecap="round" stroke-linejoin="round" stroke-dasharray="0.1 8"/>
<path d="M1288.94 421.132C1291.5 432.641 1297.8 443.641 1299.7 455.333C1303.04 475.145 1294.94 506.192 1302.46 525.052" stroke="#0A0A23" stroke-width="2" stroke-miterlimit="10" stroke-linecap="round" stroke-dasharray="0.1 8"/>
<path d="M1299.29 526.423C1298.41 526.734 1297.64 527.289 1297.08 528.027" stroke="#0A0A23" stroke-width="2" stroke-miterlimit="10" stroke-linecap="round" stroke-dasharray="0.1 8"/>
<path d="M1310.62 525.397C1310.75 525.532 1310.87 525.677 1310.98 525.831C1311.84 527.207 1311.39 528.053 1310.51 528.341" stroke="#0A0A23" stroke-width="2" stroke-miterlimit="10" stroke-linecap="round" stroke-dasharray="0.1 8"/>
<path d="M1303.13 521.612C1303.65 521.891 1304.23 522.007 1304.79 521.946C1305.54 521.853 1306.21 521.472 1306.66 520.883" stroke="#0A0A23" stroke-width="2" stroke-miterlimit="10" stroke-linecap="round" stroke-dasharray="0.1 8"/>
<path d="M1291.82 536.344C1284.17 545.381 1277.43 549.386 1273.55 564.952C1265.57 582.424 1243.98 588.471 1233.37 603.786" stroke="#0A0A23" stroke-width="2" stroke-miterlimit="10" stroke-linecap="round" stroke-dasharray="0.1 8"/>
<path d="M1226.75 610.059C1187.72 648.221 1146.14 688.105 1088.98 696.593C1077.8 698.542 1065.4 699.175 1055.13 693.903" stroke="#0A0A23" stroke-width="2" stroke-miterlimit="10" stroke-linecap="round" stroke-dasharray="0.1 8"/>
<path d="M1045.55 688.479C1033.78 682.619 1020.24 679.265 1007.58 679.794" stroke="#0A0A23" stroke-width="2" stroke-miterlimit="10" stroke-linecap="round" stroke-dasharray="0.1 8"/>
<path d="M999.663 673.854C991.576 666.042 978.086 664.624 968.86 658.414C963.856 655.027 959.541 650.033 953.718 648.805C919.017 649.307 904.415 607.851 891.49 581.199C888.011 571.746 881.817 562.624 879.98 552.874C880.49 548.955 885.551 547.604 889.505 548.512C900.195 550.963 906.337 562.34 910.934 572.401C923.128 598.281 930.253 627.292 963.153 632.155C975.179 635.506 987.983 637.088 999.199 643.047C1002 645.211 1007.43 647.193 1010.1 645.27" stroke="#0A0A23" stroke-width="2" stroke-miterlimit="10" stroke-linecap="round" stroke-dasharray="0.1 8"/>
<path d="M1016.13 644.223C1016.78 644.785 1017.35 645.426 1017.84 646.13" stroke="#0A0A23" stroke-width="2" stroke-miterlimit="10" stroke-linecap="round" stroke-dasharray="0.1 8"/>
<path d="M1022.28 653.235C1023.57 654.18 1024.67 655.362 1025.51 656.711L1037.83 661.816" stroke="#0A0A23" stroke-width="2" stroke-miterlimit="10" stroke-linecap="round" stroke-dasharray="0.1 8"/>
<path d="M1039.6 659.329L1038.83 657.382" stroke="#0A0A23" stroke-width="2" stroke-miterlimit="10" stroke-linecap="round" stroke-dasharray="0.1 8"/>
<path d="M1044.38 659.279C1068.8 672.83 1104.56 679.909 1121.9 656.84C1121.99 652.115 1126.15 648.285 1130.75 647.832" stroke="#0A0A23" stroke-width="2" stroke-miterlimit="10" stroke-linecap="round" stroke-dasharray="0.1 8"/>
<path d="M1138.7 649.224L1141.5 649.777" stroke="#0A0A23" stroke-width="2" stroke-miterlimit="10" stroke-linecap="round" stroke-dasharray="0.1 8"/>
<path d="M1143.61 646.464L1143.27 644.535" stroke="#0A0A23" stroke-width="2" stroke-miterlimit="10" stroke-linecap="round" stroke-dasharray="0.1 8"/>
<path d="M1148.79 639.798C1149.53 638.967 1150.09 637.995 1150.45 636.935" stroke="#0A0A23" stroke-width="2" stroke-miterlimit="10" stroke-linecap="round" stroke-dasharray="0.1 8"/>
<path d="M1157.1 634.366C1162.17 633.224 1166.47 628.191 1166.09 622.98" stroke="#0A0A23" stroke-width="2" stroke-miterlimit="10" stroke-linecap="round" stroke-dasharray="0.1 8"/>
<path d="M1171.34 618.647C1172.11 617.878 1172.66 616.909 1172.92 615.836" stroke="#0A0A23" stroke-width="2" stroke-miterlimit="10" stroke-linecap="round" stroke-dasharray="0.1 8"/>
<path d="M1180.41 612.472C1186.69 610.625 1191.79 604.837 1192.31 598.286" stroke="#0A0A23" stroke-width="2" stroke-miterlimit="10" stroke-linecap="round" stroke-dasharray="0.1 8"/>
<path d="M1194.42 597.286L1195.6 598.791" stroke="#0A0A23" stroke-width="2" stroke-miterlimit="10" stroke-linecap="round" stroke-dasharray="0.1 8"/>
<path d="M1199.85 595.168C1199.9 595.175 1199.96 595.175 1200.02 595.168L1231.05 564.211C1237.71 558.724 1244.72 547.323 1238.47 539.488" stroke="#0A0A23" stroke-width="2" stroke-miterlimit="10" stroke-linecap="round" stroke-dasharray="0.1 8"/>
<path d="M1242.94 536.164C1261.77 529.583 1254.52 489.383 1255.4 472.882C1259.08 443.613 1220.13 397.222 1230.77 398.107" stroke="#0A0A23" stroke-width="2" stroke-miterlimit="10" stroke-linecap="round" stroke-dasharray="0.1 8"/>
<path d="M1233.54 391.882L1232.64 382.793C1221.7 367.788 1205.51 361.886 1200 346.121C1196.29 341.029 1230.16 372.824 1227.58 364.857C1191.17 323.047 1147.59 287.978 1099.11 261.475C1087.17 254.952 1074.59 248.684 1065.77 238.269C1058.62 228.772 1048.57 212.095 1035.72 215.705" stroke="#0A0A23" stroke-width="2" stroke-miterlimit="10" stroke-linecap="round" stroke-dasharray="0.1 8"/>
<path d="M1033.41 212.63L1033.93 210.394" stroke="#0A0A23" stroke-width="2" stroke-miterlimit="10" stroke-linecap="round" stroke-dasharray="0.1 8"/>
<path d="M1039.29 209.556C1040.15 209.211 1040.87 208.606 1041.36 207.823" stroke="#0A0A23" stroke-width="2" stroke-miterlimit="10" stroke-linecap="round" stroke-dasharray="0.1 8"/>
<path d="M1034.17 205.994C1025.33 205.319 1016.36 199.069 1008.46 193.642C973.909 170.061 931.312 157.969 891.266 163.5C885.294 164.534 887.147 167.597 889.734 170.086C892.32 172.576 900.929 167.695 898.866 170.377C896.803 173.059 893.164 178.084 890.382 175.816C876.419 164.399 872.995 179.891 865.096 186.382" stroke="#0A0A23" stroke-width="2" stroke-miterlimit="10" stroke-linecap="round" stroke-dasharray="0.1 8"/>
<path d="M865.714 181.559C868.223 178.72 871.154 175.224 872.186 171.316" stroke="#0A0A23" stroke-width="2" stroke-miterlimit="10" stroke-linecap="round" stroke-dasharray="0.1 8"/>
<path d="M866.447 171.05C847.176 184.812 846.085 201.859 844.094 218.966C842.414 233.402 846.295 248.157 849.927 262.568C870.206 343.16 883.532 424.946 889.757 507.007C893.793 526.233 873.841 536.416 870.881 516.155C857.521 430.313 845.687 344.409 821.621 260.119C787.522 151.659 836.628 91.3927 947.767 120.21" stroke="#0A0A23" stroke-width="2" stroke-miterlimit="10" stroke-linecap="round" stroke-dasharray="0.1 8"/>
<path d="M911.437 511.315C914.514 511.912 917.62 513.958 920.274 515.739C922.532 516.78 925.722 516.578 926.615 514.34C928.226 510.327 916.205 499.484 912.416 498.316C905.931 497.434 903.668 503.899 904.249 509.59" stroke="#0A0A23" stroke-width="2" stroke-miterlimit="10" stroke-linecap="round" stroke-dasharray="0.1 8"/>
<path d="M902.961 524.327C898.945 524.011 894.836 525.912 894.959 530.083C898.14 533.78 904.191 540.231 909.025 540.838C916.086 539.405 913.813 531.365 908.898 527.744" stroke="#0A0A23" stroke-width="2" stroke-miterlimit="10" stroke-linecap="round" stroke-dasharray="0.1 8"/>
<path d="M926.548 569.454C924.952 571.472 927.16 575.223 929.8 574.957C930.443 574.858 931.031 574.567 931.487 574.123C931.944 573.678 932.249 573.1 932.362 572.462" stroke="#0A0A23" stroke-width="2" stroke-miterlimit="10" stroke-linecap="round" stroke-dasharray="0.1 8"/>
<path d="M929.698 598.617C929.731 599.256 929.937 599.884 930.294 600.435C930.651 600.985 931.145 601.438 931.724 601.744" stroke="#0A0A23" stroke-width="2" stroke-miterlimit="10" stroke-linecap="round" stroke-dasharray="0.1 8"/>
<path d="M957.065 616.749C957.404 617.321 957.879 617.806 958.445 618.159C959.011 618.512 959.649 618.722 960.299 618.769" stroke="#0A0A23" stroke-width="2" stroke-miterlimit="10" stroke-linecap="round" stroke-dasharray="0.1 8"/>
<path d="M967.839 620.064C967.537 619.869 967.183 619.775 966.835 619.799C966.486 619.822 966.162 619.96 965.913 620.192C964.685 622.469 968.422 625.365 970.276 626.615C970.689 626.883 971.149 627.064 971.626 627.147C972.103 627.23 972.587 627.213 973.045 627.097C973.504 626.98 973.927 626.768 974.287 626.472C974.647 626.177 974.936 625.805 975.135 625.382" stroke="#0A0A23" stroke-width="2" stroke-miterlimit="10" stroke-linecap="round" stroke-dasharray="0.1 8"/>
<path d="M977.689 625.734C977.986 626.318 978.444 626.812 979.007 627.153C979.57 627.494 980.212 627.667 980.853 627.65C984.024 627.565 985.024 624.411 984.009 621.963" stroke="#0A0A23" stroke-width="2" stroke-miterlimit="10" stroke-linecap="round" stroke-dasharray="0.1 8"/>
<path d="M1042.94 641.582C1042.92 641.63 1042.91 641.68 1042.9 641.731C1042.73 646.17 1048.11 647.067 1048.61 643.811" stroke="#0A0A23" stroke-width="2" stroke-miterlimit="10" stroke-linecap="round" stroke-dasharray="0.1 8"/>
<path d="M1027.28 647.466C1027.93 647.841 1028.65 648.062 1029.38 648.11C1030.11 648.158 1030.83 648.032 1031.49 647.742" stroke="#0A0A23" stroke-width="2" stroke-miterlimit="10" stroke-linecap="round" stroke-dasharray="0.1 8"/>
<path d="M1055.79 566.642C1053.1 568.598 1052.28 573.148 1056.54 575.79C1062.52 578.642 1066.34 571.946 1063.45 567.787" stroke="#0A0A23" stroke-width="2" stroke-miterlimit="10" stroke-linecap="round" stroke-dasharray="0.1 8"/>
<path d="M1094.56 536.642C1082.29 540.302 1092.97 558.141 1102.87 541.717C1106.25 534.782 1110.51 525.896 1106.92 518.035C1103.99 512.48 1095.65 510.582 1091.09 514.439C1087.71 516.877 1089.54 521.324 1093.74 521.302C1100.78 520.629 1102.59 526.226 1100.78 531.215" stroke="#0A0A23" stroke-width="2" stroke-miterlimit="10" stroke-linecap="round" stroke-dasharray="0.1 8"/>
<path d="M1039.46 366.719C1042.3 370.612 1048.55 373.638 1049.52 378.282C1050.06 380.75 1048.71 383.645 1046.24 383.911C1041.26 383.253 1035.61 379.237 1033.17 374.843C1031.57 371.397 1032.23 367.405 1030.88 363.873C1028.79 359.031 1021.17 352.212 1026.68 347.677C1032.83 345.148 1035.58 351.796 1036.97 357.335" stroke="#0A0A23" stroke-width="2" stroke-miterlimit="10" stroke-linecap="round" stroke-dasharray="0.1 8"/>
<path d="M1081.03 366.922C1077.29 369.706 1077.31 377.367 1083.49 380.147C1095.49 384.148 1095.86 372.899 1089 366.735" stroke="#0A0A23" stroke-width="2" stroke-miterlimit="10" stroke-linecap="round" stroke-dasharray="0.1 8"/>
<path d="M1107.91 399.26C1107.27 397.629 1106.05 396.264 1104.49 395.441C1101.32 392.563 1096.97 394.223 1099.44 398.422C1103.27 402.195 1103.11 406.77 1100.68 411.181C1097.24 416.602 1100.96 425.295 1107.71 421.049C1113.46 415.792 1104.97 411.301 1103.89 406.814" stroke="#0A0A23" stroke-width="2" stroke-miterlimit="10" stroke-linecap="round" stroke-dasharray="0.1 8"/>
<path d="M1131.13 413.158C1134.56 412.362 1138.23 412.778 1141.52 414.337" stroke="#0A0A23" stroke-width="2" stroke-miterlimit="10" stroke-linecap="round" stroke-dasharray="0.1 8"/>
<path d="M1138.94 419.495C1136.74 420.183 1134.38 420.383 1132.03 420.081C1129.68 419.779 1127.4 418.983 1125.33 417.746C1124.52 417.238 1123.83 416.56 1123.3 415.762" stroke="#0A0A23" stroke-width="2" stroke-miterlimit="10" stroke-linecap="round" stroke-dasharray="0.1 8"/>
<path d="M1143.12 436.329C1157.58 432.819 1165.45 451.633 1143.7 450.929C1141.76 451.206 1138.42 449.81 1139.66 447.507C1140.42 446.505 1142.11 446.995 1143.25 446.459C1147.41 441.797 1140.49 439.448 1135.44 437.906" stroke="#0A0A23" stroke-width="2" stroke-miterlimit="10" stroke-linecap="round" stroke-dasharray="0.1 8"/>
<path d="M1109.24 436.589C1110.07 438.251 1112.18 439.344 1114.32 437.363C1114.61 436.96 1114.79 436.483 1114.83 435.977C1114.88 435.472 1114.8 434.956 1114.59 434.478" stroke="#0A0A23" stroke-width="2" stroke-miterlimit="10" stroke-linecap="round" stroke-dasharray="0.1 8"/>
<path d="M1077.17 447.924C1075 448.228 1073.16 450.117 1074.39 453.298C1076.95 457.379 1081.43 456.141 1084.63 453.677" stroke="#0A0A23" stroke-width="2" stroke-miterlimit="10" stroke-linecap="round" stroke-dasharray="0.1 8"/>
<path d="M1101.49 485.2C1098.44 484.934 1095.12 487.534 1096.96 491.78C1099.7 496.881 1106.29 494.754 1107.08 490.398" stroke="#0A0A23" stroke-width="2" stroke-miterlimit="10" stroke-linecap="round" stroke-dasharray="0.1 8"/>
<path d="M1028.18 307.073C1024.15 301.162 1015 297.707 1014.29 306.52C1015.01 309.423 1018.75 310.708 1019.98 313.48C1021.13 320.748 1026.39 319.716 1028.4 315.345" stroke="#0A0A23" stroke-width="2" stroke-miterlimit="10" stroke-linecap="round" stroke-dasharray="0.1 8"/>
<path d="M1042.53 311.836C1042.09 312.326 1041.82 312.952 1041.76 313.625C1041.71 314.298 1041.87 314.984 1042.22 315.586C1044.24 318.713 1047.79 317.425 1048.72 315.012" stroke="#0A0A23" stroke-width="2" stroke-miterlimit="10" stroke-linecap="round" stroke-dasharray="0.1 8"/>
<path d="M1073.81 322.265C1073.44 323.136 1073.59 324.234 1074.68 325.811C1078.44 328.382 1083.55 323.282 1085.47 320.301C1087.87 315.89 1083.49 312.495 1080.66 313.834" stroke="#0A0A23" stroke-width="2" stroke-miterlimit="10" stroke-linecap="round" stroke-dasharray="0.1 8"/>
<path d="M929.176 248.584C929.177 248.198 929.14 247.811 929.066 247.427C928.419 243.965 925.742 240.632 922.252 240.087C918.762 239.543 915.168 242.527 915.807 245.97C916.216 248.191 918.116 250.097 918.128 252.326C918.14 254.555 916.117 256.405 915.918 258.693C917.237 266.657 925.94 264.622 927.683 258.711" stroke="#0A0A23" stroke-width="2" stroke-miterlimit="10" stroke-linecap="round" stroke-dasharray="0.1 8"/>
<path d="M910.509 240.641C910.836 240.763 911.18 240.824 911.522 240.82C912.102 240.353 912.476 239.679 912.572 238.927" stroke="#0A0A23" stroke-width="2" stroke-miterlimit="10" stroke-linecap="round" stroke-dasharray="0.1 8"/>
<path d="M910.328 246.853C910.436 246.828 910.537 246.781 910.625 246.716C910.973 246.451 911.221 246.078 911.335 245.651C911.449 245.224 911.424 244.764 911.261 244.336" stroke="#0A0A23" stroke-width="2" stroke-miterlimit="10" stroke-linecap="round" stroke-dasharray="0.1 8"/>
<path d="M896.903 240.867C893.396 241.642 890.04 245.217 894.228 250.815C898.352 255.777 905.141 252.226 904.14 247.868" stroke="#0A0A23" stroke-width="2" stroke-miterlimit="10" stroke-linecap="round" stroke-dasharray="0.1 8"/>
<path d="M880.209 242.972C874.941 244.764 873.071 238.537 875.874 236.451" stroke="#0A0A23" stroke-width="2" stroke-miterlimit="10" stroke-linecap="round" stroke-dasharray="0.1 8"/>
<path d="M913.016 273.145C913.697 278.329 914.952 285.792 911.895 288.509C910.205 292.301 914.897 294.084 916.478 292.358" stroke="#0A0A23" stroke-width="2" stroke-miterlimit="10" stroke-linecap="round" stroke-dasharray="0.1 8"/>
<path d="M922.044 289.032C921.165 287.643 918.351 285.271 918.029 284.479C916.099 279.617 916.594 276.197 915.677 271.93" stroke="#0A0A23" stroke-width="2" stroke-miterlimit="10" stroke-linecap="round" stroke-dasharray="0.1 8"/>
<path d="M939.052 318.806C939.043 320.401 939.67 321.972 940.796 323.175C950.237 330.899 954.416 319.446 946.647 315.461" stroke="#0A0A23" stroke-width="2" stroke-miterlimit="10" stroke-linecap="round" stroke-dasharray="0.1 8"/>
<path d="M962.027 308.765C962.299 309.506 962.83 310.136 963.518 310.536C964.207 310.936 965.004 311.078 965.759 310.934C967.81 310.617 969.067 308.379 968.834 306.274L968.781 305.943" stroke="#0A0A23" stroke-width="2" stroke-miterlimit="10" stroke-linecap="round" stroke-dasharray="0.1 8"/>
<path d="M969.492 290.033C969.588 290.61 969.821 291.162 970.171 291.644C970.521 292.127 970.978 292.524 971.503 292.804C972.131 293.152 972.839 293.31 973.534 293.256C974.23 293.202 974.88 292.939 975.401 292.501C975.921 292.063 976.288 291.471 976.452 290.802C976.616 290.133 976.571 289.418 976.321 288.751" stroke="#0A0A23" stroke-width="2" stroke-miterlimit="10" stroke-linecap="round" stroke-dasharray="0.1 8"/>
<path d="M939.963 219.298C939.097 219.08 938.2 219.139 937.401 219.466C931.489 223.938 939.868 233.347 944.501 236.3C945.801 236.906 947.19 237.267 948.595 237.362" stroke="#0A0A23" stroke-width="2" stroke-miterlimit="10" stroke-linecap="round" stroke-dasharray="0.1 8"/>
<path d="M951.949 230.856C951.783 228.556 951.298 226.374 949.391 224.78C948.507 224.085 947.405 223.744 946.319 223.832" stroke="#0A0A23" stroke-width="2" stroke-miterlimit="10" stroke-linecap="round" stroke-dasharray="0.1 8"/>
<path d="M948.823 199.842C949.721 200.892 950.955 201.602 952.292 201.838C953.63 202.075 954.979 201.821 956.088 201.125C959.254 199.177 961.622 196.201 962.825 192.662C964.144 187.174 958.054 185.083 953.942 187.594C951.644 188.658 949.066 189.938 946.554 189.099C944.952 188.563 943.119 187.222 941.859 188.22C940.847 189.034 941.349 190.865 942.489 191.617C944.945 193.151 947.719 191.234 950.3 191.599C950.643 191.592 950.988 191.654 951.315 191.782C951.641 191.91 951.942 192.1 952.2 192.342C952.458 192.584 952.667 192.873 952.815 193.19C952.963 193.508 953.047 193.849 953.062 194.192" stroke="#0A0A23" stroke-width="2" stroke-miterlimit="10" stroke-linecap="round" stroke-dasharray="0.1 8"/>
<path d="M877.969 183.324C877.365 184.729 877.001 186.458 877.505 186.919" stroke="#0A0A23" stroke-width="2" stroke-miterlimit="10" stroke-linecap="round" stroke-dasharray="0.1 8"/>
<path d="M870.393 193.082C870.788 193.177 871.194 193.186 871.583 193.109C871.972 193.032 872.334 192.87 872.645 192.635C872.942 192.368 873.152 192.018 873.254 191.626" stroke="#0A0A23" stroke-width="2" stroke-miterlimit="10" stroke-linecap="round" stroke-dasharray="0.1 8"/>
<path d="M868.519 200.793C868.896 200.381 869.133 199.859 869.201 199.294C869.269 198.728 869.164 198.146 868.899 197.621" stroke="#0A0A23" stroke-width="2" stroke-miterlimit="10" stroke-linecap="round" stroke-dasharray="0.1 8"/>
<path d="M860.101 204.945C860.321 205.12 860.581 205.233 860.854 205.272C861.126 205.312 861.4 205.276 861.644 205.169C861.848 205.079 862.026 204.945 862.169 204.776C862.311 204.608 862.414 204.409 862.47 204.193" stroke="#0A0A23" stroke-width="2" stroke-miterlimit="10" stroke-linecap="round" stroke-dasharray="0.1 8"/>
<path d="M850.946 237.197C851.627 237.26 852.306 237.19 852.945 236.991C853.38 236.74 853.691 236.325 853.812 235.832" stroke="#0A0A23" stroke-width="2" stroke-miterlimit="10" stroke-linecap="round" stroke-dasharray="0.1 8"/>
<path d="M880.899 294.695C880.792 294.888 880.71 295.096 880.657 295.313C880.672 295.516 880.734 295.716 880.839 295.897C880.944 296.077 881.088 296.233 881.261 296.352C881.433 296.471 881.629 296.549 881.832 296.582C882.035 296.614 882.24 296.598 882.431 296.537" stroke="#0A0A23" stroke-width="2" stroke-miterlimit="10" stroke-linecap="round" stroke-dasharray="0.1 8"/>
<path d="M888.638 295.197C888.533 294.425 888.148 293.702 887.557 293.166" stroke="#0A0A23" stroke-width="2" stroke-miterlimit="10" stroke-linecap="round" stroke-dasharray="0.1 8"/>
<path d="M873.735 319.651C873.48 320.095 873.314 320.587 873.244 321.102C874.436 323.25 878.676 321.888 879.634 319.982" stroke="#0A0A23" stroke-width="2" stroke-miterlimit="10" stroke-linecap="round" stroke-dasharray="0.1 8"/>
<path d="M917.323 302.169C918.201 303.226 919.101 304.205 919.58 304.912C919.815 304.99 920.06 305.022 920.302 305.006C920.543 304.99 920.776 304.926 920.988 304.818C921.199 304.71 921.384 304.56 921.533 304.377C921.681 304.193 921.79 303.98 921.853 303.75C922.503 301.591 919.912 299.992 919.706 297.998C919.843 297.672 919.901 297.315 919.876 296.954C919.851 296.593 919.743 296.238 919.56 295.916C919.377 295.594 919.125 295.314 918.823 295.098C918.52 294.882 918.176 294.735 917.817 294.669" stroke="#0A0A23" stroke-width="2" stroke-miterlimit="10" stroke-linecap="round" stroke-dasharray="0.1 8"/>
<path d="M918.4 355.113C918.402 355.381 918.463 355.648 918.578 355.896C918.693 356.145 918.86 356.368 919.067 356.551C919.275 356.734 919.517 356.872 919.777 356.955C920.037 357.038 920.309 357.064 920.574 357.031" stroke="#0A0A23" stroke-width="2" stroke-miterlimit="10" stroke-linecap="round" stroke-dasharray="0.1 8"/>
<path d="M926.082 352.769C925.948 351.528 926.811 350.083 925.498 349.476C924.347 348.75 919.405 346.072 921.137 349.278" stroke="#0A0A23" stroke-width="2" stroke-miterlimit="10" stroke-linecap="round" stroke-dasharray="0.1 8"/>
<path d="M999.537 193.532C999.739 193.693 999.975 193.803 1000.22 193.855C1000.47 193.906 1000.73 193.896 1000.96 193.826C1001.2 193.757 1001.42 193.629 1001.59 193.454C1001.76 193.28 1001.88 193.063 1001.94 192.825" stroke="#0A0A23" stroke-width="2" stroke-miterlimit="10" stroke-linecap="round" stroke-dasharray="0.1 8"/>
<path d="M1004.19 197.57L1004.39 197.615C1004.64 197.616 1004.87 197.563 1005.09 197.46C1005.3 197.356 1005.49 197.205 1005.63 197.017C1005.77 196.829 1005.87 196.61 1005.91 196.374C1005.96 196.138 1005.95 195.893 1005.88 195.655" stroke="#0A0A23" stroke-width="2" stroke-miterlimit="10" stroke-linecap="round" stroke-dasharray="0.1 8"/>
<path d="M1009.04 202.075C1009.37 202.192 1009.73 202.218 1010.06 202.15C1010.37 202.124 1010.66 201.995 1010.88 201.783C1011.1 201.571 1011.24 201.288 1011.28 200.978" stroke="#0A0A23" stroke-width="2" stroke-miterlimit="10" stroke-linecap="round" stroke-dasharray="0.1 8"/>
<path d="M1010.39 220.559L1010.7 220.565C1010.96 220.554 1011.22 220.488 1011.45 220.37C1011.67 220.251 1011.87 220.084 1012.02 219.879C1012.18 219.675 1012.28 219.437 1012.33 219.182C1012.38 218.928 1012.38 218.662 1012.31 218.404" stroke="#0A0A23" stroke-width="2" stroke-miterlimit="10" stroke-linecap="round" stroke-dasharray="0.1 8"/>
<path d="M1021.45 229.001C1021.61 229.4 1021.85 229.766 1022.16 230.073C1022.47 230.38 1022.84 230.62 1023.24 230.777" stroke="#0A0A23" stroke-width="2" stroke-miterlimit="10" stroke-linecap="round" stroke-dasharray="0.1 8"/>
<path d="M1038.8 238.89C1039.01 239.209 1039.28 239.485 1039.59 239.701C1039.91 239.916 1040.26 240.067 1040.63 240.143C1041 240.219 1041.38 240.219 1041.74 240.143C1042.1 240.066 1042.43 239.915 1042.72 239.699" stroke="#0A0A23" stroke-width="2" stroke-miterlimit="10" stroke-linecap="round" stroke-dasharray="0.1 8"/>
<path d="M1051.57 241.732C1051.86 241.816 1052.15 241.841 1052.44 241.805C1052.73 241.769 1053.01 241.673 1053.25 241.523C1053.49 241.374 1053.7 241.174 1053.85 240.936C1054.01 240.698 1054.11 240.427 1054.16 240.141" stroke="#0A0A23" stroke-width="2" stroke-miterlimit="10" stroke-linecap="round" stroke-dasharray="0.1 8"/>
<path d="M1073.29 259.292C1073.88 259.277 1074.43 259.061 1074.85 258.68C1075.28 258.299 1075.55 257.777 1075.62 257.201" stroke="#0A0A23" stroke-width="2" stroke-miterlimit="10" stroke-linecap="round" stroke-dasharray="0.1 8"/>
<path d="M1105.86 288.641C1106.02 288.907 1106.23 289.137 1106.49 289.312C1106.75 289.486 1107.04 289.601 1107.34 289.646C1107.64 289.692 1107.95 289.667 1108.23 289.573C1108.51 289.48 1108.76 289.321 1108.97 289.108" stroke="#0A0A23" stroke-width="2" stroke-miterlimit="10" stroke-linecap="round" stroke-dasharray="0.1 8"/>
<path d="M1118.11 288.996C1118.29 289.773 1118.74 290.476 1119.38 290.969" stroke="#0A0A23" stroke-width="2" stroke-miterlimit="10" stroke-linecap="round" stroke-dasharray="0.1 8"/>
<path d="M1139.22 295.459C1139.6 295.989 1140.14 296.387 1140.76 296.592C1141.08 296.75 1141.43 296.817 1141.77 296.787C1142.11 296.756 1142.44 296.628 1142.7 296.419" stroke="#0A0A23" stroke-width="2" stroke-miterlimit="10" stroke-linecap="round" stroke-dasharray="0.1 8"/>
<path d="M1145.74 305.327C1145.93 305.39 1146.12 305.427 1146.32 305.436C1148.08 304.939 1148.14 303.691 1147.48 302.536" stroke="#0A0A23" stroke-width="2" stroke-miterlimit="10" stroke-linecap="round" stroke-dasharray="0.1 8"/>
<path d="M1128.3 320.014C1128.6 320.166 1128.93 320.257 1129.26 320.279C1129.59 320.302 1129.92 320.257 1130.22 320.146C1130.58 319.973 1130.87 319.7 1131.07 319.36C1131.27 319.02 1131.37 318.625 1131.35 318.22" stroke="#0A0A23" stroke-width="2" stroke-miterlimit="10" stroke-linecap="round" stroke-dasharray="0.1 8"/>
<path d="M1153.11 311.984C1153.29 312.192 1153.51 312.36 1153.76 312.474C1154 312.588 1154.27 312.646 1154.54 312.642C1154.81 312.638 1155.06 312.573 1155.3 312.453C1155.53 312.332 1155.72 312.158 1155.87 311.945" stroke="#0A0A23" stroke-width="2" stroke-miterlimit="10" stroke-linecap="round" stroke-dasharray="0.1 8"/>
<path d="M1164.36 319.353C1164.64 319.494 1164.93 319.569 1165.23 319.571C1165.53 319.573 1165.83 319.501 1166.08 319.363C1166.34 319.225 1166.56 319.024 1166.71 318.777C1166.87 318.531 1166.96 318.247 1166.98 317.95" stroke="#0A0A23" stroke-width="2" stroke-miterlimit="10" stroke-linecap="round" stroke-dasharray="0.1 8"/>
<path d="M1175.17 327.139C1175.34 327.377 1175.56 327.58 1175.8 327.733C1176.05 327.886 1176.33 327.985 1176.61 328.024C1176.89 328.063 1177.18 328.041 1177.45 327.958C1177.71 327.876 1177.95 327.736 1178.16 327.548" stroke="#0A0A23" stroke-width="2" stroke-miterlimit="10" stroke-linecap="round" stroke-dasharray="0.1 8"/>
<path d="M1175.01 391.99C1175.28 392.748 1175.8 393.402 1176.49 393.839C1177.17 394.276 1177.98 394.467 1178.76 394.38C1181.79 394.022 1181 392.464 1179.82 390.816" stroke="#0A0A23" stroke-width="2" stroke-miterlimit="10" stroke-linecap="round" stroke-dasharray="0.1 8"/>
<path d="M1218.84 391.214C1219.11 391.97 1219.64 392.623 1220.32 393.06C1221 393.497 1221.81 393.689 1222.59 393.603C1225.63 393.245 1224.83 391.687 1223.65 390.039" stroke="#0A0A23" stroke-width="2" stroke-miterlimit="10" stroke-linecap="round" stroke-dasharray="0.1 8"/>
<path d="M1142.32 362.609C1142.33 363.061 1142.44 363.511 1142.62 363.934C1146.64 368.149 1151.99 366.187 1148.62 362.4" stroke="#0A0A23" stroke-width="2" stroke-miterlimit="10" stroke-linecap="round" stroke-dasharray="0.1 8"/>
<path d="M1137.18 387.457C1137.21 387.792 1137.31 388.121 1137.48 388.424C1137.64 388.727 1137.86 388.998 1138.12 389.223C1139.5 390.519 1142.32 390.448 1143.07 388.691C1143.14 388.368 1143.12 388.027 1143 387.705C1142.89 387.384 1142.69 387.094 1142.43 386.867" stroke="#0A0A23" stroke-width="2" stroke-miterlimit="10" stroke-linecap="round" stroke-dasharray="0.1 8"/>
<path d="M1188.68 442.937C1186.4 442.019 1183.72 442.493 1183.87 445.989C1184.81 447.853 1185.06 449.958 1184.56 451.907C1184.29 455.534 1189.47 457.744 1191.23 454.491C1191.64 453.192 1191.82 451.817 1191.75 450.428" stroke="#0A0A23" stroke-width="2" stroke-miterlimit="10" stroke-linecap="round" stroke-dasharray="0.1 8"/>
<path d="M1191.52 342.099C1191.89 342.611 1192.36 343.051 1192.9 343.395C1193.28 343.599 1193.72 343.687 1194.14 343.649C1194.56 343.611 1194.96 343.449 1195.28 343.182" stroke="#0A0A23" stroke-width="2" stroke-miterlimit="10" stroke-linecap="round" stroke-dasharray="0.1 8"/>
<path d="M1182.37 338.338C1183.05 339.165 1184.01 339.726 1185.05 339.911C1185.17 339.84 1185.28 339.743 1185.37 339.625C1185.45 339.507 1185.51 339.372 1185.53 339.227" stroke="#0A0A23" stroke-width="2" stroke-miterlimit="10" stroke-linecap="round" stroke-dasharray="0.1 8"/>
<path d="M1101.41 272.555C1097.14 274.248 1103.27 281.161 1107.14 275.323" stroke="#0A0A23" stroke-width="2" stroke-miterlimit="10" stroke-linecap="round" stroke-dasharray="0.1 8"/>
<path d="M1215.35 474.638C1216.25 475.767 1218.04 475.756 1219.25 475.162" stroke="#0A0A23" stroke-width="2" stroke-miterlimit="10" stroke-linecap="round" stroke-dasharray="0.1 8"/>
<path d="M1242.41 448.681C1241.69 448.702 1240.91 448.762 1240.2 448.751" stroke="#0A0A23" stroke-width="2" stroke-miterlimit="10" stroke-linecap="round" stroke-dasharray="0.1 8"/>
<path d="M1241.01 452.973C1241.24 453.055 1241.47 453.109 1241.71 453.134C1242.21 453.276 1242.74 453.293 1243.24 453.184C1243.74 453.075 1244.19 452.843 1244.57 452.51" stroke="#0A0A23" stroke-width="2" stroke-miterlimit="10" stroke-linecap="round" stroke-dasharray="0.1 8"/>
<path d="M1240.39 489.468C1241.98 488.515 1241.81 487.132 1240.84 486.218" stroke="#0A0A23" stroke-width="2" stroke-miterlimit="10" stroke-linecap="round" stroke-dasharray="0.1 8"/>
<path d="M1238.16 496.79C1238.44 496.623 1238.68 496.4 1238.87 496.134C1239.05 495.868 1239.18 495.564 1239.24 495.241C1239.22 494.774 1239.03 494.32 1238.71 493.962" stroke="#0A0A23" stroke-width="2" stroke-miterlimit="10" stroke-linecap="round" stroke-dasharray="0.1 8"/>
<path d="M1228.99 496.18C1229.35 496.522 1229.81 496.742 1230.29 496.808C1230.77 496.874 1231.25 496.781 1231.65 496.545" stroke="#0A0A23" stroke-width="2" stroke-miterlimit="10" stroke-linecap="round" stroke-dasharray="0.1 8"/>
<path d="M1164.16 496.148C1164.34 496.222 1164.52 496.282 1164.71 496.328C1165.03 496.427 1165.36 496.459 1165.68 496.424C1166.01 496.389 1166.32 496.287 1166.59 496.123C1166.87 495.96 1167.1 495.74 1167.28 495.477C1167.46 495.214 1167.58 494.913 1167.64 494.593" stroke="#0A0A23" stroke-width="2" stroke-miterlimit="10" stroke-linecap="round" stroke-dasharray="0.1 8"/>
<path d="M951.87 509.464C951.301 513.364 960.09 514.546 963.213 515.37C965.579 515.963 964.686 513.801 963.444 512.868C962.15 511.175 963.758 507.968 961.501 506.829C960.805 506.519 959.944 506.703 959.336 506.23C959.11 506.026 958.944 505.765 958.86 505.477" stroke="#0A0A23" stroke-width="2" stroke-miterlimit="10" stroke-linecap="round" stroke-dasharray="0.1 8"/>
<path d="M968.306 522.149C968.6 521.944 968.843 521.677 969.022 521.366C969.2 521.055 969.31 520.707 969.343 520.343C969.377 519.98 969.334 519.609 969.217 519.254C969.1 518.899 968.911 518.568 968.663 518.282" stroke="#0A0A23" stroke-width="2" stroke-miterlimit="10" stroke-linecap="round" stroke-dasharray="0.1 8"/>
<path d="M975.163 513.296C975.559 513.35 975.956 513.303 976.318 513.16C976.679 513.017 976.993 512.783 977.229 512.479C977.383 512.186 977.45 511.851 977.423 511.511C977.395 511.172 977.274 510.841 977.073 510.556" stroke="#0A0A23" stroke-width="2" stroke-miterlimit="10" stroke-linecap="round" stroke-dasharray="0.1 8"/>
<path d="M1118.77 641.186C1119.08 642.875 1120.71 644.541 1123.85 643.774C1124.28 643.607 1124.65 643.337 1124.94 642.987C1125.23 642.637 1125.43 642.217 1125.52 641.764C1125.6 641.31 1125.58 640.835 1125.44 640.38C1125.3 639.926 1125.06 639.504 1124.73 639.152" stroke="#0A0A23" stroke-width="2" stroke-miterlimit="10" stroke-linecap="round" stroke-dasharray="0.1 8"/>
</g>
<path d="M924.497 616.252C923.773 615.709 922.922 615.373 922.042 615.283C921.825 615.269 921.61 615.298 921.41 615.368C921.209 615.438 921.027 615.548 920.874 615.692C920.721 615.836 920.6 616.01 920.518 616.205C920.436 616.4 920.395 616.611 920.398 616.827C920.514 617.179 920.71 617.503 920.971 617.773C921.232 618.044 921.55 618.252 921.899 618.383C923.117 619.039 924.37 619.622 925.651 620.129C926.245 620.368 927.087 620.509 927.346 619.956C927.402 619.767 927.41 619.565 927.37 619.367C927.329 619.169 927.241 618.981 927.114 618.819C926.532 617.942 925.781 617.184 924.908 616.592C924.035 616 923.059 615.587 922.041 615.38" stroke="#0A0A23" stroke-miterlimit="10" stroke-linecap="round"/>
<path d="M950.343 633.374C948.71 633.813 946.969 632.816 945.346 632.248C943.723 631.68 941.434 631.711 940.866 633.298C940.494 634.345 941.087 635.526 941.77 636.486C943.187 638.455 945.047 640.075 947.188 641.204C947.896 641.621 948.691 641.852 949.494 641.875C949.894 641.876 950.278 641.754 950.593 641.526C950.907 641.297 951.137 640.973 951.252 640.597C951.384 639.986 951.111 639.24 951.571 638.777C952.42 637.872 953.998 639.831 955.179 639.445C955.44 639.32 955.649 639.112 955.774 638.852C955.899 638.591 955.933 638.293 955.872 638C955.727 637.42 955.458 636.871 955.084 636.391C954.268 635.171 954.453 633.825 953.284 632.925C952.116 632.024 951.69 632.935 950.357 633.386" stroke="#0A0A23" stroke-miterlimit="10" stroke-linecap="round"/>
<path d="M965.63 637.127C964.737 636.693 963.854 637.787 963.823 638.775C963.792 639.763 964.123 640.821 963.694 641.68C963.508 642.057 963.201 642.357 963.042 642.734C962.914 643.171 962.924 643.643 963.07 644.09C963.215 644.537 963.49 644.938 963.858 645.24C964.728 645.953 965.822 646.319 966.91 646.261C967.999 646.202 968.998 645.725 969.699 644.928C970.35 644.087 970.706 643.047 970.715 641.956C970.725 640.865 970.388 639.779 969.752 638.852C968.493 636.997 967.809 637.2 965.623 637.12" stroke="#0A0A23" stroke-miterlimit="10" stroke-linecap="round"/>
<path d="M980.313 642.519C979.241 641.917 979.235 641.384 978.032 641.406C976.829 641.429 975.625 642.393 975.808 643.582C975.923 644.08 976.152 644.551 976.477 644.958L979.288 649.104C979.806 650.085 980.645 650.873 981.657 651.327C982.366 651.468 983.087 651.34 983.676 650.969C984.265 650.598 984.679 650.011 984.836 649.325C984.961 648.629 984.921 647.904 984.719 647.207C984.517 646.51 984.159 645.859 983.673 645.305C982.684 644.209 981.539 643.263 980.279 642.499" stroke="#0A0A23" stroke-miterlimit="10" stroke-linecap="round"/>
<path d="M991.995 644.909C990.484 645.461 989.161 646.394 988.15 647.621C987.133 648.774 986.925 650.808 988.143 651.89C989.602 653.187 992.026 652.155 992.669 650.418C993.312 648.682 992.727 646.675 991.993 644.883" stroke="#0A0A23" stroke-miterlimit="10" stroke-linecap="round"/>
<path d="M1001.4 649.709C999.854 648.147 997.844 648.268 995.943 649.13C994.043 649.993 993.258 652.821 994.762 654.429C996.009 655.771 998.06 655.773 999.819 655.574C1000.69 655.522 1001.53 655.313 1002.31 654.958C1002.69 654.775 1003.02 654.498 1003.27 654.153C1003.51 653.807 1003.67 653.402 1003.72 652.972C1003.78 651.621 1002.53 650.538 1001.4 649.709Z" stroke="#0A0A23" stroke-miterlimit="10" stroke-linecap="round"/>
<path d="M1013.47 661.404C1012.09 661.128 1011.04 662.911 1011.72 664.15C1012.11 664.737 1012.7 665.164 1013.38 665.34C1014.05 665.515 1014.75 665.426 1015.33 665.091C1015.89 664.711 1016.33 664.19 1016.62 663.576C1016.9 662.962 1017.02 662.277 1016.96 661.584C1016.98 661.162 1016.89 660.735 1016.7 660.344C1016.51 659.953 1016.23 659.61 1015.88 659.345C1015.14 658.885 1014.52 661.434 1013.44 661.43" stroke="#0A0A23" stroke-miterlimit="10" stroke-linecap="round"/>
<path d="M1021.46 660.066C1020.22 659.783 1019.19 662.489 1018.99 663.724C1018.89 664.975 1019.11 666.251 1019.65 667.426C1019.87 668.235 1020.24 669.003 1020.75 669.685C1021.01 670.017 1021.36 670.274 1021.75 670.425C1022.14 670.576 1022.56 670.615 1022.96 670.538C1023.61 670.25 1024.11 669.718 1024.36 669.053C1025.25 667.489 1025.55 665.628 1025.2 663.794C1025 662.885 1024.53 662.043 1023.85 661.381C1023.17 660.719 1022.32 660.269 1021.4 660.093" stroke="#0A0A23" stroke-miterlimit="10" stroke-linecap="round"/>
<path d="M1040.25 666.443C1036.92 664.716 1032.52 664.609 1029.12 665.403C1028.46 665.524 1027.83 665.789 1027.3 666.18C1026.76 666.572 1026.33 667.08 1026.02 667.67C1025.72 668.26 1025.55 668.917 1025.53 669.595C1025.51 670.273 1025.63 670.957 1025.9 671.597C1027.18 674.388 1030.43 674.621 1033.19 674.907C1038.46 675.348 1043.69 676.54 1048.7 678.445C1048.89 678.514 1049.08 678.558 1049.27 678.574C1050.33 678.691 1051.37 679.032 1052.32 679.574C1052.41 679.628 1052.5 679.66 1052.6 679.665C1052.7 679.671 1052.8 679.65 1052.89 679.605L1053.61 679.227C1053.72 679.171 1053.84 679.151 1053.97 679.169C1054.09 679.188 1054.21 679.244 1054.3 679.329C1058.12 682.622 1063.3 683.844 1068.24 684.229C1073.18 684.614 1078.42 684.303 1083.45 685.253C1085.47 685.797 1087.54 686.091 1089.61 686.13C1091.05 685.989 1092.45 685.663 1093.79 685.158C1106.77 680.905 1119.75 676.647 1132.73 672.384C1135.42 671.494 1138.35 670.415 1139.57 667.865C1140.01 666.912 1140.19 665.843 1140.08 664.768C1139.97 663.693 1139.58 662.648 1138.95 661.739C1138.31 660.841 1137.47 660.092 1136.5 659.553C1135.54 659.014 1134.48 658.699 1133.4 658.633C1131.06 658.495 1128.87 659.468 1126.79 660.409L1108.48 668.775C1099.92 672.681 1091.09 676.658 1081.5 677.012C1072.1 677.339 1062.77 674.196 1053.71 671.078L1039.59 666.25" stroke="#0A0A23" stroke-miterlimit="10" stroke-linecap="round"/>
<path d="M1143.5 651.819C1142.84 653.096 1141.82 654.139 1140.55 654.826C1139.29 655.513 1137.83 655.817 1136.36 655.702C1135.89 655.651 1135.25 655.691 1135.21 656.153C1135.16 656.614 1135.73 656.827 1136.16 656.917L1148.74 659.527C1149.12 659.633 1149.51 659.65 1149.88 659.576C1150.06 659.536 1150.23 659.434 1150.34 659.285C1150.45 659.137 1150.5 658.952 1150.49 658.762C1150.41 658.519 1150.26 658.3 1150.07 658.133L1144.67 652.628C1144.55 652.512 1144.4 652.376 1144.24 652.408C1144.08 652.441 1143.33 651.832 1143.5 651.819" stroke="#0A0A23" stroke-miterlimit="10" stroke-linecap="round"/>
<path d="M1151.34 646.706C1150.59 647.098 1149.96 647.663 1149.49 648.357C1149.02 649.051 1148.73 649.854 1148.64 650.702C1148.6 651.041 1148.63 651.389 1148.74 651.722C1148.84 652.055 1149.02 652.365 1149.26 652.631C1149.7 652.994 1150.22 653.237 1150.78 653.336C1152.5 653.796 1154.24 654.15 1155.99 654.396C1156.37 654.478 1156.76 654.473 1157.12 654.38C1157.3 654.326 1157.46 654.216 1157.57 654.064C1157.68 653.912 1157.74 653.727 1157.73 653.534C1157.66 653.254 1157.5 652.999 1157.27 652.807L1151.32 646.693" stroke="#0A0A23" stroke-miterlimit="10" stroke-linecap="round"/>
<path d="M1157.26 643.314C1156.57 643.015 1155.82 642.864 1155.08 642.87C1154.71 642.889 1154.36 643.019 1154.08 643.243C1153.8 643.467 1153.59 643.776 1153.5 644.128C1153.48 644.405 1153.52 644.686 1153.62 644.953C1153.71 645.22 1153.86 645.47 1154.05 645.686C1155.15 647.113 1156.95 647.87 1158.1 649.257C1158.42 649.647 1158.66 650.042 1159.04 650.431C1159.2 650.621 1159.4 650.779 1159.62 650.896C1159.84 651.012 1160.08 651.085 1160.32 651.111C1160.7 651.079 1161.04 650.914 1161.29 650.646C1161.55 650.377 1161.69 650.023 1161.7 649.646C1161.71 648.888 1161.43 648.138 1160.91 647.549C1160.43 646.939 1159.83 646.427 1159.32 645.843C1158.45 644.857 1157.56 644.561 1157.24 643.294" stroke="#0A0A23" stroke-miterlimit="10" stroke-linecap="round"/>
<path d="M1163.1 639.362C1162.55 639.955 1161.65 639.223 1161.13 639.9C1160.92 640.21 1160.82 640.583 1160.84 640.966C1160.85 641.349 1160.93 641.731 1161.09 642.09C1161.6 643.232 1162.83 643.873 1163.96 644.422C1164.63 644.821 1165.39 645.027 1166.15 645.015C1166.76 644.898 1167.33 644.613 1167.78 644.193C1168.85 643.33 1169.8 642.335 1170.62 641.23C1171.44 640.252 1171.97 639.067 1172.18 637.788C1172.27 637.149 1172.18 636.488 1171.92 635.876C1171.66 635.263 1171.24 634.724 1170.71 634.315C1170.44 634.128 1170.13 633.995 1169.81 633.926C1169.5 633.857 1169.17 633.852 1168.86 633.912C1168.54 633.973 1168.25 634.097 1167.99 634.277C1167.74 634.457 1167.52 634.689 1167.36 634.96C1167.27 635.364 1167.08 635.736 1166.81 636.046C1166.21 636.496 1165.24 635.881 1164.56 636.194C1163.45 636.717 1164.25 638.924 1163.11 639.356" stroke="#0A0A23" stroke-miterlimit="10" stroke-linecap="round"/>
<path d="M1174.2 629.681C1174.25 629.299 1174.18 628.905 1173.99 628.555C1173.8 628.205 1173.51 627.916 1173.16 627.731C1172.81 627.546 1172.41 627.473 1172.03 627.524C1171.65 627.574 1171.3 627.745 1171.03 628.011C1170.72 628.368 1170.52 628.813 1170.46 629.294C1170.4 629.775 1170.48 630.271 1170.69 630.722C1171.14 631.613 1171.75 632.421 1172.49 633.103L1173.94 634.607C1174.48 635.228 1175.13 635.753 1175.84 636.155C1176.2 636.352 1176.6 636.451 1177 636.442C1177.4 636.434 1177.78 636.317 1178.11 636.105C1178.42 635.771 1178.65 635.372 1178.78 634.933C1178.91 634.495 1178.95 634.027 1178.89 633.562C1178.89 632.536 1178.77 631.321 1177.89 630.751C1177.37 630.48 1176.79 630.362 1176.22 630.41C1175.66 630.443 1175.1 630.335 1174.58 630.096C1174.32 629.969 1174.12 629.75 1174.01 629.486C1173.9 629.221 1173.89 628.93 1173.99 628.674" stroke="#0A0A23" stroke-miterlimit="10" stroke-linecap="round"/>
<path d="M1179.25 620.942C1178.53 621.019 1177.85 621.26 1177.27 621.648C1176.68 622.036 1176.19 622.56 1175.85 623.179C1175.66 623.496 1175.58 623.871 1175.61 624.251C1175.63 624.44 1175.72 624.618 1175.85 624.759C1175.99 624.9 1176.16 624.995 1176.35 625.03C1176.66 625.055 1176.94 624.853 1177.25 624.793C1178.08 624.642 1178.75 625.505 1179.3 626.186C1180.69 627.879 1182.7 628.92 1184.64 629.91C1185.13 630.2 1185.67 630.397 1186.23 630.491C1186.51 630.537 1186.79 630.505 1187.04 630.399C1187.29 630.293 1187.51 630.117 1187.66 629.89C1188.08 629.142 1187.48 628.188 1187.39 627.304C1187.33 626.837 1187.43 626.343 1187.22 625.921C1186.99 625.543 1186.66 625.234 1186.27 625.033L1182.53 622.455C1181.52 621.657 1180.36 621.063 1179.13 620.708" stroke="#0A0A23" stroke-miterlimit="10" stroke-linecap="round"/>
<path d="M1189.85 616.317C1191.73 619.204 1187.57 617.368 1185.94 617.963C1185.41 618.125 1184.91 618.386 1184.48 618.734C1184.27 618.912 1184.13 619.161 1184.08 619.438C1184.04 619.715 1184.09 620.006 1184.23 620.261C1184.51 620.576 1184.87 620.797 1185.28 620.889C1188.47 621.973 1191.81 623.077 1195.06 622.615C1195.48 622.596 1195.89 622.489 1196.25 622.303C1196.62 622.116 1196.93 621.853 1197.18 621.531C1197.83 620.451 1197.08 618.984 1196.17 618.011C1195.35 617.132 1194.47 616.304 1193.54 615.535C1193.03 615.063 1192.46 614.676 1191.83 614.389C1191.19 614.144 1189.92 613.822 1189.37 614.245C1188.82 614.669 1189.47 615.688 1189.85 616.284" stroke="#0A0A23" stroke-miterlimit="10" stroke-linecap="round"/>
<path d="M1200.04 614.513C1199.86 614.117 1199.54 614.04 1199.1 613.95C1198.67 613.86 1198.61 614.406 1198.2 614.524C1197.93 614.575 1197.69 614.689 1197.48 614.857C1197.27 615.024 1197.1 615.24 1197 615.488C1196.92 615.862 1196.98 616.261 1197.18 616.605C1197.52 617.206 1198.04 617.681 1198.68 617.949C1199.31 618.216 1200 618.257 1200.63 618.066C1200.91 617.996 1201.17 617.843 1201.36 617.627C1201.54 617.41 1201.66 617.14 1201.7 616.848C1201.66 616.61 1201.59 616.378 1201.46 616.166C1201.34 615.954 1201.18 615.767 1200.98 615.615C1200.59 615.303 1200.25 614.927 1199.98 614.506" stroke="#0A0A23" stroke-miterlimit="10" stroke-linecap="round"/>
<path d="M1198.89 605.704C1199.18 607.393 1198.01 606.577 1197.86 607.182C1197.79 607.499 1197.79 607.831 1197.86 608.157C1197.92 608.482 1198.06 608.794 1198.25 609.072C1198.64 609.626 1199.1 610.128 1199.62 610.563L1201.61 612.365C1202.61 613.305 1203.73 614.251 1205.08 614.397C1205.65 614.435 1206.21 614.3 1206.69 614.012C1207.16 613.724 1207.53 613.295 1207.75 612.78C1207.95 612.256 1207.97 611.673 1207.8 611.118C1207.64 610.562 1207.3 610.065 1206.83 609.702C1205.74 608.898 1204.19 608.993 1203.14 608.099C1202.63 607.583 1202.22 606.982 1201.92 606.328C1201.62 605.668 1201.09 605.134 1200.42 604.836C1200.26 604.771 1200.09 604.742 1199.91 604.75C1199.74 604.759 1199.58 604.806 1199.43 604.886C1199.28 604.967 1199.15 605.081 1199.06 605.219C1198.96 605.357 1198.9 605.516 1198.87 605.685" stroke="#0A0A23" stroke-miterlimit="10" stroke-linecap="round"/>
<path d="M1205.5 601.972C1204.88 601.443 1204.11 601.111 1203.32 601.022C1203.12 601.012 1202.93 601.044 1202.75 601.117C1202.58 601.189 1202.42 601.301 1202.29 601.443C1202.17 601.585 1202.08 601.754 1202.03 601.939C1201.98 602.124 1201.97 602.32 1202.01 602.513C1202.38 603.5 1203.92 603.49 1204.39 604.418C1204.61 604.859 1204.51 605.379 1204.68 605.834C1204.96 606.345 1205.4 606.757 1205.93 607.001L1209.09 608.949C1209.97 609.572 1210.96 610.03 1212 610.301C1212.47 610.449 1212.96 610.464 1213.42 610.345C1213.88 610.225 1214.29 609.976 1214.6 609.627C1214.91 609.277 1215.11 608.841 1215.17 608.369C1215.24 607.897 1215.17 607.409 1214.97 606.96C1214.64 606.153 1214.2 605.392 1213.66 604.702C1212.94 603.469 1211.87 602.464 1210.59 601.824C1208.83 601.159 1207.07 603.073 1205.52 601.959" stroke="#0A0A23" stroke-miterlimit="10" stroke-linecap="round"/>
<path d="M1217.69 596.674C1216.89 596.481 1216.15 596.076 1215.55 595.503C1215.16 595.133 1214.83 594.692 1214.43 594.329C1214.24 594.138 1214.02 593.985 1213.77 593.882C1213.52 593.778 1213.26 593.726 1213 593.728C1212.65 593.794 1212.35 593.962 1212.11 594.211C1211.88 594.46 1211.73 594.777 1211.69 595.122C1211.6 595.808 1211.65 596.513 1211.85 597.194C1212.02 598.401 1212.44 599.574 1213.06 600.648C1213.61 601.458 1214.4 602.087 1215.31 602.443C1216.22 602.799 1217.21 602.865 1218.12 602.632C1218.77 602.468 1219.33 602.094 1219.73 601.568C1220.12 601.042 1220.33 600.392 1220.31 599.716C1220.16 598.351 1218.86 597.529 1217.72 596.706" stroke="#0A0A23" stroke-miterlimit="10" stroke-linecap="round"/>
<path d="M1227.31 580.413C1226.17 584.243 1222.37 585.577 1219.44 588.053C1218.86 588.477 1218.37 589.004 1217.98 589.61C1217.79 589.919 1217.7 590.276 1217.69 590.646C1217.69 591.015 1217.79 591.384 1217.98 591.715C1218.28 592.064 1218.66 592.341 1219.08 592.524C1219.5 592.707 1219.96 592.791 1220.4 592.769C1222.39 592.902 1224.36 592.641 1226.2 592.002C1228.04 591.363 1229.71 590.359 1231.12 589.047C1233.24 587.04 1234.72 583.983 1233.75 581.093C1233.2 579.347 1231.78 577.791 1231.86 576.01C1231.93 575.595 1231.95 575.173 1231.94 574.749C1231.93 574.538 1231.86 574.332 1231.73 574.159C1231.59 573.986 1231.42 573.854 1231.21 573.782C1230.63 573.647 1230.21 574.259 1229.96 574.786L1227.29 580.394" stroke="#0A0A23" stroke-miterlimit="10" stroke-linecap="round"/>
<path d="M1238.8 570.847C1237.9 570.635 1237.07 571.306 1236.13 571.101C1235.65 570.98 1235.16 571.033 1234.73 571.25C1234.31 571.467 1233.98 571.833 1233.82 572.282C1233.45 573.615 1234.84 574.911 1235 576.321C1235.12 577.393 1234.54 578.597 1235.21 579.485C1235.89 580.374 1237.1 580.241 1238.08 580.031C1239.05 579.821 1240.5 579.337 1240.55 578.219C1240.59 577.101 1239.14 576.162 1239.01 574.973C1238.92 574.168 1239.46 573.491 1239.71 572.73C1239.96 571.969 1239.61 570.833 1238.8 570.847" stroke="#0A0A23" stroke-miterlimit="10" stroke-linecap="round"/>
<path d="M1245.2 558.824C1242.18 559.771 1239.7 561.846 1238.26 564.63C1238.1 564.945 1238.02 565.296 1238.02 565.657C1238.02 566.017 1238.1 566.378 1238.26 566.712C1238.42 567.045 1238.64 567.344 1238.93 567.585C1239.21 567.826 1239.54 568.003 1239.9 568.103L1240.22 568.199C1241.24 568.502 1242.4 569.019 1242.65 570.072C1242.78 570.604 1242.65 571.157 1242.76 571.696C1243 573.027 1244.65 573.836 1245.94 573.593C1247.24 573.261 1248.38 572.529 1249.2 571.499C1251.13 569.433 1252.73 567.086 1253.96 564.529C1254.46 563.606 1254.77 562.58 1254.87 561.512C1254.84 559.84 1254.16 558.206 1252.96 556.967C1251.77 555.747 1250.44 554.681 1248.99 553.799C1248.7 553.549 1248.37 553.357 1248.02 553.235C1247.66 553.113 1247.29 553.063 1246.92 553.089C1245.86 553.312 1245.58 554.768 1245.93 555.833C1246.28 556.898 1247.86 558.87 1245.22 558.843" stroke="#0A0A23" stroke-miterlimit="10" stroke-linecap="round"/>
<path d="M1248.92 542.408C1248.73 542.409 1248.55 542.449 1248.38 542.525C1248.21 542.602 1248.07 542.714 1247.95 542.853C1247.83 542.993 1247.74 543.157 1247.69 543.336C1247.64 543.515 1247.63 543.704 1247.66 543.892C1247.81 544.655 1248.25 545.35 1248.87 545.839C1249.97 546.829 1251.28 547.559 1252.68 547.968C1254.09 548.377 1255.55 548.454 1256.95 548.192C1258.35 547.902 1259.63 547.268 1260.68 546.346C1261.73 545.424 1262.52 544.243 1262.98 542.908C1263.4 541.56 1263.46 540.105 1263.14 538.685C1262.82 537.266 1262.14 535.932 1261.17 534.816C1260.65 534.188 1260.01 533.676 1259.28 533.317C1258.56 532.959 1257.77 532.764 1256.98 532.746C1254.6 532.836 1253.01 535.01 1251.87 537.04C1250.73 539.07 1251.22 541.883 1248.92 542.408Z" stroke="#0A0A23" stroke-miterlimit="10" stroke-linecap="round"/>
<path d="M1271.42 503.731C1269.99 502.753 1265.76 501.795 1265 503.259C1264.32 504.54 1265.05 506.131 1265.45 507.579C1266.37 510.995 1265.33 514.487 1264.29 517.751C1263.25 521.015 1262.04 524.449 1259.73 526.755C1259.52 526.973 1259.37 527.241 1259.29 527.537C1259.21 527.832 1259.2 528.147 1259.26 528.456C1259.32 528.764 1259.46 529.058 1259.66 529.312C1259.85 529.566 1260.1 529.774 1260.39 529.918L1265.64 532.629C1267.38 533.701 1269.32 534.38 1271.31 534.617C1273.69 534.709 1275.84 533.515 1277.85 532.354C1279.6 531.349 1281.56 529.934 1281.38 527.868C1281.25 526.4 1280 525.025 1280.28 523.608C1280.56 522.191 1282.38 521.517 1283.44 520.449C1285.16 518.71 1284.82 515.618 1283.36 513.483C1281.91 511.349 1279.6 509.951 1277.38 508.624C1275.16 507.297 1272.85 505.905 1271.38 503.777" stroke="#0A0A23" stroke-miterlimit="10" stroke-linecap="round"/>
<path d="M1269.22 481.474C1267.87 480.911 1267.51 481.627 1266.7 481.694C1265.89 481.802 1265.12 482.09 1264.46 482.537C1263.28 483.222 1261.96 484.168 1262.05 485.558C1262.1 485.994 1262.26 486.415 1262.52 486.786C1262.77 487.156 1263.11 487.463 1263.5 487.679C1264.29 488.102 1265.14 488.374 1266.01 488.479C1267.23 488.744 1268.48 488.737 1269.67 488.458C1270.26 488.302 1270.78 487.99 1271.19 487.552C1271.6 487.115 1271.88 486.568 1272 485.97C1272.24 484.183 1270.63 482.627 1269.19 481.441" stroke="#0A0A23" stroke-miterlimit="10" stroke-linecap="round"/>
<path d="M1286.28 483.247C1285.18 483.367 1284.12 482.771 1283.02 482.443C1282.46 482.238 1281.86 482.23 1281.32 482.42C1280.77 482.61 1280.33 482.986 1280.05 483.483C1279.55 484.699 1280.39 486.516 1279.3 487.26C1278.91 487.527 1278.27 487.652 1278.25 488.139C1278.28 488.313 1278.36 488.478 1278.48 488.613C1278.6 488.749 1278.75 488.85 1278.92 488.905C1279.63 489.172 1280.37 489.28 1281.1 489.223C1281.83 489.165 1282.52 488.941 1283.14 488.57C1284.34 487.816 1285.4 486.876 1286.3 485.782C1286.68 485.437 1286.95 484.992 1287.08 484.493C1287.13 484.24 1287.08 483.97 1286.94 483.742C1286.79 483.515 1286.57 483.349 1286.31 483.28" stroke="#0A0A23" stroke-miterlimit="10" stroke-linecap="round"/>
<path d="M1271.72 459.186C1270.78 457.921 1268.99 458.503 1267.56 458.955C1266.14 459.407 1264.63 460.131 1263.12 459.68C1262.4 459.392 1261.77 458.909 1261.3 458.289C1260.83 457.669 1260.55 456.938 1260.47 456.184C1260.36 454.673 1260.58 453.176 1261.11 451.796C1261.6 450.255 1262.35 448.537 1263.94 448.183C1265.92 447.736 1267.74 449.675 1269.64 450.418C1271.36 450.979 1273.19 451.016 1274.87 450.523C1276.54 450.03 1278.26 449.696 1280.02 449.523C1280.89 449.45 1281.79 449.589 1282.63 449.93C1283.47 450.271 1284.22 450.803 1284.83 451.481C1285.94 452.921 1285.75 455.313 1284.17 456.012C1283.08 456.495 1281.79 456.102 1280.6 455.851C1279.4 455.601 1277.95 455.571 1277.25 456.522C1276.69 457.283 1276.8 458.388 1276.27 459.175C1275.32 460.471 1273.22 459.884 1271.69 459.186" stroke="#0A0A23" stroke-miterlimit="10" stroke-linecap="round"/>
<path d="M1259.34 439.226C1259.68 438.704 1259.83 438.073 1259.76 437.434C1259.7 436.795 1259.42 436.183 1258.98 435.693C1258.54 435.203 1257.96 434.864 1257.32 434.727C1256.69 434.591 1256.04 434.666 1255.48 434.94C1254.92 435.28 1254.45 435.745 1254.12 436.302C1253.78 436.859 1253.57 437.492 1253.52 438.154C1253.28 439.436 1253.49 440.786 1254.11 441.987C1254.42 442.588 1254.9 443.098 1255.47 443.462C1256.05 443.826 1256.71 444.028 1257.37 444.046C1257.97 444.023 1258.54 443.819 1259 443.461C1259.46 443.103 1259.8 442.607 1259.96 442.038C1260.27 440.894 1258.89 440.559 1259.36 439.245" stroke="#0A0A23" stroke-miterlimit="10" stroke-linecap="round"/>
<path d="M1255.39 426.726C1254.05 425.573 1252.33 426.018 1251.01 427.035C1250.36 427.566 1249.92 428.307 1249.75 429.143C1249.59 429.978 1249.71 430.861 1250.11 431.651C1250.41 432.148 1250.68 432.669 1250.89 433.209C1250.93 433.314 1250.99 433.41 1251.07 433.492C1251.14 433.573 1251.24 433.637 1251.34 433.679C1251.45 433.721 1251.56 433.74 1251.66 433.735C1251.77 433.73 1251.88 433.7 1251.97 433.648C1253.29 432.895 1254.44 431.907 1255.39 430.729C1255.89 430.167 1256.22 429.473 1256.35 428.719C1256.41 428.341 1256.35 427.947 1256.18 427.593C1256 427.239 1255.72 426.942 1255.37 426.746" stroke="#0A0A23" stroke-miterlimit="10" stroke-linecap="round"/>
<path d="M1236.78 339.48C1236.75 338.122 1237.31 337.529 1236.92 336.224C1236.74 335.555 1236.41 334.925 1235.96 334.378C1235.52 333.831 1234.96 333.379 1234.34 333.052C1232.6 332.263 1230.67 332.905 1228.81 332.942C1227.27 332.971 1225.71 332.585 1224.18 332.699C1222.64 332.813 1221.03 333.655 1220.77 335.156C1220.49 336.834 1221.92 338.409 1222.06 340.112C1222.14 341.411 1221.54 342.621 1221.7 343.901C1221.87 344.708 1222.27 345.462 1222.86 346.071C1223.44 346.68 1224.17 347.118 1224.98 347.331C1226.59 347.733 1228.24 347.817 1229.85 347.579C1231.57 347.433 1233.42 347.253 1234.62 346.028C1235.29 345.247 1235.76 344.306 1235.99 343.283C1236.34 342.041 1236.61 340.77 1236.78 339.48" stroke="#0A0A23" stroke-miterlimit="10" stroke-linecap="round"/>
<path d="M1244.9 355.83C1241.39 358.411 1235.11 356.879 1230 357.021C1229.03 357.049 1227.89 357.149 1227.5 358.131C1227.37 358.536 1227.38 358.982 1227.53 359.398C1227.68 359.813 1227.97 360.172 1228.35 360.417C1229.66 361.356 1231.21 361.105 1232.67 361.018C1234.52 360.896 1236.74 361.171 1237.11 363.964C1237.24 364.869 1237.14 365.777 1236.82 366.609C1235.76 369.354 1236.48 372.289 1237.19 375.115C1237.37 376.139 1237.78 377.123 1238.39 377.99C1238.7 378.414 1239.14 378.73 1239.64 378.888C1240.14 379.047 1240.66 379.04 1241.14 378.868C1241.55 378.665 1241.66 378.061 1241.57 377.424C1241.54 377.249 1241.55 377.072 1241.59 376.904C1241.64 376.735 1241.71 376.579 1241.82 376.445C1241.93 376.311 1242.06 376.201 1242.21 376.122C1242.37 376.043 1242.54 375.997 1242.71 375.986C1243.27 375.963 1243.8 375.817 1244.28 375.56C1244.76 375.303 1245.16 374.94 1245.47 374.498C1246.35 373.047 1246.61 371.278 1247.18 369.666C1247.89 367.661 1249.07 365.878 1250.63 364.457C1252.19 363.037 1254.08 362.019 1256.16 361.483C1257.59 361.129 1259.11 361.009 1260.34 360.142C1260.99 359.714 1261.43 359.046 1261.59 358.274C1261.96 355.953 1259.16 354.426 1256.86 354.041C1252.7 353.359 1248.52 353.978 1244.88 355.81" stroke="#0A0A23" stroke-miterlimit="10" stroke-linecap="round"/>
<path d="M1256.81 373.744C1255.65 373.98 1256 375.442 1254.65 375.497C1253.98 375.49 1253.32 375.62 1252.72 375.877C1252.11 376.134 1251.57 376.514 1251.13 376.993C1250.71 377.486 1250.46 378.115 1250.44 378.783C1250.42 379.45 1250.63 380.119 1251.02 380.684C1251.47 381.138 1252.01 381.492 1252.6 381.721C1253.19 381.95 1253.82 382.048 1254.44 382.008C1256.5 382.063 1258.51 381.615 1260.3 380.702C1261.45 380.121 1262.58 379.163 1262.54 377.844C1262.45 376.982 1262.04 376.165 1261.4 375.546C1260.28 374.288 1258.62 373.22 1257.06 373.626" stroke="#0A0A23" stroke-miterlimit="10" stroke-linecap="round"/>
</g>
</svg>
