<svg width="586" height="448" viewBox="0 0 586 448" fill="none" xmlns="http://www.w3.org/2000/svg">
<g opacity="0.8">
<g opacity="0.2" clip-path="url(#clip0_1001_11369)">
<path d="M3.06704 44.8804C-0.434632 50.6146 1.00723 57.0536 1.147 57.6484C2.53002 63.4413 6.48043 64.6087 15.2199 73.2944C23.4738 81.4955 28.7925 86.7451 30.2565 94.7113C31.3084 100.409 29.3222 101.782 30.8965 107.193C33.1623 114.895 39.2681 118.94 42.4167 121.554C54.187 131.253 48.4195 140.218 60.6533 164.659C69.481 182.28 81.9134 196.576 87.2027 202.655C93.3674 209.733 95.6921 211.465 99.3556 217.023C107.05 228.727 104.226 236.979 110.876 252.787C113.649 259.394 116.283 263.389 119.836 269.064C144.112 307.977 146.731 321.325 167.182 349.827C183.984 373.256 199.197 387.881 217.405 405.377C244.359 431.28 256.217 437.191 264.751 440.502C285.209 448.439 302.202 447.543 312.42 446.89C327.207 445.942 339.249 444.988 346.01 435.715C350.689 429.291 352.506 419.342 348.886 411.486C346.819 406.971 343.685 404.68 337.69 400.311C330.211 394.877 321.732 390.97 312.737 388.814C302.828 386.449 302.953 388.681 291.624 386.611C282.1 384.875 272.913 381.641 264.405 377.03C252.907 370.591 254.724 367.801 243.932 362.345C231.933 356.273 227.968 358.851 220.899 352.764C214.844 347.434 215.543 343.608 209.408 334.798C203.273 325.987 200.36 326.633 188.935 315.642C174.347 301.597 164.085 291.707 163.313 278.264C162.959 271.847 164.968 268.036 162.033 262.295C158.693 255.76 153.742 256.105 150.512 249.204C147.783 243.33 150.556 241.458 147.952 233.881C145.539 226.84 142.589 226.876 139.64 220.467C136.278 213.161 137.006 206.385 138.036 196.84C138.771 190.129 139.507 183.029 143.796 174.814C147.746 167.193 153.583 160.708 160.753 155.974C165.954 152.655 178.312 144.77 188.906 148.947C197.071 152.178 198.138 160.203 207.459 161.429C211.652 161.972 213.969 160.695 217.059 162.706C220.671 165.085 223.01 170.489 221.539 174.204C220.509 176.796 218.17 177.141 218.339 178.675C218.618 181.26 225.96 184.131 228.572 181.862C231.86 179.013 224.055 171.142 224.415 157.281C224.717 145.533 230.565 140.614 227.615 136.524C224.283 131.921 214.307 134.696 205.222 135.886C205.222 135.886 187.736 138.176 155.632 129.182C107.587 115.695 70.0107 59.4692 75.0352 36.5765C75.4986 34.4987 78.0292 24.8292 73.4388 16.4592C72.6223 14.9908 69.9372 10.0422 65.4424 9.43281C63.3163 9.15381 60.6901 9.82194 53.6058 16.1435C49.7556 19.6425 46.1245 23.3744 42.733 27.3182C29.6974 41.114 10.5191 32.6485 3.06704 44.8804Z" stroke="white" stroke-width="2" stroke-linecap="round" stroke-linejoin="round" stroke-dasharray="0.1 8"/>
<path d="M400.072 351.685C402.471 356.45 377.466 367.242 377.363 383.608C377.363 387.874 378.981 394.401 378.643 394.467C378.305 394.533 377.907 391.53 377.363 391.589C376.819 391.648 375.995 395.994 377.039 400.216C377.709 402.932 379.084 404.9 381.836 408.835C384.337 412.396 385.117 412.661 385.676 412.668C387.787 412.668 388 409.122 391.12 407.529C394.511 405.818 396.71 408.821 400.683 407.844C404.118 407.007 405.2 404.173 409.643 398.3C413.814 392.786 413.947 393.894 418.92 387.764C431.683 372.052 428.483 367.676 437.473 359.981C439.047 358.638 442.622 355.789 441.953 353.594C441.327 351.574 437.664 352.066 436.516 349.768C435.119 346.971 439.525 344.218 440.033 339.871C440.915 332.287 429.366 324.776 422.436 321.67C417.412 319.416 405.884 315.488 402.574 319.754C399.631 323.623 404.464 332.837 404.781 333.484C407.466 338.469 409.93 338.953 409.577 341.141C408.635 346.362 394.423 345.811 391.752 346.567C388.332 347.529 387.596 353.175 391.017 352.265C391.465 352.206 398.77 349.115 400.072 351.685Z" stroke="white" stroke-width="2" stroke-linecap="round" stroke-linejoin="round" stroke-dasharray="0.1 8"/>
<path d="M414.168 286.259C409.496 292.265 417.846 309.754 426.321 309.563C430.793 309.475 435.553 304.423 436.237 298.711C436.973 292.478 432.662 287.456 428.241 285.297C423.613 283.051 416.779 282.874 414.168 286.259Z" stroke="white" stroke-width="2" stroke-linecap="round" stroke-linejoin="round" stroke-dasharray="0.1 8"/>
<path d="M238.834 127.075C229.822 134.036 234.501 150.372 234.678 151.201C235.516 155.071 237.436 159.593 239.158 159.498C240.578 159.424 240.629 156.275 243.638 152.795C244.315 152.009 246.97 148.94 250.678 148.008C256.953 146.422 260.933 152.303 264.435 150.21C266.862 148.778 265.236 145.805 268.275 141.591C271.475 137.185 275.101 138.022 276.271 134.887C277.742 130.908 273.888 124.241 268.591 122.112C266.995 121.473 265.251 121.238 252.914 124.315C245.47 126.282 240.114 126.077 238.834 127.075Z" stroke="white" stroke-width="2" stroke-linecap="round" stroke-linejoin="round" stroke-dasharray="0.1 8"/>
<path d="M298.428 95.4454C291.329 101.055 288.997 104.212 287.703 109.395C286.776 113.111 289.836 118.066 292.904 120.225C294.537 121.378 298.053 122.464 313.06 114.16C336.152 101.356 338.521 92.7729 349.843 92.7729C353.881 92.7729 359.053 93.8596 362.635 90.5703C365.372 88.0373 364.739 85.1959 367.439 82.5894C371.323 78.8303 377.782 79.7774 380.556 80.0344C392.738 81.1651 395.394 74.6526 419.898 68.221C436.693 63.8157 446.087 61.3488 457.968 64.3884C464.059 65.9449 474.52 68.6248 480.361 77.4793C486.606 86.9433 482.693 96.0622 490.601 102.068C495.258 105.6 501.555 106.202 501.481 108.771C501.415 110.871 497.17 111.613 497.001 114.197C496.839 116.627 500.422 118.602 501.481 119.337C513.803 127.244 517.003 169.395 503.401 183.83C502.371 184.916 498.038 189.263 499.237 191.818C500.113 193.668 503.114 192.875 504.674 194.689C507.256 197.677 503.857 205.379 499.877 211.289C490.726 224.887 481.266 224.901 480.684 231.722C480.052 239.145 491.086 240.65 493.477 251.546C495.618 261.252 489.372 271.597 483.244 277.089C479.213 280.694 477.779 279.923 461.808 286.986C443.056 295.275 440.746 298.234 440.695 300.716C440.643 303.065 442.622 305.341 447.411 308.374C452.796 311.788 475.417 326.119 492.837 317.316C506.991 310.172 510.684 291.318 514.598 271.34C519.203 247.845 516.481 227.412 528.031 219.945C529.921 218.727 534.651 216.274 536.027 211.326C537.3 206.825 534.894 203.521 533.82 199.835C529.789 186.392 546.26 178.507 546.937 161.201C547.275 152.501 543.104 154.667 537.976 134.696C534.556 121.385 531.893 110.416 537.02 100.534C539.05 96.6128 540.809 95.7685 549.173 88.052C556.073 81.7157 566.564 72.0756 572.206 64.7482C584.219 49.1462 589.861 23.8013 580.842 15.5561C577.289 12.3109 569.808 12.7514 554.933 13.6398C539.587 14.4988 538.491 16.3564 529.664 16.4592C519.203 16.584 517.503 14.0363 491.278 6.91446C465.229 -0.222055 460.182 0.453418 457.019 1.13623C443.556 4.07307 434.398 13.6618 431.426 16.7822C423.157 25.4533 426.07 27.7366 419.589 34.6602C403.184 52.1932 376.694 45.9671 366.483 60.2034C365.534 61.525 363.71 64.4471 360.083 65.9523C354.58 68.2797 350.74 64.7922 345.017 65.3429C339.293 65.8935 338.05 69.9243 328.707 78.1108C324.544 81.7598 307.028 88.6614 298.428 95.4454Z" stroke="white" stroke-width="2" stroke-linecap="round" stroke-linejoin="round" stroke-dasharray="0.1 8"/>
<path d="M466.648 253.029C465.604 254.138 465.913 256.509 466.913 257.955C468.819 260.767 474.034 261.377 476.256 259.02C479.25 255.856 475.417 248.844 473.718 248.895C472.909 248.895 472.982 250.562 471.187 251.693C469.238 252.926 467.678 251.928 466.648 253.029Z" stroke="white" stroke-width="2" stroke-linecap="round" stroke-linejoin="round" stroke-dasharray="0.1 8"/>
<path d="M455.363 236.516C454.525 238.859 454.098 240.026 454.562 240.812C455.378 242.214 458.38 242.537 460.211 241.348C462.815 239.659 462.286 235.4 462.095 233.829C461.712 230.738 460.16 227.522 459.152 227.655C458.549 227.735 458.622 228.925 457.269 232.221C456.423 234.255 456.099 234.571 455.363 236.516Z" stroke="white" stroke-width="2" stroke-linecap="round" stroke-linejoin="round" stroke-dasharray="0.1 8"/>
<path d="M61.0564 29.5795C58.1138 27.8688 53.1335 31.0993 43.4671 37.5677C36.0518 42.5163 36.1107 43.4414 32.2706 44.9098C26.6723 47.1124 23.9137 46.2387 21.3904 49.0581C19.5881 51.0845 19.3085 53.735 18.8304 58.9552C18.3816 63.8524 17.9991 68.0741 19.1541 72.6849C20.7504 79.0652 24.1564 81.6423 28.1069 87.0534C33.4771 94.3955 34.6688 99.9021 38.0233 109.08C49.7937 141.385 62.8734 177.09 86.0095 197.185C89.8422 200.511 96.3085 205.474 101.686 214.747C102.635 216.377 103.43 217.948 110.963 238.051C115.435 249.982 115.538 250.459 117.686 255.936C120.732 263.734 124.719 273.499 124.719 273.499C124.719 273.499 126.529 275.914 127.603 275.701C128.677 275.488 129.074 272.911 129.199 271.23C129.523 265.224 125.477 260.488 123.439 257.5C117.26 248.433 121.46 243.587 117.046 230.041C113.618 219.542 109.175 216.583 104.54 208.653C91.2399 185.775 107.019 174.006 97.5002 154.05C86.7819 131.598 49.6833 110.658 45.034 102.009C44.5044 101.018 42.9154 98.0813 44.0777 95.9447C44.7177 94.7553 45.6226 94.8801 46.9541 93.3897C48.2856 91.8992 49.7201 89.1606 48.8741 87.3251C48.0281 85.4896 45.3872 86.2899 44.0777 84.447C41.9664 81.5101 46.5936 76.1651 45.034 74.5498C43.3494 72.8098 36.3608 77.3692 35.7576 76.4661C35.1543 75.563 43.651 71.4882 44.1071 65.0565C44.4308 60.475 40.554 57.0756 42.1871 55.152C43.0037 54.1902 44.7839 54.0948 46.0198 54.5133C49.3817 55.6513 48.8153 60.5631 51.7799 61.5396C54.2737 62.362 56.1129 59.337 57.8637 60.2621C59.9161 61.3341 59.335 66.547 58.82 71.1211C58.1285 77.2811 56.8779 80.1151 57.8637 80.6658C58.8495 81.2165 61.873 78.8964 63.6164 76.2018C66.6326 71.5322 66.8459 64.6674 63.6164 60.2327C61.4095 57.1564 59.563 58.1329 58.4669 55.7614C56.26 50.8642 63.8518 46.3415 63.6164 36.9289C63.5649 34.9539 63.4546 30.9598 61.0564 29.5795Z" stroke="white" stroke-miterlimit="10"/>
<path d="M63.2997 88.0152C62.7627 89.3295 61.7181 91.9139 62.9761 93.441C64.006 94.6819 66.2717 94.8654 67.7798 94.0798C70.5091 92.6554 70.384 88.2061 70.3399 86.7377C70.1854 81.7598 67.3973 77.5454 66.4998 77.795C65.7641 78.0006 67.081 81.1797 65.2198 84.8214C64.4768 86.2678 63.9618 86.3486 63.2997 88.0152Z" stroke="white" stroke-miterlimit="10"/>
<path d="M142.64 285.011C136.755 282.808 133.812 281.758 133.04 282.456C131.48 283.844 132.348 288.33 134.32 289.159C135.489 289.659 136.107 288.476 138.16 288.521C141.183 288.594 142.11 291.215 144.236 290.76C145.707 290.437 147.01 288.785 146.796 287.566C146.642 286.56 145.45 286.054 142.64 285.011Z" stroke="white" stroke-miterlimit="10"/>
<path d="M167.908 311.193C166.334 307.779 162.538 308.99 159.272 305.128C156.918 302.353 157.992 300.672 155.432 298.425C153.527 296.744 150.194 295.268 148.392 296.509C146.251 297.977 147.163 302.632 148.075 305.128C149.267 308.388 150.79 308.873 153.225 312.147C158.374 319.174 158.095 326.163 160.581 326.2C162.053 326.2 162.737 323.741 164.098 323.961C165.606 324.21 166.04 327.448 166.658 329.71C168.747 337.345 175.699 343.939 181.694 346.633C185.498 348.344 187.808 347.977 190.655 350.782C192.861 352.984 193.215 354.908 195.127 355.253C197.422 355.664 200.277 353.491 201.211 350.782C201.616 349.425 201.62 347.981 201.222 346.622C200.824 345.263 200.041 344.048 198.967 343.124C196.194 340.752 193.921 343.028 190.655 341.207C185.674 338.432 188.308 331.663 182.334 327.155C180.311 325.627 178.914 325.576 177.854 323.645C176.14 320.517 178.104 317.514 176.574 316.303C174.72 314.835 170.807 318.454 168.901 316.942C167.526 315.877 169.115 313.807 167.908 311.193Z" stroke="white" stroke-miterlimit="10"/>
<path d="M181.952 354.335C180.481 354.386 179.179 356.281 178.759 356.89C178.274 357.548 177.926 358.297 177.737 359.093C177.363 360.386 177.5 361.774 178.119 362.969C178.624 363.833 179.393 364.513 180.313 364.909C181.233 365.306 182.256 365.398 183.232 365.172C183.896 364.937 184.5 364.558 184.998 364.061C185.497 363.565 185.879 362.963 186.116 362.301C187.366 358.843 184.343 354.203 181.952 354.335Z" stroke="white" stroke-miterlimit="10"/>
<path d="M190.942 366.082C189.631 366.988 188.716 368.359 188.382 369.915C188.154 371.266 188.338 373.358 189.662 374.379C190.986 375.4 193.502 375.341 193.502 375.341C193.502 375.341 193.627 370.143 193.818 369.276C194.503 366.222 195.937 365.055 195.422 364.482C194.907 363.909 192.443 364.893 190.942 366.082Z" stroke="white" stroke-miterlimit="10"/>
<path d="M198.938 378.88C197.401 379.709 197.592 383.909 199.262 384.629C200.152 385.01 201.381 384.372 202.05 383.74C202.381 383.453 202.645 383.099 202.827 382.701C203.008 382.304 203.102 381.872 203.102 381.435C202.918 379.57 200.189 378.212 198.938 378.88Z" stroke="white" stroke-miterlimit="10"/>
<path d="M207.898 391.046C209.421 391.046 208.148 386.919 209.252 386.104C210.355 385.289 210.796 388.087 211.414 387.529C212.319 386.736 207.92 379.364 206.618 379.871C205.139 380.414 207.457 391.046 207.898 391.046Z" stroke="white" stroke-miterlimit="10"/>
<path d="M205.338 355.892C203.867 356.765 204.389 360.172 204.698 362.279C205.235 365.95 206.53 367.169 207.898 371.222C209.847 377.022 208.229 377.654 209.818 379.842C213.077 384.328 222.758 385.532 228.695 382.397C230.298 381.545 231.637 380.377 233.807 380.48C236.698 380.605 237.64 382.793 240.208 382.683C242.576 382.609 245.32 380.634 245.357 378.85C245.357 376.604 241.009 375.752 231.6 371.193C226.959 369.056 222.471 366.603 218.168 363.85C210.421 358.806 207.17 354.783 205.338 355.892Z" stroke="white" stroke-miterlimit="10"/>
<path d="M246.925 403.145C248.271 413.483 255.62 420.59 260.681 425.495C264.624 429.313 266.566 431.222 269.318 431.882C274.085 433.042 277.616 430.73 284.678 431.567C286.509 431.767 288.325 432.086 290.114 432.521C292.851 433.255 293.145 433.725 294.594 433.799C297.625 433.945 298.111 431.948 300.995 431.596C305.195 431.038 306.659 434.981 310.271 434.144C312.522 433.63 312.368 432 315.708 430.318C318.547 428.85 319.937 429.423 322.108 428.718C328.53 426.64 333.201 416.53 330.42 411.831C329.582 410.363 328.265 409.834 326.264 408.96C308.726 401.302 308.844 400.231 303.555 399.416C297.125 398.388 297.846 400.106 290.438 399.416C278.668 398.329 260.409 392.477 252.045 384.093C251.412 383.461 249.764 381.736 248.528 382.176C247.293 382.617 247.006 385.267 246.925 393.99C246.881 399.68 246.851 402.573 246.925 403.145Z" stroke="white" stroke-miterlimit="10"/>
<path d="M380.326 403.468C380.128 405.01 380.716 407.25 382.246 407.617C383.512 407.918 384.887 406.824 385.446 405.7C386.572 403.439 384.851 400.069 383.239 399.952C381.937 399.856 380.576 401.721 380.326 403.468Z" stroke="white" stroke-miterlimit="10"/>
<path d="M413.6 344.056C408.906 354.416 419.338 363.682 414.564 370.877C412.673 373.726 410.562 372.984 407.207 377.58C404.331 381.523 405.655 382.367 403.051 386.2C399.784 391.002 394.385 394.555 390.545 397.059C388.86 398.167 387.168 399.166 387.345 399.614C387.624 400.304 392.207 399.115 393.745 398.652C399.924 396.816 403.808 392.778 414.542 380.135C424.473 368.388 426.363 365.671 427.974 361.295C429.436 356.983 430.087 352.437 429.894 347.889C429.74 344.071 429.585 341.163 427.334 339.269C425.083 337.375 421.508 337.316 419.014 338.307C415.645 339.688 414.144 342.889 413.6 344.056Z" stroke="white" stroke-miterlimit="10"/>
<path d="M463.506 14.5796C462.38 15.1009 458.07 17.4503 458.07 17.4503C458.07 17.4503 456.812 20.3064 457.43 20.9599C458.047 21.6133 460.858 18.9555 464.146 18.0891C467.979 17.0832 470.583 19.1978 483.663 25.7543C489.974 28.9114 492.755 30.1595 495.499 28.9407C497.412 28.1184 499.339 26.114 499.016 24.4767C498.523 21.9364 493.072 22.443 483.663 19.6823C472.768 16.4959 468.28 12.3549 463.506 14.5796Z" stroke="white" stroke-miterlimit="10"/>
<path d="M511.522 26.393C507.431 26.5105 505.379 26.5913 504.805 27.6705C503.937 29.2785 505.541 32.4282 507.365 32.81C508.984 33.1184 509.491 30.9965 511.845 30.8937C513.596 30.8203 515.332 31.9069 517.282 33.0964C518.819 34.0582 519.157 34.5648 519.489 34.3739C520.496 33.8893 520.32 28.9848 517.568 27.0318C516.487 26.2609 514.81 26.2902 511.522 26.393Z" stroke="white" stroke-miterlimit="10"/>
<path d="M523.652 61.1945C525.263 66.8259 528.066 76.6129 524.292 79.7113C522.666 81.0549 521.114 80.1078 519.812 81.6276C517.686 84.0945 518.796 90.093 521.732 92.1635C526.94 95.8346 538.96 87.8831 545.081 82.6188C555.851 73.2943 559.448 62.5602 564.943 46.224C568.872 34.4767 568.401 30.8644 566.547 28.9774C564.804 27.2153 560.132 27.5677 550.871 28.346C539.549 29.2491 539.255 30.4165 533.59 29.9025C528.801 29.4694 526.734 28.4341 524.954 29.9025C522.938 31.5619 524.152 34.0655 523.034 41.3929C522.129 47.2666 521.018 47.7879 521.114 51.6131C521.173 55.0712 522.107 55.8275 523.652 61.1945Z" stroke="white" stroke-miterlimit="10"/>
<path d="M511.815 84.8214C511.602 88.8376 512.676 93.6833 514.022 93.7568C515.243 93.8228 516.641 90.1445 516.899 87.0534C517.288 82.538 515.39 77.729 514.022 77.795C512.654 77.8611 511.955 82.1122 511.815 84.8214Z" stroke="white" stroke-miterlimit="10"/>
<path d="M515.972 98.8669C509.638 101.069 520.967 144.27 519.488 164.322C518.952 170.284 519.167 176.29 520.128 182.2C520.775 186.128 521.099 185.988 521.408 188.587C522.35 196.48 519.613 200.151 517.252 210.298C514.184 223.403 517.002 224.674 513.412 230.415C509.549 236.59 503.848 239.049 504.775 241.59C505.378 243.205 508.453 244.284 510.852 243.506C515.825 241.876 514.956 233.058 519.451 217.633C522.975 205.548 524.682 206.95 526.528 198.169C527.816 192.067 527.507 184.865 526.845 170.709C525.542 142.809 525.542 142.809 525.572 142.288C526.403 125.247 530.265 119.439 526.205 110.042C523.718 104.271 518.598 97.9638 515.972 98.8669Z" stroke="white" stroke-miterlimit="10"/>
<path d="M499.655 264.578C497.581 266.832 496.455 270.797 498.059 272.243C499.184 273.264 501.457 272.831 502.855 271.92C506.269 269.717 506.32 263.403 504.452 262.339C503.149 261.604 500.795 263.33 499.655 264.578Z" stroke="white" stroke-miterlimit="10"/>
<path d="M493.248 294.313C491.041 296.127 486.995 293.007 485.376 294.717C484.56 295.569 484.641 297.331 485.376 297.911C486.428 298.755 488.223 296.626 490.313 297.243C492.556 297.911 492.321 300.914 494.05 301.377C496.602 302.045 501.987 296.736 500.59 292.985C499.758 290.782 496.602 289.225 495.116 290.048C493.63 290.87 494.749 293.065 493.248 294.313Z" stroke="white" stroke-miterlimit="10"/>
</g>
<path opacity="0.2" d="M264.08 417H267.716L267.512 415.836H265.28V413.856H267.512V412.692H265.28V410.844H267.512L267.716 409.68H264.08V417ZM273.044 417H274.436L272.24 413.244L274.424 409.68H273.116L271.616 412.212L270.056 409.68H268.664L270.848 413.244L268.652 417H269.948L271.472 414.3L273.044 417ZM278.73 417H279.618L279.414 415.836H278.826C277.278 415.836 276.282 414.888 276.282 413.316C276.282 411.792 277.278 410.844 278.826 410.844H279.414L279.618 409.68H278.73C276.534 409.68 275.034 411.096 275.034 413.316C275.034 415.584 276.534 417 278.73 417ZM285.55 417H286.75V409.68H285.55V412.692H282.214V409.68H281.014V417H282.214V413.856H285.55V417ZM294.612 417.348V409.68H293.436V414.336L288.876 409.332V417H290.052V412.344L294.612 417.348ZM299.956 414.708H297.784L298.864 412.056L299.956 414.708ZM300.904 417H302.176L298.9 409.32L295.612 417H296.86L297.328 415.848H300.424L300.904 417ZM308.177 417V412.692H305.921L305.717 413.856H306.977V415.836H306.353C304.805 415.836 303.809 414.888 303.809 413.316C303.809 411.792 304.805 410.844 306.353 410.844H307.469L307.673 409.68H306.257C304.061 409.68 302.561 411.096 302.561 413.316C302.561 415.584 304.061 417 306.257 417H308.177ZM310.1 417H313.736L313.532 415.836H311.3V413.856H313.532V412.692H311.3V410.844H313.532L313.736 409.68H310.1V417Z" fill="white"/>
<path opacity="0.2" d="M380.822 62.7942L380.606 61.4326L375.31 63.2523L375.976 64.4592L377.737 63.8542L380.071 70.6464L381.395 70.1915L379.061 63.3993L380.822 62.7942ZM384.367 61.5762C385.307 61.2532 386.143 61.6174 386.475 62.584C386.807 63.5505 386.398 64.3424 385.272 64.729L384.809 64.8883L383.745 61.79L384.367 61.5762ZM388.25 67.8362L389.878 67.2767L386.884 65.1968C387.824 64.4443 388.293 63.3952 387.833 62.0579C387.251 60.3632 385.779 59.655 384.005 60.2646L381.979 60.9607L384.754 69.0372L386.078 68.5823L385.046 65.5768L388.25 67.8362ZM394.209 62.9612L391.813 63.7846L391.999 60.4491L394.209 62.9612ZM396.124 65.1307L397.527 64.6485L391.001 57.4167L390.285 67.1369L391.662 66.6638L391.742 65.2153L395.158 64.0416L396.124 65.1307ZM398.667 64.257L400.785 63.5291C403.208 62.6966 404.327 60.5656 403.467 58.0632C402.625 55.6138 400.433 54.6201 398.01 55.4526L395.892 56.1804L398.667 64.257ZM397.657 57.0098L398.346 56.7733C400.054 56.1864 401.512 56.8548 402.09 58.5363C402.686 60.2708 401.946 61.6944 400.238 62.2812L399.55 62.5178L397.657 57.0098ZM406.528 61.5559L407.852 61.101L405.077 53.0244L403.753 53.4793L406.528 61.5559ZM416.66 58.504L413.753 50.0435L412.456 50.4893L414.221 55.6265L407.293 51.834L410.199 60.2945L411.497 59.8487L409.732 54.7115L416.66 58.504ZM424.358 55.4299L422.725 50.6766L420.236 51.5319L420.452 52.8935L421.842 52.4158L422.593 54.6005L421.904 54.837C420.196 55.4239 418.738 54.7555 418.142 53.021C417.564 51.3395 418.304 49.9159 420.012 49.3291L421.243 48.906L421.027 47.5444L419.464 48.0812C417.041 48.9137 415.923 51.0447 416.765 53.4941C417.625 55.9966 419.816 56.9903 422.239 56.1577L424.358 55.4299ZM429.66 53.6081L432.043 52.7893C433.566 52.2661 434.377 50.9216 433.881 49.4784C433.576 48.5913 432.908 48.1547 432.106 48.0603C432.548 47.5382 432.746 46.8634 432.482 46.0955C432.027 44.7714 430.645 44.2396 429.136 44.7582L426.885 45.5316L429.66 53.6081ZM430.556 51.9086L429.751 49.5651L430.731 49.2285C431.592 48.9328 432.245 49.1968 432.495 49.925C432.745 50.6532 432.397 51.2763 431.536 51.572L430.556 51.9086ZM429.346 48.3867L428.637 46.3212L429.563 46.0028C430.318 45.7435 430.9 45.9728 431.123 46.6216C431.346 47.2703 431.028 47.809 430.273 48.0683L429.346 48.3867ZM440.117 50.1633C442.5 49.3444 443.651 46.9652 442.819 44.5422C442.005 42.1722 439.74 40.9667 437.251 41.8219C434.762 42.6772 433.716 45.02 434.531 47.39C435.363 49.813 437.734 50.9822 440.117 50.1633ZM439.662 48.8393C438.007 49.4079 436.472 48.5587 435.908 46.9169C435.362 45.3281 436.051 43.7146 437.706 43.146C439.361 42.5773 440.896 43.4265 441.442 45.0153C442.006 46.6571 441.317 48.2706 439.662 48.8393ZM447.618 39.8438L447.402 38.4822L442.106 40.3019L442.772 41.5088L444.533 40.9038L446.867 47.6961L448.191 47.2411L445.857 40.4489L447.618 39.8438Z" fill="white"/>
<path opacity="0.2" d="M420.985 343.899L421.955 343.925L422.003 342.065L423.813 342.113L423.764 343.972L424.729 344.168L424.809 341.139L418.711 340.978L418.685 341.978L421.034 342.04L420.985 343.899ZM418.44 347.489C418.404 348.839 419.31 349.793 420.739 349.83L424.578 349.931L424.604 348.932L420.825 348.832C419.956 348.809 419.419 348.275 419.439 347.515C419.459 346.756 420.023 346.25 420.893 346.273L424.671 346.372L424.698 345.373L420.859 345.272C419.429 345.234 418.475 346.14 418.44 347.489ZM418.021 356.194L424.409 356.362L424.434 355.382L420.556 355.28L424.824 351.591L418.436 351.423L418.411 352.403L422.289 352.505L418.021 356.194ZM418.264 357.975L418.222 359.574C418.174 361.403 419.321 362.684 421.21 362.734C423.06 362.782 424.272 361.564 424.32 359.734L424.362 358.135L418.264 357.975ZM423.366 359.109L423.353 359.629C423.319 360.918 422.507 361.727 421.238 361.694C419.928 361.66 419.16 360.809 419.194 359.52L419.208 359L423.366 359.109Z" fill="white"/>
<path opacity="0.2" d="M209.959 370.115L211.602 371.109C213.481 372.246 215.498 371.81 216.671 369.87C217.82 367.97 217.27 365.982 215.391 364.846L213.748 363.852L209.959 370.115ZM214.172 365.469L214.706 365.792C216.031 366.593 216.392 367.92 215.604 369.224C214.79 370.569 213.447 370.865 212.123 370.063L211.589 369.741L214.172 365.469ZM216.056 373.803L219.167 375.685L219.595 374.583L217.685 373.428L218.71 371.734L220.62 372.889L221.222 371.893L219.312 370.738L220.269 369.157L222.179 370.312L222.956 369.422L219.844 367.54L216.056 373.803ZM225.145 376.005L225.747 375.009L223.837 373.854L224.961 371.995L226.871 373.151L227.648 372.26L224.537 370.378L220.749 376.642L221.775 377.263L223.235 374.85L225.145 376.005ZM225.221 379.347L226.247 379.968L230.036 373.704L229.009 373.083L225.221 379.347Z" fill="white"/>
</g>
<defs>
<clipPath id="clip0_1001_11369">
<rect width="586" height="448" fill="white"/>
</clipPath>
</defs>
</svg>
