<svg width="169" height="40" viewBox="0 0 169 40" fill="none" xmlns="http://www.w3.org/2000/svg">
<path d="M0 4C0 1.79086 1.79086 0 4 0H165C167.209 0 169 1.79086 169 4V36C169 38.2091 167.209 40 165 40H4C1.79086 40 0 38.2091 0 36V4Z" fill="#F9D248"/>
<path d="M44.1517 22.046C46.2097 22.046 48.6177 20.954 48.6177 18.252C48.6177 15.354 46.4477 14.556 44.1937 14.556H41.1277V25H43.6197V22.046H44.1517ZM44.1937 16.768C45.5097 16.768 46.1257 17.286 46.1257 18.252C46.1257 19.288 45.3697 19.876 44.1937 19.876H43.6197V16.768H44.1937ZM51.6796 20.842C51.6796 20.24 52.4776 19.386 53.7096 19.386C53.8496 19.386 54.0596 19.414 54.1576 19.456V16.922H53.8916C52.7016 16.922 51.8476 18.084 51.5676 18.7V16.964H49.3696V25H51.6796V20.842ZM59.2216 16.572C56.5196 16.572 54.5036 18.518 54.5036 20.982C54.5036 23.446 56.5196 25.392 59.2216 25.392C61.9376 25.392 63.9536 23.446 63.9536 20.982C63.9536 18.518 61.9376 16.572 59.2216 16.572ZM59.2216 18.56C60.5516 18.56 61.5316 19.638 61.5316 20.982C61.5316 22.326 60.5516 23.404 59.2216 23.404C57.9056 23.404 56.9256 22.34 56.9256 20.982C56.9256 19.638 57.9056 18.56 59.2216 18.56ZM68.3777 18.91V16.964H67.5517V16.768C67.5517 15.844 67.9857 15.704 68.5597 15.704V13.716C66.9917 13.716 65.2417 14.052 65.2417 16.586V16.964H64.3177V18.91H65.2417V25H67.5517V18.91H68.3777ZM71.4857 14.08H69.1337V15.942H71.4857V14.08ZM71.4577 16.964H69.1477V25H71.4577V16.964ZM76.4198 18.91V16.964H75.4818V14.598L73.1718 15.018V16.964H72.2338V18.91H73.1718V25H75.4818V18.91H76.4198ZM89.3983 25H91.5403L94.2283 16.964H91.9183L90.4623 22.004L88.8943 16.964H86.7943L85.2263 21.976L83.7703 16.964H81.3483L84.0923 25H86.2903L87.8303 20.184L89.3983 25ZM97.1399 14.08H94.7879V15.942H97.1399V14.08ZM97.1119 16.964H94.8019V25H97.1119V16.964ZM102.068 18.91V16.964H101.13V14.598L98.8202 15.018V16.964H97.8822V18.91H98.8202V25H101.13V18.91H102.068ZM105.123 20.31C105.123 19.358 105.963 18.812 106.691 18.812C107.531 18.812 108.203 19.246 108.203 20.45V25H110.527V19.736C110.527 17.902 109.295 16.768 107.643 16.768C106.397 16.768 105.487 17.412 105.011 18V14.08H102.813V25H105.123V20.31ZM119.485 25H121.683V16.964H119.373V21.668C119.373 22.606 118.547 23.166 117.805 23.166C116.965 23.166 116.293 22.718 116.293 21.528V16.964H113.983V22.228C113.983 24.076 115.201 25.21 116.853 25.21C118.085 25.21 118.995 24.608 119.485 24.02V25ZM125.601 16.684C123.417 16.67 122.549 17.804 122.549 18.938C122.549 19.876 122.857 20.492 124.537 21.612C125.615 22.312 125.825 22.592 125.825 22.83C125.825 23.138 125.559 23.404 124.873 23.404C124.411 23.404 123.627 23.222 122.787 22.816V24.762C123.459 25.042 124.425 25.266 125.195 25.266C127.183 25.252 128.303 24.244 128.303 22.872C128.303 21.976 127.841 21.22 125.937 19.96C125.279 19.526 124.985 19.274 124.985 19.036C124.985 18.728 125.279 18.532 125.811 18.532C126.175 18.532 126.819 18.644 127.477 18.952V17.006C126.973 16.824 126.329 16.684 125.601 16.684Z" fill="#0A0A23"/>
</svg>
