<svg width="1440" height="203" viewBox="0 0 1440 203" fill="none" xmlns="http://www.w3.org/2000/svg">
<g opacity="0.2">
<path d="M496.163 3.56232C505.134 3.87434 511.721 13.7552 506.379 19.4757C497.952 28.6805 499.3 39.6795 498.782 49.8724C496.811 90.176 495.411 130.48 497.796 170.861C498.029 174.144 499.427 177.235 501.738 179.572C502.808 180.586 503.651 181.817 504.21 183.184C504.769 184.55 505.032 186.02 504.98 187.496C504.929 188.972 504.564 190.42 503.911 191.744C503.258 193.067 502.332 194.237 501.193 195.173C500.281 196.237 499.159 197.098 497.896 197.703C496.634 198.307 495.26 198.64 493.862 198.682C492.463 198.723 491.072 198.472 489.776 197.944C488.48 197.416 487.308 196.623 486.335 195.615C481.279 191.065 480.605 185.214 485.065 180.014C489.058 175.386 489.68 170.003 490.251 164.595C493.733 121.626 494.495 78.48 492.533 35.4151C492.325 30.2147 491.599 25.0142 487.606 20.9059C486.193 19.3347 485.354 17.329 485.227 15.2172C485.1 13.1055 485.692 11.0131 486.906 9.28282C487.79 7.58026 489.118 6.14951 490.748 5.14236C492.377 4.13521 494.249 3.58923 496.163 3.56232V3.56232Z" stroke="#0A0A23" stroke-width="2" stroke-miterlimit="10" stroke-linecap="round" stroke-linejoin="round" stroke-dasharray="0.1 4"/>
<path d="M15.843 3.61432C24.3738 4.05636 30.6488 13.8592 25.5406 19.7618C17.4765 29.0966 19.0582 40.0696 18.2804 50.3145C15.4627 88.9464 14.7097 127.702 16.0245 166.415C16.206 172.447 16.6727 178.168 21.2104 183.29C25.7481 188.413 25.0998 194.263 19.9398 198.892C19.0104 199.843 17.9009 200.599 16.6765 201.115C15.4521 201.631 14.1373 201.896 12.8092 201.896C11.4811 201.896 10.1663 201.631 8.94191 201.115C7.7175 200.599 6.60806 199.843 5.67857 198.892C0.726022 194.419 -0.44081 188.725 4.07094 183.29C10.9682 175.23 9.07535 165.349 9.85324 156.378C13.1027 116.473 13.9081 76.4066 12.2647 36.4032C12.449 31.096 10.6662 25.9084 7.26028 21.8419C5.72351 20.1997 4.77887 18.089 4.57682 15.846C4.37476 13.603 4.9269 11.3567 6.14531 9.46484C7.08315 7.70144 8.48029 6.22609 10.188 5.19584C11.8957 4.16559 13.8501 3.61902 15.843 3.61432V3.61432Z" stroke="#0A0A23" stroke-width="2" stroke-miterlimit="10" stroke-linecap="round" stroke-linejoin="round" stroke-dasharray="0.1 4"/>
<path d="M33.1898 182.822C33.1929 179.898 34.3487 177.094 36.4051 175.021C42.5245 170.393 42.8616 163.71 43.1209 157.158C44.7026 117.114 46.2583 77.0708 43.8728 37.0013C43.3695 33.2434 41.944 29.6696 39.7241 26.6003C38.6041 24.8077 38.1907 22.6607 38.5647 20.5787C38.9387 18.4968 40.0732 16.6294 41.7466 15.3414C43.0777 14.0591 44.805 13.2702 46.6434 13.1047C48.4818 12.9393 50.3216 13.4072 51.8591 14.4313C55.5671 16.5895 58.0563 20.5678 56.0079 24.1821C48.8513 36.7673 50.9516 50.7045 49.9144 63.9397C47.3214 96.1825 48.4105 128.529 50.0959 160.85C50.0565 163.443 50.5416 166.018 51.5221 168.418C52.5026 170.818 53.958 172.993 55.8004 174.813C60.39 179.364 59.9751 185.5 56.1894 190.779C54.7169 193.009 52.524 194.663 49.979 195.463C47.434 196.264 44.6919 196.161 42.2133 195.173C39.5995 194.337 37.3177 192.691 35.6962 190.471C34.0747 188.252 33.1972 185.574 33.1898 182.822V182.822Z" stroke="#0A0A23" stroke-width="2" stroke-miterlimit="10" stroke-linecap="round" stroke-linejoin="round" stroke-dasharray="0.1 4"/>
<path d="M63.1126 163.476C63.0743 161.435 63.4923 159.411 64.3358 157.553C65.1794 155.694 66.4271 154.049 67.9874 152.738C72.1621 149.487 73.1733 145.249 73.3289 140.334C74.6308 109.707 73.634 79.0241 70.347 48.5463C70.133 44.9758 68.969 41.528 66.9762 38.5614C66.3996 37.859 65.968 37.0486 65.7065 36.1774C65.445 35.3063 65.3588 34.3917 65.4529 33.4868C65.547 32.5819 65.8195 31.7048 66.2546 30.9065C66.6897 30.1082 67.2787 29.4046 67.9874 28.8365C69.0842 27.5583 70.6075 26.724 72.2727 26.4896C73.938 26.2551 75.6314 26.6365 77.0368 27.5624C77.9328 27.9685 78.7358 28.5554 79.3956 29.2864C80.0554 30.0175 80.5579 30.877 80.8718 31.8115C81.1856 32.7459 81.3041 33.7352 81.2198 34.7176C81.1355 35.6999 80.8502 36.6544 80.3818 37.5213C77.6073 42.7218 77.7888 48.1562 77.5814 53.6427C76.3877 81.521 77.0373 109.448 79.5261 137.24C80.0706 143.377 81.1078 148.655 87.0197 152.842C92.9317 157.028 93.7614 163.971 90.3387 170.705C88.788 173.532 86.3406 175.758 83.3846 177.032C80.4286 178.305 77.1333 178.552 74.0213 177.734C70.9093 176.916 68.1588 175.079 66.2062 172.515C64.2535 169.951 63.2104 166.807 63.2423 163.58L63.1126 163.476Z" stroke="#0A0A23" stroke-width="2" stroke-miterlimit="10" stroke-linecap="round" stroke-linejoin="round" stroke-dasharray="0.1 4"/>
<path d="M463.414 9.64685C473.578 9.64685 480.709 20.5678 474.849 27.0684C466.707 36.0912 467.588 46.6221 467.07 56.633C465.488 93.0362 464.477 129.595 466.344 166.103C466.735 169.651 467.962 173.055 469.922 176.036C470.906 177.719 471.244 179.704 470.871 181.619C470.499 183.535 469.442 185.247 467.899 186.437C466.508 187.83 464.664 188.676 462.703 188.819C460.741 188.963 458.794 188.394 457.216 187.217C453.612 184.85 451.408 180.482 453.794 177.18C461.988 165.843 459.887 152.634 460.51 140.412C462.528 107.28 462.796 74.0629 461.313 40.9016C461.235 38.8981 460.732 36.9343 459.838 35.1409C458.944 33.3475 457.679 31.7657 456.127 30.5007C454.161 28.9105 452.809 26.6813 452.308 24.1982C451.806 21.7151 452.185 19.1342 453.379 16.9015C454.19 14.86 455.565 13.0929 457.342 11.8078C459.12 10.5227 461.226 9.77303 463.414 9.64685V9.64685Z" stroke="#0A0A23" stroke-width="2" stroke-miterlimit="10" stroke-linecap="round" stroke-linejoin="round" stroke-dasharray="0.1 4"/>
<path d="M100.14 64.7978C100.402 81.6744 102.665 98.4599 106.882 114.8C107.268 116.809 108.152 118.689 109.452 120.266C110.753 121.843 112.428 123.066 114.324 123.823C124.695 128.503 127.963 138.904 122.803 147.797C121.636 149.87 120.043 151.67 118.128 153.076C116.213 154.483 114.022 155.464 111.699 155.954C109.377 156.445 106.977 156.433 104.659 155.92C102.342 155.407 100.16 154.404 98.2589 152.979C96.3582 151.553 94.7823 149.738 93.6362 147.654C92.4902 145.569 91.8004 143.264 91.6128 140.892C91.4253 138.519 91.7442 136.133 92.5484 133.894C93.3526 131.655 94.6235 129.613 96.2766 127.905C97.7761 126.315 98.9251 124.425 99.6488 122.36C100.373 120.295 100.655 118.1 100.477 115.918C99.5437 95.5065 98.688 75.0947 89.2756 56.295C88.5569 55.0935 88.2777 53.6786 88.4859 52.2931C88.694 50.9077 89.3766 49.6381 90.4165 48.7023C91.134 47.8475 92.0916 47.2291 93.1646 46.9276C94.2375 46.6262 95.3761 46.6556 96.4321 47.0122C97.7827 47.3732 98.9639 48.1983 99.7696 49.3437C100.575 50.489 100.954 51.8818 100.84 53.2787C100.711 57.4131 100.347 61.5475 100.14 64.7978Z" stroke="#0A0A23" stroke-width="2" stroke-miterlimit="10" stroke-linecap="round" stroke-linejoin="round" stroke-dasharray="0.1 4"/>
<path d="M258.362 172.083C257.559 176.088 259.529 177.986 260.463 180.222C261.123 181.459 261.526 182.817 261.649 184.214C261.772 185.611 261.612 187.019 261.178 188.352C260.745 189.686 260.047 190.918 259.126 191.974C258.205 193.03 257.081 193.888 255.821 194.497C254.666 195.291 253.36 195.838 251.985 196.102C250.61 196.366 249.195 196.342 247.829 196.032C246.463 195.722 245.176 195.132 244.048 194.3C242.92 193.468 241.976 192.41 241.275 191.195C237.541 185.994 238.267 179.988 243.427 176.504C249.106 172.707 251.206 167.273 253.021 161.578C266.114 122.523 276.511 82.6108 284.137 42.1237C284.933 37.8179 284.539 33.3754 282.996 29.2786C281.569 25.1442 283.696 21.6859 287.404 19.5537C289.056 18.4863 291.041 18.0611 292.984 18.358C294.928 18.6549 296.696 19.6534 297.957 21.1659C300.913 24.2602 302.235 28.4985 299.279 31.7228C288.441 43.6059 286.574 59.2333 282.192 73.4825C272.202 105.126 264.345 137.407 258.674 170.107C258.613 170.772 258.509 171.432 258.362 172.083V172.083Z" stroke="#0A0A23" stroke-width="2" stroke-miterlimit="10" stroke-linecap="round" stroke-linejoin="round" stroke-dasharray="0.1 4"/>
<path d="M226.132 168.521C226.754 171.206 227.23 173.923 227.558 176.66C227.877 178.744 227.415 180.872 226.261 182.634C225.107 184.396 223.343 185.668 221.309 186.203C219.605 186.866 217.723 186.906 215.992 186.316C214.262 185.727 212.793 184.545 211.845 182.978C209.252 179.208 208.889 174.423 212.467 171.667C218.275 167.169 219.753 160.772 221.802 154.584C234.277 116.796 244.349 78.2523 251.958 39.1855C253.144 34.6192 252.666 29.7785 250.61 25.5343C247.705 19.7617 248.406 13.9632 254.603 10.4009C255.759 9.61583 257.061 9.07287 258.431 8.80458C259.801 8.53628 261.212 8.54817 262.577 8.83953C263.943 9.1309 265.236 9.69574 266.378 10.5002C267.521 11.3047 268.49 12.3322 269.227 13.5212C273.479 19.5537 272.053 25.1962 266.141 29.2786C263.392 31.1389 261.368 33.8945 260.411 37.0793C246.256 78.6956 234.942 121.23 226.547 164.387C226.339 165.453 226.313 166.571 226.132 168.521Z" stroke="#0A0A23" stroke-width="2" stroke-miterlimit="10" stroke-linecap="round" stroke-linejoin="round" stroke-dasharray="0.1 4"/>
<path d="M282.373 190.441C279.712 190.302 277.176 189.266 275.176 187.501C273.176 185.736 271.829 183.345 271.353 180.716C270.871 179.32 270.668 177.841 270.756 176.366C270.845 174.891 271.223 173.448 271.868 172.119C272.514 170.791 273.414 169.603 274.518 168.624C275.623 167.645 276.908 166.894 278.302 166.415C284.292 164.231 286.081 160.096 287.533 154.922C297.962 120.832 305.679 85.9659 310.611 50.6525C310.984 47.0932 310.809 43.4975 310.092 39.9915C309.806 38.339 310.127 36.6386 310.994 35.2046C311.862 33.7707 313.218 32.7001 314.811 32.1908C316.232 31.6047 317.799 31.4724 319.298 31.8121C320.797 32.1518 322.155 32.9469 323.187 34.089C324.518 35.1424 325.397 36.6669 325.643 38.3496C325.889 40.0323 325.483 41.7456 324.509 43.1378C313.255 59.8833 310.792 79.541 305.788 98.4447C300.462 119.002 296.256 139.835 293.186 160.85C292.723 164.948 293.453 169.093 295.286 172.785C298.916 181.834 292.59 190.779 282.373 190.441Z" stroke="#0A0A23" stroke-width="2" stroke-miterlimit="10" stroke-linecap="round" stroke-linejoin="round" stroke-dasharray="0.1 4"/>
<path d="M227.454 14.0673C229.966 14.3156 232.363 15.249 234.383 16.7662C236.403 18.2835 237.971 20.3267 238.915 22.674C240.073 25.0933 240.308 27.8535 239.577 30.4348C238.847 33.0161 237.2 35.2405 234.948 36.6893C229.581 40.2256 227.506 45.192 225.665 50.7565C215.231 83.1393 206.805 116.139 200.436 149.565C199.424 154.182 199.424 158.964 200.436 163.581C200.718 164.518 200.812 165.502 200.713 166.476C200.614 167.45 200.323 168.395 199.858 169.255C199.393 170.116 198.762 170.876 198.002 171.491C197.242 172.105 196.369 172.563 195.431 172.837C193.81 173.272 192.092 173.169 190.534 172.543C188.975 171.918 187.66 170.804 186.785 169.368C185.91 167.932 185.522 166.25 185.678 164.575C185.834 162.899 186.527 161.319 187.653 160.07C191.62 156.456 192.838 151.723 194.368 147.069C205.141 114.482 213.504 81.1437 219.39 47.3242C219.965 45.0915 220.016 42.7556 219.539 40.4999C219.062 38.2442 218.07 36.13 216.642 34.3231C215.093 32.3242 214.231 29.8765 214.184 27.3457C214.138 24.8149 214.909 22.3368 216.382 20.2818C217.571 18.408 219.205 16.8593 221.137 15.7747C223.07 14.6901 225.24 14.1034 227.454 14.0673V14.0673Z" stroke="#0A0A23" stroke-width="2" stroke-miterlimit="10" stroke-linecap="round" stroke-linejoin="round" stroke-dasharray="0.1 4"/>
<path d="M432.583 27.7184C435.112 27.7388 437.586 28.449 439.743 29.7729C441.899 31.0968 443.655 32.9843 444.822 35.2331C446.228 37.5064 446.814 40.194 446.484 42.8483C446.154 45.5025 444.927 47.9632 443.007 49.8204C437.821 54.7868 436.991 60.6374 436.784 67.1379C435.78 96.1511 436.829 125.199 439.922 154.064C440.261 157.617 441.31 161.066 443.007 164.205C444.003 165.75 444.347 167.628 443.963 169.427C443.579 171.226 442.498 172.799 440.959 173.799C439.608 175.028 437.84 175.691 436.017 175.652C434.194 175.614 432.455 174.876 431.157 173.591C430.406 173.075 429.766 172.413 429.276 171.643C428.787 170.873 428.457 170.012 428.307 169.111C428.157 168.21 428.189 167.288 428.403 166.401C428.617 165.513 429.007 164.678 429.55 163.945C432.687 159.524 432.609 154.636 432.817 149.669C434.067 121.774 433.408 93.8251 430.846 66.0198C430.276 60.1173 429.161 54.9689 423.975 50.8345C419.308 47.1162 418.478 41.3957 421.045 35.7012C422.053 33.4376 423.663 31.4957 425.698 30.0879C427.733 28.68 430.115 27.8603 432.583 27.7184V27.7184Z" stroke="#0A0A23" stroke-width="2" stroke-miterlimit="10" stroke-linecap="round" stroke-linejoin="round" stroke-dasharray="0.1 4"/>
<path d="M151.221 100.447C151.014 107.104 146.813 112.72 139.216 115.84C135.775 117.388 131.911 117.717 128.259 116.772C124.608 115.827 121.385 113.664 119.121 110.64C116.505 107.913 114.855 104.401 114.424 100.643C113.993 96.8847 114.805 93.0885 116.735 89.838C122.232 79.4371 122.232 79.4371 112.483 72.8845C109.682 71.0123 107.893 68.8801 109.164 65.3698C109.525 64.1639 110.31 63.1303 111.373 62.4608C112.436 61.7914 113.706 61.5315 114.946 61.7295C115.702 61.7978 116.437 62.016 117.109 62.3717C117.78 62.7273 118.374 63.2132 118.857 63.8011C119.339 64.389 119.7 65.0671 119.919 65.7962C120.138 66.5253 120.21 67.2907 120.132 68.0481C120.132 77.2009 124.799 80.3211 133.745 80.2691C143.831 80.3992 151.221 88.9019 151.221 100.447Z" stroke="#0A0A23" stroke-width="2" stroke-miterlimit="10" stroke-linecap="round" stroke-linejoin="round" stroke-dasharray="0.1 4"/>
<path d="M377.716 121.561C373.031 121.662 368.485 119.962 365.009 116.81C361.533 113.658 359.391 109.292 359.021 104.607C358.658 100.021 359.994 95.4611 362.773 91.8007C365.553 88.1402 369.581 85.6361 374.086 84.7675C378.76 83.9608 383.564 84.9915 387.5 87.6453C391.436 90.2991 394.2 94.3718 395.219 99.0168C395.835 101.308 395.921 103.709 395.472 106.039C395.022 108.368 394.049 110.564 392.626 112.46C387.829 119.221 389.463 124.291 395.841 128.425C399.16 130.558 401.805 132.846 399.938 137.084C399.487 138.28 398.596 139.257 397.447 139.814C396.299 140.37 394.982 140.463 393.767 140.074C389.281 138.774 389.566 135.316 389.54 131.468C389.566 124.811 386.636 120.365 377.716 121.561Z" stroke="#0A0A23" stroke-width="2" stroke-miterlimit="10" stroke-linecap="round" stroke-linejoin="round" stroke-dasharray="0.1 4"/>
<path d="M403.179 49.7944C406.1 49.8424 408.944 50.747 411.358 52.3966C413.773 54.0462 415.653 56.3686 416.766 59.0772C418.212 61.5123 418.824 64.3542 418.511 67.1706C418.197 69.9869 416.975 72.6233 415.029 74.6786C409.843 79.8791 409.376 85.9116 410.051 92.2302C411.969 110.432 411.58 129.335 420.422 146.315C421.139 147.527 421.384 148.961 421.111 150.343C420.839 151.725 420.067 152.957 418.944 153.804C418.063 154.703 416.905 155.276 415.658 155.432C414.41 155.588 413.147 155.316 412.073 154.662C410.707 153.974 409.617 152.837 408.985 151.442C408.353 150.046 408.217 148.475 408.598 146.991C411.969 128.321 408.261 110.146 404.683 91.9702C403.594 86.3797 401.52 82.0373 395.4 79.515C392.044 78.0874 389.334 75.4641 387.792 72.1511C386.25 68.8382 385.986 65.0701 387.051 61.5735C387.968 58.0436 390.076 54.9412 393.016 52.7938C395.956 50.6463 399.548 49.5865 403.179 49.7944V49.7944Z" stroke="#0A0A23" stroke-width="2" stroke-miterlimit="10" stroke-linecap="round" stroke-linejoin="round" stroke-dasharray="0.1 4"/>
<path d="M166.727 54.1368C170.115 54.2977 173.354 55.5789 175.938 57.7804C178.523 59.9819 180.308 62.9798 181.014 66.3059C183.063 73.9506 181.014 81.2832 173.78 84.7935C166.546 88.3038 164.316 93.5043 162.371 99.9269C159.311 109.938 156.096 119.949 157.47 130.688C157.821 132.046 157.658 133.486 157.011 134.73C156.365 135.974 155.281 136.933 153.97 137.422C152.836 137.988 151.535 138.117 150.312 137.787C149.089 137.456 148.029 136.688 147.332 135.628C146.47 134.529 146.049 133.147 146.15 131.752C146.25 130.358 146.866 129.051 147.876 128.087C155.215 119.429 156.122 108.482 158.456 98.0807C159.35 95.3346 159.352 92.3749 158.462 89.6274C157.572 86.88 155.836 84.4865 153.503 82.7913C150.729 80.6422 148.807 77.5742 148.081 74.1353C147.354 70.6964 147.87 67.1104 149.536 64.0177C152.596 57.3871 157.807 53.9028 166.727 54.1368Z" stroke="#0A0A23" stroke-width="2" stroke-miterlimit="10" stroke-linecap="round" stroke-linejoin="round" stroke-dasharray="0.1 4"/>
<path d="M177.41 142.571C178.785 147.381 177.773 150.839 173.443 152.608C172.272 153.088 170.974 153.157 169.759 152.802C168.544 152.448 167.485 151.692 166.753 150.657C163.875 147.121 166.053 144.313 167.816 140.959C176.84 123.641 180.781 104.555 185.163 85.8336C186.382 80.6332 187.108 75.4327 188.275 70.4143C189.052 67.923 189.134 65.266 188.512 62.7313C187.89 60.1966 186.589 57.8808 184.748 56.035C183.459 54.5699 182.482 52.8559 181.878 50.9983C181.273 49.1406 181.054 47.1786 181.234 45.233C181.414 43.2873 181.989 41.3991 182.923 39.6844C183.857 37.9697 185.132 36.4647 186.667 35.2622C188.203 34.0596 189.968 33.1847 191.853 32.6914C193.739 32.1981 195.705 32.0967 197.631 32.3936C199.557 32.6904 201.402 33.3792 203.053 34.4175C204.703 35.4559 206.125 36.8218 207.229 38.4314C212.208 45.6861 210.445 54.1888 202.51 59.0513C199.345 60.6888 196.87 63.4105 195.535 66.7219C187.089 90.1301 181.008 114.33 177.384 138.956C177.307 140.16 177.315 141.368 177.41 142.571V142.571Z" stroke="#0A0A23" stroke-width="2" stroke-miterlimit="10" stroke-linecap="round" stroke-linejoin="round" stroke-dasharray="0.1 4"/>
<path d="M312.529 172.447C307.603 172.291 302.987 168.469 301.146 161.552C300.055 158.451 300.22 155.044 301.607 152.063C302.994 149.083 305.491 146.767 308.562 145.613C314.811 143.013 316.963 138.488 318.934 132.768C325.113 112.969 329.811 92.7346 332.988 72.2344C333.571 67.5636 333.571 62.838 332.988 58.1672C332.853 56.7616 333.246 55.3562 334.09 54.226C334.934 53.0958 336.168 52.3222 337.551 52.0566C338.753 51.6871 340.041 51.7096 341.229 52.1208C342.417 52.532 343.445 53.3107 344.163 54.3448C344.976 55.3005 345.454 56.4967 345.524 57.7504C345.594 59.0042 345.253 60.2466 344.552 61.2874C333.714 79.8271 331.432 100.915 326.713 121.301C325.598 126.111 325.235 131.13 324.431 136.044C323.376 141.145 324.383 146.457 327.231 150.813C333.532 160.772 326.35 172.681 312.529 172.447Z" stroke="#0A0A23" stroke-width="2" stroke-miterlimit="10" stroke-linecap="round" stroke-linejoin="round" stroke-dasharray="0.1 4"/>
<path d="M351.942 114.02C350.646 118.857 355.132 119.949 357.336 122.497C361.796 127.697 363.818 133.366 361.044 140.1C359.967 143.141 358.004 145.787 355.411 147.697C352.818 149.607 349.713 150.693 346.497 150.813C339.47 151.307 334.336 147.511 330.939 141.531C329.811 139.531 329.136 137.307 328.964 135.016C328.792 132.725 329.127 130.424 329.944 128.278C330.762 126.132 332.042 124.193 333.693 122.6C335.344 121.008 337.326 119.8 339.496 119.065C341.971 118.285 344.17 116.809 345.834 114.814C347.498 112.818 348.556 110.386 348.883 107.806C351.139 96.2345 356.065 85.0535 353.135 72.8065C352.487 70.2062 354.406 68.126 357.051 67.19C358.094 66.7903 359.237 66.7389 360.312 67.0434C361.386 67.3479 362.334 67.9921 363.014 68.8801C363.929 69.7622 364.474 70.9613 364.536 72.2323C364.599 73.5034 364.175 74.7505 363.351 75.7187C354.354 86.8997 354.847 100.967 351.942 114.02Z" stroke="#0A0A23" stroke-width="2" stroke-miterlimit="10" stroke-linecap="round" stroke-linejoin="round" stroke-dasharray="0.1 4"/>
<path d="M977.779 1.30011C986.751 1.61214 993.337 11.493 987.995 17.2135C979.568 26.3923 980.917 37.4173 980.398 47.6102C978.427 87.8878 977.027 128.217 979.413 168.599C979.649 171.881 981.047 174.97 983.354 177.31C984.424 178.324 985.267 179.555 985.826 180.921C986.385 182.288 986.648 183.758 986.596 185.234C986.545 186.71 986.18 188.158 985.528 189.481C984.875 190.805 983.948 191.974 982.809 192.911C981.9 193.978 980.778 194.843 979.515 195.449C978.253 196.056 976.878 196.391 975.478 196.432C974.079 196.474 972.686 196.221 971.39 195.691C970.094 195.161 968.923 194.364 967.952 193.353C962.895 188.803 962.221 182.952 966.681 177.752C970.674 173.149 971.297 167.767 971.867 162.358C975.35 119.382 976.112 76.2265 974.149 33.1529C973.941 27.9525 973.215 22.882 969.222 18.6436C967.807 17.0789 966.967 15.077 966.839 12.9685C966.712 10.8601 967.306 8.77109 968.522 7.04662C969.403 5.3392 970.729 3.90317 972.359 2.89129C973.989 1.87941 975.862 1.32952 977.779 1.30011V1.30011Z" stroke="#0A0A23" stroke-width="2" stroke-miterlimit="10" stroke-linecap="round" stroke-linejoin="round" stroke-dasharray="0.1 4"/>
<path d="M514.806 180.56C514.813 177.632 515.979 174.826 518.047 172.759C524.141 168.131 524.478 161.448 524.737 154.896C526.319 114.852 527.875 74.8086 525.489 34.7391C524.994 30.979 523.568 27.4031 521.34 24.3381C520.198 22.5386 519.771 20.374 520.146 18.274C520.521 16.1739 521.669 14.2918 523.363 13.0011C524.697 11.7559 526.411 10.9988 528.228 10.8525C530.044 10.7062 531.857 11.1793 533.372 12.1951C537.106 14.3533 539.569 18.3316 537.521 21.9459C530.364 34.531 532.335 48.4683 531.427 61.7035C528.834 93.9463 529.923 126.293 531.609 158.588C531.566 161.186 532.049 163.765 533.03 166.17C534.01 168.574 535.467 170.754 537.313 172.577C541.903 177.102 541.488 183.238 537.702 188.543C536.228 190.757 534.043 192.398 531.509 193.192C528.976 193.987 526.247 193.888 523.778 192.911C521.174 192.066 518.903 190.415 517.292 188.197C515.68 185.978 514.81 183.305 514.806 180.56V180.56Z" stroke="#0A0A23" stroke-width="2" stroke-miterlimit="10" stroke-linecap="round" stroke-linejoin="round" stroke-dasharray="0.1 4"/>
<path d="M544.729 161.214C544.703 159.165 545.137 157.135 545.999 155.276C546.861 153.418 548.128 151.777 549.707 150.475C553.882 147.225 554.893 142.961 555.049 138.072C556.351 107.444 555.354 76.7619 552.067 46.2841C551.853 42.7136 550.689 39.2658 548.696 36.2992C548.123 35.5953 547.694 34.7847 547.435 33.914C547.175 33.0432 547.09 32.1296 547.184 31.2257C547.278 30.3218 547.549 29.4455 547.982 28.6472C548.415 27.8489 549.002 27.1444 549.707 26.5743C550.804 25.2967 552.325 24.461 553.989 24.2219C555.653 23.9829 557.347 24.3567 558.757 25.2742C562.543 27.6664 563.943 31.3848 561.972 35.2591C559.198 40.4596 559.379 45.894 559.172 51.3805C557.978 79.2588 558.628 107.186 561.116 134.978C561.661 141.114 562.698 146.393 568.61 150.579C574.522 154.766 575.352 161.708 571.929 168.443C570.348 171.409 567.764 173.711 564.641 174.936C561.518 176.162 558.061 176.229 554.893 175.125C551.89 174.283 549.256 172.454 547.413 169.932C545.571 167.409 544.625 164.339 544.729 161.214V161.214Z" stroke="#0A0A23" stroke-width="2" stroke-miterlimit="10" stroke-linecap="round" stroke-linejoin="round" stroke-dasharray="0.1 4"/>
<path d="M945.03 7.35864C955.194 7.35864 962.325 18.3056 956.465 24.8062C948.323 33.829 949.205 44.3599 948.686 54.3448C947.104 90.748 946.093 127.333 947.96 163.841C948.37 167.389 949.624 170.786 951.616 173.747C952.6 175.431 952.938 177.416 952.566 179.331C952.193 181.246 951.136 182.959 949.594 184.148C948.197 185.534 946.351 186.371 944.391 186.509C942.432 186.648 940.487 186.078 938.911 184.902C935.306 182.562 933.102 178.194 935.488 174.866C943.682 163.555 941.581 150.345 942.204 138.124C944.222 104.983 944.49 71.7574 943.008 38.5874C942.941 36.563 942.443 34.5762 941.549 32.7601C940.655 30.9439 939.384 29.3403 937.822 28.0565C935.853 26.4738 934.499 24.2488 933.997 21.7689C933.495 19.2889 933.876 16.7108 935.073 14.4833C935.903 12.4811 937.275 10.7522 939.035 9.49281C940.795 8.23346 942.872 7.49409 945.03 7.35864V7.35864Z" stroke="#0A0A23" stroke-width="2" stroke-miterlimit="10" stroke-linecap="round" stroke-linejoin="round" stroke-dasharray="0.1 4"/>
<path d="M581.756 62.5355C582.05 79.4079 584.348 96.185 588.602 112.512C588.984 114.526 589.866 116.411 591.167 117.992C592.467 119.574 594.145 120.801 596.044 121.561C606.415 126.215 609.683 136.642 604.523 145.535C603.356 147.608 601.763 149.407 599.848 150.814C597.934 152.221 595.742 153.202 593.419 153.692C591.097 154.182 588.697 154.171 586.379 153.658C584.062 153.144 581.88 152.142 579.979 150.716C578.078 149.291 576.502 147.476 575.356 145.392C574.21 143.307 573.52 141.002 573.333 138.629C573.145 136.257 573.464 133.871 574.268 131.632C575.073 129.393 576.344 127.351 577.997 125.643C579.5 124.049 580.651 122.156 581.374 120.086C582.098 118.016 582.379 115.816 582.197 113.63C581.264 93.2443 580.408 72.8065 570.996 54.0328C570.282 52.8299 570.005 51.4162 570.213 50.0321C570.421 48.6479 571.101 47.3787 572.136 46.4401C572.854 45.5853 573.812 44.9669 574.885 44.6654C575.958 44.364 577.096 44.3934 578.152 44.75C579.505 45.1063 580.69 45.9304 581.496 47.0769C582.303 48.2234 582.679 49.6186 582.56 51.0165C582.327 55.1509 581.964 59.2853 581.756 62.5355Z" stroke="#0A0A23" stroke-width="2" stroke-miterlimit="10" stroke-linecap="round" stroke-linejoin="round" stroke-dasharray="0.1 4"/>
<path d="M739.979 169.821C739.175 173.825 741.146 175.698 742.079 177.96C742.739 179.197 743.142 180.554 743.265 181.952C743.388 183.349 743.228 184.757 742.795 186.09C742.361 187.424 741.663 188.656 740.742 189.712C739.822 190.768 738.698 191.626 737.438 192.235C736.281 193.025 734.975 193.568 733.601 193.831C732.226 194.093 730.812 194.068 729.448 193.758C728.083 193.448 726.797 192.86 725.669 192.03C724.541 191.2 723.595 190.145 722.891 188.933C719.157 183.576 719.883 177.726 725.043 174.241C730.722 170.445 732.822 165.011 734.637 159.29C747.79 120.243 758.23 80.3293 765.882 39.8355C766.681 35.5384 766.286 31.1038 764.741 27.0164C763.315 22.882 765.442 19.4237 769.15 17.2655C770.804 16.1955 772.792 15.7712 774.737 16.0732C776.682 16.3751 778.449 17.3822 779.703 18.9037C782.659 21.9719 783.981 26.2363 781.025 29.4606C770.213 41.3437 768.32 56.971 763.938 71.2203C753.944 102.852 746.095 135.125 740.445 167.819C740.34 168.497 740.184 169.166 739.979 169.821Z" stroke="#0A0A23" stroke-width="2" stroke-miterlimit="10" stroke-linecap="round" stroke-linejoin="round" stroke-dasharray="0.1 4"/>
<path d="M707.878 166.259C708.5 168.935 708.976 171.643 709.304 174.371C709.624 176.459 709.162 178.591 708.009 180.357C706.855 182.124 705.091 183.4 703.055 183.94C701.348 184.573 699.476 184.598 697.753 184.01C696.03 183.423 694.56 182.26 693.591 180.716C690.998 176.946 690.661 172.161 694.213 169.405C700.021 164.881 701.499 158.51 703.548 152.295C716.029 114.509 726.102 75.9656 733.704 36.8972C734.818 32.3651 734.294 27.5836 732.226 23.402C729.322 17.6295 730.048 11.831 736.219 8.34671C737.375 7.56163 738.677 7.01867 740.047 6.75038C741.418 6.48208 742.828 6.49397 744.193 6.78534C745.559 7.0767 746.852 7.64154 747.995 8.446C749.137 9.25046 750.106 10.278 750.843 11.467C755.096 17.4995 753.67 23.142 747.758 27.2244C745.02 29.097 742.999 31.848 742.027 35.0251C727.89 76.6291 716.576 119.145 708.163 162.28C707.878 163.19 707.878 164.309 707.878 166.259Z" stroke="#0A0A23" stroke-width="2" stroke-miterlimit="10" stroke-linecap="round" stroke-linejoin="round" stroke-dasharray="0.1 4"/>
<path d="M763.99 188.179C761.33 188.035 758.796 186.998 756.797 185.233C754.798 183.469 753.449 181.081 752.97 178.454C752.488 177.059 752.285 175.583 752.374 174.109C752.462 172.636 752.841 171.195 753.486 169.868C754.132 168.542 755.033 167.356 756.136 166.38C757.24 165.404 758.526 164.655 759.919 164.179C765.908 161.994 767.698 157.86 769.15 152.66C779.581 118.57 787.298 83.7043 792.227 48.3903C792.6 44.8396 792.425 41.2525 791.708 37.7553C791.417 36.1022 791.735 34.3993 792.603 32.964C793.472 31.5287 794.831 30.4592 796.427 29.9546C797.847 29.3608 799.416 29.2244 800.917 29.5645C802.418 29.9046 803.776 30.7043 804.803 31.8528C806.132 32.9017 807.01 34.4217 807.256 36.1C807.502 37.7784 807.098 39.4875 806.125 40.8756C794.872 57.6211 792.408 77.2788 787.404 96.1825C782.089 116.742 777.883 137.574 774.802 158.588C774.339 162.686 775.069 166.831 776.902 170.523C780.481 179.546 774.206 188.517 763.99 188.179Z" stroke="#0A0A23" stroke-width="2" stroke-miterlimit="10" stroke-linecap="round" stroke-linejoin="round" stroke-dasharray="0.1 4"/>
<path d="M709.071 11.8051C711.579 12.0538 713.972 12.9845 715.992 14.4966C718.011 16.0087 719.581 18.045 720.532 20.3858C721.691 22.809 721.927 25.5732 721.196 28.1589C720.466 30.7446 718.819 32.9736 716.564 34.4271C711.197 37.9634 709.123 42.9298 707.282 48.4943C696.841 80.8753 688.415 113.875 682.052 147.303C681.041 151.911 681.041 156.684 682.052 161.292C682.335 162.231 682.429 163.217 682.331 164.193C682.232 165.169 681.941 166.115 681.476 166.978C681.011 167.841 680.38 168.603 679.62 169.22C678.86 169.838 677.986 170.298 677.048 170.575C675.421 171.018 673.696 170.92 672.13 170.294C670.565 169.669 669.244 168.551 668.367 167.108C667.49 165.666 667.103 163.976 667.266 162.294C667.428 160.612 668.131 159.029 669.269 157.782C673.236 154.194 674.455 149.435 675.985 144.781C686.779 112.23 695.168 78.9264 701.084 45.14C701.655 42.907 701.704 40.572 701.227 38.317C700.75 36.0619 699.761 33.9477 698.336 32.1389C696.787 30.14 695.925 27.6923 695.879 25.1615C695.832 22.6307 696.603 20.1526 698.077 18.0976C699.247 16.2186 700.864 14.6601 702.783 13.5619C704.702 12.4637 706.862 11.8601 709.071 11.8051V11.8051Z" stroke="#0A0A23" stroke-width="2" stroke-miterlimit="10" stroke-linecap="round" stroke-linejoin="round" stroke-dasharray="0.1 4"/>
<path d="M914.2 25.4562C916.728 25.4766 919.203 26.1868 921.359 27.5107C923.515 28.8346 925.271 30.7221 926.439 32.9709C927.844 35.2442 928.431 37.9318 928.101 40.5861C927.77 43.2403 926.543 45.701 924.623 47.5582C919.437 52.4986 918.608 58.3752 918.426 64.8757C917.401 93.8796 918.44 122.92 921.538 151.775C921.877 155.337 922.927 158.795 924.623 161.942C925.132 162.709 925.483 163.57 925.656 164.475C925.828 165.38 925.819 166.31 925.628 167.211C925.437 168.112 925.069 168.966 924.545 169.722C924.02 170.478 923.351 171.122 922.575 171.615C921.231 172.853 919.463 173.525 917.638 173.491C915.813 173.457 914.071 172.72 912.774 171.433C912.022 170.917 911.383 170.254 910.893 169.484C910.403 168.715 910.073 167.853 909.923 166.953C909.773 166.052 909.806 165.13 910.019 164.242C910.233 163.355 910.623 162.519 911.166 161.786C914.303 157.366 914.226 152.477 914.433 147.511C915.683 119.607 915.024 91.6496 912.462 63.8356C911.892 57.9591 910.777 52.7847 905.591 48.6503C900.924 44.932 900.094 39.2375 902.661 33.543C903.65 31.2565 905.252 29.29 907.289 27.8623C909.326 26.4346 911.719 25.6017 914.2 25.4562Z" stroke="#0A0A23" stroke-width="2" stroke-miterlimit="10" stroke-linecap="round" stroke-linejoin="round" stroke-dasharray="0.1 4"/>
<path d="M632.838 98.1847C632.63 104.815 628.43 110.458 620.832 113.578C617.39 115.121 613.528 115.447 609.877 114.503C606.227 113.558 603.004 111.398 600.737 108.378C598.118 105.653 596.467 102.138 596.041 98.3778C595.614 94.6175 596.435 90.821 598.377 87.5758C603.848 77.1749 603.848 77.1749 594.099 70.6223C591.298 68.7501 589.509 66.5919 590.78 63.1076C591.141 61.9017 591.926 60.8681 592.989 60.1986C594.053 59.5292 595.322 59.2693 596.562 59.4673C597.32 59.5321 598.057 59.7482 598.73 60.1027C599.403 60.4572 599.998 60.9431 600.482 61.5318C600.965 62.1205 601.326 62.8 601.543 63.5306C601.761 64.2611 601.83 65.0279 601.748 65.7858C601.748 74.9387 606.441 78.0329 615.361 78.0069C625.448 78.0069 632.838 86.6137 632.838 98.1847Z" stroke="#0A0A23" stroke-width="2" stroke-miterlimit="10" stroke-linecap="round" stroke-linejoin="round" stroke-dasharray="0.1 4"/>
<path d="M859.333 119.299C854.649 119.393 850.106 117.691 846.632 114.54C843.157 111.39 841.013 107.028 840.638 102.345C840.278 97.7604 841.612 93.2032 844.385 89.5404C847.158 85.8775 851.177 83.3645 855.677 82.4793C860.354 81.6801 865.158 82.717 869.092 85.375C873.027 88.033 875.791 92.108 876.809 96.7546C877.421 99.0417 877.505 101.438 877.056 103.763C876.607 106.088 875.636 108.279 874.216 110.172C869.419 116.958 871.053 122.029 877.432 126.163C880.751 128.295 883.395 130.584 881.528 134.822C881.083 135.993 880.213 136.951 879.093 137.506C877.972 138.061 876.684 138.17 875.487 137.812C871.001 136.538 871.286 133.08 871.26 129.205C871.234 122.549 868.253 118.102 859.333 119.299Z" stroke="#0A0A23" stroke-width="2" stroke-miterlimit="10" stroke-linecap="round" stroke-linejoin="round" stroke-dasharray="0.1 4"/>
<path d="M884.796 47.5322C887.715 47.5747 890.557 48.4741 892.972 50.1193C895.387 51.7645 897.268 54.0833 898.383 56.789C899.828 59.2241 900.441 62.066 900.127 64.8823C899.814 67.6987 898.591 70.3351 896.645 72.3904C891.459 77.5909 890.993 83.6234 891.667 89.942C893.586 108.144 893.197 127.021 902.039 144.001C902.757 145.216 903.003 146.655 902.73 148.041C902.458 149.427 901.685 150.664 900.561 151.515C899.681 152.419 898.521 152.993 897.271 153.145C896.022 153.296 894.758 153.015 893.689 152.348C892.293 151.659 891.181 150.501 890.547 149.077C889.912 147.652 889.795 146.049 890.215 144.547C893.586 125.903 889.878 107.702 886.299 89.5519C885.21 83.9354 883.136 79.6191 877.017 77.0708C873.665 75.6584 870.955 73.051 869.408 69.752C867.861 66.453 867.588 62.6963 868.641 59.2073C869.575 55.6896 871.694 52.6045 874.639 50.4762C877.584 48.3479 881.173 47.3077 884.796 47.5322Z" stroke="#0A0A23" stroke-width="2" stroke-miterlimit="10" stroke-linecap="round" stroke-linejoin="round" stroke-dasharray="0.1 4"/>
<path d="M648.24 51.8486C651.627 52.0095 654.866 53.2907 657.451 55.4922C660.036 57.6937 661.821 60.6916 662.527 64.0177C664.575 71.6623 662.527 78.995 655.293 82.5053C648.058 86.0156 645.828 91.2421 643.884 97.6646C640.824 107.676 637.609 117.66 638.983 128.425C639.354 129.778 639.213 131.22 638.585 132.473C637.958 133.727 636.889 134.703 635.586 135.212C634.447 135.75 633.155 135.864 631.939 135.536C630.723 135.207 629.664 134.457 628.948 133.418C628.085 132.314 627.662 130.928 627.763 129.529C627.864 128.13 628.48 126.819 629.493 125.851C636.831 117.218 637.738 106.245 640.072 95.8705C640.952 93.1272 640.947 90.1757 640.057 87.4355C639.168 84.6954 637.44 82.306 635.119 80.6071C632.348 78.4624 630.426 75.399 629.7 71.9645C628.973 68.53 629.488 64.9483 631.152 61.8595C634.212 55.1249 639.424 51.6146 648.24 51.8486Z" stroke="#0A0A23" stroke-width="2" stroke-miterlimit="10" stroke-linecap="round" stroke-linejoin="round" stroke-dasharray="0.1 4"/>
<path d="M659.027 140.412C660.401 145.223 659.39 148.681 655.059 150.449C653.886 150.932 652.584 150.999 651.368 150.64C650.152 150.281 649.094 149.516 648.369 148.473C645.491 144.937 647.669 142.155 649.433 138.8C658.456 121.483 662.397 102.397 666.779 83.6754C667.998 78.475 668.724 73.2745 669.891 68.2301C670.689 65.7305 670.785 63.0585 670.167 60.508C669.55 57.9574 668.243 55.627 666.391 53.7728C665.101 52.3077 664.124 50.5937 663.52 48.7361C662.916 46.8784 662.697 44.9164 662.876 42.9708C663.056 41.0251 663.631 39.1369 664.565 37.4222C665.499 35.7075 666.774 34.2025 668.31 32.9999C669.845 31.7974 671.61 30.9225 673.496 30.4292C675.381 29.9359 677.347 29.8345 679.273 30.1314C681.199 30.4282 683.044 31.117 684.695 32.1553C686.345 33.1937 687.767 34.5596 688.871 36.1692C693.85 43.4239 692.087 51.9006 684.152 56.7891C680.987 58.4266 678.512 61.1483 677.177 64.4597C668.731 87.8679 662.65 112.067 659.027 136.694C658.949 137.932 658.949 139.174 659.027 140.412V140.412Z" stroke="#0A0A23" stroke-width="2" stroke-miterlimit="10" stroke-linecap="round" stroke-linejoin="round" stroke-dasharray="0.1 4"/>
<path d="M794.146 170.159C789.219 170.003 784.604 166.207 782.763 159.264C781.69 156.189 781.854 152.817 783.219 149.861C784.584 146.905 787.043 144.598 790.075 143.429C796.298 140.828 798.45 136.304 800.317 130.584C806.496 110.784 811.194 90.5504 814.371 70.0502C814.954 65.3794 814.954 60.6538 814.371 55.9829C814.23 54.5763 814.621 53.1678 815.466 52.0362C816.311 50.9046 817.549 50.1324 818.934 49.8724C820.133 49.4961 821.42 49.5126 822.609 49.9193C823.798 50.3261 824.827 51.102 825.546 52.1346C826.367 53.0862 826.85 54.2835 826.92 55.5395C826.991 56.7954 826.644 58.0394 825.935 59.0772C815.097 77.6169 812.815 98.7307 808.096 119.091C806.981 123.927 806.618 128.919 805.814 133.834C805.313 136.37 805.316 138.98 805.823 141.514C806.33 144.049 807.332 146.458 808.77 148.603C815.149 158.614 807.966 170.393 794.146 170.159Z" stroke="#0A0A23" stroke-width="2" stroke-miterlimit="10" stroke-linecap="round" stroke-linejoin="round" stroke-dasharray="0.1 4"/>
<path d="M833.559 111.81C832.262 116.646 836.748 117.738 838.952 120.287C843.412 125.487 845.434 131.156 842.66 137.89C841.564 140.912 839.595 143.538 837.004 145.432C834.413 147.327 831.318 148.403 828.113 148.525C821.086 149.019 815.952 145.223 812.556 139.242C811.427 137.243 810.753 135.018 810.581 132.727C810.409 130.437 810.743 128.136 811.561 125.99C812.378 123.843 813.658 121.905 815.309 120.312C816.96 118.719 818.942 117.512 821.112 116.776C823.591 115.994 825.793 114.515 827.457 112.515C829.121 110.514 830.177 108.076 830.499 105.491C832.755 93.9463 837.681 82.7653 834.751 70.4922C834.103 67.892 836.022 65.8378 838.667 64.9017C839.707 64.4993 840.849 64.4438 841.923 64.7436C842.998 65.0433 843.947 65.6824 844.631 66.5659C845.542 67.4555 846.083 68.6581 846.145 69.9317C846.208 71.2053 845.787 72.4554 844.968 73.4305C835.97 84.6375 836.463 98.8087 833.559 111.81Z" stroke="#0A0A23" stroke-width="2" stroke-miterlimit="10" stroke-linecap="round" stroke-linejoin="round" stroke-dasharray="0.1 4"/>
<path d="M994.945 181.262C994.936 179.813 995.216 178.376 995.768 177.037C996.32 175.697 997.133 174.482 998.16 173.461C1004.28 168.833 1004.62 162.15 1004.85 155.598C1006.43 115.554 1007.99 75.5107 1005.63 35.4411C1005.1 31.6842 1003.67 28.1132 1001.45 25.0402C1000.31 23.2366 999.881 21.0679 1000.26 18.9635C1000.63 16.8591 1001.78 14.9724 1003.48 13.6772C1004.81 12.4401 1006.53 11.6906 1008.35 11.5491C1010.16 11.4077 1011.97 11.8824 1013.48 12.8971C1017.22 15.0293 1019.71 19.0077 1017.63 22.648C1010.5 35.2071 1012.58 49.1443 1011.57 62.3795C1008.97 94.6484 1010.06 126.995 1011.72 159.29C1011.69 161.882 1012.18 164.455 1013.16 166.854C1014.14 169.253 1015.59 171.43 1017.43 173.253C1022.04 177.804 1021.63 183.94 1017.81 189.219C1016.35 191.451 1014.16 193.11 1011.62 193.915C1009.08 194.72 1006.34 194.623 1003.86 193.639C1001.27 192.783 999.003 191.125 997.401 188.902C995.799 186.679 994.939 184.005 994.945 181.262V181.262Z" stroke="#0A0A23" stroke-width="2" stroke-miterlimit="10" stroke-linecap="round" stroke-linejoin="round" stroke-dasharray="0.1 4"/>
<path d="M1024.84 161.916C1024.81 159.876 1025.23 157.854 1026.07 155.997C1026.92 154.14 1028.16 152.494 1029.72 151.177C1031.53 149.691 1032.95 147.792 1033.88 145.638C1034.81 143.485 1035.22 141.141 1035.06 138.8C1036.33 108.171 1035.31 77.488 1032 47.0122C1031.77 43.4412 1030.59 39.9957 1028.6 37.0273C1028.03 36.3213 1027.6 35.5085 1027.34 34.6357C1027.08 33.7629 1026.99 32.8472 1027.09 31.9411C1027.18 31.0351 1027.45 30.1566 1027.89 29.3561C1028.32 28.5556 1028.91 27.8488 1029.61 27.2764C1030.72 26.0009 1032.24 25.1693 1033.91 24.9351C1035.58 24.7009 1037.28 25.08 1038.69 26.0023C1039.57 26.4256 1040.36 27.0255 1041 27.7653C1041.65 28.5051 1042.13 29.3692 1042.43 30.3043C1042.73 31.2394 1042.84 32.226 1042.74 33.2032C1042.64 34.1805 1042.35 35.1279 1041.88 35.9872C1039.13 41.1876 1039.28 46.6221 1039.08 52.1086C1037.9 79.9784 1038.55 107.896 1041.02 135.68C1041.59 141.817 1042.6 147.095 1048.52 151.281C1054.43 155.468 1055.33 162.332 1051.94 169.015C1050.39 171.842 1047.94 174.068 1044.98 175.342C1042.03 176.615 1038.73 176.862 1035.62 176.044C1032.51 175.225 1029.76 173.389 1027.81 170.825C1025.85 168.261 1024.81 165.116 1024.84 161.89V161.916Z" stroke="#0A0A23" stroke-width="2" stroke-miterlimit="10" stroke-linecap="round" stroke-linejoin="round" stroke-dasharray="0.1 4"/>
<path d="M1425.17 8.08673C1435.31 8.08673 1442.44 19.0337 1436.58 25.5343C1428.44 34.5311 1429.32 45.088 1428.8 55.0729C1427.22 91.4761 1426.21 128.035 1428.07 164.569C1428.46 168.11 1429.69 171.507 1431.65 174.475C1432.63 176.16 1432.96 178.144 1432.59 180.058C1432.22 181.971 1431.17 183.684 1429.63 184.876C1428.23 186.262 1426.39 187.099 1424.43 187.238C1422.47 187.376 1420.52 186.806 1418.95 185.63C1415.37 183.264 1413.14 178.922 1415.55 175.594C1423.72 164.283 1421.64 151.073 1422.24 138.826C1424.26 105.693 1424.52 72.4768 1423.04 39.3155C1422.98 37.2904 1422.48 35.3025 1421.59 33.4859C1420.69 31.6693 1419.42 30.0661 1417.86 28.7846C1415.89 27.1944 1414.54 24.9651 1414.04 22.482C1413.53 19.9989 1413.91 17.418 1415.11 15.1854C1415.95 13.1764 1417.35 11.4459 1419.12 10.191C1420.9 8.93602 1423 8.20694 1425.17 8.08673V8.08673Z" stroke="#0A0A23" stroke-width="2" stroke-miterlimit="10" stroke-linecap="round" stroke-linejoin="round" stroke-dasharray="0.1 4"/>
<path d="M1061.87 63.2376C1062.14 80.1136 1064.4 96.8979 1068.61 113.24C1069 115.245 1069.89 117.119 1071.19 118.688C1072.5 120.256 1074.18 121.468 1076.08 122.211C1086.45 126.891 1089.72 137.318 1084.58 146.211C1083.44 148.269 1081.88 150.062 1080 151.471C1078.11 152.88 1075.96 153.874 1073.66 154.388C1071.37 154.901 1069 154.922 1066.7 154.449C1064.39 153.977 1062.22 153.021 1060.31 151.645C1058.31 150.269 1056.64 148.467 1055.42 146.367C1054.2 144.268 1053.45 141.924 1053.23 139.502C1053.02 137.08 1053.34 134.64 1054.17 132.357C1055.01 130.073 1056.33 128.003 1058.06 126.293C1059.53 124.71 1060.67 122.836 1061.38 120.79C1062.09 118.744 1062.38 116.571 1062.21 114.41C1061.27 93.9984 1060.44 73.5865 1051 54.7869C1050.29 53.5879 1050.02 52.1786 1050.23 50.7989C1050.43 49.4192 1051.11 48.1545 1052.15 47.2202C1052.87 46.3722 1053.82 45.7571 1054.89 45.4518C1055.96 45.1465 1057.1 45.1647 1058.16 45.5041C1059.51 45.8703 1060.7 46.7005 1061.5 47.8502C1062.31 48.9999 1062.68 50.3964 1062.57 51.7966C1062.44 55.879 1062.08 60.0133 1061.87 63.2376Z" stroke="#0A0A23" stroke-width="2" stroke-miterlimit="10" stroke-linecap="round" stroke-linejoin="round" stroke-dasharray="0.1 4"/>
<path d="M1220.12 170.549C1219.29 174.553 1221.28 176.426 1222.19 178.688C1222.85 179.925 1223.25 181.283 1223.38 182.68C1223.5 184.077 1223.34 185.485 1222.91 186.818C1222.47 188.152 1221.78 189.384 1220.85 190.44C1219.93 191.496 1218.81 192.354 1217.55 192.963C1216.4 193.757 1215.09 194.303 1213.72 194.567C1212.35 194.83 1210.93 194.807 1209.57 194.496C1208.21 194.186 1206.92 193.597 1205.8 192.764C1204.67 191.932 1203.73 190.876 1203.03 189.661C1199.27 184.304 1200 178.454 1205.18 174.97C1210.83 171.173 1212.96 165.739 1214.75 160.018C1227.86 120.968 1238.25 81.0542 1245.87 40.5636C1246.66 36.2665 1246.27 31.8319 1244.72 27.7445C1243.32 23.6101 1245.45 20.1518 1249.16 17.9936C1250.81 16.9236 1252.8 16.4993 1254.75 16.8012C1256.69 17.1032 1258.46 18.1103 1259.71 19.6318C1262.64 22.7 1263.96 26.9644 1261.03 30.1887C1250.2 42.0457 1248.33 57.6731 1243.92 71.9224C1233.94 103.567 1226.09 135.848 1220.43 168.547C1220.38 169.639 1220.07 170.705 1220.12 170.549Z" stroke="#0A0A23" stroke-width="2" stroke-miterlimit="10" stroke-linecap="round" stroke-linejoin="round" stroke-dasharray="0.1 4"/>
<path d="M1187.86 166.961C1188.25 169.145 1189.05 172.161 1189.31 175.1C1189.61 177.181 1189.14 179.301 1187.98 181.055C1186.82 182.81 1185.07 184.077 1183.04 184.616C1181.33 185.244 1179.46 185.266 1177.74 184.68C1176.02 184.093 1174.55 182.933 1173.57 181.392C1170.98 177.622 1170.64 172.837 1174.2 170.055C1180 165.557 1181.48 159.16 1183.56 152.972C1196.03 115.185 1206.09 76.6411 1213.69 37.5733C1214.87 33.0071 1214.39 28.1664 1212.34 23.9221C1209.43 18.1756 1210.16 12.3771 1216.33 8.86679C1217.49 8.08171 1218.79 7.53875 1220.16 7.27046C1221.53 7.00216 1222.94 7.01405 1224.31 7.30542C1225.67 7.59678 1226.96 8.16162 1228.11 8.96608C1229.25 9.77054 1230.22 10.7981 1230.96 11.9871C1235.23 18.0456 1233.81 23.6621 1227.87 27.7445C1225.14 29.626 1223.12 32.3737 1222.14 35.5452C1208 77.1482 1196.69 119.664 1188.28 162.8C1188.07 163.815 1188.04 165.037 1187.86 166.961Z" stroke="#0A0A23" stroke-width="2" stroke-miterlimit="10" stroke-linecap="round" stroke-linejoin="round" stroke-dasharray="0.1 4"/>
<path d="M1244.1 188.907C1241.44 188.766 1238.91 187.725 1236.91 185.954C1234.91 184.184 1233.57 181.788 1233.11 179.156C1232.62 177.765 1232.42 176.291 1232.5 174.82C1232.59 173.348 1232.96 171.909 1233.61 170.584C1234.25 169.259 1235.15 168.075 1236.25 167.1C1237.36 166.126 1238.64 165.38 1240.03 164.907C1246.02 162.722 1247.81 158.588 1249.26 153.388C1259.69 119.298 1267.41 84.4323 1272.34 49.1184C1272.73 45.5681 1272.55 41.9789 1271.82 38.4834C1271.54 36.8309 1271.86 35.1305 1272.72 33.6965C1273.59 32.2626 1274.95 31.192 1276.54 30.6827C1277.96 30.0935 1279.52 29.9571 1281.02 30.2921C1282.52 30.6271 1283.88 31.4172 1284.92 32.5549C1286.25 33.6083 1287.13 35.1328 1287.37 36.8155C1287.62 38.4982 1287.21 40.2115 1286.24 41.6037C1274.98 58.3492 1272.52 78.0069 1267.52 96.9106C1262.2 117.471 1258 138.303 1254.91 159.316C1254.47 163.405 1255.2 167.538 1257.02 171.225C1260.65 180.274 1254.32 189.245 1244.1 188.907Z" stroke="#0A0A23" stroke-width="2" stroke-miterlimit="10" stroke-linecap="round" stroke-linejoin="round" stroke-dasharray="0.1 4"/>
<path d="M1189.18 12.5331C1191.67 12.7944 1194.05 13.7312 1196.05 15.2429C1198.05 16.7546 1199.6 18.7842 1200.54 21.1138C1201.7 23.537 1201.94 26.3013 1201.21 28.8869C1200.47 31.4726 1198.83 33.7017 1196.57 35.1551C1191.21 38.6914 1189.13 43.6578 1187.29 49.2223C1176.85 81.6003 1168.43 114.601 1162.09 148.031C1161.06 152.638 1161.06 157.414 1162.09 162.02C1162.38 162.959 1162.48 163.947 1162.38 164.925C1162.29 165.903 1162 166.852 1161.53 167.717C1161.06 168.581 1160.43 169.344 1159.67 169.96C1158.9 170.575 1158.02 171.032 1157.08 171.303C1155.46 171.746 1153.73 171.648 1152.16 171.022C1150.6 170.397 1149.28 169.279 1148.4 167.836C1147.52 166.394 1147.14 164.704 1147.3 163.022C1147.46 161.34 1148.17 159.757 1149.3 158.51C1153.3 154.896 1154.49 150.163 1156.02 145.509C1166.83 112.962 1175.22 79.6571 1181.12 45.868C1181.7 43.6355 1181.75 41.2992 1181.27 39.0431C1180.79 36.7871 1179.8 34.6728 1178.37 32.8669C1176.83 30.8645 1175.97 28.418 1175.93 25.8892C1175.88 23.3605 1176.65 20.8838 1178.11 18.8256C1179.29 16.9357 1180.92 15.3704 1182.85 14.2716C1184.78 13.1728 1186.96 12.5753 1189.18 12.5331V12.5331Z" stroke="#0A0A23" stroke-width="2" stroke-miterlimit="10" stroke-linecap="round" stroke-linejoin="round" stroke-dasharray="0.1 4"/>
<path d="M1394.34 26.1843C1396.87 26.2107 1399.35 26.9352 1401.51 28.2787C1403.66 29.6222 1405.41 31.5332 1406.55 33.803C1407.96 36.0803 1408.55 38.7722 1408.22 41.431C1407.89 44.0897 1406.66 46.5549 1404.74 48.4163C1399.55 53.3567 1398.72 59.2333 1398.54 65.7078C1397.53 94.7204 1398.57 123.768 1401.65 152.634C1401.99 156.2 1403.05 159.659 1404.76 162.8C1405.75 164.343 1406.09 166.216 1405.7 168.008C1405.32 169.801 1404.25 171.369 1402.71 172.369C1401.36 173.612 1399.59 174.283 1397.76 174.245C1395.93 174.206 1394.18 173.459 1392.89 172.161C1392.14 171.645 1391.5 170.984 1391.01 170.216C1390.53 169.448 1390.2 168.59 1390.05 167.693C1389.9 166.795 1389.93 165.876 1390.14 164.991C1390.35 164.106 1390.74 163.273 1391.28 162.54C1394.42 158.094 1394.34 153.232 1394.55 148.265C1395.79 120.361 1395.14 92.4037 1392.57 64.5897C1392 58.7132 1390.89 53.5388 1385.7 49.4044C1381.04 45.6861 1380.23 39.9916 1382.77 34.271C1383.76 31.9808 1385.37 30.0117 1387.41 28.5838C1389.45 27.1558 1391.85 26.3251 1394.34 26.1843V26.1843Z" stroke="#0A0A23" stroke-width="2" stroke-miterlimit="10" stroke-linecap="round" stroke-linejoin="round" stroke-dasharray="0.1 4"/>
<path d="M1112.98 98.8087C1112.74 105.439 1108.54 111.082 1100.97 114.176C1097.53 115.719 1093.67 116.045 1090.02 115.101C1086.37 114.156 1083.14 111.996 1080.88 108.976C1078.25 106.254 1076.6 102.741 1076.17 98.9803C1075.73 95.2199 1076.55 91.4217 1078.49 88.1738C1083.96 77.7729 1083.96 77.7729 1074.21 71.2203C1071.41 69.3481 1069.62 67.1899 1070.89 63.7056C1071.25 62.4997 1072.04 61.4661 1073.1 60.7967C1074.17 60.1272 1075.43 59.8673 1076.67 60.0653C1077.43 60.1301 1078.17 60.3462 1078.84 60.7007C1079.52 61.0552 1080.11 61.5411 1080.59 62.1298C1081.08 62.7185 1081.44 63.3981 1081.66 64.1286C1081.87 64.8592 1081.94 65.6259 1081.86 66.3839C1081.86 75.5107 1086.55 78.631 1095.47 78.605C1105.56 78.839 1112.98 87.3417 1112.98 98.8087Z" stroke="#0A0A23" stroke-width="2" stroke-miterlimit="10" stroke-linecap="round" stroke-linejoin="round" stroke-dasharray="0.1 4"/>
<path d="M1339.45 120.027C1334.76 120.121 1330.22 118.419 1326.74 115.269C1323.27 112.118 1321.13 107.756 1320.75 103.073C1320.38 100.683 1320.49 98.2437 1321.06 95.8949C1321.64 93.5461 1322.67 91.3337 1324.1 89.3839C1326.98 85.4462 1331.3 82.8176 1336.11 82.0763C1340.93 81.3349 1345.84 82.5416 1349.76 85.4308C1353.69 88.3201 1356.31 92.6553 1357.05 97.4826C1357.66 99.7697 1357.75 102.166 1357.3 104.491C1356.85 106.816 1355.88 109.007 1354.46 110.9C1349.66 117.66 1351.29 122.757 1357.7 126.891C1360.99 129.023 1363.64 131.312 1361.77 135.55C1361.32 136.739 1360.43 137.71 1359.29 138.262C1358.14 138.813 1356.83 138.904 1355.63 138.514C1351.14 137.24 1351.42 133.782 1351.37 129.907C1351.29 123.277 1348.34 118.831 1339.45 120.027Z" stroke="#0A0A23" stroke-width="2" stroke-miterlimit="10" stroke-linecap="round" stroke-linejoin="round" stroke-dasharray="0.1 4"/>
<path d="M1364.91 48.2603C1367.83 48.2994 1370.67 49.1975 1373.09 50.8431C1375.5 52.4887 1377.38 54.8094 1378.5 57.5171C1379.94 59.9494 1380.56 62.7898 1380.25 65.606C1379.94 68.4222 1378.73 71.0602 1376.78 73.1185C1371.6 78.319 1371.11 84.3255 1371.78 90.6441C1373.7 108.976 1373.34 127.749 1382.15 144.729C1382.87 145.942 1383.12 147.378 1382.85 148.764C1382.59 150.15 1381.82 151.389 1380.7 152.244C1379.81 153.138 1378.66 153.707 1377.41 153.858C1376.16 154.009 1374.9 153.734 1373.83 153.076C1372.43 152.391 1371.31 151.234 1370.68 149.808C1370.04 148.382 1369.93 146.777 1370.35 145.275C1373.7 126.605 1369.99 108.43 1366.41 90.254C1365.32 84.6635 1363.25 80.3471 1357.13 77.7989C1353.77 76.3763 1351.06 73.7579 1349.52 70.4492C1347.98 67.1406 1347.72 63.3763 1348.78 59.8833C1349.72 56.3774 1351.84 53.3048 1354.78 51.1864C1357.72 49.068 1361.3 48.0342 1364.91 48.2603V48.2603Z" stroke="#0A0A23" stroke-width="2" stroke-miterlimit="10" stroke-linecap="round" stroke-linejoin="round" stroke-dasharray="0.1 4"/>
<path d="M1128.46 52.5767C1131.84 52.7332 1135.09 54.0129 1137.67 56.2151C1140.26 58.4173 1142.04 61.4176 1142.74 64.7457C1144.82 72.3904 1142.74 79.7231 1135.51 83.2334C1128.27 86.7437 1126.04 91.9702 1124.1 98.3667C1121.04 108.404 1117.82 118.388 1119.2 129.127C1119.55 130.486 1119.39 131.927 1118.75 133.175C1118.11 134.422 1117.03 135.389 1115.72 135.888C1114.58 136.427 1113.28 136.543 1112.06 136.215C1110.84 135.886 1109.78 135.135 1109.06 134.094C1108.2 132.99 1107.77 131.604 1107.88 130.205C1107.98 128.806 1108.59 127.495 1109.61 126.527C1116.94 117.894 1117.85 106.921 1120.18 96.5206C1121.08 93.7744 1121.08 90.8147 1120.19 88.0673C1119.3 85.3199 1117.56 82.9264 1115.23 81.2312C1112.44 79.0827 1110.51 76.0032 1109.79 72.55C1109.06 69.0969 1109.6 65.4982 1111.29 62.4055C1114.32 55.853 1119.54 52.3426 1128.46 52.5767Z" stroke="#0A0A23" stroke-width="2" stroke-miterlimit="10" stroke-linecap="round" stroke-linejoin="round" stroke-dasharray="0.1 4"/>
<path d="M1139.14 141.036C1140.51 145.847 1139.53 149.279 1135.17 151.047C1134.01 151.531 1132.71 151.601 1131.5 151.246C1130.29 150.892 1129.23 150.134 1128.51 149.097C1125.6 145.561 1127.81 142.779 1129.54 139.424C1138.57 122.107 1142.51 103.021 1146.92 84.2994C1148.11 79.099 1148.84 73.8985 1150 68.8541C1150.76 66.3816 1150.83 63.7492 1150.21 61.2389C1149.59 58.7287 1148.3 56.4354 1146.48 54.6048C1145.19 53.1398 1144.21 51.4257 1143.61 49.5681C1143 47.7104 1142.78 45.7485 1142.96 43.8028C1143.14 41.8571 1143.72 39.9689 1144.65 38.2542C1145.59 36.5395 1146.86 35.0346 1148.4 33.832C1149.93 32.6294 1151.7 31.7545 1153.58 31.2612C1155.47 30.7679 1157.43 30.6666 1159.36 30.9634C1161.29 31.2603 1163.13 31.949 1164.78 32.9874C1166.43 34.0257 1167.85 35.3917 1168.96 37.0012C1173.94 44.2559 1172.17 52.6026 1164.26 57.6211C1161.08 59.2346 1158.58 61.9632 1157.26 65.2918C1148.87 88.7074 1142.83 112.906 1139.24 137.526C1139.13 138.693 1139.09 139.865 1139.14 141.036V141.036Z" stroke="#0A0A23" stroke-width="2" stroke-miterlimit="10" stroke-linecap="round" stroke-linejoin="round" stroke-dasharray="0.1 4"/>
<path d="M1274.26 170.887C1269.33 170.731 1264.74 166.909 1262.87 159.992C1261.8 156.918 1261.96 153.542 1263.32 150.584C1264.69 147.627 1267.15 145.32 1270.19 144.157C1276.44 141.557 1278.56 137.006 1280.43 131.312C1286.61 111.512 1291.31 91.2784 1294.48 70.7783C1295.07 66.1075 1295.07 61.3819 1294.48 56.711C1294.33 55.2983 1294.72 53.8804 1295.57 52.7453C1296.42 51.6103 1297.68 50.8434 1299.07 50.6005C1300.27 50.2242 1301.56 50.2407 1302.75 50.6474C1303.94 51.0542 1304.97 51.8301 1305.68 52.8627C1306.51 53.8143 1306.99 55.0116 1307.06 56.2676C1307.13 57.5235 1306.78 58.7675 1306.07 59.8053C1295.24 78.345 1292.95 99.4588 1288.26 119.819C1287.12 124.655 1286.78 129.648 1285.98 134.562C1285.47 137.096 1285.46 139.706 1285.96 142.242C1286.47 144.777 1287.47 147.187 1288.91 149.331C1295.26 159.238 1288.08 171.121 1274.26 170.887Z" stroke="#0A0A23" stroke-width="2" stroke-miterlimit="10" stroke-linecap="round" stroke-linejoin="round" stroke-dasharray="0.1 4"/>
<path d="M1313.67 112.46C1312.37 117.296 1316.89 118.414 1319.06 120.937C1323.52 126.137 1325.55 131.832 1322.8 138.54C1321.7 141.569 1319.73 144.201 1317.13 146.1C1314.54 147.999 1311.44 149.079 1308.23 149.201C1301.2 149.695 1296.09 145.899 1292.67 139.918C1291.54 137.919 1290.87 135.694 1290.69 133.404C1290.52 131.113 1290.86 128.812 1291.67 126.666C1292.49 124.519 1293.77 122.581 1295.42 120.988C1297.07 119.395 1299.05 118.188 1301.22 117.452C1303.7 116.671 1305.91 115.191 1307.57 113.191C1309.23 111.19 1310.29 108.752 1310.61 106.167C1312.87 94.6224 1317.79 83.4414 1314.86 71.1683C1314.22 68.5681 1316.13 66.4879 1318.78 65.5518C1319.82 65.1521 1320.97 65.1007 1322.04 65.4052C1323.12 65.7098 1324.06 66.3539 1324.74 67.2419C1325.65 68.1316 1326.2 69.3342 1326.26 70.6078C1326.32 71.8814 1325.9 73.1315 1325.08 74.1065C1316.08 85.3395 1316.6 99.4328 1313.67 112.46Z" stroke="#0A0A23" stroke-width="2" stroke-miterlimit="10" stroke-linecap="round" stroke-linejoin="round" stroke-dasharray="0.1 4"/>
</g>
</svg>
