<svg width="1263" height="1792" viewBox="0 0 1263 1792" fill="none" xmlns="http://www.w3.org/2000/svg">
<g opacity="0.2">
<path d="M705.874 357.264C696.234 363.714 687.604 369.474 688.014 376.744C689.014 394.744 745.064 421.624 772.414 397.844C787.214 384.984 792.414 358.334 782.154 345.904C767.924 328.664 727.324 342.934 705.874 357.264Z" stroke="#0B274D" stroke-width="2" stroke-linecap="round" stroke-linejoin="round" stroke-dasharray="0.1 8"/>
<path d="M723.397 368.533C724.827 371.053 729.997 373.033 733.267 372.683C737.977 372.163 739.627 366.683 737.407 364.133C735.187 361.583 728.137 361.133 724.927 363.803C724.427 364.223 722.077 366.173 723.397 368.533Z" stroke="#0B274D" stroke-miterlimit="10"/>
<path d="M118.809 1484C109.159 1491.64 105.989 1495.94 104.229 1503C102.969 1508.06 107.129 1514.81 111.299 1517.75C113.519 1519.32 118.299 1520.8 138.699 1509.49C170.089 1492.05 173.309 1480.36 188.699 1480.36C194.189 1480.36 201.219 1481.84 206.089 1477.36C209.809 1473.91 208.949 1470.04 212.619 1466.49C217.899 1461.37 226.679 1462.66 230.449 1463.01C247.009 1464.55 250.619 1455.68 283.929 1446.92C306.759 1440.92 319.529 1437.56 335.679 1441.7C343.959 1443.82 358.179 1447.47 366.119 1459.53C374.609 1472.42 369.289 1484.84 380.039 1493.02C386.369 1497.83 394.929 1498.65 394.829 1502.15C394.739 1505.01 388.969 1506.02 388.739 1509.54C388.519 1512.85 393.389 1515.54 394.829 1516.54C411.579 1527.31 415.929 1584.72 397.439 1604.38C396.039 1605.86 390.149 1611.78 391.779 1615.26C392.969 1617.78 397.049 1616.7 399.169 1619.17C402.679 1623.24 398.059 1633.73 392.649 1641.78C380.209 1660.3 367.349 1660.32 366.559 1669.61C365.699 1679.72 380.699 1681.77 383.949 1696.61C386.859 1709.83 378.369 1723.92 370.039 1731.4C364.559 1736.31 362.609 1735.26 340.899 1744.88C315.409 1756.17 312.269 1760.2 312.199 1763.58C312.129 1766.78 314.819 1769.88 321.329 1774.01C328.649 1778.66 359.399 1798.18 383.079 1786.19C402.319 1776.46 407.339 1750.78 412.659 1723.57C418.919 1691.57 415.219 1663.74 430.919 1653.57C433.489 1651.91 439.919 1648.57 441.789 1641.83C443.519 1635.7 440.249 1631.2 438.789 1626.18C433.309 1607.87 455.699 1597.13 456.619 1573.56C457.079 1561.71 451.409 1564.66 444.439 1537.46C439.789 1519.33 436.169 1504.39 443.139 1490.93C445.899 1485.59 448.289 1484.44 459.659 1473.93C469.039 1465.3 483.299 1452.17 490.969 1442.19C507.299 1420.94 514.969 1386.42 502.709 1375.19C497.879 1370.77 487.709 1371.37 467.489 1372.58C446.629 1373.75 445.139 1376.28 433.139 1376.42C418.919 1376.59 416.609 1373.12 380.959 1363.42C345.549 1353.7 338.689 1354.62 334.389 1355.55C316.089 1359.55 303.639 1372.61 299.599 1376.86C288.359 1388.67 292.319 1391.78 283.509 1401.21C261.209 1425.09 225.199 1416.61 211.319 1436C210.029 1437.8 207.549 1441.78 202.619 1443.83C195.139 1447 189.919 1442.25 182.139 1443C174.359 1443.75 172.669 1449.24 159.969 1460.39C154.309 1465.36 130.499 1474.76 118.809 1484Z" stroke="#0B274D" stroke-width="2" stroke-linecap="round" stroke-linejoin="round" stroke-dasharray="0.1 8"/>
<path d="M347.479 1698.63C346.059 1700.14 346.479 1703.37 347.839 1705.34C350.429 1709.17 357.519 1710 360.539 1706.79C364.609 1702.48 359.399 1692.93 357.089 1693C355.989 1693 356.089 1695.27 353.649 1696.81C350.999 1698.49 348.879 1697.13 347.479 1698.63Z" stroke="#0B274D" stroke-width="2" stroke-linecap="round" stroke-linejoin="round" stroke-dasharray="0.1 8"/>
<path d="M343.207 1373.86C341.677 1374.57 335.817 1377.77 335.817 1377.77C335.817 1377.77 334.107 1381.66 334.947 1382.55C335.787 1383.44 339.607 1379.82 344.077 1378.64C349.287 1377.27 352.827 1380.15 370.607 1389.08C379.187 1393.38 382.967 1395.08 386.697 1393.42C389.297 1392.3 391.917 1389.57 391.477 1387.34C390.807 1383.88 383.397 1384.57 370.607 1380.81C355.797 1376.47 349.697 1370.83 343.207 1373.86Z" stroke="#0B274D" stroke-miterlimit="10"/>
<path d="M408.477 1389.95C402.917 1390.11 400.127 1390.22 399.347 1391.69C398.167 1393.88 400.347 1398.17 402.827 1398.69C405.027 1399.11 405.717 1396.22 408.917 1396.08C411.297 1395.98 413.657 1397.46 416.307 1399.08C418.397 1400.39 418.857 1401.08 419.307 1400.82C420.677 1400.16 420.437 1393.48 416.697 1390.82C415.227 1389.77 412.947 1389.81 408.477 1389.95Z" stroke="#0B274D" stroke-miterlimit="10"/>
<path d="M424.967 1437.35C427.157 1445.02 430.967 1458.35 425.837 1462.57C423.627 1464.4 421.517 1463.11 419.747 1465.18C416.857 1468.54 418.367 1476.71 422.357 1479.53C429.437 1484.53 445.777 1473.7 454.097 1466.53C468.737 1453.83 473.627 1439.21 481.097 1416.96C486.437 1400.96 485.797 1396.04 483.277 1393.47C480.907 1391.07 474.557 1391.55 461.967 1392.61C446.577 1393.84 446.177 1395.43 438.477 1394.73C431.967 1394.14 429.157 1392.73 426.737 1394.73C423.997 1396.99 425.647 1400.4 424.127 1410.38C422.897 1418.38 421.387 1419.09 421.517 1424.3C421.597 1429.01 422.867 1430.04 424.967 1437.35Z" stroke="#0B274D" stroke-miterlimit="10"/>
<path d="M408.878 1469.53C408.588 1475 410.048 1481.6 411.878 1481.7C413.538 1481.79 415.438 1476.78 415.788 1472.57C416.318 1466.42 413.738 1459.87 411.878 1459.96C410.018 1460.05 409.068 1465.84 408.878 1469.53Z" stroke="#0B274D" stroke-miterlimit="10"/>
<path d="M414.527 1488.66C405.917 1491.66 421.317 1550.5 419.307 1577.81C418.579 1585.93 418.871 1594.11 420.177 1602.16C421.057 1607.51 421.497 1607.32 421.917 1610.86C423.197 1621.61 419.477 1626.61 416.267 1640.43C412.097 1658.28 415.927 1660.01 411.047 1667.83C405.797 1676.24 398.047 1679.59 399.307 1683.05C400.127 1685.25 404.307 1686.72 407.567 1685.66C414.327 1683.44 413.147 1671.43 419.257 1650.42C424.047 1633.96 426.367 1635.87 428.877 1623.91C430.627 1615.6 430.207 1605.79 429.307 1586.51C427.537 1548.51 427.537 1548.51 427.577 1547.8C428.707 1524.59 433.957 1516.68 428.437 1503.88C425.057 1496.02 418.097 1487.43 414.527 1488.66Z" stroke="#0B274D" stroke-miterlimit="10"/>
<path d="M392.348 1714.36C389.528 1717.43 387.998 1722.83 390.178 1724.8C391.708 1726.19 394.798 1725.6 396.698 1724.36C401.338 1721.36 401.408 1712.76 398.868 1711.31C397.098 1710.31 393.898 1712.66 392.348 1714.36Z" stroke="#0B274D" stroke-miterlimit="10"/>
<path d="M383.637 1754.86C380.637 1757.33 375.137 1753.08 372.937 1755.41C371.827 1756.57 371.937 1758.97 372.937 1759.76C374.367 1760.91 376.807 1758.01 379.647 1758.85C382.697 1759.76 382.377 1763.85 384.727 1764.48C388.197 1765.39 395.517 1758.16 393.617 1753.05C392.487 1750.05 388.197 1747.93 386.177 1749.05C384.157 1750.17 385.677 1753.16 383.637 1754.86Z" stroke="#0B274D" stroke-miterlimit="10"/>
<path d="M958.993 1079.08C962.253 1085.57 928.263 1100.27 928.123 1122.56C928.123 1128.37 930.323 1137.26 929.863 1137.35C929.403 1137.44 928.863 1133.35 928.123 1133.43C927.383 1133.51 926.263 1139.43 927.683 1145.18C928.593 1148.88 930.463 1151.56 934.203 1156.92C937.603 1161.77 938.663 1162.13 939.423 1162.14C942.293 1162.14 942.583 1157.31 946.823 1155.14C951.433 1152.81 954.423 1156.9 959.823 1155.57C964.493 1154.43 965.963 1150.57 972.003 1142.57C977.673 1135.06 977.853 1136.57 984.613 1128.22C1001.96 1106.82 997.613 1100.86 1009.83 1090.38C1011.97 1088.55 1016.83 1084.67 1015.92 1081.68C1015.07 1078.93 1010.09 1079.6 1008.53 1076.47C1006.63 1072.66 1012.62 1068.91 1013.31 1062.99C1014.51 1052.66 998.813 1042.43 989.393 1038.2C982.563 1035.13 966.893 1029.78 962.393 1035.59C958.393 1040.86 964.963 1053.41 965.393 1054.29C969.043 1061.08 972.393 1061.74 971.913 1064.72C970.633 1071.83 951.313 1071.08 947.683 1072.11C943.033 1073.42 942.033 1081.11 946.683 1079.87C947.293 1079.79 957.223 1075.58 958.993 1079.08Z" stroke="#0B274D" stroke-width="2" stroke-linecap="round" stroke-linejoin="round" stroke-dasharray="0.1 8"/>
<path d="M932.151 1149.61C931.881 1151.71 932.681 1154.76 934.761 1155.26C936.481 1155.67 938.351 1154.18 939.111 1152.65C940.641 1149.57 938.301 1144.98 936.111 1144.82C934.341 1144.69 932.491 1147.23 932.151 1149.61Z" stroke="#0B274D" stroke-miterlimit="10"/>
<path d="M977.381 1068.69C971.001 1082.8 985.181 1095.42 978.691 1105.22C976.121 1109.1 973.251 1108.09 968.691 1114.35C964.781 1119.72 966.581 1120.87 963.041 1126.09C958.601 1132.63 951.261 1137.47 946.041 1140.88C943.751 1142.39 941.451 1143.75 941.691 1144.36C942.071 1145.3 948.301 1143.68 950.391 1143.05C958.791 1140.55 964.071 1135.05 978.661 1117.83C992.161 1101.83 994.731 1098.13 996.921 1092.17C998.908 1086.3 999.793 1080.11 999.531 1073.91C999.321 1068.71 999.111 1064.75 996.051 1062.17C992.991 1059.59 988.131 1059.51 984.741 1060.86C980.161 1062.74 978.121 1067.1 977.381 1068.69Z" stroke="#0B274D" stroke-miterlimit="10"/>
<path d="M76.5958 1615.51C71.7672 1610.09 100.794 1587.09 95.1606 1565.52C93.6568 1559.91 89.2308 1551.89 89.6519 1551.69C90.0729 1551.48 91.6531 1555.29 92.3472 1555.02C93.0413 1554.75 92.5909 1548.75 89.731 1543.56C87.8944 1540.22 85.3945 1538.12 80.3947 1533.91C75.8553 1530.1 74.7382 1530.03 74.0015 1530.22C71.2293 1530.96 72.1993 1535.7 68.6654 1538.89C64.8155 1542.34 60.8689 1539.16 55.9971 1541.84C51.7813 1544.15 51.3604 1548.26 47.5968 1557.55C44.0637 1566.27 43.499 1564.86 39.1304 1574.68C27.9104 1599.84 33.6547 1604.47 24.5635 1617.75C22.9701 1620.08 19.2799 1625.08 20.9327 1627.73C22.4655 1630.17 27.1024 1628.23 29.4194 1630.85C32.2408 1634.04 27.4255 1639.21 28.2912 1645.11C29.8057 1655.4 47.6184 1661.22 57.8122 1662.87C65.2041 1664.06 81.7248 1665.17 84.5678 1658.4C87.0675 1652.27 77.4732 1641.85 76.8301 1641.11C71.5471 1635.5 68.1404 1635.73 67.8327 1632.72C67.2289 1625.53 86.0847 1621.25 89.3244 1619.32C93.4769 1616.85 92.4525 1609.16 88.2819 1611.56C87.7134 1611.8 79.2114 1618.43 76.5958 1615.51Z" stroke="#0A0A23" stroke-width="2" stroke-linecap="round" stroke-linejoin="round" stroke-dasharray="0.1 8"/>
<path d="M84.2687 1540.44C83.9859 1538.34 82.4238 1535.6 80.2852 1535.65C78.5177 1535.7 77.0971 1537.63 76.759 1539.3C76.0783 1542.67 79.5265 1546.5 81.6833 1546.09C83.4266 1545.76 84.5562 1542.82 84.2687 1540.44Z" stroke="#0A0A23" stroke-miterlimit="10"/>
<path d="M61.5235 1630.31C64.0341 1615.02 47.071 1606.5 50.8034 1595.36C52.2817 1590.95 55.3153 1591.18 58.0997 1583.95C60.4866 1577.75 58.4503 1577.11 60.5187 1571.15C63.1147 1563.68 68.9519 1557.11 73.1115 1552.46C74.9326 1550.41 76.8022 1548.5 76.4125 1547.98C75.8022 1547.17 70.2037 1550.34 68.348 1551.49C60.8813 1556.08 57.2047 1562.76 47.5687 1583.17C38.6698 1602.12 37.145 1606.36 36.5722 1612.68C36.1735 1618.87 36.921 1625.08 38.7772 1631C40.3259 1635.96 41.5537 1639.74 45.1771 1641.44C48.8006 1643.14 53.5157 1641.95 56.4408 1639.77C60.3782 1636.77 61.2202 1632.03 61.5235 1630.31Z" stroke="#0A0A23" stroke-miterlimit="10"/>
<path d="M1246.44 530.241C1249.02 521.465 1244.86 513.501 1244.47 512.768C1240.61 505.633 1235.01 505.487 1220.47 497.135C1206.74 489.25 1197.91 484.215 1193.18 474.25C1189.79 467.124 1191.91 464.619 1187.94 458.054C1182.25 448.719 1172.8 445.545 1167.75 443.214C1148.88 434.595 1153.29 420.772 1128.61 392.92C1110.81 372.844 1089.44 358.411 1080.35 352.274C1069.76 345.132 1066.1 343.67 1059.33 337.647C1045.1 324.957 1045.9 313.106 1031.6 294.65C1025.63 286.932 1020.76 282.604 1014.1 276.388C968.503 233.734 960.359 217.095 923.459 186.793C893.138 161.882 868.007 147.993 837.933 131.381C793.41 106.786 775.756 103.183 763.384 101.829C733.724 98.5848 711.726 105.742 698.54 110.197C679.459 116.645 663.983 122.137 658.375 136.716C654.496 146.814 655.618 160.541 663.139 169.603C667.445 174.816 672.368 176.727 681.78 180.365C693.515 184.884 706.027 187.041 718.597 186.713C732.442 186.337 731.491 183.444 747.096 182.182C760.213 181.116 773.416 182.138 786.213 185.211C803.58 189.637 802.178 193.947 818.271 197.327C836.165 201.094 840.463 196.308 851.892 201.829C861.72 206.711 862.151 211.989 873.313 221.422C884.474 230.855 888.072 228.98 906.947 239.42C931.052 252.766 948.013 262.166 953.767 279.581C956.492 287.899 955.199 293.618 961.077 300.139C967.765 307.561 974.144 305.365 980.818 313.309C986.472 320.076 983.49 323.515 989.581 332.567C995.231 340.981 999.091 339.895 1005.22 347.29C1012.21 355.718 1013.65 364.889 1015.66 377.809C1017.06 386.896 1018.6 396.496 1015.86 408.813C1013.36 420.228 1007.98 430.814 1000.24 439.565C994.578 445.76 981.13 460.483 965.748 458.714C953.887 457.336 949.658 447.154 936.987 448.82C931.29 449.581 928.698 452.077 923.932 450.517C918.35 448.658 913.374 442.372 913.996 436.967C914.435 433.195 917.385 431.918 916.622 429.959C915.343 426.657 904.692 425.463 902.062 429.367C898.749 434.271 911.772 441.88 916.185 460.243C919.93 475.804 913.985 484.334 919.3 488.676C925.298 493.56 937.418 486.399 948.928 481.638C948.928 481.638 971.08 472.472 1016.4 473.01C1084.24 473.85 1153.4 534.601 1154.88 566.486C1155 569.382 1155.09 582.994 1164.06 592.391C1165.65 594.035 1170.92 599.601 1177.04 598.821C1179.93 598.44 1183.14 596.637 1190.22 585.828C1194.04 579.87 1197.49 573.683 1200.55 567.301C1212.81 544.565 1240.97 548.955 1246.44 530.241Z" stroke="#0B274D" stroke-width="2" stroke-linecap="round" stroke-linejoin="round" stroke-dasharray="0.1 8"/>
<path d="M907.901 505.055C917.28 492.727 905.378 472.881 904.853 471.852C902.388 467.057 898.273 461.782 896.046 462.513C894.208 463.109 895.251 467.271 892.527 472.908C891.915 474.18 889.51 479.152 884.97 481.683C877.29 485.977 869.991 479.64 866.131 483.625C863.448 486.363 866.631 489.703 864.127 496.316C861.479 503.238 856.421 503.412 855.991 507.948C855.462 513.701 862.873 521.116 870.579 522.053C872.9 522.332 875.272 522.028 890.386 513.64C899.467 508.432 906.572 506.819 907.901 505.055Z" stroke="#0B274D" stroke-width="2" stroke-linecap="round" stroke-linejoin="round" stroke-dasharray="0.1 8"/>
<path d="M1175.7 570.773C1180.16 571.988 1185.56 565.986 1195.98 554.075C1203.97 544.956 1203.56 543.76 1208.09 540.477C1214.66 535.61 1218.59 535.788 1220.91 531.192C1222.56 527.891 1222 524.306 1220.79 517.27C1219.65 510.67 1218.66 504.981 1215.52 499.321C1211.18 491.489 1205.79 489.297 1198.7 483.568C1189.06 475.798 1185.55 468.973 1177.91 458.079C1151.07 419.719 1121.31 377.348 1083.85 359.051C1077.64 356.023 1067.4 351.769 1057.07 341.461C1055.25 339.651 1053.66 337.863 1036.68 314.066C1026.6 299.944 1026.3 299.352 1021.55 292.902C1014.8 283.715 1006.12 272.271 1006.12 272.271C1006.12 272.271 1002.89 269.73 1001.56 270.388C1000.22 271.046 1000.61 274.576 1001.04 276.832C1002.73 284.847 1009.71 289.654 1013.44 292.869C1024.75 302.624 1020.94 310.477 1031.51 326.745C1039.72 339.352 1046.59 341.681 1055.47 350.483C1081 375.901 1064.43 396.937 1083.97 419.842C1105.96 445.609 1162.05 460.105 1171.2 469.847C1172.25 470.965 1175.37 474.27 1174.6 477.489C1174.17 479.279 1172.94 479.434 1171.72 481.863C1170.5 484.292 1169.58 488.4 1171.34 490.517C1173.09 492.634 1176.28 490.652 1178.65 492.616C1182.46 495.737 1178.26 504.397 1180.88 505.973C1183.71 507.67 1191.28 499.212 1192.39 500.188C1193.5 501.164 1183.78 509.514 1185.45 518.136C1186.64 524.278 1192.92 527.386 1191.46 530.491C1190.72 532.044 1188.42 532.796 1186.65 532.68C1181.84 532.366 1180.85 525.704 1176.61 525.463C1173.05 525.258 1171.7 529.885 1169.07 529.284C1166 528.596 1164.93 521.533 1163.99 515.334C1162.73 506.987 1163.37 502.818 1161.88 502.441C1160.39 502.063 1157.24 506.179 1155.9 510.337C1153.59 517.542 1155.73 526.648 1161.53 531.346C1165.51 534.617 1167.59 532.683 1169.87 535.417C1174.49 541.083 1166.12 549.704 1169.74 562.005C1170.51 564.585 1172.06 569.801 1175.7 570.773Z" stroke="#0B274D" stroke-miterlimit="10"/>
<path d="M1152.15 494.684C1152.39 492.767 1152.85 488.999 1150.66 487.432C1148.87 486.162 1145.83 486.718 1144.13 488.282C1141.05 491.116 1142.78 496.926 1143.36 498.842C1145.31 505.337 1150.46 509.9 1151.55 509.256C1152.45 508.727 1149.6 505.008 1150.76 499.562C1151.22 497.397 1151.87 497.11 1152.15 494.684Z" stroke="#0B274D" stroke-miterlimit="10"/>
<path d="M978.532 263.43C987.036 264.258 991.27 264.604 992.038 263.414C993.597 261.04 990.876 255.444 987.994 255.046C986.283 254.8 985.888 256.573 983.177 257.237C979.182 258.204 977.041 255.082 974.409 256.429C972.591 257.371 971.464 260.003 972.174 261.531C972.731 262.8 974.475 263.047 978.532 263.43Z" stroke="#0B274D" stroke-miterlimit="10"/>
<path d="M936.123 237.876C939.393 241.814 943.951 238.885 949.601 242.816C953.67 245.639 952.852 248.229 957.006 250.284C960.1 251.826 964.996 252.595 966.925 250.328C969.218 247.643 966.38 241.84 964.302 238.877C961.588 235.007 959.418 234.906 955.066 231.454C945.828 224.022 943.731 214.728 940.453 215.555C938.521 216.072 938.49 219.549 936.625 219.738C934.557 219.94 932.846 215.833 931.237 213.076C925.803 203.765 914.35 197.537 905.528 196.101C899.931 195.189 897.028 196.484 892.301 193.796C888.627 191.675 887.485 189.268 884.852 189.487C881.693 189.754 878.712 193.617 878.44 197.51C878.386 199.437 878.89 201.339 879.891 202.987C880.893 204.634 882.349 205.957 884.085 206.795C888.563 208.94 890.745 205.145 895.676 206.392C903.194 208.291 902.122 218.123 911.554 221.952C914.749 223.25 916.602 222.826 918.674 224.993C922.027 228.505 920.507 233.147 922.943 234.202C925.895 235.482 929.757 229.343 932.792 230.662C934.974 231.579 933.617 234.862 936.123 237.876Z" stroke="#0B274D" stroke-miterlimit="10"/>
<path d="M902.475 186.059C904.389 185.474 905.431 182.524 905.767 181.574C906.173 180.538 906.365 179.43 906.333 178.317C906.368 176.484 905.699 174.707 904.464 173.351C903.496 172.393 902.247 171.769 900.9 171.571C899.552 171.373 898.177 171.612 896.974 172.252C896.185 172.795 895.527 173.507 895.047 174.335C894.567 175.164 894.278 176.089 894.2 177.044C893.777 182.033 899.383 187.074 902.475 186.059Z" stroke="#0B274D" stroke-miterlimit="10"/>
<path d="M886.531 173.767C887.933 172.114 888.652 169.989 888.542 167.824C888.365 165.967 887.386 163.279 885.287 162.402C883.189 161.525 879.906 162.487 879.906 162.487C879.906 162.487 881.574 169.37 881.628 170.577C881.807 174.836 880.335 176.877 881.213 177.449C882.091 178.021 884.98 175.86 886.531 173.767Z" stroke="#0B274D" stroke-miterlimit="10"/>
<path d="M871.52 159.744C873.246 158.112 871.515 152.654 869.069 152.295C867.765 152.106 866.377 153.378 865.721 154.445C865.388 154.938 865.165 155.497 865.067 156.084C864.969 156.672 864.998 157.273 865.152 157.848C866.051 160.236 870.114 161.063 871.52 159.744Z" stroke="#0B274D" stroke-miterlimit="10"/>
<path d="M855.467 146.891C853.467 147.427 856.593 152.408 855.431 153.868C854.27 155.329 852.704 151.804 852.09 152.755C851.181 154.117 859.556 162.267 861.087 161.142C862.837 159.907 856.047 146.736 855.467 146.891Z" stroke="#0B274D" stroke-miterlimit="10"/>
<path d="M871.22 192.239C872.844 190.572 870.957 186.274 869.809 183.61C867.809 178.97 865.68 177.822 862.454 172.971C857.85 166.026 859.753 164.626 856.895 162.307C851.034 157.552 837.898 159.374 831.208 165.587C829.403 167.271 828.057 169.278 825.171 169.907C821.331 170.76 819.323 168.212 815.991 169.261C812.906 170.191 810 173.754 810.58 176.114C811.372 179.07 817.381 178.661 831.343 181.349C838.19 182.526 844.948 184.175 851.569 186.282C863.518 190.193 869.206 194.342 871.22 192.239Z" stroke="#0B274D" stroke-miterlimit="10"/>
<path d="M799.959 144.703C794.547 131.577 782.392 124.812 774.018 120.14C767.494 116.505 764.271 114.677 760.426 114.775C753.758 114.926 749.937 119.211 740.369 120.595C737.894 120.975 735.397 121.194 732.894 121.252C729.042 121.249 728.49 120.734 726.561 121.147C722.53 122.021 722.596 124.819 718.934 126.297C713.615 128.509 710.303 123.837 705.856 126.209C703.081 127.677 703.858 129.767 700.066 133.154C696.855 136.085 694.828 135.821 692.227 137.511C684.526 142.504 681.957 157.449 687.264 162.652C688.883 164.289 690.799 164.521 693.734 164.967C719.461 168.871 719.684 170.323 726.917 169.534C735.721 168.624 734.169 166.618 744.139 164.919C759.977 162.208 786.014 163.482 799.952 171.57C801.006 172.179 803.777 173.869 805.245 172.854C806.712 171.84 806.155 168.252 803.186 156.748C801.238 149.247 800.257 145.431 799.959 144.703Z" stroke="#0B274D" stroke-miterlimit="10"/>
<path d="M794.397 1154.68C798.954 1152.39 803.045 1146.26 808.153 1146.14C810.872 1146.05 813.792 1148.08 813.742 1150.8C812.363 1156.04 807.293 1161.32 802.254 1163.08C798.343 1164.11 794.154 1162.61 790.185 1163.36C784.711 1164.65 776.372 1171.5 772.255 1164.67C770.378 1157.54 777.875 1155.9 784.001 1155.5" stroke="#0B274D" stroke-width="2" stroke-miterlimit="10" stroke-linecap="round" stroke-dasharray="0.1 8"/>
<path d="M800.242 1109.92C802.719 1114.51 810.934 1116.01 814.751 1109.9C820.664 1097.76 808.655 1095.13 801.121 1101.29" stroke="#0B274D" stroke-width="2" stroke-miterlimit="10" stroke-linecap="round" stroke-dasharray="0.1 8"/>
<path d="M838.544 1087.38C836.71 1087.74 835.081 1088.79 833.987 1090.3C830.474 1093.15 831.664 1098.17 836.498 1096.35C841.062 1092.97 845.944 1094.05 850.344 1097.54C855.689 1102.33 865.509 1100.05 861.872 1091.93C857.016 1084.69 851.053 1092.94 846.096 1093.22" stroke="#0B274D" stroke-width="2" stroke-miterlimit="10" stroke-linecap="round" stroke-dasharray="0.1 8"/>
<path d="M864.434 1057.97C864.873 1060.48 864.768 1063.06 864.127 1065.53C863.485 1068 862.323 1070.3 860.717 1072.28C860.062 1073.06 859.241 1073.67 858.315 1074.08" stroke="#0B274D" stroke-width="2" stroke-miterlimit="10" stroke-linecap="round" stroke-dasharray="0.1 8"/>
<path d="M883.044 1056.81C881.24 1040.52 902.471 1035.79 898.773 1059.08C898.808 1061.23 896.859 1064.55 894.558 1062.75C893.587 1061.74 894.34 1060.02 893.92 1058.69C889.487 1053.27 886.031 1060.26 883.695 1065.4" stroke="#0B274D" stroke-width="2" stroke-miterlimit="10" stroke-linecap="round" stroke-dasharray="0.1 8"/>
<path d="M878.736 1093.37C880.63 1092.81 882.087 1090.76 880.254 1088.05C879.861 1087.66 879.373 1087.37 878.838 1087.22C878.303 1087.07 877.738 1087.06 877.197 1087.19" stroke="#0B274D" stroke-width="2" stroke-miterlimit="10" stroke-linecap="round" stroke-dasharray="0.1 8"/>
<path d="M886.545 1130.19C886.577 1132.59 888.353 1134.94 891.93 1134.25C896.651 1132.3 895.929 1127.23 893.721 1123.3" stroke="#0B274D" stroke-width="2" stroke-miterlimit="10" stroke-linecap="round" stroke-dasharray="0.1 8"/>
<path d="M728.935 1154.98C722.055 1158.15 717.113 1167.32 726.463 1169.84C729.672 1169.65 731.555 1165.87 734.693 1165.09C742.64 1165.29 742.245 1159.43 737.832 1156.39" stroke="#0B274D" stroke-width="2" stroke-miterlimit="10" stroke-linecap="round" stroke-dasharray="0.1 8"/>
<path d="M652.839 1250.05C652.425 1249.97 652.005 1249.94 651.584 1249.94C647.786 1249.95 643.85 1252.17 642.794 1255.82C641.738 1259.48 644.45 1263.94 648.227 1263.94C650.664 1263.94 652.964 1262.27 655.355 1262.7C657.745 1263.13 659.455 1265.68 661.88 1266.35C670.595 1266.51 669.592 1256.73 663.492 1253.67" stroke="#0B274D" stroke-width="2" stroke-miterlimit="10" stroke-linecap="round" stroke-dasharray="0.1 8"/>
<path d="M641.797 1268.59C641.973 1268.26 642.085 1267.9 642.127 1267.53C641.705 1266.81 641.033 1266.28 640.24 1266.02" stroke="#0B274D" stroke-width="2" stroke-miterlimit="10" stroke-linecap="round" stroke-dasharray="0.1 8"/>
<path d="M648.432 1270.02C648.42 1269.9 648.383 1269.78 648.325 1269.67C648.088 1269.24 647.722 1268.9 647.28 1268.69C646.837 1268.49 646.341 1268.42 645.86 1268.51" stroke="#0B274D" stroke-width="2" stroke-miterlimit="10" stroke-linecap="round" stroke-dasharray="0.1 8"/>
<path d="M640.198 1283.3C640.554 1287.23 643.931 1291.56 650.499 1288.16C656.376 1284.7 653.489 1276.68 648.682 1276.89" stroke="#0B274D" stroke-width="2" stroke-miterlimit="10" stroke-linecap="round" stroke-dasharray="0.1 8"/>
<path d="M640.194 1301.71C641.403 1307.74 634.474 1308.52 632.618 1305.08" stroke="#0B274D" stroke-width="2" stroke-miterlimit="10" stroke-linecap="round" stroke-dasharray="0.1 8"/>
<path d="M676.979 1272.35C682.627 1272.65 690.797 1272.78 693.296 1276.61C697.132 1279.19 699.678 1274.48 698.042 1272.44" stroke="#0B274D" stroke-width="2" stroke-miterlimit="10" stroke-linecap="round" stroke-dasharray="0.1 8"/>
<path d="M695.229 1265.78C693.622 1266.45 690.698 1269.01 689.806 1269.2C684.332 1270.31 680.734 1269.1 676.036 1269.24" stroke="#0B274D" stroke-width="2" stroke-miterlimit="10" stroke-linecap="round" stroke-dasharray="0.1 8"/>
<path d="M729.447 1253.37C731.155 1253.69 732.924 1253.33 734.366 1252.36C743.923 1243.72 732.213 1236.94 726.89 1244.52" stroke="#0B274D" stroke-width="2" stroke-miterlimit="10" stroke-linecap="round" stroke-dasharray="0.1 8"/>
<path d="M721.794 1226.61C722.624 1226.47 723.372 1226.02 723.894 1225.36C724.416 1224.69 724.676 1223.86 724.623 1223.02C724.561 1220.75 722.332 1218.95 720.045 1218.78L719.682 1218.77" stroke="#0B274D" stroke-width="2" stroke-miterlimit="10" stroke-linecap="round" stroke-dasharray="0.1 8"/>
<path d="M702.726 1214.84C703.357 1214.85 703.981 1214.71 704.545 1214.43C705.109 1214.15 705.597 1213.74 705.968 1213.23C706.427 1212.62 706.692 1211.89 706.728 1211.13C706.764 1210.37 706.57 1209.61 706.171 1208.97C705.772 1208.32 705.187 1207.8 704.492 1207.49C703.797 1207.18 703.024 1207.09 702.276 1207.23" stroke="#0B274D" stroke-width="2" stroke-miterlimit="10" stroke-linecap="round" stroke-dasharray="0.1 8"/>
<path d="M708.671 1273.48C709.923 1272.74 711.095 1271.97 711.918 1271.59C712.033 1271.35 712.101 1271.09 712.116 1270.83C712.131 1270.57 712.094 1270.3 712.007 1270.05C711.92 1269.81 711.784 1269.58 711.608 1269.38C711.432 1269.18 711.218 1269.02 710.98 1268.91C708.754 1267.78 706.689 1270.25 704.523 1270.08C704.193 1269.87 703.818 1269.73 703.428 1269.69C703.037 1269.64 702.642 1269.69 702.272 1269.82C701.902 1269.96 701.568 1270.17 701.295 1270.46C701.023 1270.74 700.819 1271.08 700.699 1271.45" stroke="#0B274D" stroke-width="2" stroke-miterlimit="10" stroke-linecap="round" stroke-dasharray="0.1 8"/>
<path d="M950.013 1046.02C950.116 1045.84 950.205 1045.66 950.28 1045.47C950.429 1045.15 950.509 1044.79 950.515 1044.44C950.521 1044.08 950.453 1043.73 950.316 1043.4C950.178 1043.07 949.974 1042.77 949.716 1042.53C949.458 1042.28 949.152 1042.09 948.817 1041.97" stroke="#0B274D" stroke-width="2" stroke-miterlimit="10" stroke-linecap="round" stroke-dasharray="0.1 8"/>
<path d="M603.623 760.81C590.333 765.04 577.483 772.68 568.123 782.81" stroke="#0B274D" stroke-width="2" stroke-miterlimit="10" stroke-linecap="round" stroke-dasharray="0.1 8"/>
<path d="M548.993 747.23C549.9 747.189 550.808 747.27 551.693 747.47" stroke="#0B274D" stroke-width="2" stroke-miterlimit="10" stroke-linecap="round" stroke-dasharray="0.1 8"/>
<path d="M560.243 749.87C561.917 749.656 563.617 749.778 565.243 750.23L578.413 744.96" stroke="#0B274D" stroke-width="2" stroke-miterlimit="10" stroke-linecap="round" stroke-dasharray="0.1 8"/>
<path d="M577.983 741.57L575.983 740.57" stroke="#0B274D" stroke-width="2" stroke-miterlimit="10" stroke-linecap="round" stroke-dasharray="0.1 8"/>
<path d="M483.673 770.06C484.348 770.266 485.064 770.298 485.755 770.153C486.445 770.008 487.088 769.691 487.623 769.23" stroke="#0B274D" stroke-width="2" stroke-miterlimit="10" stroke-linecap="round" stroke-dasharray="0.1 8"/>
<path d="M494.363 764.51C493.989 764.582 493.649 764.777 493.398 765.063C493.146 765.349 492.997 765.71 492.973 766.09C493.673 768.89 498.643 768.39 500.973 767.99C501.484 767.892 501.97 767.687 502.397 767.39C502.824 767.092 503.184 766.707 503.453 766.261C503.722 765.815 503.894 765.317 503.958 764.8C504.021 764.283 503.975 763.758 503.823 763.26" stroke="#0B274D" stroke-width="2" stroke-miterlimit="10" stroke-linecap="round" stroke-dasharray="0.1 8"/>
<path d="M506.043 761.59C506.693 761.84 507.403 761.891 508.083 761.738C508.763 761.585 509.382 761.235 509.863 760.73C512.243 758.23 510.733 754.89 508.183 753.67" stroke="#0B274D" stroke-width="2" stroke-miterlimit="10" stroke-linecap="round" stroke-dasharray="0.1 8"/>
<path d="M567.723 724.53C567.745 724.582 567.772 724.632 567.803 724.68C570.883 728.43 575.673 725.04 573.703 722" stroke="#0B274D" stroke-width="2" stroke-miterlimit="10" stroke-linecap="round" stroke-dasharray="0.1 8"/>
<path d="M559.923 741.33C560.693 741.139 561.407 740.767 562.005 740.246C562.603 739.724 563.069 739.067 563.363 738.33" stroke="#0B274D" stroke-width="2" stroke-miterlimit="10" stroke-linecap="round" stroke-dasharray="0.1 8"/>
<path d="M490.513 788.78C489.573 790.39 487.513 790.91 485.853 791.69C484.193 792.47 482.453 794.25 483.163 795.98C483.633 797.12 484.943 797.63 486.163 797.89C488.676 798.412 491.279 798.309 493.743 797.59C494.59 797.387 495.369 796.967 496.003 796.37C496.312 796.065 496.519 795.671 496.596 795.243C496.673 794.815 496.616 794.374 496.433 793.98C496.093 793.38 495.343 792.98 495.363 792.25C495.363 790.86 497.993 791.25 498.623 790.03C498.734 789.728 498.744 789.399 498.652 789.09C498.56 788.782 498.371 788.512 498.113 788.32C497.582 787.958 496.978 787.716 496.343 787.61C494.833 787.24 494.003 786 492.453 786.16C490.903 786.32 491.233 787.39 490.533 788.78" stroke="#0B274D" stroke-miterlimit="10" stroke-linecap="round"/>
<path d="M504.993 780.13C503.993 780.46 504.103 782.03 504.793 782.86C505.483 783.69 506.503 784.3 506.793 785.33C506.923 785.78 506.903 786.26 507.053 786.69C507.27 787.144 507.619 787.522 508.054 787.776C508.49 788.029 508.991 788.146 509.493 788.11C510.678 788.026 511.784 787.486 512.58 786.604C513.376 785.723 513.8 784.567 513.763 783.38C513.657 782.195 513.179 781.073 512.398 780.175C511.617 779.278 510.572 778.649 509.413 778.38C507.103 777.83 506.723 778.52 504.983 780.13" stroke="#0B274D" stroke-miterlimit="10" stroke-linecap="round"/>
<path d="M520.193 773.28C518.933 773.61 518.543 773.18 517.633 774.12C516.723 775.06 516.493 776.77 517.493 777.6C517.941 777.919 518.459 778.127 519.003 778.21L524.163 779.44C525.27 779.844 526.485 779.844 527.593 779.44C528.24 779.011 528.703 778.355 528.888 777.6C529.073 776.846 528.968 776.05 528.593 775.37C528.186 774.706 527.631 774.145 526.972 773.731C526.313 773.316 525.567 773.059 524.793 772.98C523.239 772.843 521.674 772.948 520.153 773.29" stroke="#0B274D" stroke-miterlimit="10" stroke-linecap="round"/>
<path d="M530.913 766.28C530.149 767.888 529.805 769.663 529.913 771.44C529.963 773.16 531.273 774.98 532.993 774.93C535.053 774.87 536.173 772.17 535.413 770.26C534.653 768.35 532.753 767.16 530.893 766.26" stroke="#0B274D" stroke-miterlimit="10" stroke-linecap="round"/>
<path d="M541.623 762.99C539.303 762.9 537.843 764.54 537.003 766.7C536.163 768.86 537.603 771.77 539.923 771.93C541.853 772.07 543.433 770.5 544.643 768.99C545.274 768.282 545.772 767.465 546.113 766.58C546.278 766.135 546.332 765.657 546.271 765.187C546.21 764.717 546.036 764.268 545.763 763.88C544.833 762.73 543.093 762.8 541.623 762.99Z" stroke="#0B274D" stroke-miterlimit="10" stroke-linecap="round"/>
<path d="M559.363 763.29C558.103 764.12 558.583 766.38 560.003 766.87C560.726 767.052 561.492 766.945 562.138 766.571C562.784 766.198 563.259 765.588 563.463 764.87C563.618 764.133 563.582 763.368 563.358 762.648C563.134 761.929 562.73 761.279 562.183 760.76C561.89 760.402 561.513 760.123 561.085 759.949C560.657 759.774 560.192 759.709 559.733 759.76C558.833 759.95 560.193 762.51 559.363 763.33" stroke="#0B274D" stroke-miterlimit="10" stroke-linecap="round"/>
<path d="M564.553 756.07C563.393 756.79 564.553 759.79 565.293 760.95C566.116 762.052 567.212 762.921 568.473 763.47C569.227 763.962 570.069 764.302 570.953 764.47C571.395 764.54 571.848 764.484 572.258 764.307C572.669 764.13 573.021 763.84 573.273 763.47C573.564 762.738 573.564 761.922 573.273 761.19C572.833 759.226 571.718 757.478 570.123 756.25C569.313 755.66 568.342 755.334 567.341 755.314C566.339 755.294 565.356 755.583 564.523 756.14" stroke="#0B274D" stroke-miterlimit="10" stroke-linecap="round"/>
<path d="M163.194 585.679C164.155 605.558 160.717 618.215 173.119 641.758C182.848 672.357 164.456 704.607 168.81 735.581" stroke="#0B274D" stroke-width="2" stroke-miterlimit="10" stroke-linecap="round" stroke-dasharray="0.1 8"/>
<path d="M108.693 900.182L112.537 897.63" stroke="#0B274D" stroke-width="2" stroke-miterlimit="10" stroke-linecap="round" stroke-dasharray="0.1 8"/>
<path d="M111.381 891.144L108.889 889.177" stroke="#0B274D" stroke-width="2" stroke-miterlimit="10" stroke-linecap="round" stroke-dasharray="0.1 8"/>
<path d="M110.134 877.015C110.082 875.15 109.68 873.312 108.948 871.595" stroke="#0B274D" stroke-width="2" stroke-miterlimit="10" stroke-linecap="round" stroke-dasharray="0.1 8"/>
<path d="M113.843 860.8C118.467 853.563 117.972 842.452 111.876 836.507" stroke="#0B274D" stroke-width="2" stroke-miterlimit="10" stroke-linecap="round" stroke-dasharray="0.1 8"/>
<path d="M113.243 825.156C113.304 823.324 112.885 821.507 112.026 819.886" stroke="#0B274D" stroke-width="2" stroke-miterlimit="10" stroke-linecap="round" stroke-dasharray="0.1 8"/>
<path d="M117.026 807.154C122.281 797.665 121.891 784.708 115.39 776.074" stroke="#0B274D" stroke-width="2" stroke-miterlimit="10" stroke-linecap="round" stroke-dasharray="0.1 8"/>
<path d="M116.741 772.426L119.744 772.906" stroke="#0B274D" stroke-width="2" stroke-miterlimit="10" stroke-linecap="round" stroke-dasharray="0.1 8"/>
<path d="M120.719 763.583C120.792 763.525 120.857 763.46 120.915 763.388L123.197 689.743C124.938 675.359 120.674 653.318 104.939 650.916" stroke="#0B274D" stroke-width="2" stroke-miterlimit="10" stroke-linecap="round" stroke-dasharray="0.1 8"/>
<path d="M52.8857 587.406C53.6964 584.403 51.9998 582.902 49.8828 582.902" stroke="#0B274D" stroke-width="2" stroke-miterlimit="10" stroke-linecap="round" stroke-dasharray="0.1 8"/>
<path d="M58.2604 598.937C58.4022 598.411 58.4368 597.863 58.362 597.323C58.2872 596.784 58.1046 596.266 57.825 595.799C57.2968 595.249 56.5877 594.907 55.8281 594.838" stroke="#0B274D" stroke-width="2" stroke-miterlimit="10" stroke-linecap="round" stroke-dasharray="0.1 8"/>
<path d="M47 608.741C47.7848 608.747 48.5496 608.494 49.1764 608.022C49.8033 607.55 50.2573 606.884 50.4683 606.129" stroke="#0B274D" stroke-width="2" stroke-miterlimit="10" stroke-linecap="round" stroke-dasharray="0.1 8"/>
<path d="M76.9395 913.26C79.1315 914.971 82.825 915.136 85.6176 910.587C85.9315 909.89 86.0725 909.128 86.0284 908.365C85.9842 907.602 85.7563 906.86 85.3641 906.204C84.972 905.548 84.4271 904.997 83.7759 904.596C83.1246 904.196 82.3864 903.959 81.6239 903.906" stroke="#0B274D" stroke-width="2" stroke-miterlimit="10" stroke-linecap="round" stroke-dasharray="0.1 8"/>
<path d="M117.057 897.84C117.681 900.163 117.632 902.615 116.917 904.911C116.202 907.208 114.85 909.254 113.018 910.812C112.417 911.293 111.727 912.073 112.177 912.689C112.627 913.304 113.513 912.914 114.114 912.524L131.485 901.248C132.034 900.948 132.503 900.521 132.852 900.002C133.021 899.742 133.096 899.431 133.063 899.122C133.03 898.813 132.892 898.524 132.671 898.305C132.318 898.095 131.91 897.996 131.5 898.02L119.294 897.479C119.024 897.479 118.708 897.48 118.558 897.705C118.408 897.93 116.876 898.05 117.057 897.84" stroke="#0B274D" stroke-miterlimit="10" stroke-linecap="round"/>
<path d="M120.571 882.556C120.135 883.892 120.018 885.312 120.229 886.701C120.44 888.091 120.974 889.412 121.787 890.558C122.107 891.021 122.524 891.408 123.009 891.693C123.493 891.979 124.035 892.155 124.594 892.21C125.499 892.146 126.371 891.84 127.117 891.324C129.605 889.909 132.002 888.339 134.294 886.624C134.821 886.29 135.263 885.838 135.585 885.303C135.737 885.027 135.798 884.711 135.761 884.398C135.723 884.086 135.588 883.793 135.375 883.561C134.984 883.303 134.521 883.177 134.053 883.201L120.541 882.556" stroke="#0B274D" stroke-miterlimit="10" stroke-linecap="round"/>
<path d="M123.739 871.58C122.61 872.016 121.586 872.686 120.736 873.547C120.328 873.995 120.066 874.556 119.982 875.156C119.899 875.757 120 876.368 120.271 876.91C120.555 877.266 120.907 877.562 121.307 877.781C121.706 878 122.145 878.138 122.598 878.186C125.421 878.667 128.318 877.526 131.156 877.901C131.952 878.006 132.657 878.216 133.513 878.261C133.908 878.306 134.308 878.272 134.689 878.161C135.07 878.05 135.426 877.865 135.735 877.616C136.135 877.144 136.355 876.545 136.355 875.927C136.355 875.308 136.135 874.71 135.735 874.238C134.925 873.297 133.787 872.701 132.552 872.571C131.336 872.376 130.09 872.436 128.859 872.316C126.787 872.106 125.436 872.766 123.694 871.58" stroke="#0B274D" stroke-miterlimit="10" stroke-linecap="round"/>
<path d="M126.2 860.019C126.2 861.385 124.368 861.521 124.503 862.947C124.601 863.565 124.89 864.137 125.329 864.583C125.752 865.045 126.262 865.417 126.83 865.679C128.662 866.49 130.779 865.86 132.686 865.229C133.891 864.949 134.99 864.329 135.854 863.442C136.439 862.589 136.781 861.592 136.845 860.56C137.147 858.269 137.173 855.95 136.92 853.653C136.8 851.518 136.133 849.45 134.983 847.647C134.393 846.761 133.572 846.053 132.609 845.6C131.646 845.148 130.576 844.968 129.518 845.08C128.999 845.164 128.503 845.353 128.059 845.634C127.616 845.916 127.234 846.285 126.938 846.719C126.641 847.153 126.436 847.643 126.335 848.159C126.234 848.675 126.239 849.206 126.35 849.719C126.678 850.325 126.863 850.998 126.89 851.686C126.68 852.932 124.893 853.293 124.443 854.464C123.737 856.371 127.055 858.157 126.2 860.004" stroke="#0B274D" stroke-miterlimit="10" stroke-linecap="round"/>
<path d="M128.528 835.381C128.17 834.858 127.656 834.461 127.059 834.248C126.462 834.035 125.813 834.016 125.205 834.194C124.596 834.373 124.06 834.739 123.673 835.241C123.285 835.742 123.067 836.354 123.048 836.987C123.071 837.786 123.324 838.561 123.776 839.219C124.229 839.876 124.863 840.389 125.6 840.696C127.083 841.275 128.663 841.566 130.255 841.552L133.573 841.717C134.871 841.857 136.183 841.76 137.446 841.432C138.076 841.259 138.646 840.919 139.098 840.449C139.55 839.979 139.867 839.395 140.014 838.759C140.006 837.997 139.837 837.245 139.515 836.554C139.194 835.863 138.73 835.248 138.152 834.75C137.041 833.489 135.585 832.138 133.948 832.453C133.053 832.72 132.255 833.242 131.651 833.955C131.044 834.635 130.274 835.152 129.414 835.456C128.977 835.598 128.503 835.566 128.09 835.367C127.676 835.169 127.354 834.819 127.192 834.39" stroke="#0B274D" stroke-miterlimit="10" stroke-linecap="round"/>
<path d="M124.879 818.865C124.134 819.783 123.611 820.861 123.351 822.015C123.09 823.169 123.1 824.367 123.378 825.516C123.501 826.126 123.811 826.682 124.264 827.108C124.494 827.312 124.787 827.433 125.094 827.452C125.401 827.471 125.706 827.387 125.96 827.213C126.351 826.883 126.456 826.312 126.741 825.892C127.537 824.751 129.248 825.036 130.63 825.231C134.068 825.711 137.521 824.675 140.839 823.655C141.723 823.443 142.559 823.066 143.302 822.543C143.675 822.278 143.966 821.915 144.144 821.493C144.322 821.071 144.378 820.608 144.308 820.156C143.977 818.76 142.251 818.279 141.185 817.304C140.614 816.793 140.194 816.072 139.488 815.802C138.818 815.599 138.102 815.599 137.431 815.802L130.314 816.943C128.273 817.135 126.292 817.738 124.489 818.715" stroke="#0B274D" stroke-miterlimit="10" stroke-linecap="round"/>
<path d="M132.116 800.998C137.416 802.38 130.614 804.917 129.383 807.514C128.938 808.33 128.648 809.221 128.527 810.142C128.478 810.604 128.586 811.069 128.834 811.461C129.082 811.854 129.455 812.151 129.894 812.304C130.555 812.372 131.221 812.219 131.786 811.869C136.65 809.526 141.71 807.034 144.968 802.725C145.431 802.22 145.784 801.624 146.004 800.975C146.223 800.326 146.305 799.639 146.244 798.956C145.824 796.884 143.362 795.953 141.26 795.803C139.35 795.676 137.434 795.676 135.524 795.803C134.429 795.805 133.343 795.993 132.311 796.359C131.305 796.794 129.488 797.86 129.308 799.016C129.128 800.172 130.99 800.668 132.071 800.968" stroke="#0B274D" stroke-miterlimit="10" stroke-linecap="round"/>
<path d="M141.935 787.065C141.29 786.795 140.839 787.065 140.239 787.455C139.638 787.846 140.164 788.581 139.818 789.197C139.565 789.568 139.401 789.994 139.341 790.44C139.281 790.885 139.326 791.339 139.473 791.764C139.788 792.314 140.296 792.727 140.899 792.92C141.936 793.273 143.063 793.248 144.082 792.849C145.102 792.451 145.947 791.705 146.47 790.743C146.721 790.331 146.847 789.854 146.831 789.371C146.815 788.888 146.658 788.421 146.38 788.026C146.085 787.77 145.742 787.576 145.37 787.457C144.998 787.339 144.606 787.297 144.218 787.335C143.426 787.402 142.628 787.331 141.86 787.125" stroke="#0B274D" stroke-miterlimit="10" stroke-linecap="round"/>
<path d="M131.051 777.591C133.213 779.333 130.976 779.678 131.456 780.594C131.721 781.062 132.08 781.47 132.512 781.791C132.944 782.112 133.439 782.338 133.964 782.456C135.012 782.691 136.089 782.777 137.162 782.711L141.411 782.636C143.588 782.636 145.915 782.501 147.627 781.134C148.329 780.521 148.832 779.711 149.07 778.809C149.308 777.907 149.271 776.955 148.963 776.075C148.624 775.205 148.012 774.47 147.218 773.979C146.424 773.489 145.493 773.271 144.564 773.357C142.432 773.627 140.735 775.534 138.558 775.639C137.409 775.594 136.278 775.334 135.225 774.873C134.164 774.409 132.965 774.372 131.877 774.768C131.616 774.877 131.383 775.041 131.194 775.25C131.004 775.458 130.863 775.706 130.78 775.976C130.697 776.245 130.674 776.529 130.713 776.808C130.752 777.088 130.852 777.355 131.006 777.591" stroke="#0B274D" stroke-miterlimit="10" stroke-linecap="round"/>
<path d="M134.637 765.415C133.34 765.486 132.097 765.958 131.079 766.766C130.842 766.978 130.654 767.239 130.529 767.531C130.404 767.823 130.345 768.139 130.355 768.457C130.365 768.775 130.444 769.086 130.587 769.37C130.731 769.654 130.934 769.902 131.184 770.099C132.685 770.88 134.457 769.093 136.004 769.694C136.739 769.979 137.19 770.73 137.88 771.09C138.755 771.399 139.709 771.399 140.583 771.09L146.348 769.844C148.051 769.584 149.691 769.008 151.183 768.147C151.883 767.791 152.469 767.243 152.871 766.568C153.273 765.893 153.476 765.118 153.455 764.332C153.435 763.546 153.192 762.783 152.755 762.129C152.319 761.476 151.706 760.959 150.988 760.64C149.737 760.023 148.401 759.598 147.024 759.379C144.854 758.696 142.527 758.696 140.358 759.379C137.595 760.595 137.64 764.964 134.637 765.385" stroke="#0B274D" stroke-miterlimit="10" stroke-linecap="round"/>
<path d="M142.972 744.905C141.844 745.583 140.55 745.937 139.233 745.926C138.378 745.926 137.522 745.761 136.666 745.776C136.238 745.76 135.812 745.834 135.414 745.991C135.016 746.149 134.655 746.387 134.354 746.692C134.031 747.165 133.858 747.725 133.858 748.298C133.858 748.871 134.031 749.431 134.354 749.905C134.998 750.846 135.825 751.648 136.786 752.262C138.3 753.536 140.05 754.5 141.936 755.1C143.457 755.453 145.051 755.314 146.489 754.705C147.927 754.095 149.135 753.045 149.939 751.707C150.51 750.76 150.757 749.653 150.644 748.553C150.53 747.453 150.061 746.42 149.308 745.611C147.656 744.109 145.254 744.605 143.047 744.905" stroke="#0B274D" stroke-miterlimit="10" stroke-linecap="round"/>
<path d="M136.455 713.901C139.293 719.906 136.35 725.912 135.644 732.323C135.434 733.51 135.434 734.725 135.644 735.912C135.765 736.504 136.04 737.055 136.44 737.508C136.841 737.961 137.353 738.301 137.927 738.494C138.656 738.572 139.394 738.476 140.08 738.215C140.767 737.955 141.381 737.536 141.875 736.993C144.316 734.87 146.31 732.284 147.743 729.384C149.176 726.485 150.019 723.33 150.223 720.102C150.493 715.207 148.887 709.757 144.638 707.325C142.101 705.823 138.767 705.553 136.936 703.271C136.557 702.69 136.13 702.143 135.659 701.634C135.418 701.388 135.107 701.223 134.768 701.161C134.43 701.099 134.08 701.144 133.768 701.289C132.942 701.799 133.122 703.031 133.407 703.961L136.41 713.901" stroke="#0B274D" stroke-miterlimit="10" stroke-linecap="round"/>
<path d="M139.353 688.962C138.077 689.743 137.852 691.514 136.546 692.34C135.859 692.746 135.341 693.384 135.085 694.138C134.829 694.893 134.852 695.715 135.149 696.454C136.17 698.511 139.188 698.496 140.9 700.042C142.206 701.214 142.836 703.361 144.578 703.676C146.32 703.991 147.581 702.43 148.482 701.048C149.383 699.667 150.524 697.415 149.368 695.989C148.212 694.562 145.509 695.088 144.068 693.782C143.092 692.896 142.987 691.439 142.446 690.223C141.906 689.007 140.269 688.016 139.353 688.962" stroke="#0B274D" stroke-miterlimit="10" stroke-linecap="round"/>
<path d="M133.708 666.861C131.245 671.497 130.628 676.893 131.981 681.966C132.141 682.533 132.427 683.058 132.818 683.5C133.209 683.942 133.694 684.29 134.238 684.518C134.783 684.746 135.371 684.848 135.961 684.817C136.55 684.786 137.124 684.622 137.641 684.338L138.122 684.083C139.623 683.287 141.53 682.581 142.956 683.587C143.692 684.082 144.142 684.908 144.848 685.449C146.575 686.8 149.352 685.899 150.584 684.113C151.725 682.211 152.249 680.003 152.085 677.792C152.066 673.047 151.368 668.33 150.013 663.783C149.599 662.068 148.843 660.455 147.791 659.039C145.953 657.015 143.389 655.8 140.659 655.661C137.963 655.531 135.261 655.763 132.627 656.351C132.026 656.373 131.437 656.517 130.895 656.776C130.352 657.034 129.869 657.4 129.474 657.853C128.483 659.354 129.744 661.456 131.305 662.357C132.867 663.258 136.831 663.858 133.753 666.861" stroke="#0B274D" stroke-miterlimit="10" stroke-linecap="round"/>
<path d="M120.195 642.463C119.977 642.682 119.808 642.943 119.697 643.23C119.586 643.518 119.536 643.825 119.55 644.133C119.564 644.441 119.642 644.742 119.779 645.018C119.916 645.294 120.108 645.539 120.345 645.736C121.351 646.495 122.604 646.849 123.858 646.727C126.206 646.674 128.507 646.065 130.574 644.951C132.641 643.836 134.415 642.248 135.749 640.316C137.046 638.357 137.838 636.107 138.053 633.767C138.268 631.428 137.899 629.071 136.981 626.909C136.007 624.77 134.492 622.922 132.585 621.547C130.679 620.173 128.447 619.319 126.11 619.071C124.834 618.894 123.533 619.008 122.306 619.403C121.079 619.798 119.957 620.465 119.024 621.353C116.366 624.206 116.892 628.695 117.777 632.494C118.663 636.292 122.282 639.175 120.195 642.463Z" stroke="#0B274D" stroke-miterlimit="10" stroke-linecap="round"/>
<path d="M104.235 569.179C101.517 569.629 95.5866 573.323 96.2922 575.995C96.9078 578.338 99.4752 579.449 101.502 580.77C106.277 583.893 108.859 589.373 111.201 594.568C113.544 599.763 115.871 605.363 115.706 610.843C115.699 611.353 115.813 611.857 116.039 612.314C116.265 612.771 116.595 613.168 117.004 613.473C117.413 613.777 117.888 613.981 118.39 614.067C118.892 614.152 119.408 614.118 119.895 613.966L128.903 611.249C132.077 610.562 135.054 609.165 137.611 607.165C140.464 604.537 141.65 600.604 142.716 596.865C143.647 593.622 144.383 589.628 141.935 587.301C140.194 585.649 137.251 585.409 136.035 583.352C134.819 581.295 136.2 578.368 136.26 575.845C136.365 571.731 132.612 568.338 128.618 567.392C124.624 566.446 120.435 567.392 116.426 568.323C112.417 569.254 108.244 570.2 104.235 569.284" stroke="#0B274D" stroke-miterlimit="10" stroke-linecap="round"/>
</g>
</svg>
