<svg width="1550" height="1550" viewBox="0 0 1550 1550" fill="none" xmlns="http://www.w3.org/2000/svg">
<g clip-path="url(#clip0_8_338)">
<line x1="850.5" y1="2.18557e-08" x2="850.5" y2="1550" stroke="white"/>
<line y1="699.5" x2="1550" y2="699.5" stroke="white"/>
<line x1="1050.5" y1="2.18557e-08" x2="1050.5" y2="1550" stroke="white"/>
<line y1="499.5" x2="1550" y2="499.5" stroke="white"/>
<line x1="1100.5" y1="2.18557e-08" x2="1100.5" y2="1550" stroke="white"/>
<line y1="449.5" x2="1550" y2="449.5" stroke="white"/>
<line x1="1350.5" y1="2.18557e-08" x2="1350.5" y2="1550" stroke="white"/>
<line y1="199.5" x2="1550" y2="199.5" stroke="white"/>
<line x1="1000.5" y1="2.18557e-08" x2="1000.5" y2="1550" stroke="white"/>
<line y1="549.5" x2="1550" y2="549.5" stroke="white"/>
<line x1="1300.5" y1="2.18557e-08" x2="1300.5" y2="1550" stroke="white"/>
<line y1="249.5" x2="1550" y2="249.5" stroke="white"/>
<line x1="950.5" y1="2.18557e-08" x2="950.5" y2="1550" stroke="white"/>
<line y1="599.5" x2="1550" y2="599.5" stroke="white"/>
<line x1="800.5" y1="2.18557e-08" x2="800.5" y2="1550" stroke="white"/>
<line y1="749.5" x2="1550" y2="749.5" stroke="white"/>
<line x1="1250.5" y1="2.18557e-08" x2="1250.5" y2="1550" stroke="white"/>
<line y1="299.5" x2="1550" y2="299.5" stroke="white"/>
<line x1="1500.5" y1="2.18557e-08" x2="1500.5" y2="1550" stroke="white"/>
<line y1="49.5" x2="1550" y2="49.5" stroke="white"/>
<line x1="750.5" y1="2.18557e-08" x2="750.5" y2="1550" stroke="white"/>
<line y1="799.5" x2="1550" y2="799.5" stroke="white"/>
<line x1="1200.5" y1="2.18557e-08" x2="1200.5" y2="1550" stroke="white"/>
<line y1="349.5" x2="1550" y2="349.5" stroke="white"/>
<line x1="1450.5" y1="2.18557e-08" x2="1450.5" y2="1550" stroke="white"/>
<line y1="99.5" x2="1550" y2="99.5" stroke="white"/>
<line x1="900.5" y1="2.18557e-08" x2="900.5" y2="1550" stroke="white"/>
<line y1="649.5" x2="1550" y2="649.5" stroke="white"/>
<line x1="700.5" y1="2.18557e-08" x2="700.5" y2="1550" stroke="white"/>
<line y1="849.5" x2="1550" y2="849.5" stroke="white"/>
<line x1="650.5" y1="2.18557e-08" x2="650.5" y2="1550" stroke="white"/>
<line y1="899.5" x2="1550" y2="899.5" stroke="white"/>
<line x1="550.5" y1="2.18557e-08" x2="550.5" y2="1550" stroke="white"/>
<line y1="999.5" x2="1550" y2="999.5" stroke="white"/>
<line x1="600.5" y1="2.18557e-08" x2="600.5" y2="1550" stroke="white"/>
<line y1="949.5" x2="1550" y2="949.5" stroke="white"/>
<line x1="1150.5" y1="2.18557e-08" x2="1150.5" y2="1550" stroke="white"/>
<line y1="399.5" x2="1550" y2="399.5" stroke="white"/>
<line x1="1400.5" y1="2.18557e-08" x2="1400.5" y2="1550" stroke="white"/>
<line y1="149.5" x2="1550" y2="149.5" stroke="white"/>
<line x1="300.5" y1="2.18557e-08" x2="300.5" y2="1550" stroke="white"/>
<line y1="1249.5" x2="1550" y2="1249.5" stroke="white"/>
<line x1="500.5" y1="2.18557e-08" x2="500.5" y2="1550" stroke="white"/>
<line y1="1049.5" x2="1550" y2="1049.5" stroke="white"/>
<line x1="250.5" y1="2.18557e-08" x2="250.5" y2="1550" stroke="white"/>
<line y1="1299.5" x2="1550" y2="1299.5" stroke="white"/>
<line x1="450.5" y1="2.18557e-08" x2="450.5" y2="1550" stroke="white"/>
<line y1="1099.5" x2="1550" y2="1099.5" stroke="white"/>
<line x1="200.5" y1="2.18557e-08" x2="200.5" y2="1550" stroke="white"/>
<line y1="1349.5" x2="1550" y2="1349.5" stroke="white"/>
<line x1="400.5" y1="2.18557e-08" x2="400.5" y2="1550" stroke="white"/>
<line y1="1149.5" x2="1550" y2="1149.5" stroke="white"/>
<line x1="150.5" y1="2.18557e-08" x2="150.5" y2="1550" stroke="white"/>
<line y1="1399.5" x2="1550" y2="1399.5" stroke="white"/>
<line x1="100.5" y1="2.18557e-08" x2="100.5" y2="1550" stroke="white"/>
<line y1="1449.5" x2="1550" y2="1449.5" stroke="white"/>
<line x1="0.5" y1="2.18557e-08" x2="0.499932" y2="1550" stroke="white"/>
<line y1="1549.5" x2="1550" y2="1549.5" stroke="white"/>
<line x1="50.5" y1="2.18557e-08" x2="50.4999" y2="1550" stroke="white"/>
<line y1="1499.5" x2="1550" y2="1499.5" stroke="white"/>
<line x1="350.5" y1="2.18557e-08" x2="350.5" y2="1550" stroke="white"/>
<line y1="1199.5" x2="1550" y2="1199.5" stroke="white"/>
</g>
<defs>
<clipPath id="clip0_8_338">
<rect width="1550" height="1550" fill="white"/>
</clipPath>
</defs>
</svg>
