<svg width="24" height="24" viewBox="0 0 24 24" fill="none" xmlns="http://www.w3.org/2000/svg">
<path d="M15 9.75C15 16.5 7.5 21.75 7.5 21.75C7.5 21.75 0 16.5 0 9.75C0 7.76088 0.790176 5.85322 2.1967 4.4467C3.60322 3.04018 5.51088 2.25 7.5 2.25C9.48912 2.25 11.3968 3.04018 12.8033 4.4467C14.2098 5.85322 15 7.76088 15 9.75Z" fill="#73CFD9"/>
<path d="M7.5 12.75C9.15685 12.75 10.5 11.4069 10.5 9.75C10.5 8.09315 9.15685 6.75 7.5 6.75C5.84315 6.75 4.5 8.09315 4.5 9.75C4.5 11.4069 5.84315 12.75 7.5 12.75Z" fill="#14488C"/>
</svg>
