<svg width="48" height="52" viewBox="0 0 48 52" fill="none" xmlns="http://www.w3.org/2000/svg">
<g filter="url(#filter0_d_241_9479)">
<path d="M39 19.5C39 33 24 43.5 24 43.5C24 43.5 9 33 9 19.5C9 15.5218 10.5804 11.7064 13.3934 8.8934C16.2064 6.08035 20.0218 4.5 24 4.5C27.9782 4.5 31.7936 6.08035 34.6066 8.8934C37.4196 11.7064 39 15.5218 39 19.5Z" fill="#73CFD9"/>
<path d="M24 25.5C27.3137 25.5 30 22.8137 30 19.5C30 16.1863 27.3137 13.5 24 13.5C20.6863 13.5 18 16.1863 18 19.5C18 22.8137 20.6863 25.5 24 25.5Z" fill="white"/>
</g>
<defs>
<filter id="filter0_d_241_9479" x="-4" y="0" width="56" height="56" filterUnits="userSpaceOnUse" color-interpolation-filters="sRGB">
<feFlood flood-opacity="0" result="BackgroundImageFix"/>
<feColorMatrix in="SourceAlpha" type="matrix" values="0 0 0 0 0 0 0 0 0 0 0 0 0 0 0 0 0 0 127 0" result="hardAlpha"/>
<feOffset dy="4"/>
<feGaussianBlur stdDeviation="2"/>
<feComposite in2="hardAlpha" operator="out"/>
<feColorMatrix type="matrix" values="0 0 0 0 0 0 0 0 0 0 0 0 0 0 0 0 0 0 0.25 0"/>
<feBlend mode="normal" in2="BackgroundImageFix" result="effect1_dropShadow_241_9479"/>
<feBlend mode="normal" in="SourceGraphic" in2="effect1_dropShadow_241_9479" result="shape"/>
</filter>
</defs>
</svg>
