<svg width="1440" height="103" viewBox="0 0 1440 103" fill="none" xmlns="http://www.w3.org/2000/svg">
<g opacity="0.4">
<path d="M547.27 101.06C574.901 101.06 597.3 78.6608 597.3 51.03C597.3 23.3992 574.901 1 547.27 1C519.639 1 497.24 23.3992 497.24 51.03C497.24 78.6608 519.639 101.06 547.27 101.06Z" stroke="#F9D248" stroke-miterlimit="10" stroke-linecap="round" stroke-linejoin="round"/>
<path d="M547.77 51.03V7.48999H546.77V51.03H547.77Z" fill="#F9D248"/>
<path d="M671.33 101.06C698.961 101.06 721.36 78.6608 721.36 51.03C721.36 23.3992 698.961 1 671.33 1C643.699 1 621.3 23.3992 621.3 51.03C621.3 78.6608 643.699 101.06 671.33 101.06Z" stroke="#0A0A23" stroke-width="2" stroke-miterlimit="10" stroke-linecap="round" stroke-linejoin="round" stroke-dasharray="0.1 8"/>
<path d="M672.223 51.4835C672.499 51.0053 672.336 50.3937 671.857 50.1174C671.379 49.8412 670.767 50.005 670.491 50.4832L672.223 51.4835ZM674.793 43.0344C674.517 43.5126 674.681 44.1242 675.159 44.4004C675.638 44.6767 676.249 44.5129 676.525 44.0346L674.793 43.0344ZM676.579 43.9415C676.855 43.4633 676.692 42.8517 676.213 42.5754C675.735 42.2992 675.123 42.463 674.847 42.9413L676.579 43.9415ZM679.149 35.4924C678.873 35.9706 679.037 36.5822 679.515 36.8584C679.994 37.1347 680.605 36.9709 680.881 36.4926L679.149 35.4924ZM680.935 36.3995C681.211 35.9213 681.048 35.3097 680.569 35.0334C680.091 34.7572 679.479 34.921 679.203 35.3993L680.935 36.3995ZM683.505 27.9504C683.229 28.4286 683.393 29.0402 683.871 29.3164C684.35 29.5927 684.961 29.4289 685.237 28.9506L683.505 27.9504ZM685.291 28.8575C685.567 28.3793 685.404 27.7677 684.925 27.4914C684.447 27.2152 683.835 27.379 683.559 27.8573L685.291 28.8575ZM687.861 20.4084C687.585 20.8866 687.749 21.4982 688.227 21.7744C688.706 22.0507 689.317 21.8869 689.593 21.4086L687.861 20.4084ZM689.647 21.3155C689.923 20.8373 689.76 20.2257 689.281 19.9494C688.803 19.6732 688.191 19.837 687.915 20.3153L689.647 21.3155ZM692.217 12.8664C691.941 13.3446 692.105 13.9562 692.583 14.2325C693.062 14.5087 693.673 14.3449 693.949 13.8666L692.217 12.8664ZM672.196 51.5301L672.223 51.4835L670.491 50.4832L670.464 50.5298L672.196 51.5301ZM676.525 44.0346L676.579 43.9415L674.847 42.9413L674.793 43.0344L676.525 44.0346ZM680.881 36.4926L680.935 36.3995L679.203 35.3993L679.149 35.4924L680.881 36.4926ZM685.237 28.9506L685.291 28.8575L683.559 27.8573L683.505 27.9504L685.237 28.9506ZM689.593 21.4086L689.647 21.3155L687.915 20.3153L687.861 20.4084L689.593 21.4086ZM693.949 13.8666L693.976 13.8201L692.244 12.8198L692.217 12.8664L693.949 13.8666Z" fill="#0A0A23"/>
<path d="M795.39 101.06C823.021 101.06 845.42 78.6608 845.42 51.03C845.42 23.3992 823.021 1 795.39 1C767.76 1 745.36 23.3992 745.36 51.03C745.36 78.6608 767.76 101.06 795.39 101.06Z" stroke="#0A0A23" stroke-width="2" stroke-miterlimit="10" stroke-linecap="round" stroke-linejoin="round" stroke-dasharray="0.1 8"/>
<path d="M795.937 51.8692C796.415 51.5931 796.579 50.9815 796.303 50.5032C796.027 50.0249 795.415 49.861 794.937 50.1371L795.937 51.8692ZM802.386 45.8368C801.908 46.113 801.744 46.7246 802.02 47.2029C802.296 47.6812 802.907 47.8451 803.386 47.5689L802.386 45.8368ZM803.479 47.5152C803.957 47.2391 804.121 46.6275 803.845 46.1492C803.569 45.6709 802.957 45.507 802.479 45.7831L803.479 47.5152ZM809.928 41.4828C809.45 41.759 809.286 42.3706 809.562 42.8489C809.838 43.3272 810.449 43.4911 810.928 43.2149L809.928 41.4828ZM811.021 43.1612C811.499 42.8851 811.663 42.2735 811.387 41.7952C811.111 41.3169 810.499 41.153 810.021 41.4291L811.021 43.1612ZM817.47 37.1288C816.992 37.405 816.828 38.0166 817.104 38.4949C817.38 38.9732 817.992 39.1371 818.47 38.8609L817.47 37.1288ZM818.563 38.8072C819.041 38.5311 819.205 37.9195 818.929 37.4412C818.653 36.9629 818.041 36.799 817.563 37.0751L818.563 38.8072ZM825.012 32.7748C824.534 33.051 824.37 33.6626 824.646 34.1409C824.922 34.6192 825.534 34.7831 826.012 34.5069L825.012 32.7748ZM826.105 34.4532C826.583 34.1771 826.747 33.5655 826.471 33.0872C826.195 32.6089 825.583 32.445 825.105 32.7211L826.105 34.4532ZM832.554 28.4208C832.076 28.697 831.912 29.3086 832.188 29.7869C832.464 30.2652 833.076 30.4291 833.554 30.1529L832.554 28.4208ZM795.89 51.8961L795.937 51.8692L794.937 50.1371L794.89 50.164L795.89 51.8961ZM803.386 47.5689L803.479 47.5152L802.479 45.7831L802.386 45.8368L803.386 47.5689ZM810.928 43.2149L811.021 43.1612L810.021 41.4291L809.928 41.4828L810.928 43.2149ZM818.47 38.8609L818.563 38.8072L817.563 37.0751L817.47 37.1288L818.47 38.8609ZM826.012 34.5069L826.105 34.4532L825.105 32.7211L825.012 32.7748L826.012 34.5069ZM833.554 30.1529L833.6 30.1261L832.6 28.394L832.554 28.4208L833.554 30.1529Z" fill="#0A0A23"/>
<path d="M919.45 101.06C947.081 101.06 969.48 78.6608 969.48 51.03C969.48 23.3992 947.081 1 919.45 1C891.82 1 869.42 23.3992 869.42 51.03C869.42 78.6608 891.82 101.06 919.45 101.06Z" stroke="#0A0A23" stroke-width="2" stroke-miterlimit="10" stroke-linecap="round" stroke-linejoin="round" stroke-dasharray="0.1 8"/>
<path d="M919.504 52.03C920.056 52.03 920.504 51.5823 920.504 51.03C920.504 50.4777 920.056 50.03 919.504 50.03V52.03ZM928.105 50.03C927.552 50.03 927.105 50.4777 927.105 51.03C927.105 51.5823 927.552 52.03 928.105 52.03V50.03ZM928.212 52.03C928.764 52.03 929.212 51.5823 929.212 51.03C929.212 50.4777 928.764 50.03 928.212 50.03V52.03ZM936.813 50.03C936.26 50.03 935.813 50.4777 935.813 51.03C935.813 51.5823 936.26 52.03 936.813 52.03V50.03ZM936.92 52.03C937.472 52.03 937.92 51.5823 937.92 51.03C937.92 50.4777 937.472 50.03 936.92 50.03V52.03ZM945.521 50.03C944.968 50.03 944.521 50.4777 944.521 51.03C944.521 51.5823 944.968 52.03 945.521 52.03V50.03ZM945.628 52.03C946.18 52.03 946.628 51.5823 946.628 51.03C946.628 50.4777 946.18 50.03 945.628 50.03V52.03ZM954.229 50.03C953.676 50.03 953.229 50.4777 953.229 51.03C953.229 51.5823 953.676 52.03 954.229 52.03V50.03ZM954.336 52.03C954.888 52.03 955.336 51.5823 955.336 51.03C955.336 50.4777 954.888 50.03 954.336 50.03V52.03ZM962.937 50.03C962.384 50.03 961.937 50.4777 961.937 51.03C961.937 51.5823 962.384 52.03 962.937 52.03V50.03ZM919.45 52.03H919.504V50.03H919.45V52.03ZM928.105 52.03H928.212V50.03H928.105V52.03ZM936.813 52.03H936.92V50.03H936.813V52.03ZM945.521 52.03H945.628V50.03H945.521V52.03ZM954.229 52.03H954.336V50.03H954.229V52.03ZM962.937 52.03H962.99V50.03H962.937V52.03Z" fill="#0A0A23"/>
<path d="M1043.51 101.06C1071.14 101.06 1093.54 78.6608 1093.54 51.03C1093.54 23.3992 1071.14 1 1043.51 1C1015.88 1 993.48 23.3992 993.48 51.03C993.48 78.6608 1015.88 101.06 1043.51 101.06Z" stroke="#0A0A23" stroke-width="2" stroke-miterlimit="10" stroke-linecap="round" stroke-linejoin="round" stroke-dasharray="0.1 8"/>
<path d="M1043.06 51.9229C1043.54 52.1991 1044.15 52.0352 1044.42 51.557C1044.7 51.0787 1044.54 50.4671 1044.06 50.1909L1043.06 51.9229ZM1051.51 54.4931C1051.03 54.217 1050.42 54.3808 1050.14 54.8591C1049.87 55.3374 1050.03 55.949 1050.51 56.2251L1051.51 54.4931ZM1050.6 56.2789C1051.08 56.5551 1051.69 56.3912 1051.97 55.913C1052.24 55.4347 1052.08 54.8231 1051.6 54.5469L1050.6 56.2789ZM1059.05 58.8491C1058.57 58.573 1057.96 58.7368 1057.69 59.2151C1057.41 59.6934 1057.57 60.305 1058.05 60.5811L1059.05 58.8491ZM1058.15 60.6349C1058.62 60.9111 1059.23 60.7472 1059.51 60.269C1059.79 59.7907 1059.62 59.1791 1059.15 58.9029L1058.15 60.6349ZM1066.6 63.2051C1066.12 62.929 1065.51 63.0928 1065.23 63.5711C1064.95 64.0494 1065.12 64.661 1065.6 64.9371L1066.6 63.2051ZM1065.69 64.9909C1066.17 65.2671 1066.78 65.1032 1067.06 64.625C1067.33 64.1467 1067.17 63.5351 1066.69 63.2589L1065.69 64.9909ZM1074.14 67.5611C1073.66 67.285 1073.05 67.4488 1072.77 67.9271C1072.5 68.4054 1072.66 69.017 1073.14 69.2931L1074.14 67.5611ZM1073.23 69.3469C1073.71 69.6231 1074.32 69.4592 1074.6 68.981C1074.88 68.5027 1074.71 67.8911 1074.23 67.6149L1073.23 69.3469ZM1081.68 71.9171C1081.21 71.641 1080.59 71.8048 1080.32 72.2831C1080.04 72.7614 1080.21 73.373 1080.68 73.6491L1081.68 71.9171ZM1043.01 51.896L1043.06 51.9229L1044.06 50.1909L1044.01 50.164L1043.01 51.896ZM1050.51 56.2251L1050.6 56.2789L1051.6 54.5469L1051.51 54.4931L1050.51 56.2251ZM1058.05 60.5811L1058.15 60.6349L1059.15 58.9029L1059.05 58.8491L1058.05 60.5811ZM1065.6 64.9371L1065.69 64.9909L1066.69 63.2589L1066.6 63.2051L1065.6 64.9371ZM1073.14 69.2931L1073.23 69.3469L1074.23 67.6149L1074.14 67.5611L1073.14 69.2931ZM1080.68 73.6491L1080.73 73.676L1081.73 71.944L1081.68 71.9171L1080.68 73.6491Z" fill="#0A0A23"/>
<path d="M1167.57 101.06C1195.2 101.06 1217.6 78.6608 1217.6 51.03C1217.6 23.3992 1195.2 1 1167.57 1C1139.94 1 1117.54 23.3992 1117.54 51.03C1117.54 78.6608 1139.94 101.06 1167.57 101.06Z" stroke="#0A0A23" stroke-width="2" stroke-miterlimit="10" stroke-linecap="round" stroke-linejoin="round" stroke-dasharray="0.1 8"/>
<path d="M1166.73 51.5765C1167.01 52.0548 1167.62 52.2188 1168.1 51.9427C1168.58 51.6666 1168.74 51.0551 1168.46 50.5767L1166.73 51.5765ZM1172.76 58.0276C1172.49 57.5493 1171.88 57.3853 1171.4 57.6614C1170.92 57.9374 1170.76 58.549 1171.03 59.0273L1172.76 58.0276ZM1171.09 59.1205C1171.36 59.5988 1171.97 59.7628 1172.45 59.4867C1172.93 59.2106 1173.09 58.5991 1172.82 58.1207L1171.09 59.1205ZM1177.12 65.5716C1176.84 65.0933 1176.23 64.9293 1175.75 65.2054C1175.27 65.4814 1175.11 66.093 1175.39 66.5713L1177.12 65.5716ZM1175.44 66.6645C1175.72 67.1428 1176.33 67.3068 1176.81 67.0307C1177.28 66.7546 1177.45 66.1431 1177.17 65.6647L1175.44 66.6645ZM1181.47 73.1156C1181.2 72.6373 1180.58 72.4733 1180.11 72.7494C1179.63 73.0254 1179.46 73.637 1179.74 74.1153L1181.47 73.1156ZM1179.79 74.2085C1180.07 74.6868 1180.68 74.8508 1181.16 74.5747C1181.64 74.2986 1181.8 73.6871 1181.53 73.2087L1179.79 74.2085ZM1185.83 80.6596C1185.55 80.1813 1184.94 80.0173 1184.46 80.2934C1183.98 80.5694 1183.82 81.181 1184.09 81.6593L1185.83 80.6596ZM1184.15 81.7525C1184.42 82.2308 1185.03 82.3948 1185.51 82.1187C1185.99 81.8426 1186.16 81.2311 1185.88 80.7527L1184.15 81.7525ZM1190.18 88.2036C1189.9 87.7253 1189.29 87.5613 1188.81 87.8374C1188.34 88.1134 1188.17 88.725 1188.45 89.2033L1190.18 88.2036ZM1166.7 51.5299L1166.73 51.5765L1168.46 50.5767L1168.44 50.5302L1166.7 51.5299ZM1171.03 59.0273L1171.09 59.1205L1172.82 58.1207L1172.76 58.0276L1171.03 59.0273ZM1175.39 66.5713L1175.44 66.6645L1177.17 65.6647L1177.12 65.5716L1175.39 66.5713ZM1179.74 74.1153L1179.79 74.2085L1181.53 73.2087L1181.47 73.1156L1179.74 74.1153ZM1184.09 81.6593L1184.15 81.7525L1185.88 80.7527L1185.83 80.6596L1184.09 81.6593ZM1188.45 89.2033L1188.47 89.2499L1190.21 88.2502L1190.18 88.2036L1188.45 89.2033Z" fill="#0A0A23"/>
<path d="M1291.63 101.06C1319.26 101.06 1341.66 78.6608 1341.66 51.03C1341.66 23.3992 1319.26 1 1291.63 1C1264 1 1241.6 23.3992 1241.6 51.03C1241.6 78.6608 1264 101.06 1291.63 101.06Z" stroke="#0A0A23" stroke-width="2" stroke-miterlimit="10" stroke-linecap="round" stroke-linejoin="round" stroke-dasharray="0.1 8"/>
<path d="M1290.63 51.0838C1290.63 51.6361 1291.08 52.0838 1291.63 52.0838C1292.18 52.0838 1292.63 51.6361 1292.63 51.0838H1290.63ZM1292.63 59.6863C1292.63 59.134 1292.18 58.6863 1291.63 58.6863C1291.08 58.6863 1290.63 59.134 1290.63 59.6863H1292.63ZM1290.63 59.7938C1290.63 60.3461 1291.08 60.7938 1291.63 60.7938C1292.18 60.7938 1292.63 60.3461 1292.63 59.7938H1290.63ZM1292.63 68.3963C1292.63 67.844 1292.18 67.3963 1291.63 67.3963C1291.08 67.3963 1290.63 67.844 1290.63 68.3963H1292.63ZM1290.63 68.5038C1290.63 69.0561 1291.08 69.5038 1291.63 69.5038C1292.18 69.5038 1292.63 69.0561 1292.63 68.5038H1290.63ZM1292.63 77.1063C1292.63 76.554 1292.18 76.1063 1291.63 76.1063C1291.08 76.1063 1290.63 76.554 1290.63 77.1063H1292.63ZM1290.63 77.2138C1290.63 77.7661 1291.08 78.2138 1291.63 78.2138C1292.18 78.2138 1292.63 77.7661 1292.63 77.2138H1290.63ZM1292.63 85.8163C1292.63 85.264 1292.18 84.8163 1291.63 84.8163C1291.08 84.8163 1290.63 85.264 1290.63 85.8163H1292.63ZM1290.63 85.9238C1290.63 86.4761 1291.08 86.9238 1291.63 86.9238C1292.18 86.9238 1292.63 86.4761 1292.63 85.9238H1290.63ZM1292.63 94.5263C1292.63 93.974 1292.18 93.5263 1291.63 93.5263C1291.08 93.5263 1290.63 93.974 1290.63 94.5263H1292.63ZM1290.63 51.03V51.0838H1292.63V51.03H1290.63ZM1290.63 59.6863V59.7938H1292.63V59.6863H1290.63ZM1290.63 68.3963V68.5038H1292.63V68.3963H1290.63ZM1290.63 77.1063V77.2138H1292.63V77.1063H1290.63ZM1290.63 85.8163V85.9238H1292.63V85.8163H1290.63ZM1290.63 94.5263V94.58H1292.63V94.5263H1290.63Z" fill="#0A0A23"/>
<!-- <path d="M1415.69 101.06C1443.32 101.06 1465.72 78.6608 1465.72 51.03C1465.72 23.3992 1443.32 1 1415.69 1C1388.06 1 1365.66 23.3992 1365.66 51.03C1365.66 78.6608 1388.06 101.06 1415.69 101.06Z" stroke="#0A0A23" stroke-width="2" stroke-miterlimit="10" stroke-linecap="round" stroke-linejoin="round" stroke-dasharray="0.1 8"/>
<path d="M1394.81 89.2033C1395.09 88.725 1394.93 88.1134 1394.45 87.8374C1393.97 87.5613 1393.36 87.7253 1393.08 88.2036L1394.81 89.2033ZM1397.38 80.7527C1397.11 81.2311 1397.27 81.8426 1397.75 82.1187C1398.23 82.3948 1398.84 82.2308 1399.11 81.7525L1397.38 80.7527ZM1399.17 81.6593C1399.44 81.181 1399.28 80.5694 1398.8 80.2934C1398.32 80.0173 1397.71 80.1813 1397.44 80.6596L1399.17 81.6593ZM1401.74 73.2087C1401.46 73.6871 1401.62 74.2986 1402.1 74.5747C1402.58 74.8508 1403.19 74.6868 1403.47 74.2085L1401.74 73.2087ZM1403.52 74.1153C1403.8 73.637 1403.63 73.0254 1403.16 72.7494C1402.68 72.4733 1402.07 72.6373 1401.79 73.1156L1403.52 74.1153ZM1406.09 65.6647C1405.81 66.1431 1405.98 66.7546 1406.46 67.0307C1406.93 67.3068 1407.55 67.1428 1407.82 66.6645L1406.09 65.6647ZM1407.88 66.5713C1408.15 66.093 1407.99 65.4814 1407.51 65.2054C1407.03 64.9293 1406.42 65.0933 1406.14 65.5716L1407.88 66.5713ZM1410.44 58.1207C1410.17 58.5991 1410.33 59.2106 1410.81 59.4867C1411.29 59.7628 1411.9 59.5988 1412.18 59.1205L1410.44 58.1207ZM1412.23 59.0273C1412.51 58.549 1412.34 57.9374 1411.86 57.6614C1411.38 57.3853 1410.77 57.5493 1410.5 58.0276L1412.23 59.0273ZM1414.8 50.5767C1414.52 51.0551 1414.69 51.6666 1415.16 51.9427C1415.64 52.2188 1416.25 52.0548 1416.53 51.5765L1414.8 50.5767ZM1394.79 89.2499L1394.81 89.2033L1393.08 88.2036L1393.05 88.2502L1394.79 89.2499ZM1399.11 81.7525L1399.17 81.6593L1397.44 80.6596L1397.38 80.7527L1399.11 81.7525ZM1403.47 74.2085L1403.52 74.1153L1401.79 73.1156L1401.74 73.2087L1403.47 74.2085ZM1407.82 66.6645L1407.88 66.5713L1406.14 65.5716L1406.09 65.6647L1407.82 66.6645ZM1412.18 59.1205L1412.23 59.0273L1410.5 58.0276L1410.44 58.1207L1412.18 59.1205ZM1416.53 51.5765L1416.56 51.5299L1414.82 50.5302L1414.8 50.5767L1416.53 51.5765Z" fill="#0A0A23"/> -->
<path d="M51.03 101.06C78.6608 101.06 101.06 78.6608 101.06 51.03C101.06 23.3992 78.6608 1 51.03 1C23.3992 1 1 23.3992 1 51.03C1 78.6608 23.3992 101.06 51.03 101.06Z" stroke="#0A0A23" stroke-width="2" stroke-miterlimit="10" stroke-linecap="round" stroke-linejoin="round" stroke-dasharray="0.1 8"/>
<path d="M13.8668 73.6491C14.345 73.3729 14.5088 72.7612 14.2326 72.283C13.9563 71.8048 13.3447 71.641 12.8665 71.9172L13.8668 73.6491ZM20.3154 67.615C19.8371 67.8912 19.6733 68.5028 19.9496 68.9811C20.2258 69.4593 20.8374 69.6231 21.3156 69.3469L20.3154 67.615ZM21.4088 69.2931C21.887 69.0169 22.0508 68.4052 21.7746 67.927C21.4983 67.4488 20.8867 67.285 20.4085 67.5612L21.4088 69.2931ZM27.8574 63.259C27.3791 63.5352 27.2153 64.1468 27.4916 64.6251C27.7678 65.1033 28.3794 65.2671 28.8576 64.9909L27.8574 63.259ZM28.9507 64.9371C29.429 64.6609 29.5928 64.0492 29.3166 63.571C29.0403 63.0928 28.4287 62.929 27.9505 63.2052L28.9507 64.9371ZM35.3993 58.903C34.9211 59.1792 34.7573 59.7908 35.0335 60.2691C35.3098 60.7473 35.9214 60.9111 36.3996 60.6349L35.3993 58.903ZM36.4927 60.5811C36.971 60.3049 37.1348 59.6932 36.8585 59.215C36.5823 58.7368 35.9707 58.573 35.4925 58.8492L36.4927 60.5811ZM42.9413 54.547C42.4631 54.8232 42.2993 55.4348 42.5755 55.9131C42.8518 56.3913 43.4634 56.5551 43.9416 56.2789L42.9413 54.547ZM44.0347 56.2251C44.513 55.9489 44.6768 55.3372 44.4005 54.859C44.1243 54.3808 43.5127 54.217 43.0345 54.4932L44.0347 56.2251ZM50.4833 50.191C50.0051 50.4672 49.8413 51.0788 50.1175 51.5571C50.3937 52.0353 51.0054 52.1991 51.4836 51.9229L50.4833 50.191ZM13.8202 73.676L13.8668 73.6491L12.8665 71.9172L12.8199 71.9441L13.8202 73.676ZM21.3156 69.3469L21.4088 69.2931L20.4085 67.5612L20.3154 67.615L21.3156 69.3469ZM28.8576 64.9909L28.9507 64.9371L27.9505 63.2052L27.8574 63.259L28.8576 64.9909ZM36.3996 60.6349L36.4927 60.5811L35.4925 58.8492L35.3993 58.903L36.3996 60.6349ZM43.9416 56.2789L44.0347 56.2251L43.0345 54.4932L42.9413 54.547L43.9416 56.2789ZM51.4836 51.9229L51.5302 51.896L50.5299 50.1641L50.4833 50.191L51.4836 51.9229Z" fill="#0A0A23"/>
<path d="M175.09 101.06C202.721 101.06 225.12 78.6608 225.12 51.03C225.12 23.3992 202.721 1 175.09 1C147.459 1 125.06 23.3992 125.06 51.03C125.06 78.6608 147.459 101.06 175.09 101.06Z" stroke="#0A0A23" stroke-width="2" stroke-miterlimit="10" stroke-linecap="round" stroke-linejoin="round" stroke-dasharray="0.1 8"/>
<path d="M131.594 52.03C132.146 52.03 132.594 51.5823 132.594 51.03C132.594 50.4777 132.146 50.03 131.594 50.03V52.03ZM140.196 50.03C139.644 50.03 139.196 50.4777 139.196 51.03C139.196 51.5823 139.644 52.03 140.196 52.03V50.03ZM140.304 52.03C140.856 52.03 141.304 51.5823 141.304 51.03C141.304 50.4777 140.856 50.03 140.304 50.03V52.03ZM148.906 50.03C148.354 50.03 147.906 50.4777 147.906 51.03C147.906 51.5823 148.354 52.03 148.906 52.03V50.03ZM149.014 52.03C149.566 52.03 150.014 51.5823 150.014 51.03C150.014 50.4777 149.566 50.03 149.014 50.03V52.03ZM157.616 50.03C157.064 50.03 156.616 50.4777 156.616 51.03C156.616 51.5823 157.064 52.03 157.616 52.03V50.03ZM157.724 52.03C158.276 52.03 158.724 51.5823 158.724 51.03C158.724 50.4777 158.276 50.03 157.724 50.03V52.03ZM166.326 50.03C165.774 50.03 165.326 50.4777 165.326 51.03C165.326 51.5823 165.774 52.03 166.326 52.03V50.03ZM166.434 52.03C166.986 52.03 167.434 51.5823 167.434 51.03C167.434 50.4777 166.986 50.03 166.434 50.03V52.03ZM175.036 50.03C174.484 50.03 174.036 50.4777 174.036 51.03C174.036 51.5823 174.484 52.03 175.036 52.03V50.03ZM131.54 52.03H131.594V50.03H131.54V52.03ZM140.196 52.03H140.304V50.03H140.196V52.03ZM148.906 52.03H149.014V50.03H148.906V52.03ZM157.616 52.03H157.724V50.03H157.616V52.03ZM166.326 52.03H166.434V50.03H166.326V52.03ZM175.036 52.03H175.09V50.03H175.036V52.03Z" fill="#0A0A23"/>
<path d="M299.15 101.06C326.781 101.06 349.18 78.6608 349.18 51.03C349.18 23.3992 326.781 1 299.15 1C271.519 1 249.12 23.3992 249.12 51.03C249.12 78.6608 271.519 101.06 299.15 101.06Z" stroke="#0A0A23" stroke-width="2" stroke-miterlimit="10" stroke-linecap="round" stroke-linejoin="round" stroke-dasharray="0.1 8"/>
<path d="M260.977 30.153C261.455 30.4291 262.067 30.2651 262.343 29.7868C262.619 29.3084 262.455 28.6969 261.977 28.4208L260.977 30.153ZM269.427 32.721C268.949 32.445 268.338 32.6089 268.062 33.0873C267.785 33.5656 267.949 34.1772 268.428 34.4532L269.427 32.721ZM268.521 34.507C268.999 34.7831 269.611 34.6191 269.887 34.1408C270.163 33.6624 269.999 33.0509 269.521 32.7748L268.521 34.507ZM276.972 37.075C276.493 36.799 275.882 36.9629 275.606 37.4413C275.329 37.9196 275.493 38.5312 275.972 38.8072L276.972 37.075ZM276.065 38.861C276.543 39.1371 277.155 38.9731 277.431 38.4948C277.707 38.0164 277.543 37.4049 277.065 37.1288L276.065 38.861ZM284.516 41.429C284.037 41.153 283.426 41.3169 283.15 41.7953C282.873 42.2736 283.037 42.8852 283.516 43.1612L284.516 41.429ZM283.609 43.215C284.087 43.4911 284.699 43.3271 284.975 42.8488C285.251 42.3704 285.087 41.7589 284.609 41.4828L283.609 43.215ZM292.06 45.783C291.581 45.507 290.97 45.6709 290.694 46.1493C290.418 46.6276 290.581 47.2392 291.06 47.5152L292.06 45.783ZM291.153 47.569C291.631 47.8451 292.243 47.6811 292.519 47.2028C292.795 46.7244 292.631 46.1129 292.153 45.8368L291.153 47.569ZM299.604 50.137C299.125 49.861 298.514 50.0249 298.238 50.5033C297.962 50.9816 298.125 51.5932 298.604 51.8692L299.604 50.137ZM260.93 30.1261L260.977 30.153L261.977 28.4208L261.93 28.3939L260.93 30.1261ZM268.428 34.4532L268.521 34.507L269.521 32.7748L269.427 32.721L268.428 34.4532ZM275.972 38.8072L276.065 38.861L277.065 37.1288L276.972 37.075L275.972 38.8072ZM283.516 43.1612L283.609 43.215L284.609 41.4828L284.516 41.429L283.516 43.1612ZM291.06 47.5152L291.153 47.569L292.153 45.8368L292.06 45.783L291.06 47.5152ZM298.604 51.8692L298.65 51.8961L299.65 50.1639L299.604 50.137L298.604 51.8692Z" fill="#0A0A23"/>
<path d="M423.21 101.06C450.841 101.06 473.24 78.6608 473.24 51.03C473.24 23.3992 450.841 1 423.21 1C395.579 1 373.18 23.3992 373.18 51.03C373.18 78.6608 395.579 101.06 423.21 101.06Z" stroke="#0A0A23" stroke-width="2" stroke-miterlimit="10" stroke-linecap="round" stroke-linejoin="round" stroke-dasharray="0.1 8"/>
<path d="M400.601 13.8665C400.877 14.3448 401.489 14.5087 401.967 14.2325C402.445 13.9564 402.609 13.3448 402.333 12.8665L400.601 13.8665ZM406.633 20.3154C406.357 19.8371 405.746 19.6732 405.267 19.9493C404.789 20.2255 404.625 20.8371 404.901 21.3154L406.633 20.3154ZM404.955 21.4085C405.231 21.8868 405.843 22.0507 406.321 21.7745C406.799 21.4984 406.963 20.8868 406.687 20.4085L404.955 21.4085ZM410.987 27.8574C410.711 27.3791 410.1 27.2152 409.621 27.4913C409.143 27.7675 408.979 28.3791 409.255 28.8574L410.987 27.8574ZM409.309 28.9505C409.585 29.4288 410.197 29.5927 410.675 29.3165C411.153 29.0404 411.317 28.4288 411.041 27.9505L409.309 28.9505ZM415.341 35.3994C415.065 34.9211 414.454 34.7572 413.975 35.0333C413.497 35.3095 413.333 35.9211 413.609 36.3994L415.341 35.3994ZM413.663 36.4925C413.939 36.9708 414.551 37.1347 415.029 36.8585C415.507 36.5824 415.671 35.9708 415.395 35.4925L413.663 36.4925ZM419.695 42.9414C419.419 42.4631 418.808 42.2992 418.329 42.5753C417.851 42.8515 417.687 43.4631 417.963 43.9414L419.695 42.9414ZM418.017 44.0345C418.293 44.5128 418.905 44.6767 419.383 44.4005C419.861 44.1244 420.025 43.5128 419.749 43.0345L418.017 44.0345ZM424.049 50.4834C423.773 50.0051 423.162 49.8412 422.683 50.1173C422.205 50.3935 422.041 51.0051 422.317 51.4834L424.049 50.4834ZM400.574 13.8199L400.601 13.8665L402.333 12.8665L402.306 12.82L400.574 13.8199ZM404.901 21.3154L404.955 21.4085L406.687 20.4085L406.633 20.3154L404.901 21.3154ZM409.255 28.8574L409.309 28.9505L411.041 27.9505L410.987 27.8574L409.255 28.8574ZM413.609 36.3994L413.663 36.4925L415.395 35.4925L415.341 35.3994L413.609 36.3994ZM417.963 43.9414L418.017 44.0345L419.749 43.0345L419.695 42.9414L417.963 43.9414ZM422.317 51.4834L422.344 51.5299L424.076 50.53L424.049 50.4834L422.317 51.4834Z" fill="#0A0A23"/>
</g>
</svg>
