<svg width="717" height="1945" viewBox="0 0 717 1945" fill="none" xmlns="http://www.w3.org/2000/svg">
<path d="M1.00077 1.5C1.00113 21 1.00032 30 1 88C0.999332 209.5 74.5004 291.5 133 321.5C191.5 351.5 553.5 256 620.5 304C674.1 342.4 640 380 620.5 459.5C601 539 653.696 588.378 620.5 716.5C592 826.5 402 795 359.5 833C325.5 863.4 323 894.5 323 952V1140C323 1278.5 397.096 1207.91 439.5 1182.5C563 1108.5 571.397 1216.81 620.5 1182.5C745 1095.5 713 1319.17 708.5 1361.5C701.334 1444.67 683 1513 633.5 1600.5C615.963 1631.5 593.5 1705 484 1736.5C374.5 1768 346.5 1724.5 297 1774.5C222.674 1849.58 310.667 1900.33 311.5 1944" stroke="#14488C" stroke-width="2" stroke-linecap="round" stroke-dasharray="4 8"/>
</svg>
