<svg width="1081" height="139" viewBox="0 0 1081 139" fill="none" xmlns="http://www.w3.org/2000/svg">
<path d="M144 34.0007L144.101 34.9955L144 34.0007ZM514.5 31.5007L514.327 30.5157L514.5 31.5007ZM722.5 18.0001L722.201 17.0457L722.5 18.0001ZM882 4.50005L881.95 5.4988L882 4.50005ZM995 35.5L995.164 34.5136L995 35.5ZM1078 137.906C1077.95 138.456 1078.36 138.944 1078.91 138.996C1079.46 139.047 1079.94 138.644 1080 138.094L1078 137.906ZM-2.33113 78.1371C-1.78722 78.0413 -1.42395 77.5227 -1.51976 76.9788C-1.61556 76.4349 -2.13416 76.0716 -2.67807 76.1674L-2.33113 78.1371ZM5.13359 74.7323C4.59116 74.8361 4.23565 75.3601 4.33952 75.9025C4.4434 76.4449 4.96734 76.8004 5.50977 76.6966L5.13359 74.7323ZM9.4229 75.9313C9.96449 75.8232 10.3159 75.2965 10.2078 74.7549C10.0996 74.2133 9.57292 73.8619 9.03132 73.97L9.4229 75.9313ZM16.7988 72.3532C16.2591 72.4702 15.9164 73.0027 16.0335 73.5424C16.1506 74.0821 16.683 74.4248 17.2227 74.3077L16.7988 72.3532ZM21.1311 73.4422C21.6698 73.3204 22.0078 72.785 21.886 72.2463C21.7642 71.7076 21.2288 71.3696 20.6901 71.4914L21.1311 73.4422ZM28.4188 69.6703C27.8825 69.8019 27.5544 70.3435 27.686 70.8798C27.8177 71.4162 28.3592 71.7443 28.8955 71.6126L28.4188 69.6703ZM32.7459 70.6482C33.281 70.5115 33.6039 69.9668 33.4672 69.4317C33.3304 68.8967 32.7858 68.5737 32.2507 68.7105L32.7459 70.6482ZM39.9371 66.6642C39.4049 66.8117 39.093 67.3627 39.2404 67.895C39.3879 68.4272 39.9389 68.7391 40.4712 68.5916L39.9371 66.6642ZM44.2861 67.5133C44.8168 67.3603 45.123 66.8061 44.97 66.2754C44.817 65.7448 44.2628 65.4386 43.7322 65.5915L44.2861 67.5133ZM51.3568 63.3054C50.8295 63.4697 50.5352 64.0303 50.6996 64.5576C50.8639 65.0849 51.4245 65.3791 51.9518 65.2148L51.3568 63.3054ZM55.7415 64.0115C56.267 63.8415 56.5552 63.2777 56.3852 62.7522C56.2152 62.2267 55.6514 61.9386 55.1259 62.1085L55.7415 64.0115ZM62.658 59.5816C62.1363 59.7629 61.8604 60.3328 62.0417 60.8544C62.2229 61.3761 62.7928 61.6521 63.3145 61.4708L62.658 59.5816ZM67.0781 60.1408C67.5978 59.9541 67.8678 59.3814 67.6811 58.8616C67.4944 58.3419 66.9217 58.0719 66.4019 58.2586L67.0781 60.1408ZM73.8338 55.5057C73.3178 55.7024 73.0589 56.2802 73.2556 56.7963C73.4523 57.3123 74.0301 57.5712 74.5462 57.3745L73.8338 55.5057ZM78.2579 55.9415C78.7723 55.7404 79.0263 55.1605 78.8253 54.6461C78.6243 54.1317 78.0443 53.8776 77.5299 54.0787L78.2579 55.9415ZM84.9191 51.132C84.4073 51.3395 84.1607 51.9227 84.3683 52.4345C84.5758 52.9463 85.159 53.1929 85.6708 52.9853L84.9191 51.132ZM89.3597 51.4808C89.8708 51.2714 90.1153 50.6874 89.9059 50.1763C89.6965 49.6653 89.1125 49.4207 88.6014 49.6301L89.3597 51.4808ZM95.9632 46.6082C95.452 46.8173 95.2071 47.4012 95.4162 47.9124C95.6253 48.4235 96.2092 48.6684 96.7204 48.4593L95.9632 46.6082ZM100.401 46.9635C100.913 46.757 101.161 46.1744 100.954 45.6621C100.748 45.1499 100.165 44.9021 99.6528 45.1086L100.401 46.9635ZM107.078 42.1952C106.561 42.3908 106.301 42.9681 106.497 43.4846C106.692 44.001 107.27 44.2612 107.786 44.0656L107.078 42.1952ZM111.502 42.6921C112.022 42.5051 112.292 41.9322 112.105 41.4125C111.918 40.8929 111.345 40.6232 110.825 40.8102L111.502 42.6921ZM118.41 38.2608C117.883 38.4243 117.588 38.9846 117.751 39.5121C117.915 40.0396 118.475 40.3346 119.003 40.1711L118.41 38.2608ZM122.791 39.0518C123.323 38.9027 123.633 38.3507 123.484 37.819C123.335 37.2872 122.783 36.977 122.251 37.1261L122.791 39.0518ZM130.029 35.1944C129.489 35.3108 129.145 35.8429 129.262 36.3828C129.378 36.9226 129.91 37.2659 130.45 37.1494L130.029 35.1944ZM134.319 36.3795C134.863 36.2804 135.223 35.7597 135.124 35.2163C135.025 34.673 134.504 34.3129 133.961 34.412L134.319 36.3795ZM141.889 33.2263C141.34 33.2907 140.948 33.7876 141.013 34.3361C141.077 34.8846 141.574 35.277 142.122 35.2126L141.889 33.2263ZM146.116 34.7962C146.666 34.7435 147.069 34.255 147.016 33.7053C146.964 33.1555 146.475 32.7526 145.925 32.8053L146.116 34.7962ZM153.992 32.1274C153.441 32.1672 153.027 32.6461 153.067 33.1969C153.107 33.7478 153.586 34.162 154.136 34.1222L153.992 32.1274ZM158.168 33.8545C158.719 33.821 159.139 33.3471 159.106 32.7958C159.072 32.2445 158.599 31.8247 158.047 31.8581L158.168 33.8545ZM166.137 31.4604C165.585 31.4812 165.155 31.9456 165.176 32.4975C165.197 33.0494 165.661 33.4798 166.213 33.4589L166.137 31.4604ZM170.238 33.3291C170.79 33.3144 171.225 32.8549 171.211 32.3028C171.196 31.7507 170.736 31.3151 170.184 31.3298L170.238 33.3291ZM178.287 31.2021C177.735 31.2048 177.289 31.6548 177.292 32.207C177.295 32.7593 177.744 33.2048 178.297 33.2021L178.287 31.2021ZM182.316 33.2035C182.869 33.2066 183.319 32.7614 183.322 32.2092C183.325 31.6569 182.88 31.2067 182.327 31.2036L182.316 33.2035ZM190.427 31.3331C189.875 31.3186 189.415 31.7544 189.401 32.3065C189.386 32.8586 189.822 33.3179 190.374 33.3324L190.427 31.3331ZM194.411 33.4585C194.963 33.4785 195.427 33.0473 195.447 32.4954C195.467 31.9434 195.036 31.4798 194.484 31.4598L194.411 33.4585ZM202.572 31.8315C202.021 31.8009 201.549 32.2231 201.518 32.7745C201.487 33.326 201.91 33.7978 202.461 33.8284L202.572 31.8315ZM206.484 34.0706C207.035 34.1064 207.511 33.6885 207.547 33.1374C207.583 32.5863 207.165 32.1105 206.614 32.0748L206.484 34.0706ZM214.691 32.6713C214.14 32.6258 213.657 33.0351 213.612 33.5855C213.566 34.1359 213.975 34.619 214.526 34.6645L214.691 32.6713ZM218.535 35.0132C219.085 35.0634 219.571 34.6582 219.621 34.1082C219.672 33.5582 219.266 33.0717 218.716 33.0215L218.535 35.0132ZM226.769 33.8224C226.22 33.7634 225.727 34.1607 225.668 34.7098C225.609 35.2589 226.006 35.7519 226.555 35.8109L226.769 33.8224ZM230.574 36.2586C231.123 36.3218 231.619 35.9283 231.682 35.3796C231.745 34.831 231.352 34.3349 230.803 34.2717L230.574 36.2586ZM238.837 35.2565C238.289 35.1854 237.787 35.5718 237.716 36.1195C237.645 36.6672 238.031 37.1688 238.579 37.2399L238.837 35.2565ZM242.571 37.7713C243.118 37.846 243.622 37.463 243.697 36.9158C243.772 36.3686 243.388 35.8644 242.841 35.7897L242.571 37.7713ZM250.854 36.9346C250.307 36.8532 249.799 37.23 249.717 37.7762C249.636 38.3225 250.013 38.8313 250.559 38.9127L250.854 36.9346ZM254.551 39.5193C255.097 39.6038 255.607 39.2299 255.692 38.6841C255.776 38.1383 255.402 37.6274 254.857 37.5429L254.551 39.5193ZM262.844 38.8218C262.299 38.7318 261.785 39.1006 261.695 39.6455C261.605 40.1904 261.973 40.7051 262.518 40.7951L262.844 38.8218ZM266.498 41.4616C267.042 41.5541 267.558 41.1876 267.651 40.6431C267.743 40.0986 267.377 39.5823 266.832 39.4898L266.498 41.4616ZM274.801 40.8754C274.257 40.7788 273.738 41.1413 273.641 41.685C273.545 42.2288 273.907 42.7479 274.451 42.8446L274.801 40.8754ZM278.424 43.5573C278.967 43.6557 279.487 43.2949 279.586 42.7514C279.684 42.208 279.323 41.6876 278.78 41.5893L278.424 43.5573ZM286.732 43.0507C286.189 42.9496 285.667 43.3078 285.566 43.8507C285.464 44.3937 285.823 44.9158 286.366 45.0169L286.732 43.0507ZM290.335 45.7601C290.878 45.8622 291.401 45.5049 291.503 44.9621C291.605 44.4194 291.248 43.8966 290.705 43.7945L290.335 45.7601ZM298.645 45.2979C298.103 45.1947 297.579 45.5509 297.476 46.0934C297.373 46.636 297.729 47.1595 298.272 47.2627L298.645 45.2979ZM302.242 48.0184C302.784 48.1217 303.308 47.7657 303.411 47.2231C303.514 46.6806 303.158 46.157 302.616 46.0537L302.242 48.0184ZM310.553 47.5613C310.011 47.4588 309.488 47.8155 309.385 48.3582C309.283 48.9009 309.639 49.424 310.182 49.5265L310.553 47.5613ZM314.148 50.2731C314.691 50.3748 315.214 50.0172 315.315 49.4743C315.417 48.9315 315.059 48.409 314.516 48.3073L314.148 50.2731ZM322.453 49.7743C321.91 49.6755 321.389 50.0359 321.29 50.5793C321.191 51.1226 321.552 51.6432 322.095 51.7421L322.453 49.7743ZM326.086 52.4604C326.63 52.5572 327.149 52.1948 327.246 51.6511C327.343 51.1073 326.98 50.5881 326.437 50.4913L326.086 52.4604ZM334.388 51.8681C333.843 51.7768 333.328 52.1442 333.237 52.6889C333.145 53.2336 333.513 53.7492 334.057 53.8406L334.388 51.8681ZM338.041 54.4964C338.587 54.5844 339.1 54.2137 339.188 53.6684C339.276 53.1232 338.905 52.6099 338.36 52.5219L338.041 54.4964ZM346.336 53.7482C345.789 53.6687 345.282 54.0472 345.202 54.5938C345.123 55.1403 345.501 55.6478 346.048 55.7273L346.336 53.7482ZM350.053 56.2914C350.601 56.3658 351.104 55.9825 351.179 55.4353C351.253 54.888 350.87 54.3841 350.323 54.3097L350.053 56.2914ZM358.31 55.3094C357.762 55.2471 357.266 55.6415 357.204 56.1902C357.142 56.739 357.536 57.2343 358.085 57.2966L358.31 55.3094ZM362.129 57.7295C362.679 57.7847 363.169 57.3839 363.224 56.8343C363.279 56.2848 362.878 55.7946 362.329 55.7395L362.129 57.7295ZM370.342 56.425C369.791 56.3866 369.313 56.802 369.275 57.353C369.236 57.9039 369.652 58.3817 370.203 58.4202L370.342 56.425ZM374.26 58.6681C374.811 58.6969 375.282 58.2731 375.31 57.7216C375.339 57.1701 374.915 56.6996 374.364 56.6708L374.26 58.6681ZM382.395 56.933C381.843 56.9264 381.39 57.3688 381.383 57.921C381.377 58.4733 381.819 58.9263 382.371 58.9328L382.395 56.933ZM386.435 58.9352C386.988 58.9291 387.43 58.4765 387.424 57.9242C387.418 57.372 386.965 56.9292 386.413 56.9353L386.435 58.9352ZM394.433 56.6435C393.882 56.6783 393.464 57.1534 393.498 57.7046C393.533 58.2558 394.008 58.6743 394.56 58.6395L394.433 56.6435ZM398.65 58.3337C399.201 58.2892 399.611 57.8069 399.567 57.2565C399.522 56.706 399.04 56.2957 398.489 56.3402L398.65 58.3337ZM406.503 55.6356C405.953 55.6883 405.55 56.1767 405.603 56.7265C405.656 57.2763 406.144 57.6792 406.694 57.6265L406.503 55.6356ZM410.738 57.2195C411.287 57.1614 411.685 56.6691 411.627 56.1199C411.569 55.5707 411.077 55.1725 410.527 55.2305L410.738 57.2195ZM418.519 54.2899C417.972 54.3619 417.586 54.8641 417.658 55.4116C417.73 55.9592 418.232 56.3448 418.78 56.2729L418.519 54.2899ZM422.794 55.7125C423.34 55.6314 423.717 55.1228 423.636 54.5765C423.555 54.0302 423.046 53.6531 422.5 53.7342L422.794 55.7125ZM430.403 52.3892C429.861 52.4949 429.508 53.0201 429.613 53.5622C429.719 54.1042 430.244 54.4579 430.786 54.3521L430.403 52.3892ZM434.756 53.5182C435.295 53.3964 435.633 52.861 435.511 52.3223C435.389 51.7836 434.854 51.4456 434.315 51.5674L434.756 53.5182ZM442.061 49.5388C441.532 49.6971 441.232 50.2543 441.39 50.7834C441.548 51.3126 442.105 51.6132 442.634 51.455L442.061 49.5388ZM446.51 50.23C447.034 50.0561 447.318 49.4902 447.145 48.966C446.971 48.4418 446.405 48.1578 445.881 48.3317L446.51 50.23ZM453.476 45.6771C452.956 45.8627 452.684 46.4349 452.87 46.955C453.056 47.4752 453.628 47.7463 454.148 47.5607L453.476 45.6771ZM457.956 46.2144C458.477 46.0327 458.753 45.4626 458.571 44.9411C458.389 44.4196 457.819 44.1441 457.298 44.3258L457.956 46.2144ZM464.98 41.7771C464.453 41.9422 464.16 42.5033 464.325 43.0303C464.49 43.5574 465.051 43.8508 465.578 43.6857L464.98 41.7771ZM469.446 42.5114C469.976 42.3556 470.279 41.7997 470.123 41.2699C469.967 40.74 469.412 40.4369 468.882 40.5927L469.446 42.5114ZM476.68 38.4344C476.146 38.5737 475.825 39.1198 475.965 39.6542C476.104 40.1887 476.65 40.509 477.185 40.3697L476.68 38.4344ZM481.095 39.3788C481.631 39.2466 481.958 38.7048 481.826 38.1685C481.694 37.6323 481.152 37.3048 480.616 37.437L481.095 39.3788ZM488.477 35.5947C487.938 35.715 487.599 36.2494 487.719 36.7885C487.839 37.3275 488.374 37.6669 488.913 37.5466L488.477 35.5947ZM492.834 36.691C493.374 36.5757 493.718 36.0444 493.603 35.5043C493.488 34.9642 492.957 34.6198 492.416 34.7351L492.834 36.691ZM500.382 33.1029C499.84 33.2097 499.487 33.7355 499.594 34.2774C499.701 34.8192 500.226 35.172 500.768 35.0652L500.382 33.1029ZM504.685 34.3074C505.228 34.2042 505.584 33.6808 505.481 33.1382C505.378 32.5957 504.854 32.2394 504.312 32.3426L504.685 34.3074ZM512.278 30.8778C511.734 30.9746 511.372 31.4939 511.469 32.0376C511.566 32.5813 512.085 32.9436 512.629 32.8468L512.278 30.8778ZM516.576 32.1733C517.122 32.0898 517.497 31.5795 517.413 31.0336C517.33 30.4876 516.82 30.1128 516.274 30.1963L516.576 32.1733ZM524.087 29.3284C523.536 29.3677 523.121 29.8462 523.161 30.3971C523.2 30.948 523.679 31.3626 524.229 31.3233L524.087 29.3284ZM528.082 31.1175C528.634 31.0976 529.065 30.6341 529.046 30.0822C529.026 29.5303 528.562 29.0989 528.01 29.1188L528.082 31.1175ZM535.852 29.0786C535.3 29.0658 534.842 29.5031 534.83 30.0552C534.817 30.6074 535.254 31.0653 535.806 31.078L535.852 29.0786ZM539.67 31.2136C540.222 31.2393 540.69 30.8128 540.716 30.2611C540.741 29.7095 540.315 29.2414 539.763 29.2158L539.67 31.2136ZM547.565 29.7251C547.015 29.6802 546.532 30.09 546.487 30.6405C546.443 31.191 546.852 31.6736 547.403 31.7185L547.565 29.7251ZM551.273 32.0585C551.823 32.11 552.31 31.706 552.362 31.1561C552.413 30.6062 552.009 30.1187 551.459 30.0672L551.273 32.0585ZM559.217 30.8565C558.668 30.7973 558.175 31.1944 558.115 31.7435C558.056 32.2926 558.453 32.7857 559.002 32.845L559.217 30.8565ZM562.865 33.2678C563.414 33.3286 563.908 32.9328 563.969 32.3839C564.03 31.835 563.634 31.3407 563.085 31.28L562.865 33.2678ZM570.837 32.1374C570.288 32.0776 569.795 32.4741 569.735 33.0231C569.675 33.5722 570.071 34.0658 570.62 34.1257L570.837 32.1374ZM574.484 34.5402C575.033 34.598 575.525 34.1996 575.583 33.6503C575.641 33.1011 575.242 32.609 574.693 32.5512L574.484 34.5402ZM582.431 33.3206C581.882 33.2697 581.394 33.6742 581.344 34.2241C581.293 34.774 581.697 35.2611 582.247 35.3121L582.431 33.3206ZM586.135 35.6566C586.685 35.7031 587.169 35.2946 587.215 34.7443C587.262 34.1939 586.853 33.7102 586.303 33.6637L586.135 35.6566ZM594.045 34.2438C593.494 34.2081 593.018 34.6259 592.983 35.177C592.947 35.7281 593.365 36.2039 593.916 36.2396L594.045 34.2438ZM597.813 36.4713C598.364 36.501 598.836 36.0781 598.865 35.5266C598.895 34.9751 598.472 34.5039 597.921 34.4742L597.813 36.4713ZM605.686 34.8027C605.134 34.786 604.672 35.2199 604.656 35.7719C604.639 36.3239 605.073 36.785 605.625 36.8018L605.686 34.8027ZM609.511 36.8961C610.063 36.906 610.518 36.4665 610.528 35.9143C610.538 35.3621 610.099 34.9064 609.547 34.8964L609.511 36.8961ZM617.317 34.9384C616.764 34.9425 616.32 35.3935 616.324 35.9458C616.328 36.4981 616.779 36.9425 617.331 36.9384L617.317 34.9384ZM621.224 36.8846C621.776 36.8734 622.214 36.4167 622.203 35.8645C622.192 35.3124 621.735 34.8738 621.183 34.885L621.224 36.8846ZM628.936 34.6273C628.385 34.6528 627.958 35.1207 627.984 35.6724C628.009 36.2241 628.477 36.6506 629.029 36.6251L628.936 34.6273ZM632.961 36.4177C633.512 36.385 633.933 35.9116 633.9 35.3603C633.868 34.8089 633.394 34.3885 632.843 34.4212L632.961 36.4177ZM640.58 33.8632C640.029 33.9099 639.621 34.3939 639.668 34.9442C639.715 35.4945 640.199 35.9027 640.749 35.856L640.58 33.8632ZM644.608 35.5042C645.158 35.4506 645.56 34.9616 645.506 34.4119C645.453 33.8622 644.964 33.46 644.414 33.5136L644.608 35.5042ZM652.127 32.666C651.579 32.733 651.189 33.2318 651.256 33.78C651.323 34.3282 651.822 34.7183 652.37 34.6513L652.127 32.666ZM656.285 34.1488C656.832 34.0751 657.216 33.5718 657.143 33.0244C657.069 32.477 656.566 32.093 656.018 32.1666L656.285 34.1488ZM663.687 31.0444C663.141 31.1307 662.769 31.6428 662.855 32.1883C662.941 32.7338 663.454 33.1061 663.999 33.0199L663.687 31.0444ZM667.824 32.3932C668.369 32.3009 668.736 31.7847 668.643 31.2402C668.551 30.6956 668.035 30.3291 667.49 30.4214L667.824 32.3932ZM675.141 29.0382C674.598 29.1423 674.243 29.6664 674.347 30.2088C674.451 30.7512 674.975 31.1065 675.518 31.0023L675.141 29.0382ZM679.336 30.2487C679.877 30.1389 680.227 29.6112 680.117 29.0699C680.007 28.5286 679.48 28.1788 678.938 28.2886L679.336 30.2487ZM686.528 26.6689C685.989 26.7896 685.65 27.3243 685.771 27.8632C685.892 28.4022 686.426 28.7413 686.965 28.6206L686.528 26.6689ZM690.796 27.7432C691.334 27.6172 691.668 27.0792 691.542 26.5415C691.416 26.0038 690.878 25.6699 690.34 25.7958L690.796 27.7432ZM697.862 23.9597C697.327 24.0956 697.003 24.6398 697.139 25.1751C697.275 25.7104 697.819 26.0341 698.354 25.8982L697.862 23.9597ZM702.178 24.9086C702.712 24.7678 703.031 24.2207 702.89 23.6867C702.749 23.1526 702.202 22.8339 701.668 22.9747L702.178 24.9086ZM709.126 20.9387C708.595 21.0887 708.286 21.6412 708.436 22.1727C708.586 22.7042 709.138 23.0136 709.67 22.8636L709.126 20.9387ZM713.437 21.7833C713.968 21.6289 714.272 21.0739 714.118 20.5436C713.963 20.0133 713.408 19.7087 712.878 19.8631L713.437 21.7833ZM720.312 17.633C719.784 17.7959 719.488 18.3557 719.651 18.8835C719.814 19.4112 720.374 19.7069 720.902 19.5441L720.312 17.633ZM724.799 18.3317C725.327 18.1684 725.622 17.6083 725.459 17.0807C725.296 16.5531 724.736 16.2578 724.208 16.4211L724.799 18.3317ZM732.141 14.0242C731.611 14.1801 731.308 14.736 731.464 15.2659C731.62 15.7957 732.176 16.0987 732.706 15.9428L732.141 14.0242ZM736.671 14.7923C737.202 14.6405 737.51 14.087 737.358 13.556C737.206 13.025 736.653 12.7175 736.122 12.8692L736.671 14.7923ZM744.104 10.6642C743.57 10.8062 743.253 11.3541 743.395 11.8878C743.537 12.4215 744.085 12.7389 744.619 12.5968L744.104 10.6642ZM748.621 11.5531C749.156 11.4166 749.479 10.872 749.342 10.3369C749.206 9.80178 748.661 9.47868 748.126 9.61524L748.621 11.5531ZM756.178 7.65724C755.64 7.78132 755.304 8.31817 755.428 8.85634C755.552 9.39451 756.089 9.73019 756.628 9.60612L756.178 7.65724ZM760.641 8.70786C761.181 8.59079 761.524 8.05835 761.407 7.51862C761.29 6.97888 760.757 6.63624 760.217 6.7533L760.641 8.70786ZM768.368 5.10581C767.825 5.20724 767.467 5.72957 767.569 6.27246C767.67 6.81535 768.193 7.17322 768.735 7.07179L768.368 5.10581ZM772.793 6.34624C773.338 6.25333 773.704 5.73668 773.611 5.19227C773.518 4.64785 773.001 4.28183 772.457 4.37474L772.793 6.34624ZM780.665 3.11276C780.118 3.18748 779.735 3.69166 779.809 4.23887C779.884 4.78607 780.388 5.16909 780.936 5.09436L780.665 3.11276ZM785.02 4.57235C785.569 4.50709 785.96 4.0096 785.895 3.46118C785.83 2.91277 785.332 2.5211 784.784 2.58637L785.02 4.57235ZM793.047 1.74813C792.496 1.79439 792.088 2.27803 792.134 2.82837C792.18 3.37872 792.664 3.78736 793.214 3.74111L793.047 1.74813ZM797.321 3.43083C797.872 3.39383 798.289 2.91712 798.252 2.36608C798.215 1.81503 797.738 1.39832 797.187 1.43532L797.321 3.43083ZM805.48 1.01144C804.928 1.03116 804.497 1.49457 804.516 2.0465C804.536 2.59843 805 3.02988 805.552 3.01017L805.48 1.01144ZM809.673 2.89249C810.225 2.88056 810.663 2.42329 810.651 1.87113C810.639 1.31897 810.182 0.881029 809.63 0.892953L809.673 2.89249ZM817.931 0.818617C817.379 0.817074 816.93 1.26354 816.928 1.81582C816.927 2.3681 817.373 2.81707 817.926 2.81861L817.931 0.818617ZM822.051 2.85152C822.603 2.85866 823.057 2.41677 823.064 1.86454C823.071 1.3123 822.629 0.858829 822.077 0.851687L822.051 2.85152ZM830.356 1.02959C829.804 1.01349 829.344 1.44796 829.328 2.00001C829.312 2.55206 829.746 3.01264 830.298 3.02874L830.356 1.02959ZM834.423 3.16232C834.975 3.18186 835.438 2.75026 835.458 2.19832C835.477 1.64638 835.046 1.18311 834.494 1.16357L834.423 3.16232ZM842.774 1.49741C842.222 1.47283 841.755 1.90018 841.73 2.45191C841.705 3.00365 842.133 3.47085 842.685 3.49543L842.774 1.49741ZM846.827 3.68676C847.379 3.71306 847.847 3.28718 847.874 2.73552C847.9 2.18386 847.474 1.71533 846.922 1.68903L846.827 3.68676ZM855.168 2.10012C854.617 2.07169 854.147 2.49576 854.118 3.04732C854.09 3.59887 854.514 4.06904 855.065 4.09747L855.168 2.10012ZM859.199 4.31272C859.751 4.34168 860.221 3.91805 860.25 3.36653C860.279 2.815 859.856 2.34443 859.304 2.31547L859.199 4.31272ZM867.566 2.75201C867.014 2.72285 866.544 3.14631 866.514 3.69782C866.485 4.24933 866.909 4.72006 867.46 4.74922L867.566 2.75201ZM871.588 4.96666C872.139 4.99558 872.61 4.57192 872.639 4.02039C872.668 3.46887 872.244 2.99832 871.693 2.9694L871.588 4.96666ZM879.955 3.39591C879.404 3.36799 878.934 3.79249 878.906 4.34407C878.878 4.89565 879.303 5.36543 879.854 5.39335L879.955 3.39591ZM883.924 5.60779C884.476 5.64113 884.95 5.22126 884.983 4.66998C885.016 4.11871 884.596 3.64478 884.045 3.61144L883.924 5.60779ZM891.9 4.25978C891.351 4.20175 890.859 4.59995 890.801 5.14917C890.743 5.6984 891.141 6.19068 891.69 6.24871L891.9 4.25978ZM895.559 6.70518C896.107 6.77671 896.608 6.39074 896.68 5.84311C896.752 5.29548 896.366 4.79355 895.818 4.72202L895.559 6.70518ZM903.621 5.94942C903.078 5.84897 902.556 6.20778 902.456 6.75085C902.355 7.29392 902.714 7.81561 903.257 7.91606L903.621 5.94942ZM907.08 8.67821C907.62 8.79377 908.151 8.44964 908.267 7.90958C908.383 7.36953 908.038 6.83804 907.498 6.72248L907.08 8.67821ZM915.18 8.59395C914.647 8.44824 914.097 8.76198 913.951 9.29469C913.806 9.82741 914.119 10.3774 914.652 10.5231L915.18 8.59395ZM918.396 11.602C918.924 11.762 919.483 11.4632 919.643 10.9346C919.803 10.406 919.504 9.84776 918.975 9.68776L918.396 11.602ZM926.467 12.1585C925.947 11.9736 925.375 12.2456 925.19 12.766C925.005 13.2864 925.277 13.8582 925.797 14.0431L926.467 12.1585ZM929.465 15.3866C929.982 15.5813 930.558 15.3202 930.753 14.8034C930.948 14.2866 930.687 13.7098 930.17 13.515L929.465 15.3866ZM937.497 16.3922C936.985 16.1848 936.402 16.4316 936.195 16.9435C935.987 17.4554 936.234 18.0384 936.746 18.2458L937.497 16.3922ZM940.374 19.7279C940.885 19.9379 941.469 19.6939 941.679 19.1831C941.889 18.6723 941.645 18.088 941.134 17.8781L940.374 19.7279ZM948.388 20.8533C947.877 20.6457 947.293 20.8923 947.086 21.404C946.878 21.9158 947.125 22.499 947.636 22.7066L948.388 20.8533ZM951.285 24.1697C951.798 24.3728 952.379 24.1212 952.583 23.6076C952.786 23.094 952.534 22.513 952.021 22.3099L951.285 24.1697ZM959.331 25.0934C958.812 24.9045 958.238 25.1721 958.049 25.6911C957.86 26.2101 958.128 26.7839 958.647 26.9728L959.331 25.0934ZM962.365 28.2901C962.887 28.4699 963.456 28.1923 963.636 27.6701C963.816 27.1479 963.538 26.5788 963.016 26.3991L962.365 28.2901ZM970.449 28.7996C969.92 28.6403 969.362 28.9399 969.203 29.4687C969.044 29.9975 969.343 30.5553 969.872 30.7146L970.449 28.7996ZM973.66 31.8135C974.192 31.962 974.743 31.6511 974.892 31.1191C975.04 30.5871 974.729 30.0356 974.197 29.8871L973.66 31.8135ZM981.76 31.8313C981.222 31.7047 980.684 32.0378 980.557 32.5754C980.431 33.113 980.764 33.6514 981.301 33.778L981.76 31.8313ZM985.142 34.6426C985.682 34.7586 986.214 34.4149 986.33 33.8749C986.446 33.335 986.102 32.8032 985.562 32.6872L985.142 34.6426ZM993.215 34.1797C992.671 34.084 992.152 34.4474 992.057 34.9913C991.961 35.5352 992.324 36.0537 992.868 36.1494L993.215 34.1797ZM996.819 36.8356C997.362 36.9363 997.884 36.5777 997.984 36.0346C998.085 35.4916 997.726 34.9698 997.183 34.8691L996.819 36.8356ZM1005.25 36.6598C1004.71 36.5217 1004.17 36.8432 1004.03 37.3779C1003.89 37.9126 1004.21 38.4581 1004.75 38.5962L1005.25 36.6598ZM1008.67 39.6782C1009.2 39.8341 1009.75 39.5311 1009.91 39.0012C1010.06 38.4714 1009.76 37.9155 1009.23 37.7596L1008.67 39.6782ZM1017.07 40.3523C1016.55 40.1614 1015.97 40.4268 1015.78 40.9451C1015.59 41.4633 1015.86 42.0382 1016.38 42.229L1017.07 40.3523ZM1020.16 43.6956C1020.67 43.9039 1021.26 43.658 1021.46 43.1465C1021.67 42.6349 1021.43 42.0515 1020.91 41.8432L1020.16 43.6956ZM1028.45 45.2174C1027.95 44.9742 1027.35 45.1789 1027.11 45.6748C1026.87 46.1706 1027.07 46.7697 1027.57 47.013L1028.45 45.2174ZM1031.18 48.8648C1031.66 49.1258 1032.27 48.9428 1032.53 48.4561C1032.79 47.9693 1032.61 47.3632 1032.12 47.1022L1031.18 48.8648ZM1039.25 51.275C1038.78 50.978 1038.17 51.1146 1037.87 51.5802C1037.57 52.0458 1037.71 52.664 1038.17 52.9611L1039.25 51.275ZM1041.55 55.2081C1042 55.5234 1042.62 55.4115 1042.94 54.9581C1043.25 54.5047 1043.14 53.8815 1042.69 53.5662L1041.55 55.2081ZM1049.27 58.5639C1048.85 58.2116 1048.22 58.271 1047.87 58.6964C1047.51 59.1218 1047.57 59.7521 1048 60.1044L1049.27 58.5639ZM1051.06 62.754C1051.47 63.1246 1052.1 63.0931 1052.47 62.6837C1052.84 62.2742 1052.81 61.6418 1052.4 61.2712L1051.06 62.754ZM1058.28 67.0994C1057.9 66.6926 1057.27 66.6656 1056.86 67.0391C1056.46 67.4126 1056.43 68.0452 1056.8 68.452L1058.28 67.0994ZM1059.47 71.4961C1059.82 71.9204 1060.45 71.9778 1060.88 71.6243C1061.3 71.2707 1061.36 70.6402 1061 70.2159L1059.47 71.4961ZM1065.99 76.8343C1065.68 76.377 1065.05 76.2575 1064.6 76.5673C1064.14 76.8771 1064.02 77.4988 1064.33 77.9561L1065.99 76.8343ZM1066.51 81.3617C1066.8 81.834 1067.42 81.9849 1067.89 81.6986C1068.36 81.4124 1068.51 80.7975 1068.22 80.3251L1066.51 81.3617ZM1072.15 87.6131C1071.91 87.1142 1071.32 86.9017 1070.82 87.1385C1070.32 87.3753 1070.11 87.9718 1070.34 88.4707L1072.15 87.6131ZM1071.98 92.1619C1072.19 92.6721 1072.78 92.9145 1073.29 92.7032C1073.8 92.4918 1074.04 91.9069 1073.83 91.3966L1071.98 92.1619ZM1076.61 99.1991C1076.45 98.6704 1075.9 98.3714 1075.37 98.5313C1074.84 98.6911 1074.54 99.2493 1074.7 99.7779L1076.61 99.1991ZM1075.78 103.688C1075.91 104.224 1076.46 104.549 1076.99 104.415C1077.53 104.281 1077.85 103.737 1077.72 103.202L1075.78 103.688ZM1079.36 111.291C1079.27 110.746 1078.76 110.372 1078.21 110.457C1077.67 110.542 1077.29 111.054 1077.38 111.599L1079.36 111.291ZM1077.92 115.617C1077.98 116.166 1078.47 116.561 1079.02 116.5C1079.57 116.438 1079.96 115.944 1079.9 115.395L1077.92 115.617ZM1080.48 123.636C1080.47 123.084 1080 122.65 1079.45 122.666C1078.9 122.683 1078.47 123.144 1078.48 123.696L1080.48 123.636ZM1078.53 127.748C1078.53 128.3 1078.97 128.751 1079.52 128.755C1080.07 128.759 1080.53 128.315 1080.53 127.762L1078.53 127.748ZM1080.17 136.009C1080.22 135.458 1079.81 134.978 1079.25 134.935C1078.7 134.892 1078.22 135.304 1078.18 135.855L1080.17 136.009ZM-4.33009 78.4855C-3.65969 78.3699 -2.99338 78.2537 -2.33113 78.1371L-2.67807 76.1674C-3.33793 76.2837 -4.00187 76.3994 -4.66991 76.5145L-4.33009 78.4855ZM5.50977 76.6966C6.83108 76.4435 8.13532 76.1884 9.4229 75.9313L9.03132 73.97C7.7489 74.2261 6.44979 74.4802 5.13359 74.7323L5.50977 76.6966ZM17.2227 74.3077C18.5439 74.0211 19.8466 73.7326 21.1311 73.4422L20.6901 71.4914C19.4112 71.7805 18.1143 72.0678 16.7988 72.3532L17.2227 74.3077ZM28.8955 71.6126C30.1985 71.2929 31.4817 70.9713 32.7459 70.6482L32.2507 68.7105C30.9926 69.032 29.7156 69.352 28.4188 69.6703L28.8955 71.6126ZM40.4712 68.5916C41.7635 68.2335 43.0349 67.874 44.2861 67.5133L43.7322 65.5915C42.4876 65.9503 41.2228 66.3079 39.9371 66.6642L40.4712 68.5916ZM51.9518 65.2148C53.237 64.8143 54.4999 64.4131 55.7415 64.0115L55.1259 62.1085C53.8911 62.508 52.635 62.9071 51.3568 63.3054L51.9518 65.2148ZM63.3145 61.4708C64.5917 61.027 65.8457 60.5835 67.0781 60.1408L66.4019 58.2586C65.1759 58.699 63.9284 59.1402 62.658 59.5816L63.3145 61.4708ZM74.5462 57.3745C75.8053 56.8946 77.0419 56.4167 78.2579 55.9415L77.5299 54.0787C76.3187 54.552 75.0873 55.0279 73.8338 55.5057L74.5462 57.3745ZM85.6708 52.9853C86.9196 52.4789 88.1484 51.9771 89.3597 51.4808L88.6014 49.6301C87.3916 50.1258 86.1651 50.6266 84.9191 51.132L85.6708 52.9853ZM96.7204 48.4593C97.9604 47.9521 99.186 47.4533 100.401 46.9635L99.6528 45.1086C98.4341 45.6 97.2052 46.1002 95.9632 46.6082L96.7204 48.4593ZM107.786 44.0656C109.029 43.5951 110.266 43.1369 111.502 42.6921L110.825 40.8102C109.577 41.2592 108.329 41.7212 107.078 42.1952L107.786 44.0656ZM119.003 40.1711C120.258 39.7819 121.519 39.4084 122.791 39.0518L122.251 37.1261C120.961 37.4879 119.682 37.8665 118.41 38.2608L119.003 40.1711ZM130.45 37.1494C131.722 36.8751 133.011 36.6181 134.319 36.3795L133.961 34.412C132.631 34.6545 131.321 34.9156 130.029 35.1944L130.45 37.1494ZM142.122 35.2126C142.776 35.1358 143.436 35.0634 144.101 34.9955L143.899 33.0058C143.223 33.0747 142.553 33.1482 141.889 33.2263L142.122 35.2126ZM144.101 34.9955C144.774 34.927 145.446 34.8605 146.116 34.7962L145.925 32.8053C145.251 32.87 144.575 32.9369 143.899 33.0058L144.101 34.9955ZM154.136 34.1222C155.484 34.0249 156.827 33.9357 158.168 33.8545L158.047 31.8581C156.699 31.9398 155.347 32.0295 153.992 32.1274L154.136 34.1222ZM166.213 33.4589C167.558 33.4081 168.899 33.3649 170.238 33.3291L170.184 31.3298C168.839 31.3658 167.49 31.4092 166.137 31.4604L166.213 33.4589ZM178.297 33.2021C179.64 33.1954 180.98 33.196 182.316 33.2035L182.327 31.2036C180.984 31.196 179.637 31.1954 178.287 31.2021L178.297 33.2021ZM190.374 33.3324C191.723 33.3678 193.069 33.4099 194.411 33.4585L194.484 31.4598C193.135 31.411 191.783 31.3686 190.427 31.3331L190.374 33.3324ZM202.461 33.8284C203.806 33.9031 205.147 33.9839 206.484 34.0706L206.614 32.0748C205.27 31.9877 203.923 31.9065 202.572 31.8315L202.461 33.8284ZM214.526 34.6645C215.866 34.7753 217.202 34.8916 218.535 35.0132L218.716 33.0215C217.378 32.8994 216.036 32.7826 214.691 32.6713L214.526 34.6645ZM226.555 35.8109C227.899 35.9554 229.238 36.1047 230.574 36.2586L230.803 34.2717C229.462 34.1172 228.118 33.9674 226.769 33.8224L226.555 35.8109ZM238.579 37.2399C239.914 37.413 241.244 37.5903 242.571 37.7713L242.841 35.7897C241.51 35.608 240.176 35.4302 238.837 35.2565L238.579 37.2399ZM250.559 38.9127C251.894 39.1117 253.224 39.314 254.551 39.5193L254.857 37.5429C253.527 37.337 252.192 37.1341 250.854 36.9346L250.559 38.9127ZM262.518 40.7951C263.849 41.0149 265.175 41.2372 266.498 41.4616L266.832 39.4898C265.507 39.2649 264.178 39.0421 262.844 38.8218L262.518 40.7951ZM274.451 42.8446C275.78 43.0807 277.104 43.3184 278.424 43.5573L278.78 41.5893C277.458 41.35 276.132 41.1119 274.801 40.8754L274.451 42.8446ZM286.366 45.0169C287.694 45.2642 289.017 45.5121 290.335 45.7601L290.705 43.7945C289.386 43.5463 288.061 43.2983 286.732 43.0507L286.366 45.0169ZM298.272 47.2627C299.6 47.5153 300.923 47.7674 302.242 48.0184L302.616 46.0537C301.297 45.8027 299.974 45.5506 298.645 45.2979L298.272 47.2627ZM310.182 49.5265C311.509 49.7774 312.831 50.0264 314.148 50.2731L314.516 48.3073C313.201 48.0608 311.88 47.812 310.553 47.5613L310.182 49.5265ZM322.095 51.7421C323.431 51.985 324.761 52.2246 326.086 52.4604L326.437 50.4913C325.115 50.256 323.787 50.0169 322.453 49.7743L322.095 51.7421ZM334.057 53.8406C335.391 54.0643 336.719 54.2831 338.041 54.4964L338.36 52.5219C337.042 52.3093 335.718 52.0912 334.388 51.8681L334.057 53.8406ZM346.048 55.7273C347.389 55.9225 348.724 56.1107 350.053 56.2914L350.323 54.3097C349 54.1298 347.672 53.9425 346.336 53.7482L346.048 55.7273ZM358.085 57.2966C359.44 57.4505 360.788 57.595 362.129 57.7295L362.329 55.7395C360.997 55.6059 359.657 55.4623 358.31 55.3094L358.085 57.2966ZM370.203 58.4202C371.562 58.5151 372.915 58.5979 374.26 58.6681L374.364 56.6708C373.031 56.6013 371.691 56.5191 370.342 56.425L370.203 58.4202ZM382.371 58.9328C383.734 58.949 385.089 58.9501 386.435 58.9352L386.413 56.9353C385.082 56.95 383.743 56.949 382.395 56.933L382.371 58.9328ZM394.56 58.6395C395.234 58.5969 395.907 58.5496 396.577 58.4977L396.423 56.5037C395.762 56.5549 395.099 56.6015 394.433 56.6435L394.56 58.6395ZM396.577 58.4977C397.279 58.4433 397.97 58.3886 398.65 58.3337L398.489 56.3402C397.811 56.395 397.122 56.4494 396.423 56.5037L396.577 58.4977ZM406.694 57.6265C408.09 57.4926 409.437 57.3569 410.738 57.2195L410.527 55.2305C409.233 55.3673 407.893 55.5023 406.503 55.6356L406.694 57.6265ZM418.78 56.2729C420.178 56.0892 421.514 55.9025 422.794 55.7125L422.5 53.7342C421.232 53.9224 419.907 54.1077 418.519 54.2899L418.78 56.2729ZM430.786 54.3521C432.179 54.0804 433.498 53.8025 434.756 53.5182L434.315 51.5674C433.077 51.8472 431.778 52.121 430.403 52.3892L430.786 54.3521ZM442.634 51.455C443.964 51.0574 445.247 50.6492 446.51 50.23L445.881 48.3317C444.633 48.7457 443.369 49.1478 442.061 49.5388L442.634 51.455ZM454.148 47.5607C455.376 47.1225 456.636 46.6741 457.956 46.2144L457.298 44.3258C455.971 44.788 454.704 45.2385 453.476 45.6771L454.148 47.5607ZM465.578 43.6857C466.804 43.3016 468.09 42.9102 469.446 42.5114L468.882 40.5927C467.514 40.9949 466.217 41.3896 464.98 41.7771L465.578 43.6857ZM477.185 40.3697C478.434 40.0441 479.736 39.7138 481.095 39.3788L480.616 37.437C479.249 37.774 477.938 38.1064 476.68 38.4344L477.185 40.3697ZM488.913 37.5466C490.177 37.2646 491.483 36.9794 492.834 36.691L492.416 34.7351C491.06 35.0247 489.747 35.3112 488.477 35.5947L488.913 37.5466ZM500.768 35.0652C502.039 34.8149 503.344 34.5623 504.685 34.3074L504.312 32.3426C502.967 32.5983 501.657 32.8517 500.382 33.1029L500.768 35.0652ZM512.629 32.8468C513.302 32.7269 513.983 32.6065 514.673 32.4856L514.327 30.5157C513.636 30.6369 512.953 30.7575 512.278 30.8778L512.629 32.8468ZM514.673 32.4856C515.307 32.3744 515.942 32.2704 516.576 32.1733L516.274 30.1963C515.625 30.2955 514.976 30.4019 514.327 30.5157L514.673 32.4856ZM524.229 31.3233C525.51 31.2318 526.793 31.1639 528.082 31.1175L528.01 29.1188C526.699 29.166 525.392 29.2351 524.087 29.3284L524.229 31.3233ZM535.806 31.078C537.086 31.1075 538.374 31.1534 539.67 31.2136L539.763 29.2158C538.452 29.1549 537.149 29.1084 535.852 29.0786L535.806 31.078ZM547.403 31.7185C548.682 31.8228 549.972 31.9367 551.273 32.0585L551.459 30.0672C550.151 29.9448 548.854 29.8301 547.565 29.7251L547.403 31.7185ZM559.002 32.845C560.277 32.9825 561.564 33.1239 562.865 33.2678L563.085 31.28C561.783 31.1359 560.494 30.9943 559.217 30.8565L559.002 32.845ZM570.62 34.1257C571.894 34.2646 573.182 34.4032 574.484 34.5402L574.693 32.5512C573.394 32.4145 572.109 32.2762 570.837 32.1374L570.62 34.1257ZM582.247 35.3121C583.529 35.4309 584.824 35.5461 586.135 35.6566L586.303 33.6637C584.998 33.5536 583.708 33.4389 582.431 33.3206L582.247 35.3121ZM593.916 36.2396C595.201 36.323 596.5 36.4005 597.813 36.4713L597.921 34.4742C596.615 34.4038 595.323 34.3267 594.045 34.2438L593.916 36.2396ZM605.625 36.8018C606.906 36.8407 608.201 36.8724 609.511 36.8961L609.547 34.8964C608.246 34.8729 606.959 34.8414 605.686 34.8027L605.625 36.8018ZM617.331 36.9384C618.615 36.9289 619.913 36.9112 621.224 36.8846L621.183 34.885C619.881 34.9114 618.592 34.929 617.317 34.9384L617.331 36.9384ZM629.029 36.6251C630.326 36.5652 631.637 36.4962 632.961 36.4177L632.843 34.4212C631.528 34.4991 630.226 34.5677 628.936 34.6273L629.029 36.6251ZM640.749 35.856C642.023 35.7478 643.31 35.6307 644.608 35.5042L644.414 33.5136C643.124 33.6393 641.846 33.7557 640.58 33.8632L640.749 35.856ZM652.37 34.6513C653.663 34.4932 654.968 34.3258 656.285 34.1488L656.018 32.1666C654.71 32.3426 653.413 32.509 652.127 32.666L652.37 34.6513ZM663.999 33.0199C665.264 32.82 666.539 32.6112 667.824 32.3932L667.49 30.4214C666.212 30.6381 664.944 30.8457 663.687 31.0444L663.999 33.0199ZM675.518 31.0023C676.78 30.76 678.053 30.5088 679.336 30.2487L678.938 28.2886C677.662 28.5474 676.396 28.7972 675.141 29.0382L675.518 31.0023ZM686.965 28.6206C688.233 28.3369 689.51 28.0445 690.796 27.7432L690.34 25.7958C689.06 26.0957 687.789 26.3866 686.528 26.6689L686.965 28.6206ZM698.354 25.8982C699.62 25.5769 700.894 25.247 702.178 24.9086L701.668 22.9747C700.39 23.3116 699.121 23.6399 697.862 23.9597L698.354 25.8982ZM709.67 22.8636C710.917 22.5116 712.173 22.1516 713.437 21.7833L712.878 19.8631C711.619 20.2298 710.368 20.5883 709.126 20.9387L709.67 22.8636ZM720.902 19.5441C721.532 19.3495 722.164 19.153 722.799 18.9544L722.201 17.0457C721.569 17.2435 720.94 17.4393 720.312 17.633L720.902 19.5441ZM722.799 18.9544C723.47 18.7443 724.137 18.5368 724.799 18.3317L724.208 16.4211C723.543 16.6268 722.875 16.835 722.201 17.0457L722.799 18.9544ZM732.706 15.9428C734.045 15.5485 735.367 15.1651 736.671 14.7923L736.122 12.8692C734.812 13.2435 733.485 13.6284 732.141 14.0242L732.706 15.9428ZM744.619 12.5968C745.97 12.237 747.304 11.8892 748.621 11.5531L748.126 9.61524C746.802 9.95306 745.462 10.3026 744.104 10.6642L744.619 12.5968ZM756.628 9.60612C757.982 9.29394 759.319 8.99466 760.641 8.70786L760.217 6.7533C758.886 7.04199 757.541 7.34316 756.178 7.65724L756.628 9.60612ZM768.735 7.07179C770.101 6.81661 771.453 6.57493 772.793 6.34624L772.457 4.37474C771.106 4.60521 769.744 4.84873 768.368 5.10581L768.735 7.07179ZM780.936 5.09436C782.305 4.90734 783.666 4.73353 785.02 4.57235L784.784 2.58637C783.418 2.74891 782.046 2.92417 780.665 3.11276L780.936 5.09436ZM793.214 3.74111C794.584 3.62594 795.953 3.52273 797.321 3.43083L797.187 1.43532C795.807 1.52796 794.428 1.63201 793.047 1.74813L793.214 3.74111ZM805.552 3.01017C806.919 2.96132 808.292 2.9223 809.673 2.89249L809.63 0.892953C808.24 0.922964 806.858 0.962247 805.48 1.01144L805.552 3.01017ZM817.926 2.81861C819.289 2.82242 820.663 2.83357 822.051 2.85152L822.077 0.851687C820.683 0.833656 819.301 0.822444 817.931 0.818617L817.926 2.81861ZM830.298 3.02874C831.657 3.06838 833.032 3.11306 834.423 3.16232L834.494 1.16357C833.099 1.11418 831.72 1.06936 830.356 1.02959L830.298 3.02874ZM842.685 3.49543C844.047 3.55613 845.428 3.62003 846.827 3.68676L846.922 1.68903C845.521 1.62222 844.139 1.55822 842.774 1.49741L842.685 3.49543ZM855.065 4.09747C856.425 4.16753 857.802 4.23938 859.199 4.31272L859.304 2.31547C857.907 2.24211 856.528 2.17022 855.168 2.10012L855.065 4.09747ZM867.46 4.74922C868.818 4.82098 870.193 4.89354 871.588 4.96666L871.693 2.9694C870.298 2.8963 868.923 2.82376 867.566 2.75201L867.46 4.74922ZM879.854 5.39335C880.548 5.42848 881.247 5.46364 881.95 5.4988L882.05 3.50129C881.347 3.46615 880.649 3.43102 879.955 3.39591L879.854 5.39335ZM881.95 5.4988C882.615 5.53204 883.273 5.56839 883.924 5.60779L884.045 3.61144C883.387 3.57162 882.722 3.53488 882.05 3.50129L881.95 5.4988ZM891.69 6.24871C893.007 6.38785 894.296 6.54025 895.559 6.70518L895.818 4.72202C894.539 4.55495 893.234 4.40063 891.9 4.25978L891.69 6.24871ZM903.257 7.91606C904.558 8.15666 905.831 8.41106 907.08 8.67821L907.498 6.72248C906.232 6.45146 904.94 6.19343 903.621 5.94942L903.257 7.91606ZM914.652 10.5231C915.922 10.8703 917.168 11.2304 918.396 11.602L918.975 9.68776C917.731 9.31117 916.467 8.9461 915.18 8.59395L914.652 10.5231ZM925.797 14.0431C927.031 14.4815 928.252 14.9299 929.465 15.3866L930.17 13.515C928.947 13.0544 927.714 12.6016 926.467 12.1585L925.797 14.0431ZM936.746 18.2458C937.954 18.7352 939.162 19.2297 940.374 19.7279L941.134 17.8781C939.92 17.3793 938.709 16.8833 937.497 16.3922L936.746 18.2458ZM947.636 22.7066C948.839 23.1946 950.054 23.6828 951.285 24.1697L952.021 22.3099C950.796 21.8256 949.587 21.3397 948.388 20.8533L947.636 22.7066ZM958.647 26.9728C959.865 27.4161 961.103 27.8556 962.365 28.2901L963.016 26.3991C961.766 25.9686 960.538 25.533 959.331 25.0934L958.647 26.9728ZM969.872 30.7146C971.109 31.0874 972.371 31.454 973.66 31.8135L974.197 29.8871C972.922 29.5313 971.674 29.1685 970.449 28.7996L969.872 30.7146ZM981.301 33.778C982.556 34.0736 983.836 34.362 985.142 34.6426L985.562 32.6872C984.269 32.4094 983.002 32.1238 981.76 31.8313L981.301 33.778ZM992.868 36.1494C993.518 36.2637 994.173 36.376 994.836 36.4864L995.164 34.5136C994.508 34.4042 993.858 34.2929 993.215 34.1797L992.868 36.1494ZM994.836 36.4864C995.491 36.5955 996.152 36.7119 996.819 36.8356L997.183 34.8691C996.504 34.7432 995.831 34.6248 995.164 34.5136L994.836 36.4864ZM1004.75 38.5962C1006.04 38.9303 1007.35 39.2907 1008.67 39.6782L1009.23 37.7596C1007.89 37.3658 1006.56 36.9994 1005.25 36.6598L1004.75 38.5962ZM1016.38 42.229C1017.63 42.6927 1018.9 43.1814 1020.16 43.6956L1020.91 41.8432C1019.63 41.3203 1018.35 40.8236 1017.07 40.3523L1016.38 42.229ZM1027.57 47.013C1028.78 47.6054 1029.98 48.2224 1031.18 48.8648L1032.12 47.1022C1030.9 46.4483 1029.68 45.8202 1028.45 45.2174L1027.57 47.013ZM1038.17 52.9611C1039.31 53.685 1040.43 54.4339 1041.55 55.2081L1042.69 53.5662C1041.55 52.7765 1040.41 52.0129 1039.25 51.275L1038.17 52.9611ZM1048 60.1044C1049.03 60.9622 1050.06 61.8452 1051.06 62.754L1052.4 61.2712C1051.38 60.3423 1050.33 59.4401 1049.27 58.5639L1048 60.1044ZM1056.8 68.452C1057.71 69.4411 1058.6 70.4557 1059.47 71.4961L1061 70.2159C1060.12 69.1504 1059.21 68.1118 1058.28 67.0994L1056.8 68.452ZM1064.33 77.9561C1065.08 79.0659 1065.81 80.201 1066.51 81.3617L1068.22 80.3251C1067.5 79.1353 1066.76 77.9718 1065.99 76.8343L1064.33 77.9561ZM1070.34 88.4707C1070.92 89.6767 1071.46 90.907 1071.98 92.1619L1073.83 91.3966C1073.3 90.1105 1072.74 88.8495 1072.15 87.6131L1070.34 88.4707ZM1074.7 99.7779C1075.09 101.058 1075.45 102.362 1075.78 103.688L1077.72 103.202C1077.38 101.844 1077.01 100.51 1076.61 99.1991L1074.7 99.7779ZM1077.38 111.599C1077.58 112.918 1077.76 114.257 1077.92 115.617L1079.9 115.395C1079.75 114.006 1079.57 112.639 1079.36 111.291L1077.38 111.599ZM1078.48 123.696C1078.52 125.028 1078.54 126.379 1078.53 127.748L1080.53 127.762C1080.54 126.369 1080.52 124.993 1080.48 123.636L1078.48 123.696ZM1078.18 135.855C1078.13 136.534 1078.07 137.218 1078 137.906L1080 138.094C1080.06 137.395 1080.12 136.7 1080.17 136.009L1078.18 135.855Z" fill="#14488C"/>
</svg>
