<svg width="586" height="448" viewBox="0 0 586 448" fill="none" xmlns="http://www.w3.org/2000/svg">
<g opacity="0.8">
<g opacity="0.2" clip-path="url(#clip0_10_543)">
<path d="M3.06728 44.8805C-0.434388 50.6147 1.00748 57.0537 1.14725 57.6484C2.53026 63.4413 6.48067 64.6087 15.2201 73.2944C23.4741 81.4955 28.7928 86.7451 30.2567 94.7113C31.3087 100.409 29.3224 101.782 30.8967 107.193C33.1625 114.895 39.2684 118.94 42.4169 121.554C54.1872 131.253 48.4198 140.218 60.6536 164.659C69.4813 182.281 81.9137 196.576 87.203 202.655C93.3677 209.733 95.6923 211.465 99.3558 217.023C107.051 228.727 104.226 236.979 110.876 252.787C113.649 259.395 116.283 263.389 119.836 269.064C144.112 307.977 146.731 321.325 167.182 349.827C183.984 373.256 199.198 387.881 217.405 405.377C244.359 431.28 256.217 437.191 264.751 440.502C285.209 448.439 302.203 447.543 312.421 446.89C327.207 445.943 339.25 444.988 346.01 435.715C350.689 429.291 352.506 419.342 348.887 411.486C346.819 406.971 343.686 404.68 337.69 400.311C330.212 394.877 321.732 390.97 312.737 388.814C302.828 386.45 302.953 388.682 291.624 386.611C282.1 384.875 272.913 381.641 264.405 377.03C252.907 370.591 254.724 367.801 243.932 362.345C231.934 356.274 227.969 358.851 220.899 352.764C214.845 347.434 215.544 343.608 209.408 334.798C203.273 325.987 200.36 326.633 188.935 315.642C174.347 301.597 164.085 291.707 163.313 278.264C162.96 271.847 164.968 268.036 162.033 262.295C158.693 255.76 153.742 256.105 150.513 249.204C147.783 243.33 150.557 241.458 147.953 233.881C145.54 226.84 142.59 226.876 139.64 220.467C136.278 213.161 137.006 206.385 138.036 196.84C138.772 190.129 139.507 183.029 143.796 174.814C147.746 167.193 153.583 160.708 160.753 155.974C165.954 152.655 178.313 144.77 188.906 148.947C197.072 152.178 198.138 160.203 207.459 161.429C211.652 161.972 213.969 160.695 217.059 162.706C220.671 165.085 223.01 170.489 221.539 174.204C220.509 176.796 218.17 177.141 218.339 178.676C218.619 181.26 225.96 184.131 228.572 181.862C231.86 179.013 224.055 171.143 224.415 157.281C224.717 145.533 230.565 140.614 227.616 136.525C224.283 131.921 214.308 134.696 205.222 135.886C205.222 135.886 187.736 138.177 155.633 129.182C107.588 115.695 70.011 59.4693 75.0354 36.5766C75.4989 34.4988 78.0295 24.8292 73.4391 16.4593C72.6225 14.9908 69.9374 10.0423 65.4426 9.43287C63.3166 9.15387 60.6903 9.822 53.6061 16.1435C49.7558 19.6426 46.1247 23.3745 42.7332 27.3182C29.6976 41.114 10.5194 32.6486 3.06728 44.8805Z" stroke="#0A0A23" stroke-width="2" stroke-linecap="round" stroke-linejoin="round" stroke-dasharray="0.1 8"/>
<path d="M400.073 351.685C402.471 356.45 377.466 367.242 377.363 383.608C377.363 387.874 378.982 394.401 378.643 394.467C378.305 394.533 377.908 391.53 377.363 391.589C376.819 391.648 375.995 395.994 377.04 400.216C377.709 402.932 379.085 404.9 381.836 408.835C384.337 412.396 385.117 412.661 385.676 412.668C387.787 412.668 388.001 409.122 391.12 407.529C394.511 405.818 396.711 408.821 400.683 407.844C404.119 407.007 405.2 404.173 409.643 398.3C413.814 392.786 413.947 393.894 418.92 387.764C431.683 372.052 428.483 367.676 437.473 359.981C439.047 358.638 442.622 355.789 441.953 353.594C441.328 351.574 437.664 352.066 436.516 349.768C435.119 346.971 439.525 344.218 440.033 339.871C440.916 332.287 429.366 324.776 422.436 321.67C417.412 319.416 405.884 315.488 402.574 319.754C399.631 323.623 404.464 332.837 404.781 333.484C407.466 338.469 409.93 338.953 409.577 341.141C408.636 346.362 394.423 345.811 391.753 346.567C388.332 347.529 387.596 353.175 391.017 352.265C391.466 352.206 398.771 349.115 400.073 351.685Z" stroke="#0A0A23" stroke-width="2" stroke-linecap="round" stroke-linejoin="round" stroke-dasharray="0.1 8"/>
<path d="M414.168 286.259C409.496 292.265 417.846 309.754 426.321 309.563C430.793 309.475 435.553 304.423 436.237 298.711C436.973 292.478 432.662 287.456 428.241 285.297C423.613 283.051 416.779 282.874 414.168 286.259Z" stroke="#0A0A23" stroke-width="2" stroke-linecap="round" stroke-linejoin="round" stroke-dasharray="0.1 8"/>
<path d="M238.834 127.075C229.822 134.036 234.501 150.372 234.678 151.201C235.516 155.071 237.436 159.593 239.158 159.498C240.578 159.425 240.629 156.275 243.638 152.795C244.315 152.009 246.97 148.94 250.678 148.008C256.953 146.422 260.933 152.303 264.435 150.21C266.862 148.778 265.236 145.805 268.275 141.591C271.475 137.185 275.101 138.022 276.271 134.887C277.742 130.908 273.888 124.241 268.591 122.112C266.995 121.473 265.251 121.238 252.914 124.315C245.47 126.282 240.114 126.077 238.834 127.075Z" stroke="#0A0A23" stroke-width="2" stroke-linecap="round" stroke-linejoin="round" stroke-dasharray="0.1 8"/>
<path d="M298.429 95.4455C291.33 101.055 288.998 104.212 287.703 109.395C286.776 113.111 289.836 118.066 292.904 120.225C294.537 121.378 298.053 122.464 313.061 114.16C336.152 101.356 338.521 92.773 349.843 92.773C353.882 92.773 359.053 93.8596 362.636 90.5703C365.372 88.0373 364.74 85.1959 367.439 82.5895C371.324 78.8303 377.783 79.7774 380.556 80.0344C392.738 81.1651 395.394 74.6527 419.898 68.221C436.693 63.8157 446.087 61.3488 457.968 64.3884C464.059 65.9449 474.52 68.6248 480.361 77.4794C486.607 86.9433 482.693 96.0622 490.601 102.068C495.258 105.6 501.555 106.202 501.481 108.771C501.415 110.871 497.17 111.613 497.001 114.197C496.839 116.627 500.422 118.602 501.481 119.337C513.803 127.244 517.003 169.395 503.401 183.83C502.371 184.916 498.039 189.263 499.238 191.818C500.113 193.668 503.114 192.875 504.674 194.689C507.256 197.677 503.857 205.379 499.878 211.289C490.726 224.887 481.266 224.901 480.685 231.722C480.052 239.145 491.087 240.65 493.478 251.546C495.618 261.252 489.373 271.597 483.245 277.089C479.213 280.694 477.779 279.923 461.808 286.986C443.056 295.275 440.746 298.234 440.695 300.716C440.643 303.065 442.622 305.341 447.411 308.374C452.796 311.788 475.417 326.119 492.838 317.316C506.991 310.172 510.684 291.318 514.598 271.34C519.203 247.845 516.481 227.412 528.031 219.945C529.921 218.727 534.652 216.274 536.027 211.326C537.3 206.825 534.894 203.521 533.82 199.835C529.789 186.392 546.26 178.507 546.937 161.201C547.275 152.501 543.104 154.667 537.977 134.696C534.556 121.385 531.893 110.416 537.02 100.534C539.051 96.6129 540.809 95.7685 549.173 88.052C556.074 81.7158 566.564 72.0756 572.206 64.7482C584.219 49.1462 589.862 23.8013 580.843 15.5561C577.29 12.3109 569.808 12.7515 554.933 13.6399C539.588 14.4989 538.492 16.3564 529.664 16.4592C519.203 16.584 517.504 14.0363 491.278 6.91449C465.229 -0.222024 460.182 0.453449 457.019 1.13626C443.557 4.0731 434.398 13.6619 431.426 16.7823C423.157 25.4533 426.07 27.7367 419.589 34.6603C403.184 52.1932 376.694 45.9671 366.483 60.2034C365.534 61.525 363.71 64.4472 360.083 65.9523C354.58 68.2797 350.74 64.7922 345.017 65.3429C339.294 65.8935 338.05 69.9244 328.708 78.1108C324.544 81.7598 307.028 88.6614 298.429 95.4455Z" stroke="#0A0A23" stroke-width="2" stroke-linecap="round" stroke-linejoin="round" stroke-dasharray="0.1 8"/>
<path d="M466.649 253.029C465.604 254.138 465.913 256.509 466.913 257.955C468.819 260.768 474.035 261.377 476.256 259.02C479.25 255.856 475.418 248.844 473.718 248.895C472.909 248.895 472.983 250.562 471.188 251.693C469.238 252.926 467.679 251.928 466.649 253.029Z" stroke="#0A0A23" stroke-width="2" stroke-linecap="round" stroke-linejoin="round" stroke-dasharray="0.1 8"/>
<path d="M455.364 236.516C454.525 238.859 454.099 240.026 454.562 240.812C455.379 242.214 458.38 242.537 460.212 241.348C462.816 239.659 462.286 235.4 462.095 233.829C461.713 230.738 460.16 227.522 459.152 227.655C458.549 227.735 458.623 228.925 457.269 232.221C456.423 234.255 456.1 234.571 455.364 236.516Z" stroke="#0A0A23" stroke-width="2" stroke-linecap="round" stroke-linejoin="round" stroke-dasharray="0.1 8"/>
<path d="M61.0569 29.5796C58.1143 27.8688 53.134 31.0994 43.4676 37.5678C36.0523 42.5163 36.1112 43.4414 32.2711 44.9099C26.6728 47.1125 23.9142 46.2388 21.3909 49.0581C19.5886 51.0846 19.309 53.7351 18.8309 58.9553C18.3821 63.8525 17.9996 68.0742 19.1545 72.685C20.7509 79.0653 24.1569 81.6424 28.1073 87.0535C33.4776 94.3956 34.6693 99.9022 38.0238 109.08C49.7942 141.385 62.8739 177.09 86.01 197.185C89.8427 200.511 96.309 205.474 101.687 214.747C102.636 216.377 103.43 217.948 110.963 238.051C115.436 249.982 115.539 250.459 117.687 255.936C120.732 263.734 124.72 273.499 124.72 273.499C124.72 273.499 126.529 275.914 127.603 275.701C128.677 275.488 129.075 272.911 129.2 271.23C129.523 265.224 125.477 260.488 123.44 257.5C117.26 248.433 121.461 243.587 117.047 230.041C113.619 219.542 109.175 216.583 104.541 208.653C91.2404 185.775 107.02 174.006 97.5007 154.05C86.7824 131.598 49.6838 110.658 45.0345 102.009C44.5049 101.018 42.9159 98.0813 44.0782 95.9448C44.7182 94.7553 45.623 94.8802 46.9546 93.3897C48.2861 91.8993 49.7206 89.1607 48.8746 87.3251C48.0286 85.4896 45.3876 86.2899 44.0782 84.447C41.9669 81.5102 46.5941 76.1652 45.0345 74.5499C43.3499 72.8098 36.3613 77.3693 35.7581 76.4662C35.1548 75.5631 43.6515 71.4882 44.1076 65.0566C44.4313 60.4751 40.5545 57.0757 42.1876 55.1521C43.0042 54.1903 44.7844 54.0948 46.0203 54.5133C49.3822 55.6513 48.8157 60.5632 51.7804 61.5397C54.2742 62.362 56.1133 59.3371 57.8642 60.2622C59.9166 61.3341 59.3355 66.547 58.8205 71.1211C58.129 77.2812 56.8784 80.1152 57.8642 80.6659C58.8499 81.2165 61.8734 78.8964 63.6169 76.2019C66.6331 71.5323 66.8464 64.6674 63.6169 60.2328C61.41 57.1565 59.5635 58.133 58.4674 55.7615C56.2605 50.8643 63.8523 46.3416 63.6169 36.929C63.5654 34.954 63.4551 30.9599 61.0569 29.5796Z" stroke="#0A0A23" stroke-miterlimit="10"/>
<path d="M63.3007 88.0153C62.7637 89.3295 61.7191 91.914 62.977 93.4411C64.0069 94.6819 66.2727 94.8655 67.7808 94.0799C70.51 92.6555 70.385 88.2062 70.3408 86.7378C70.1864 81.7598 67.3983 77.5455 66.5008 77.7951C65.7651 78.0007 67.0819 81.1798 65.2208 84.8215C64.4777 86.2679 63.9628 86.3486 63.3007 88.0153Z" stroke="#0A0A23" stroke-miterlimit="10"/>
<path d="M142.64 285.011C136.755 282.808 133.812 281.758 133.04 282.456C131.48 283.844 132.348 288.33 134.32 289.159C135.489 289.659 136.107 288.476 138.16 288.521C141.183 288.594 142.11 291.215 144.236 290.76C145.707 290.437 147.01 288.785 146.796 287.566C146.642 286.56 145.45 286.054 142.64 285.011Z" stroke="#0A0A23" stroke-miterlimit="10"/>
<path d="M167.909 311.193C166.335 307.779 162.539 308.99 159.273 305.128C156.919 302.353 157.993 300.672 155.433 298.425C153.527 296.744 150.195 295.268 148.393 296.509C146.252 297.977 147.164 302.632 148.076 305.128C149.268 308.388 150.791 308.873 153.226 312.147C158.375 319.174 158.096 326.164 160.582 326.2C162.054 326.2 162.738 323.741 164.099 323.961C165.607 324.211 166.041 327.448 166.659 329.71C168.748 337.346 175.7 343.939 181.695 346.633C185.499 348.344 187.809 347.977 190.655 350.782C192.862 352.984 193.216 354.908 195.128 355.253C197.423 355.664 200.278 353.491 201.212 350.782C201.617 349.425 201.621 347.981 201.223 346.622C200.825 345.263 200.042 344.048 198.968 343.124C196.195 340.752 193.922 343.028 190.655 341.207C185.675 338.432 188.309 331.663 182.335 327.155C180.312 325.628 178.915 325.576 177.855 323.645C176.141 320.517 178.105 317.515 176.575 316.303C174.721 314.835 170.808 318.454 168.902 316.942C167.527 315.877 169.116 313.807 167.909 311.193Z" stroke="#0A0A23" stroke-miterlimit="10"/>
<path d="M181.953 354.335C180.481 354.387 179.179 356.281 178.76 356.89C178.274 357.548 177.926 358.297 177.737 359.093C177.364 360.386 177.5 361.774 178.12 362.969C178.625 363.833 179.394 364.513 180.314 364.909C181.234 365.306 182.256 365.398 183.233 365.172C183.897 364.937 184.5 364.558 184.999 364.061C185.498 363.565 185.879 362.963 186.116 362.301C187.367 358.843 184.343 354.203 181.953 354.335Z" stroke="#0A0A23" stroke-miterlimit="10"/>
<path d="M190.942 366.083C189.632 366.989 188.716 368.359 188.382 369.915C188.154 371.266 188.338 373.359 189.662 374.379C190.986 375.4 193.502 375.341 193.502 375.341C193.502 375.341 193.627 370.143 193.819 369.276C194.503 366.222 195.937 365.055 195.422 364.482C194.907 363.909 192.443 364.893 190.942 366.083Z" stroke="#0A0A23" stroke-miterlimit="10"/>
<path d="M198.939 378.88C197.401 379.709 197.593 383.909 199.262 384.629C200.153 385.01 201.381 384.372 202.051 383.74C202.381 383.453 202.646 383.099 202.827 382.701C203.009 382.304 203.103 381.872 203.103 381.435C202.919 379.57 200.189 378.212 198.939 378.88Z" stroke="#0A0A23" stroke-miterlimit="10"/>
<path d="M207.899 391.046C209.422 391.046 208.149 386.919 209.253 386.104C210.356 385.289 210.797 388.087 211.415 387.529C212.32 386.736 207.921 379.364 206.619 379.871C205.14 380.414 207.458 391.046 207.899 391.046Z" stroke="#0A0A23" stroke-miterlimit="10"/>
<path d="M205.339 355.892C203.868 356.765 204.39 360.172 204.699 362.279C205.236 365.95 206.531 367.169 207.899 371.222C209.848 377.022 208.23 377.654 209.819 379.842C213.078 384.328 222.759 385.532 228.696 382.397C230.299 381.545 231.638 380.378 233.808 380.48C236.699 380.605 237.641 382.793 240.209 382.683C242.577 382.61 245.321 380.635 245.358 378.85C245.358 376.604 241.01 375.752 231.601 371.193C226.96 369.056 222.472 366.603 218.169 363.851C210.422 358.807 207.171 354.783 205.339 355.892Z" stroke="#0A0A23" stroke-miterlimit="10"/>
<path d="M246.925 403.145C248.271 413.483 255.62 420.59 260.681 425.495C264.625 429.313 266.567 431.222 269.318 431.882C274.085 433.042 277.616 430.73 284.678 431.567C286.509 431.767 288.325 432.086 290.115 432.521C292.851 433.255 293.146 433.725 294.595 433.799C297.626 433.946 298.111 431.948 300.995 431.596C305.195 431.038 306.659 434.981 310.271 434.144C312.522 433.63 312.368 432 315.708 430.319C318.547 428.85 319.938 429.423 322.108 428.718C328.53 426.64 333.201 416.53 330.421 411.831C329.582 410.363 328.265 409.834 326.264 408.96C308.726 401.303 308.844 400.231 303.555 399.416C297.125 398.388 297.846 400.106 290.438 399.416C278.668 398.329 260.409 392.477 252.045 384.093C251.412 383.461 249.765 381.736 248.529 382.176C247.293 382.617 247.006 385.267 246.925 393.99C246.881 399.68 246.851 402.573 246.925 403.145Z" stroke="#0A0A23" stroke-miterlimit="10"/>
<path d="M380.327 403.468C380.128 405.01 380.717 407.25 382.247 407.617C383.512 407.918 384.888 406.824 385.447 405.701C386.572 403.439 384.851 400.069 383.24 399.952C381.938 399.856 380.577 401.721 380.327 403.468Z" stroke="#0A0A23" stroke-miterlimit="10"/>
<path d="M413.6 344.056C408.906 354.416 419.338 363.682 414.564 370.877C412.673 373.726 410.562 372.984 407.207 377.58C404.331 381.523 405.655 382.367 403.051 386.2C399.784 391.002 394.385 394.555 390.545 397.059C388.86 398.168 387.168 399.166 387.345 399.614C387.624 400.304 392.207 399.115 393.745 398.652C399.924 396.817 403.808 392.778 414.542 380.135C424.473 368.388 426.363 365.671 427.974 361.296C429.436 356.983 430.087 352.438 429.894 347.889C429.74 344.071 429.585 341.163 427.334 339.269C425.083 337.375 421.508 337.316 419.014 338.307C415.645 339.688 414.144 342.889 413.6 344.056Z" stroke="#0A0A23" stroke-miterlimit="10"/>
<path d="M463.506 14.5797C462.38 15.101 458.07 17.4504 458.07 17.4504C458.07 17.4504 456.812 20.3065 457.43 20.96C458.047 21.6134 460.858 18.9556 464.146 18.0892C467.979 17.0833 470.583 19.1979 483.663 25.7544C489.974 28.9115 492.755 30.1596 495.499 28.9408C497.412 28.1185 499.339 26.1141 499.016 24.4768C498.523 21.9365 493.072 22.4431 483.663 19.6824C472.768 16.496 468.28 12.355 463.506 14.5797Z" stroke="#0A0A23" stroke-miterlimit="10"/>
<path d="M511.522 26.3931C507.431 26.5106 505.379 26.5914 504.805 27.6707C503.937 29.2786 505.541 32.4283 507.365 32.8101C508.984 33.1185 509.491 30.9966 511.845 30.8938C513.596 30.8204 515.332 31.9071 517.282 33.0965C518.819 34.0583 519.157 34.5649 519.489 34.374C520.496 33.8894 520.32 28.9849 517.568 27.0319C516.487 26.261 514.81 26.2904 511.522 26.3931Z" stroke="#0A0A23" stroke-miterlimit="10"/>
<path d="M523.652 61.1947C525.263 66.8261 528.066 76.6131 524.292 79.7114C522.667 81.055 521.114 80.1079 519.812 81.6277C517.686 84.0947 518.797 90.0932 521.732 92.1636C526.941 95.8347 538.961 87.8832 545.082 82.6189C555.852 73.2944 559.449 62.5603 564.944 46.2241C568.873 34.4768 568.402 30.8645 566.548 28.9776C564.804 27.2155 560.133 27.5679 550.871 28.3461C539.55 29.2492 539.255 30.4166 533.591 29.9027C528.802 29.4695 526.735 28.4342 524.955 29.9027C522.939 31.562 524.153 34.0656 523.035 41.393C522.13 47.2667 521.019 47.788 521.114 51.6132C521.173 55.0714 522.108 55.8276 523.652 61.1947Z" stroke="#0A0A23" stroke-miterlimit="10"/>
<path d="M511.816 84.8215C511.603 88.8376 512.677 93.6834 514.023 93.7568C515.244 93.8229 516.642 90.1445 516.899 87.0535C517.289 82.5381 515.391 77.729 514.023 77.7951C512.655 77.8612 511.956 82.1123 511.816 84.8215Z" stroke="#0A0A23" stroke-miterlimit="10"/>
<path d="M515.972 98.867C509.638 101.07 520.967 144.271 519.489 164.322C518.953 170.284 519.168 176.291 520.129 182.2C520.776 186.128 521.1 185.988 521.409 188.587C522.35 196.48 519.614 200.151 517.252 210.298C514.185 223.404 517.002 224.674 513.412 230.415C509.55 236.59 503.849 239.05 504.776 241.59C505.379 243.205 508.454 244.285 510.852 243.506C515.825 241.876 514.957 233.058 519.452 217.633C522.976 205.548 524.682 206.95 526.529 198.169C527.816 192.068 527.507 184.865 526.845 170.709C525.543 142.809 525.543 142.809 525.573 142.288C526.404 125.247 530.266 119.44 526.205 110.042C523.719 104.271 518.599 97.9639 515.972 98.867Z" stroke="#0A0A23" stroke-miterlimit="10"/>
<path d="M499.656 264.578C497.581 266.832 496.456 270.797 498.059 272.243C499.185 273.264 501.458 272.831 502.856 271.92C506.269 269.718 506.321 263.403 504.452 262.339C503.15 261.604 500.796 263.33 499.656 264.578Z" stroke="#0A0A23" stroke-miterlimit="10"/>
<path d="M493.248 294.314C491.041 296.127 486.995 293.007 485.377 294.717C484.56 295.569 484.641 297.331 485.377 297.911C486.429 298.756 488.224 296.626 490.313 297.243C492.557 297.911 492.321 300.914 494.05 301.377C496.603 302.045 501.988 296.736 500.59 292.985C499.759 290.782 496.603 289.226 495.117 290.048C493.631 290.87 494.749 293.065 493.248 294.314Z" stroke="#0A0A23" stroke-miterlimit="10"/>
</g>
<path opacity="0.2" d="M264.08 417H267.716L267.512 415.836H265.28V413.856H267.512V412.692H265.28V410.844H267.512L267.716 409.68H264.08V417ZM273.044 417H274.436L272.24 413.244L274.424 409.68H273.116L271.616 412.212L270.056 409.68H268.664L270.848 413.244L268.652 417H269.948L271.472 414.3L273.044 417ZM278.73 417H279.618L279.414 415.836H278.826C277.278 415.836 276.282 414.888 276.282 413.316C276.282 411.792 277.278 410.844 278.826 410.844H279.414L279.618 409.68H278.73C276.534 409.68 275.034 411.096 275.034 413.316C275.034 415.584 276.534 417 278.73 417ZM285.55 417H286.75V409.68H285.55V412.692H282.214V409.68H281.014V417H282.214V413.856H285.55V417ZM294.612 417.348V409.68H293.436V414.336L288.876 409.332V417H290.052V412.344L294.612 417.348ZM299.956 414.708H297.784L298.864 412.056L299.956 414.708ZM300.904 417H302.176L298.9 409.32L295.612 417H296.86L297.328 415.848H300.424L300.904 417ZM308.177 417V412.692H305.921L305.717 413.856H306.977V415.836H306.353C304.805 415.836 303.809 414.888 303.809 413.316C303.809 411.792 304.805 410.844 306.353 410.844H307.469L307.673 409.68H306.257C304.061 409.68 302.561 411.096 302.561 413.316C302.561 415.584 304.061 417 306.257 417H308.177ZM310.1 417H313.736L313.532 415.836H311.3V413.856H313.532V412.692H311.3V410.844H313.532L313.736 409.68H310.1V417Z" fill="#0A0A23"/>
<path opacity="0.2" d="M380.822 62.7942L380.606 61.4326L375.31 63.2523L375.976 64.4592L377.737 63.8542L380.071 70.6464L381.395 70.1915L379.061 63.3993L380.822 62.7942ZM384.367 61.5762C385.307 61.2532 386.143 61.6174 386.475 62.584C386.807 63.5505 386.398 64.3424 385.272 64.729L384.809 64.8883L383.745 61.79L384.367 61.5762ZM388.25 67.8362L389.878 67.2767L386.884 65.1968C387.824 64.4443 388.293 63.3952 387.833 62.0579C387.251 60.3632 385.779 59.655 384.005 60.2646L381.979 60.9607L384.754 69.0372L386.078 68.5823L385.046 65.5768L388.25 67.8362ZM394.209 62.9612L391.813 63.7846L391.999 60.4491L394.209 62.9612ZM396.124 65.1307L397.527 64.6485L391.001 57.4167L390.285 67.1369L391.662 66.6638L391.742 65.2153L395.158 64.0416L396.124 65.1307ZM398.667 64.257L400.785 63.5291C403.208 62.6966 404.327 60.5656 403.467 58.0632C402.625 55.6138 400.433 54.6201 398.01 55.4526L395.892 56.1804L398.667 64.257ZM397.657 57.0098L398.346 56.7733C400.054 56.1864 401.512 56.8548 402.09 58.5363C402.686 60.2708 401.946 61.6944 400.238 62.2812L399.55 62.5178L397.657 57.0098ZM406.528 61.5559L407.852 61.101L405.077 53.0244L403.753 53.4793L406.528 61.5559ZM416.66 58.504L413.753 50.0435L412.456 50.4893L414.221 55.6265L407.293 51.834L410.199 60.2945L411.497 59.8487L409.732 54.7115L416.66 58.504ZM424.358 55.4299L422.725 50.6766L420.236 51.5319L420.452 52.8935L421.842 52.4158L422.593 54.6005L421.904 54.837C420.196 55.4239 418.738 54.7555 418.142 53.021C417.564 51.3395 418.304 49.9159 420.012 49.3291L421.243 48.906L421.027 47.5444L419.464 48.0812C417.041 48.9137 415.923 51.0447 416.765 53.4941C417.625 55.9966 419.816 56.9903 422.239 56.1577L424.358 55.4299ZM429.66 53.6081L432.043 52.7893C433.566 52.2661 434.377 50.9216 433.881 49.4784C433.576 48.5913 432.908 48.1547 432.106 48.0603C432.548 47.5382 432.746 46.8634 432.482 46.0955C432.027 44.7714 430.645 44.2396 429.136 44.7582L426.885 45.5316L429.66 53.6081ZM430.556 51.9086L429.751 49.5651L430.731 49.2285C431.592 48.9328 432.245 49.1968 432.495 49.925C432.745 50.6532 432.397 51.2763 431.536 51.572L430.556 51.9086ZM429.346 48.3867L428.637 46.3212L429.563 46.0028C430.318 45.7435 430.9 45.9728 431.123 46.6216C431.346 47.2703 431.028 47.809 430.273 48.0683L429.346 48.3867ZM440.117 50.1633C442.5 49.3444 443.651 46.9652 442.819 44.5422C442.005 42.1722 439.74 40.9667 437.251 41.8219C434.762 42.6772 433.716 45.02 434.531 47.39C435.363 49.813 437.734 50.9822 440.117 50.1633ZM439.662 48.8393C438.007 49.4079 436.472 48.5587 435.908 46.9169C435.362 45.3281 436.051 43.7146 437.706 43.146C439.361 42.5773 440.896 43.4265 441.442 45.0153C442.006 46.6571 441.317 48.2706 439.662 48.8393ZM447.618 39.8438L447.402 38.4822L442.106 40.3019L442.772 41.5088L444.533 40.9038L446.867 47.6961L448.191 47.2411L445.857 40.4489L447.618 39.8438Z" fill="#0A0A23"/>
<path opacity="0.2" d="M420.985 343.899L421.955 343.925L422.003 342.065L423.813 342.113L423.764 343.972L424.729 344.168L424.809 341.139L418.711 340.978L418.685 341.978L421.034 342.04L420.985 343.899ZM418.44 347.489C418.404 348.839 419.31 349.793 420.739 349.83L424.578 349.931L424.604 348.931L420.825 348.832C419.956 348.809 419.419 348.275 419.439 347.515C419.459 346.756 420.023 346.25 420.893 346.273L424.671 346.372L424.698 345.373L420.859 345.272C419.429 345.234 418.475 346.139 418.44 347.489ZM418.021 356.194L424.409 356.362L424.434 355.382L420.556 355.28L424.824 351.591L418.436 351.423L418.411 352.403L422.289 352.505L418.021 356.194ZM418.264 357.975L418.222 359.574C418.174 361.403 419.321 362.684 421.21 362.734C423.06 362.782 424.272 361.564 424.32 359.734L424.362 358.135L418.264 357.975ZM423.366 359.109L423.353 359.629C423.319 360.918 422.507 361.727 421.238 361.694C419.928 361.659 419.16 360.809 419.194 359.519L419.208 359L423.366 359.109Z" fill="#0A0A23"/>
<path opacity="0.2" d="M209.959 370.115L211.602 371.109C213.481 372.246 215.497 371.81 216.671 369.87C217.82 367.97 217.27 365.982 215.391 364.846L213.748 363.852L209.959 370.115ZM214.172 365.469L214.706 365.792C216.03 366.593 216.392 367.92 215.603 369.224C214.79 370.569 213.447 370.865 212.122 370.063L211.588 369.741L214.172 365.469ZM216.056 373.803L219.167 375.685L219.595 374.583L217.685 373.428L218.71 371.734L220.619 372.889L221.222 371.893L219.312 370.738L220.269 369.157L222.178 370.312L222.955 369.422L219.844 367.54L216.056 373.803ZM225.144 376.005L225.747 375.009L223.837 373.854L224.961 371.995L226.871 373.151L227.648 372.26L224.537 370.378L220.748 376.642L221.775 377.263L223.235 374.85L225.144 376.005ZM225.22 379.347L226.247 379.968L230.036 373.704L229.009 373.083L225.22 379.347Z" fill="#0A0A23"/>
</g>
<defs>
<clipPath id="clip0_10_543">
<rect width="586" height="448" fill="white"/>
</clipPath>
</defs>
</svg>
