<svg width="180" height="67" viewBox="0 0 180 67" fill="none" xmlns="http://www.w3.org/2000/svg">
<g clip-path="url(#clip0_248_9916)">
<path d="M77.6054 55.6538C77.6054 52.59 79.6638 50.7429 82.6819 50.7429H83.6196L83.3925 51.6811H82.7771C80.2499 51.6811 78.6163 53.147 78.6163 55.6538C78.6163 58.1605 80.2499 59.6924 82.7771 59.6924H83.3925L83.6196 60.6306H82.6819C79.6638 60.6306 77.6054 58.7835 77.6054 55.6538Z" fill="white"/>
<path d="M93.9631 58.6369H89.37L88.6375 60.6012H87.5826L91.6995 50.2298L95.8091 60.6012H94.7615L93.9631 58.6369ZM91.6336 52.7732L89.7363 57.6841H93.5968L91.6336 52.7732Z" fill="white"/>
<path d="M101.039 50.7429H102.966C103.902 50.7429 104.8 51.1151 105.463 51.7777C106.125 52.4402 106.497 53.3388 106.497 54.2758C106.497 55.2128 106.125 56.1114 105.463 56.7739C104.8 57.4364 103.902 57.8087 102.966 57.8087H102.014V60.6306H101.039V50.7429ZM102.014 56.8705H102.907C103.595 56.8705 104.255 56.5971 104.741 56.1105C105.227 55.6239 105.501 54.9639 105.501 54.2758C105.501 53.5876 105.227 52.9277 104.741 52.4411C104.255 51.9545 103.595 51.6811 102.907 51.6811H102.014V56.8705Z" fill="white"/>
<path d="M112.299 50.7429H113.266V60.6306H112.299V50.7429Z" fill="white"/>
<path d="M122.239 51.6811V60.6306H121.272V51.6811H118.906L118.672 50.7429H124.825L124.598 51.6811H122.239Z" fill="white"/>
<path d="M135.022 58.6369H130.436L129.704 60.6012H128.649L132.766 50.2298L136.875 60.6012H135.828L135.022 58.6369ZM132.685 52.7732L130.788 57.6841H134.648L132.685 52.7732Z" fill="white"/>
<path d="M142.113 50.7429H143.08V59.6924H146.384L146.611 60.6306H142.113V50.7429Z" fill="white"/>
<path d="M98.2558 35.7905H85.3264L83.3705 40.6061H78.1622L91.89 8.50968L105.574 40.6061H100.263L98.2558 35.7905ZM91.7435 19.9439L87.231 31.0263H96.3072L91.7435 19.9439Z" fill="white"/>
<path d="M117.104 14.8791V40.6061H112.079V14.8791H105.413L104.556 10.0123H124.605L123.799 14.8791H117.104Z" fill="white"/>
<path d="M127.125 25.2065C127.125 16.2351 133.388 9.5285 142.846 9.5285C152.303 9.5285 158.529 16.2498 158.529 25.2212C158.529 34.4052 151.863 41.1191 142.846 41.1191C133.828 41.1191 127.125 34.3905 127.125 25.2065ZM153.292 25.2065C153.292 19.1889 149.08 14.5273 142.816 14.5273C136.553 14.5273 132.341 19.1889 132.341 25.2065C132.341 31.4294 136.546 36.091 142.816 36.091C149.087 36.091 153.292 31.4294 153.292 25.2065Z" fill="white"/>
<path d="M164.822 10.0123H169.832V35.7392H179.158L180.007 40.6061H164.822V10.0123Z" fill="white"/>
<path d="M67.6795 25.3385C65.6284 17.4958 57.6437 11.4122 50.3915 7.16103C41.8208 2.11093 22.9432 -6.82387 7.53055 10.8258C0.586055 18.7125 -1.3332 30.0514 1.87533 39.9097C5.08386 49.7681 12.9953 57.9039 22.6429 62.6975C29.3017 65.9665 37.1545 67.7623 44.3847 65.8346C54.6622 63.086 61.321 53.6528 65.1962 44.2342C67.6209 38.2166 69.3204 31.6053 67.6795 25.3385ZM53.1386 56.7092C44.6191 62.0672 32.4955 61.8399 24.0933 56.3061C15.6911 50.7722 9.80142 40.2176 11.8745 30.8943C13.3396 24.2977 15.8888 17.3785 23.097 12.453C28.4299 8.78821 31.8289 8.55366 37.1399 9.52117C42.8976 10.6206 45.8131 12.4603 49.8128 14.8058C56.5742 18.8371 60.4054 24.4882 62.7935 31.5833C65.8481 40.672 61.658 51.3513 53.1386 56.7092Z" stroke="white" stroke-miterlimit="10"/>
</g>
<defs>
<clipPath id="clip0_248_9916">
<rect width="180" height="67" fill="white"/>
</clipPath>
</defs>
</svg>
