<svg width="1198" height="648" viewBox="0 0 1198 648" fill="none" xmlns="http://www.w3.org/2000/svg">
<path opacity="0.2" d="M498.84 338.781L458.127 384.642C426.762 415.952 386.821 437.262 343.349 445.879C299.878 454.497 254.827 450.035 213.891 433.057C172.954 416.08 137.969 387.349 113.356 350.495C88.7422 313.641 75.6055 270.318 75.6055 226.001C75.6055 181.683 88.7422 138.36 113.356 101.506C137.969 64.6524 172.954 35.9214 213.891 18.944C254.827 1.96654 299.878 -2.49539 343.349 6.12202C386.821 14.7394 426.762 36.0494 458.127 67.3592L739.844 384.642C771.209 415.952 811.15 437.262 854.622 445.879C898.093 454.497 943.144 450.035 984.08 433.057C1025.02 416.08 1060 387.349 1084.62 350.495C1109.23 313.641 1122.37 270.318 1122.37 226.001C1122.37 181.683 1109.23 138.36 1084.62 101.506C1060 64.6524 1025.02 35.9214 984.08 18.944C943.144 1.96654 898.093 -2.49539 854.622 6.12202C811.15 14.7394 771.209 36.0494 739.844 67.3592L699.131 113.22" stroke="white" stroke-width="2" stroke-linecap="round" stroke-linejoin="round" stroke-dasharray="0.1 8"/>
</svg>
