<svg width="345" height="345" viewBox="0 0 345 345" fill="none" xmlns="http://www.w3.org/2000/svg">
<path d="M143.657 204.979L131.932 218.186C122.9 227.202 111.397 233.339 98.8783 235.821C86.3594 238.302 73.3857 237.017 61.5968 232.128C49.808 227.239 39.7329 218.965 32.6447 208.352C25.5565 197.739 21.7734 185.263 21.7734 172.5C21.7734 159.738 25.5565 147.262 32.6447 136.648C39.7329 126.035 49.808 117.761 61.5968 112.872C73.3857 107.983 86.3594 106.698 98.8783 109.18C111.397 111.661 122.9 117.798 131.932 126.815L213.061 218.186C222.093 227.202 233.596 233.339 246.114 235.821C258.633 238.302 271.607 237.017 283.396 232.128C295.185 227.239 305.26 218.965 312.348 208.352C319.436 197.739 323.219 185.263 323.219 172.5C323.219 159.738 319.436 147.262 312.348 136.648C305.26 126.035 295.185 117.761 283.396 112.872C271.607 107.983 258.633 106.698 246.114 109.18C233.596 111.661 222.093 117.798 213.061 126.815L201.336 140.022" stroke="white" stroke-width="2" stroke-linecap="round" stroke-linejoin="round"/>
</svg>
