<svg width="180" height="180" viewBox="0 0 180 180" fill="none" xmlns="http://www.w3.org/2000/svg">
<g clip-path="url(#clip0_193_7067)">
<path d="M-6.73918 185.934H144.868C145.094 184.104 145.568 181.913 147.477 181.743C149.962 181.529 150.866 183.89 151.611 185.934H187.542L192.264 180.478C191.552 175.237 193.924 172.672 199.131 172.571C200.261 170.639 202.701 169.589 203.017 167.047C201.424 166.708 201.108 165.307 200.588 164.087C197.019 163.895 194.715 161.907 192.23 159.411C188.988 156.146 188.197 151.096 184.594 148.634C180.313 145.708 177.681 141.675 174.745 137.744C171.356 137.53 164.827 130.673 163.314 125.736L162.399 124.934C158.852 125.273 158.524 123.081 158.795 120.416L157.88 119.286L157.734 119.094C157.516 118.188 156.951 117.405 156.161 116.912C155.37 116.42 154.418 116.258 153.509 116.462C152.591 116.53 151.67 116.376 150.824 116.012C149.979 115.649 149.234 115.086 148.652 114.372C145.58 111.243 142.406 108.204 139.277 105.12L139.209 105.199C135.719 108.882 128.874 109.3 123.328 106.171C122.39 110.599 118.81 113.638 115.918 116.168C112.654 119.026 108.745 120.246 110.846 125.725C111.276 126.854 109.717 128.052 108.226 127.984C106.735 127.916 106.87 126.922 107.412 125.985C108.068 124.855 109.186 123.183 107.412 122.867C105.639 122.551 104.634 124.765 104.894 126.335C105.421 129.065 105.596 131.852 105.413 134.626C103.335 145.482 95.1004 152.701 89.3624 161.32C88.2328 163.014 86.3578 164.291 84.2004 162.314C73.978 160.054 69.4598 152.904 67.6751 143.336L67.4831 143.02C66.3536 142.421 66.3536 141.336 66.1277 140.286L65.9921 140.037L65.4612 138.908L65.2127 138.467C60.9769 131.689 59.565 123.917 57.4641 116.405C57.1139 111.593 53.1153 107.459 55.092 102.341V100.082L51.918 95.8008C48.8795 94.8632 46.0783 94.095 44.3952 98.1843C43.8982 99.393 41.7634 99.9239 40.3741 100.76C38.6233 103.347 42.8478 107.538 38.115 109.323C36.5449 114.632 31.1457 112.994 27.7571 114.971C28.2541 117.829 29.3158 120.992 24.1538 118.755C22.3804 117.998 20.144 118.314 17.93 118.122C18.4609 121.511 20.528 125.499 18.7094 127.837C14.4285 133.384 14.1913 142.071 6.10373 144.703C5.04196 145.042 5.51637 146.442 5.08714 147.041C2.03737 151.311 0.173626 156.891 -6.11793 157.806L-6.96509 170.334L-6.73918 185.934Z" fill="#0B274D"/>
<path d="M206.451 166.449C207.4 167.239 207.761 168.798 208.71 169.487C210.845 170.956 211.861 175.068 215.137 173.644C218.017 172.402 216.131 169.002 216.549 166.584L216.436 154.441V147.764L216.357 143.178V140.004L216.244 126.572L216.334 120.664V105.155C216.551 104.22 216.581 103.252 216.422 102.306C216.263 101.36 215.918 100.454 215.408 99.642C216.47 98.7044 216.368 97.507 216.176 96.2531C217.791 89.7916 214.843 85.7814 208.891 84.1547C204.915 83.025 205.05 80.0089 204.463 77.2413C203.875 74.4737 205.852 72.8922 208.168 71.7061C209.998 70.7685 212.053 69.7292 211.647 67.1875C211.116 63.889 215.239 64.9283 215.781 61.9008C208.326 63.2112 199.606 68.0235 196.42 56.1849C198.68 54.6373 198.092 50.7739 201.357 50.0058C203.254 51.4517 205.378 51.2258 207.524 50.8869C208.037 52.5105 209.141 53.8816 210.619 54.7277C213.917 56.8514 216.267 55.654 216.267 51.768C216.267 45.1145 217.17 38.3592 214.256 32.0107C215.756 30.1455 216.483 27.7765 216.289 25.391C216.334 20.1194 216.372 14.8478 216.402 9.57613C216.402 -4.56691 216.402 -18.7062 216.402 -32.8417C217.227 -37.9476 214.256 -38.761 210.19 -38.3091C207.083 -38.038 203.842 -39.2015 200.86 -37.4619H197.539C196.692 -38.6932 195.506 -38.2301 194.387 -38.1058C190.92 -36.9762 188.164 -34.2198 184.221 -34.1182C182.708 -34.1182 180.923 -33.463 180.155 -34.9315C177.342 -40.3086 174.993 -36.6599 173.378 -34.4006C168.891 -28.4201 166.125 -21.326 165.381 -13.8864C165.11 -11.1188 164.601 -8.37378 164.161 -5.62877C163.935 -4.2845 163.381 -2.80468 161.902 -2.84986C157.169 -2.97412 157.655 0.6633 158.513 2.86609C159.323 4.67086 159.741 6.62655 159.741 8.60464C159.741 10.5827 159.323 12.5384 158.513 14.3432C158.287 14.8289 158.92 15.6988 159.168 16.3878C158.897 17.1673 158.637 17.958 158.377 18.7488C155.633 20.7482 152.312 20.4771 149.217 21.1323L149.104 21.0645C148.132 18.4212 146.495 17.1334 143.524 18.1162C143.107 18.2917 142.66 18.3821 142.208 18.3821C141.756 18.3821 141.309 18.2917 140.892 18.1162C134.409 12.8069 135.753 19.1554 136.001 21.7423C136.464 26.4868 134.725 30.3501 132.613 34.2587C126.965 34.7783 121.848 32.9144 116.675 31.1409C113.467 27.5599 110.078 24.2162 105.526 22.3636C103.662 18.4325 99.4831 20.2399 96.6592 18.6358C94.4881 17.5336 92.0411 17.0937 89.6222 17.3706C79.1965 18.9521 70.5781 13.9817 61.8128 9.6439L60.7849 8.51427C60.254 8.1189 59.9265 7.99464 60.3331 8.84186V9.18075C60.1918 9.18455 60.054 9.2251 59.9332 9.29839C59.8124 9.37168 59.7127 9.47519 59.6441 9.59872C58.7066 9.09038 57.6561 8.69501 57.3285 7.50889C56.2216 4.0635 57.3511 2.8435 60.9769 2.93387C63.5184 2.93387 66.6247 4.31202 68.5336 1.11516H98.8053C99.9688 3.56647 102.262 2.93387 104.205 2.93387C112.8 3.01294 121.385 2.93387 129.981 3.00165C132.918 3.00165 136.419 2.30127 135.301 7.41852C135.198 7.7381 135.177 8.07849 135.24 8.40828C135.303 8.73807 135.448 9.04663 135.662 9.30551C135.876 9.56438 136.152 9.76523 136.464 9.88953C136.776 10.0138 137.114 10.0575 137.447 10.0167C139.051 9.74557 139.04 8.18668 138.791 6.83111C138.43 4.80907 138.034 2.80961 137.662 0.798859C137.855 0.550443 138.071 0.319832 138.305 0.109781C139.069 -0.402395 139.751 -1.02698 140.327 -1.74282C141.344 -3.45987 145.015 -3.47116 144.089 -5.82081C143.309 -7.78637 140.339 -7.58304 138.147 -7.67341C124.051 -7.83156 109.909 -7.91063 95.8685 -8.17045C80.439 -8.45286 64.9868 -7.56045 49.5573 -9.30008C47.9759 -9.46953 46.3042 -8.81434 44.6663 -8.54323L41.8199 -11.4125C42.9494 -13.4458 42.3395 -15.3323 41.3229 -17.1736C42.0345 -23.0252 39.798 -27.747 35.7542 -31.7685C35.6977 -32.3137 35.5996 -32.8537 35.4606 -33.3839C34.7715 -35.3156 35.1669 -38.3656 32.0719 -38.1736C28.6833 -37.9702 30.5357 -34.7847 29.8128 -32.9885C28.9996 -30.4017 27.9604 -28.3344 24.5605 -28.47C23.9097 -28.4368 23.2591 -28.5391 22.6499 -28.7703C22.0406 -29.0014 21.486 -29.3565 21.021 -29.813C20.556 -30.2696 20.1908 -30.8176 19.9485 -31.4226C19.7061 -32.0275 19.5919 -32.6761 19.6131 -33.3274C19.2629 -38.7384 15.9646 -38.8627 11.9774 -38.2188H5.88912L-7.85742 -38.5689C-7.4169 -40.9751 -5.59834 -39.6195 -4.46879 -39.6195C68.4432 -39.6986 141.355 -39.6195 214.256 -39.8341C218.424 -39.8341 217.916 -38.0493 217.916 -35.485C217.916 38.3178 217.916 112.121 217.916 185.924H210.065C207.14 181.292 201.357 179.485 198.77 174.503C198.894 173.848 199.018 173.204 199.154 172.549C200.283 170.617 202.723 169.566 203.04 167.025C203.796 164.72 205.321 165.511 206.451 166.449ZM90.8308 -30.0402L87.8488 -30.1306C86.8322 -32.5141 86.0415 -33.9374 82.5625 -32.7061C77.2988 -30.8422 71.5382 -32.0735 65.9921 -32.0284C63.733 -32.0284 61.5417 -31.8137 59.3165 -31.7008C55.4535 -31.8815 51.4097 -32.661 48.8795 -28.4926C48.3148 -25.0359 50.7885 -24.1774 53.2509 -24.1774C65.9243 -24.0192 78.5978 -24.087 91.2713 -24.087C91.9252 -24.0106 92.5858 -24.1562 93.1471 -24.5004C93.7084 -24.8445 94.1377 -25.3673 94.3662 -25.9848L95.8459 -28.6846C94.626 -31.9267 93.9031 -32.0848 90.8308 -30.0402Z" fill="#C4BCA9"/>
<path d="M-6.5811 96.0948C-1.36261 100.715 4.71433 98.9641 10.0458 97.2244C14.4397 95.7898 12.6324 90.7177 12.5872 87.0577C13.152 85.0018 11.6045 83.3638 11.4577 81.4095C13.6151 75.0271 11.0398 68.848 10.5993 62.5559L10.2265 55.7781V51.1918C10.3846 50.5705 10.5541 49.9379 10.7122 49.3053C11.164 46.7636 12.3839 44.4817 14.8576 43.7701C20.7764 42.0643 22.4707 35.2865 28.1749 33.208C29.858 32.5867 29.248 29.9659 27.3843 29.2316C23.1824 27.5937 24.3232 25.4474 25.1252 21.8551C26.5823 15.5856 25.2494 8.8982 23.6342 2.65131C22.1884 -3.10983 22.3352 -9.04042 21.4542 -14.8919C21.0136 -17.716 22.5837 -19.6025 25.6109 -19.5121C28.4009 -19.4331 31.5071 -20.5514 32.8287 -16.2701C34.2293 -11.7515 33.3821 -6.65689 36.4884 -2.62409C36.6126 -1.87853 36.7482 -1.14426 36.8837 -0.364814L36.4771 4.02947C33.3483 6.18707 34.8393 9.06764 35.2685 11.7675C35.2685 12.8971 35.3475 14.0832 35.3927 15.2468C33.9017 19.7653 34.7941 24.2838 34.828 28.8024L34.7602 33.2757V43.9056C33.3257 45.3628 33.3031 47.1477 33.6306 49.0116L34.0034 50.514C33.9727 50.6853 34.002 50.862 34.0863 51.0143C34.1707 51.1666 34.305 51.2851 34.4665 51.3499L34.5682 53.4397L34.2519 56.8286C34.001 57.1887 33.8809 57.6238 33.9117 58.0616C33.9426 58.4994 34.1224 58.9134 34.4213 59.2348C34.4213 59.8787 34.523 60.5226 34.5908 61.1777C33.6193 69.9889 32.919 78.7888 35.4944 87.4757C36.0027 89.1927 36.6239 90.9888 35.2233 92.864C31.9363 91.5762 28.446 86.6623 25.3059 92.864L24.9557 93.2029C23.3744 93.587 22.5724 94.4907 22.979 96.1851C23.2275 97.2131 23.476 98.2298 23.7358 99.2578C22.6063 101.788 23.0694 103.381 26.1644 102.556C29.2593 101.732 31.9363 100.568 34.8167 99.5402V99.2013C36.4432 99.5854 38.4651 99.6079 37.4146 102.251C34.2519 104.036 31.3716 106.77 27.2487 105.256C26.9808 105.183 26.6992 105.176 26.4279 105.235C26.1566 105.294 25.9034 105.417 25.6899 105.595C21.2057 112.102 12.3613 112.249 7.65114 118.224C5.83258 120.484 2.94095 120.212 0.873883 121.613C-1.3852 122.381 -4.3559 121.015 -6.00504 123.782L-7.84619 124.132V96.1174L-6.5811 96.0948ZM-5.28213 116.428C-5.28213 117.84 -4.15258 118.349 -3.02304 118.213C-1.53204 118.066 0.207452 117.739 0.489838 116.022C0.817406 114.09 -0.978568 114.316 -2.142 114.101C-3.74595 114.18 -5.28213 114.395 -5.28213 116.451V116.428Z" fill="#C4BCA9"/>
<path d="M10.7574 49.3504C11.2093 46.8087 12.4292 44.5269 14.9029 43.8152C20.8217 42.1095 22.516 35.3316 28.2202 33.2531C29.9032 32.6318 29.2933 30.0111 27.4295 29.2768C23.2276 27.6388 24.3684 25.4925 25.1704 21.9003C26.6275 15.6308 25.2947 8.94335 23.6794 2.69647C22.1884 -3.10986 22.3353 -9.04045 21.4542 -14.892C21.0137 -17.7161 22.5838 -19.6025 25.6109 -19.5122C28.4009 -19.4331 31.5072 -20.5514 32.8287 -16.2701C34.2294 -11.7516 33.3822 -6.65692 36.4884 -2.62412C37.037 -4.98925 36.967 -7.45582 36.2851 -9.78601C35.0991 -14.8016 33.337 -19.7946 35.0539 -25.0587C29.1916 -24.9796 32.4108 -30.9102 29.8128 -32.9661C28.9996 -30.3793 27.9604 -28.312 24.5605 -28.4476C23.9097 -28.4144 23.2591 -28.5167 22.6499 -28.7478C22.0406 -28.979 21.486 -29.3341 21.021 -29.7906C20.556 -30.2472 20.1908 -30.7952 19.9485 -31.4001C19.7061 -32.0051 19.5919 -32.6537 19.6131 -33.305C19.2629 -38.716 15.9646 -38.8402 11.9774 -38.1964C10.1588 -28.538 2.56826 -23.0479 -3.64423 -16.4735C-4.26548 -15.8183 -5.15781 -15.1292 -6.03886 -15.9877C-6.9199 -16.8462 -6.35513 -17.7386 -5.77906 -18.5294C-4.09604 -20.7887 -2.30007 -22.8672 -0.662232 -25.1152C2.26328 -29.1141 5.88912 -32.7967 5.88912 -38.2641L-7.85742 -38.6143V46.7297C-4.00568 46.1988 -3.26018 48.2886 -3.13593 51.6662C-2.78577 61.2681 -4.26548 70.87 -2.32266 80.4719C-0.876845 78.6984 -1.37384 76.5634 -1.19312 74.5526C-0.933323 71.0507 -1.9725 67.4246 -0.0635743 64.1148C-2.20971 58.0712 -0.741301 51.8582 -0.922027 45.7243C-2.37914 42.0078 -4.96579 38.8561 -5.90331 34.8346C-6.66011 31.6151 -6.58104 29.8642 -2.80836 28.5764C4.81605 25.967 12.1694 27.7857 19.6357 28.7685C21.6575 29.0283 24.5492 29.1977 24.6169 31.4457C24.6847 33.9196 21.5559 33.8405 19.7373 34.1003C15.0836 34.7781 10.4751 35.23 6.84923 38.7544C4.74828 40.7878 2.33106 42.7985 7.58343 43.6571C8.55484 43.8152 9.59402 43.8491 9.59402 45.0465C9.59402 46.2439 8.54354 46.3343 7.54955 46.3908C6.26187 46.4699 4.98548 46.6732 3.6978 46.82L4.34164 49.3165L10.7574 49.3504Z" fill="#959793"/>
<path d="M37.4034 102.342C34.2407 104.126 31.3603 106.86 27.2375 105.346C26.9696 105.273 26.688 105.266 26.4167 105.325C26.1453 105.384 25.8922 105.508 25.6787 105.685C21.2057 112.102 12.3614 112.248 7.65121 118.224C5.83264 120.483 2.94101 120.212 0.873946 121.613C1.74369 123.206 0.873946 124.189 -0.323369 125.07C-1.56587 126.945 -2.05157 129.385 -4.40102 130.436C-5.23688 131.644 -6.66011 131.565 -7.85742 131.994V147.753C-6.83021 147.701 -5.83837 147.361 -4.9954 146.772C-4.15242 146.182 -3.49236 145.367 -3.09075 144.42C-2.24359 142.489 -1.02369 140.783 1.57426 141.404L2.70381 140.602C4.59014 133.587 8.61132 127.939 13.8411 123.036C15.1627 121.229 13.6491 117.908 16.4165 117.106C20.0536 116.055 23.8827 115.626 27.6215 114.937C31.0102 112.926 36.4094 114.564 37.9681 109.289C35.7655 107.109 40.408 104.397 37.4034 102.342Z" fill="#959793"/>
<path d="M27.6216 114.937C23.8828 115.627 20.0536 116.067 16.4165 117.106C13.6491 117.908 15.1627 121.23 13.8412 123.037C17.0039 123.387 17.5799 124.867 14.9707 126.674C11.7628 128.934 10.0572 132.243 8.39676 135.384C7.00742 138.038 5.47124 139.789 2.74904 140.603L1.6195 141.405C0.376998 146.895 -0.933272 152.328 -7.82349 153.356V154.486C-6.52451 155.209 -6.69394 156.621 -6.21953 157.773C0.0720217 156.858 1.93577 151.278 4.98553 147.008C5.41476 146.409 4.98553 145.008 6.00212 144.669C14.1235 142.037 14.3269 133.373 18.6078 127.804C20.4264 125.466 18.3593 121.489 17.8284 118.089C20.0875 118.281 22.2788 117.965 24.0522 118.722C29.1804 120.958 28.1186 117.795 27.6216 114.937Z" fill="#625952"/>
<path d="M-7.85742 153.357C-0.967208 152.329 0.343062 146.895 1.58556 141.405C-1.02369 140.784 -2.24359 142.535 -3.09075 144.421C-3.49236 145.368 -4.15242 146.183 -4.9954 146.772C-5.83837 147.362 -6.83021 147.702 -7.85742 147.754V153.357Z" fill="#7E7C70"/>
<path d="M164.658 5.32924C163.957 3.19423 165.787 2.64071 167.369 3.23941C169.681 3.96184 171.868 5.03631 173.852 6.42499C177.388 9.1813 180.155 9.12482 182.505 5.12591C182.832 10.1754 183.634 15.1006 186.548 19.4158C187.678 21.0651 187.757 22.4771 185.611 23.3582C185.396 19.8225 182.098 17.8795 181.16 14.5584C180.562 12.3895 177.659 12.5476 175.727 13.2932C173.141 14.2985 174.067 16.2302 175.208 17.8117C175.754 18.5819 176.127 19.4616 176.301 20.3899C176.474 21.3182 176.444 22.2731 176.213 23.1888C173.954 32.2259 177.614 41.7148 173.694 50.5824C171.537 55.4399 174.428 60.5119 173.389 65.5049C173.073 66.9735 174.666 67.3349 176.168 67.4027C179.263 67.604 182.165 68.978 184.283 71.2448C186.401 73.5116 187.574 76.5006 187.565 79.6028C187.565 84.1213 187.17 88.5608 189.903 92.5258C186.413 93.1471 181.759 91.1138 180.652 97.0444C179.037 105.551 180.788 107.482 189.485 106.42C190.404 106.405 191.321 106.496 192.219 106.691C189.361 109.222 190.728 112.34 190.987 115.311C191.157 117.254 193.247 119.581 190.084 121.038C189.271 119.468 188.356 118.282 186.345 119.513C183.826 121.06 185.091 123.275 185.215 125.308C182.03 123.297 178.28 122.032 176.292 118.53C178.834 113.56 176.891 108.68 175.84 103.845C175.434 101.981 173.864 100.377 171.65 101.913C168.95 103.788 163.957 101.393 163.065 106.499C162.173 111.605 166.002 113.108 169.436 115.039C170.113 115.424 170.351 116.576 170.791 117.378C166.714 115.83 161.506 118.157 158.287 113.706C158.389 117.705 158.389 117.705 162.873 120.179L165.979 125.172L163.28 125.771L162.399 124.935C161.992 122.777 160.433 121.546 158.795 120.417L157.881 119.287L157.734 119.095C157.516 118.189 156.951 117.406 156.161 116.913C155.37 116.421 154.418 116.259 153.509 116.463C152.591 116.531 151.67 116.377 150.824 116.013C149.979 115.65 149.234 115.087 148.652 114.373C145.58 111.244 142.406 108.205 139.277 105.121L138.983 104.895L139.209 105.2C135.719 108.883 128.874 109.301 123.328 106.172C123.118 105.288 123.214 104.359 123.602 103.538C123.991 102.717 124.647 102.052 125.463 101.653C126.287 101.236 126.953 100.562 127.361 99.7321C127.768 98.9028 127.895 97.9634 127.722 97.0557C127.869 93.7345 128.027 90.4134 128.174 87.0923L130.964 86.8664C129.847 90.9826 129.367 95.2455 129.54 99.507C129.54 101.766 130.579 103.009 132.929 102.783C137.696 102.32 142.462 103.043 147.297 102.263C151.397 101.608 152.798 99.9136 152.526 96.1407C152.47 93.5312 154.514 90.0519 149.748 89.3628C146.178 88.2332 142.62 87.7136 139.13 89.6565L135.741 89.8599C133.29 86.6856 136.487 83.4774 135.741 80.2919C137.402 80.4387 139.13 79.0267 140.734 80.6872C141.073 82.0654 141.412 83.4323 141.739 84.8104L142.304 85.9401L142.767 85.0363L144.913 85.1493C146.845 88.0751 148.844 87.7023 149.172 84.4828C149.499 81.2634 151.431 76.6883 144.959 75.7055C140.813 75.073 143.196 70.8368 142.779 68.1822C146.947 68.1144 151.115 67.9562 155.283 68.0127C159.067 68.0127 161.224 66.499 160.23 62.6131C159.315 59.0208 161.134 57.0327 163.867 56.0951C166.804 55.0671 167.448 53.2936 167.38 50.605C167.267 45.7476 167.38 40.8902 167.233 36.0327C167.086 31.4125 166.036 27.1764 161.36 24.8606C158.818 23.5955 158.185 21.3588 158.479 18.7267C158.75 17.936 159.01 17.1452 159.27 16.3658C162.704 13.5078 166.522 10.9548 164.658 5.32924ZM154.492 107.765C152.391 104.602 149.375 104.556 146.201 105.505C146.024 105.565 145.869 105.674 145.753 105.82C145.638 105.967 145.567 106.144 145.551 106.329C145.534 106.515 145.571 106.701 145.659 106.866C145.746 107.031 145.88 107.166 146.043 107.256C148.878 108.668 151.103 112.837 155.079 109.516C160.241 107.753 161.631 104.669 158.818 101.247C158.208 100.501 157.508 99.8685 156.491 100.365C156.269 100.435 156.065 100.554 155.896 100.713C155.726 100.873 155.595 101.069 155.513 101.286C155.43 101.504 155.398 101.738 155.419 101.969C155.439 102.201 155.513 102.425 155.633 102.625C156.954 104.737 157.191 106.68 155.316 108.567C155.021 108.34 154.762 108.07 154.548 107.765H154.492ZM156.751 95.0901C156.932 97.259 159.609 97.7899 160.761 95.4177C162.094 92.6727 163.709 89.5888 161.89 86.3806C160.332 83.7373 158.411 81.3085 156.141 78.0552C153.735 84.4376 156.31 89.7808 156.751 95.0901ZM163.031 21.7767C164.985 21.6751 166.826 21.1103 167.052 18.7945C167.211 17.0887 165.923 16.6369 164.466 16.6256C162.433 16.6256 161.552 17.9473 161.077 19.5062C160.975 21.099 161.676 21.8558 163.02 21.7767H163.031Z" fill="#7E7C70"/>
<path d="M123.316 106.092C123.106 105.208 123.203 104.279 123.591 103.458C123.979 102.637 124.635 101.972 125.451 101.573C126.276 101.156 126.942 100.482 127.349 99.6522C127.757 98.8228 127.884 97.8834 127.71 96.9757C122.944 98.6588 125.847 93.4399 123.825 92.6492C122.902 94.2525 122.401 96.0636 122.368 97.9133C122.063 105.527 118.753 110.859 111.072 112.824C110.304 116.01 107.763 114.926 105.707 115.084C104.498 117.772 103.29 120.472 102.07 123.161C101.968 124.415 102.838 126.482 100.093 125.533L98.7376 125.284C92.2427 128.594 84.6409 125.951 82.619 119.636L81.9412 117.23L81.2635 116.372C81.1923 116.188 81.0932 116.017 80.9698 115.863C78.8689 115.197 77.5812 112.937 75.3221 112.723L75.1414 112.892L74.6105 113.864L74.3394 112.971C74.1693 112.445 73.8484 111.981 73.4167 111.635C72.985 111.29 72.4614 111.079 71.9109 111.028L70.8378 111.39L66.3874 110.464C66.1059 110.505 65.8189 110.489 65.5434 110.418C65.2679 110.347 65.0094 110.221 64.7831 110.049C64.5569 109.876 64.3674 109.66 64.2259 109.413C64.0843 109.166 63.9936 108.893 63.9589 108.611L63.8912 108.532C63.5179 108.461 63.1647 108.31 62.8567 108.087C62.5487 107.865 62.2934 107.578 62.1091 107.245C61.9247 106.913 61.8157 106.545 61.7899 106.166C61.7641 105.787 61.822 105.407 61.9596 105.053L61.7563 102.872C61.4603 102.75 61.1485 102.67 60.8301 102.635L55.0129 100.003V102.262C56.5604 107.041 59.7457 111.175 60.5138 116.27C60.8273 116.366 61.1485 116.434 61.4739 116.473C63.541 112.61 67.2346 114.542 69.5615 115.152C71.6737 115.694 73.6391 118.213 73.289 121.749C72.5435 129.295 83.0708 136.05 90.0853 133.644C93.1011 132.616 97.5854 131.317 100.251 135.598C101.77 134.63 103.583 134.229 105.368 134.468C105.551 131.694 105.376 128.907 104.848 126.177C104.589 124.607 105.673 122.415 107.367 122.709C109.062 123.002 108.056 124.697 107.367 125.827C106.825 126.764 106.848 127.758 108.181 127.826C109.513 127.894 111.23 126.696 110.801 125.567C108.7 120.088 112.608 118.868 115.873 116.01C118.787 113.559 122.379 110.52 123.316 106.092Z" fill="#625952"/>
<path d="M105.368 134.536C103.583 134.297 101.77 134.697 100.251 135.666L97.45 137.462C94.4454 142.41 90.0176 142.545 85.0928 141.212C82.6191 140.535 79.5919 140.467 80.9361 136.49H80.8683C78.9933 136.592 76.9714 136.965 76.4631 134.299C73.6844 131.723 71.5157 128.504 68.1948 126.516C62.8069 129.385 64.6255 134.084 65.1677 138.456L65.4162 138.885L65.9471 140.015L66.0826 140.263C66.574 140.511 66.9717 140.911 67.2162 141.404C67.4606 141.897 67.5384 142.456 67.438 142.997L67.6301 143.313C72.1482 146.115 74.6671 151.436 80.2584 153.04C87.7133 155.175 87.6908 155.401 84.1553 162.291C86.3127 164.268 88.1991 162.992 89.3173 161.297C95.0554 152.565 103.29 145.392 105.368 134.536Z" fill="#B78777"/>
<path d="M174.745 137.711C177.681 141.642 180.313 145.675 184.594 148.6C188.197 151.063 188.988 156.113 192.23 159.377C194.715 161.874 197.019 163.896 200.589 164.054C199.244 160.371 203.537 157.366 201.865 153.627C201.633 153.492 201.382 153.393 201.119 153.334C200.374 154.96 202.249 158.112 199.323 158.18C197.256 158.18 196.613 155.548 196.466 153.424C196.375 151.944 196.364 150.419 194.5 149.933C193.823 152.294 192.399 152.193 190.829 150.928C188.186 148.725 185.261 146.714 184.278 143.099L175.355 134.559L174.745 137.711Z" fill="#7E7C70"/>
<path d="M37.4033 102.342C40.4418 104.432 35.7655 107.143 37.9681 109.289C42.7574 107.516 38.5329 103.314 40.2837 100.727L39.3349 96.6939L38.8943 93C35.5057 84.9344 36.1044 76.3944 35.9236 67.9334C35.8672 65.6741 36.6804 63.0647 34.5456 61.1556C33.5742 69.9667 32.8739 78.7666 35.4492 87.4535C35.9575 89.1705 36.5788 90.9667 35.1781 92.8419C31.8912 91.5541 28.4009 86.6402 25.2607 92.8419C30.1968 92.3109 34.0712 93.3841 34.8054 99.1791C36.4319 99.6423 38.4538 99.6649 37.4033 102.342Z" fill="#7E7C70"/>
<path d="M84.1551 162.213C87.6906 155.322 87.7132 155.097 80.2582 152.962C74.6105 151.357 72.1706 146.037 67.6299 143.235C69.4146 152.815 73.9327 159.954 84.1551 162.213Z" fill="#7E7C70"/>
<path d="M65.1676 138.411C64.6254 134.039 62.8069 129.374 68.1948 126.471C67.6752 125.341 67.2234 124.211 65.755 124.098C65.0321 124.46 64.8513 124.268 65.2128 123.556C63.8009 121.297 61.5079 119.535 61.4966 116.541C61.1712 116.502 60.8499 116.434 60.5365 116.338H57.4189C59.6103 123.861 60.9318 131.644 65.1676 138.411Z" fill="#7E7C70"/>
<path d="M55.0017 100.013L60.8188 102.645C59.9265 98.658 62.4453 92.8748 55.2953 92.1631L54.29 94.0947L51.8276 95.7325L55.0017 100.013Z" fill="#7E7C70"/>
<path d="M174.744 137.71C174.948 136.66 175.151 135.609 175.343 134.559C175.251 134.333 175.104 134.135 174.914 133.983L174.473 133.87L174.36 133.429C174.201 133.219 174.001 133.042 173.773 132.909C170.633 131.78 167.504 130.65 167.674 126.471L166.013 125.104L163.313 125.702C164.827 130.639 171.356 137.496 174.744 137.71Z" fill="#625952"/>
<path d="M51.8275 95.7335L54.2786 94.0957C53.3753 94.0643 52.488 93.8475 51.6719 93.4589C50.8558 93.0703 50.1283 92.5181 49.5345 91.8366C45.3778 91.9157 43.3333 96.3548 39.3687 96.7727L40.3175 100.726C41.7068 99.8903 43.8416 99.3594 44.3386 98.1508C45.9878 94.0279 48.789 94.796 51.8275 95.7335Z" fill="#959793"/>
<path d="M57.419 116.349H60.5365C59.7684 111.254 56.5831 107.12 55.0356 102.342C53.1154 107.459 57.114 111.593 57.419 116.349Z" fill="#B78777"/>
<path d="M162.399 124.934C161.992 122.776 160.433 121.545 158.795 120.415C158.513 123.025 158.84 125.216 162.399 124.934Z" fill="#625952"/>
<path d="M67.438 142.929C67.5384 142.388 67.4605 141.829 67.2161 141.336C66.9717 140.843 66.5739 140.443 66.0825 140.196C66.2632 141.246 66.3875 142.33 67.438 142.929Z" fill="#7E7C70"/>
<path d="M65.9469 139.948L65.416 138.818C65.5967 139.214 65.7775 139.62 65.9469 139.948Z" fill="#7E7C70"/>
<path d="M157.881 119.207L157.734 119.015L157.881 119.207Z" fill="#625952"/>
<path d="M184.278 45.1934C182.459 45.939 179.41 45.4419 180.81 49.1923C181.77 51.7905 180.11 55.9701 185.249 55.7442C186.729 55.6651 188.22 55.7442 189.7 55.7442L196.545 56.1509C199.73 67.9895 208.45 63.1772 215.905 61.8668C215.363 64.8604 211.24 63.855 211.771 67.1535C212.178 69.7065 210.122 70.7458 208.292 71.6721C206.033 72.8017 203.966 74.2815 204.587 77.2073C205.208 80.133 205.039 83.0362 209.015 84.1207C214.968 85.7473 217.916 89.7688 216.3 96.2191C215.419 96.0473 214.511 96.0674 213.637 96.2779C212.764 96.4884 211.947 96.8844 211.24 97.4391C210.551 94.8183 209.41 91.7909 206.383 92.4461C203.164 93.1351 202.994 96.4676 203.356 99.4046L200.848 99.5741C198.939 99.303 197.234 97.97 195.201 98.5574C194.938 98.4459 194.685 98.3137 194.444 98.162C194.38 97.5846 194.122 97.046 193.711 96.6353C193.301 96.2245 192.762 95.9661 192.185 95.9028L189.926 92.4461C187.192 88.481 187.542 84.0077 187.587 79.523C187.597 76.4209 186.423 73.4319 184.306 71.165C182.188 68.8982 179.286 67.5242 176.19 67.323C174.688 67.2552 173.095 66.8937 173.412 65.4252C174.451 60.4322 171.559 55.3601 173.717 50.5027C177.636 41.6351 173.976 32.1235 176.236 23.109C176.467 22.1934 176.497 21.2384 176.323 20.3101C176.15 19.3818 175.777 18.5022 175.23 17.732C174.101 16.1166 173.163 14.1849 175.75 13.2134C177.681 12.4679 180.584 12.3097 181.183 14.4786C182.121 17.7997 185.419 19.7427 185.633 23.2785L184.594 23.7416C183.047 23.2333 180.923 23.2107 181.206 25.0746C181.861 29.0509 181.477 33.5808 185.261 36.5065C185.462 36.8189 185.611 37.1624 185.701 37.5232L185.837 38.7884C185.837 39.5452 185.837 40.3021 185.837 41.0476C185.297 41.5879 184.878 42.2372 184.61 42.9522C184.341 43.6671 184.228 44.4312 184.278 45.1934ZM184.99 61.6748C185.026 61.4037 185 61.1278 184.913 60.8683C184.826 60.6089 184.682 60.3726 184.49 60.1775C184.298 59.9825 184.064 59.8338 183.807 59.7429C183.549 59.6519 183.273 59.6211 183.002 59.6527C182.725 59.6531 182.453 59.7163 182.205 59.8376C181.957 59.9589 181.74 60.1352 181.57 60.3529C181.4 60.5706 181.282 60.8242 181.225 61.0943C181.168 61.3645 181.173 61.6441 181.239 61.912C181.364 62.9174 182.188 63.358 183.216 63.3241C184.244 63.2902 184.99 62.8044 184.99 61.6748Z" fill="#959793"/>
<path d="M114.63 33.0723L113.501 35.5236H110.112H110.169C108.542 32.7221 105.763 33.4225 103.278 33.2643C100.793 33.1062 98.3535 33.2643 97.8227 30.011C95.5636 30.0675 93.5191 24.0126 91.0454 29.7625C90.1192 34.6312 87.2049 34.3714 83.7485 32.5414C82.4496 31.8636 81.0376 30.4289 79.7613 31.6715C78.4849 32.9141 80.4277 33.7275 81.0489 34.699C81.3087 35.1056 81.5572 35.9868 81.3539 36.1788C77.0391 40.3359 81.3539 42.0303 83.2967 44.9787C85.6914 48.6161 88.9444 48.2546 92.2427 49.2148C96.4672 50.4235 100.15 47.7011 104.781 49.2148C107.458 50.0846 114.065 47.3509 117.059 43.5666C120.21 39.5451 114.8 38.1782 113.489 35.5123H116.392C120.504 37.5682 126.005 37.331 128.083 42.7646C128.829 44.7301 130.738 44.572 132.421 44.5607L147.545 44.3574C151.6 46.515 150.019 48.0174 146.879 49.0115C145.465 49.2811 144.024 49.3797 142.586 49.3052C139.921 51.0109 136.758 50.977 133.855 51.8694C133.241 52.0877 132.689 52.453 132.248 52.9334C131.807 53.4138 131.49 53.9948 131.325 54.6257L130.195 54.2417C130.154 54.0629 130.124 53.8818 130.105 53.6994C130.026 51.7452 130.478 49.5537 127.959 48.6387C127.134 48.345 126.321 48.6387 126.332 49.4746C126.332 51.9485 126.841 54.2756 130.071 54.4111L129.924 57.8L124.683 60.2965C124.828 56.4863 124.118 52.6921 122.605 49.1922C121.95 47.5429 121.08 46.8313 119.363 47.2944L97.8678 58.2858L91.8248 57.1561C91.0567 55.8909 89.9836 55.8683 88.7637 56.3993C83.5226 54.6709 78.756 51.1239 72.7807 52.31L70.3183 51.892C69.7317 51.1676 68.9411 50.636 68.049 50.3661C67.1568 50.0962 66.2041 50.1004 65.3144 50.3783C63.846 48.119 61.5643 46.1535 61.9258 43.1712C62.1404 40.991 60.1637 37.7716 65.3144 37.7264C67.9575 37.7264 67.0878 33.479 67.4492 31.0502C69.7083 30.9599 71.4591 30.1578 71.9674 27.6613C73.6617 27.4919 75.2544 27.1869 76.2258 25.515C78.5865 21.437 81.3539 23.3913 83.421 25.515C85.488 27.6387 87.2501 28.1245 88.5039 25.3117C89.7577 22.4989 92.8527 23.3913 94.2985 21.437C98.1389 21.0982 101.708 24.4306 105.684 22.2843C110.202 24.1369 113.591 27.4806 116.833 31.0615L114.63 33.0723ZM73.9667 34.6651C68.3981 34.8797 70.2166 40.0421 68.319 42.6516C67.5057 43.7812 69.7309 44.8318 71.8432 45.6112C71.4365 41.3412 73.4358 38.2121 73.9328 34.6651H73.9667Z" fill="#625952"/>
<path d="M68.5335 1.08083H98.8053C111.75 0.211007 124.706 0.854899 137.662 0.798417C137.852 0.553974 138.063 0.327132 138.294 0.120635C137.91 -2.46623 141.773 -5.14347 138.147 -7.67385C124.051 -7.832 109.909 -7.91107 95.8685 -8.17089C80.4389 -8.4533 64.9867 -7.56089 49.5572 -9.30053C47.9758 -9.46997 46.3041 -8.81478 44.6663 -8.54367C45.9201 -5.69699 48.5293 -6.20532 50.89 -5.9681C52.4036 -5.82125 54.8434 -6.80403 55.0694 -4.56735C55.2614 -2.72605 52.9232 -2.30808 51.3532 -1.84493C49.7831 -1.38178 47.6708 -0.941221 47.8516 1.05823C47.8583 2.09819 48.2598 3.09676 48.9749 3.8518C49.6901 4.60683 50.6653 5.06191 51.7033 5.12492C51.2967 2.05231 52.5957 0.606379 55.7358 0.719343C60.028 0.877492 64.2864 0.956566 68.5335 1.08083Z" fill="#7E7C70"/>
<path d="M71.8884 27.6616C73.5827 27.4921 75.1754 27.1871 76.1468 25.5153C78.5075 21.4373 81.2749 23.3916 83.342 25.5153C85.409 27.639 87.1711 28.1247 88.4249 25.3119C89.6787 22.4992 92.7737 23.3916 94.2308 21.4486C93.4175 21.1436 91.8813 20.7708 91.9039 20.5562C92.0282 19.3023 93.1803 20.0478 93.8806 19.901C94.9338 19.847 95.9271 19.3948 96.6593 18.6358C94.4882 17.5336 92.0412 17.0937 89.6222 17.3706C79.1966 18.9521 70.5781 13.9817 61.8129 9.6439L60.288 9.12426C60.1467 9.12806 60.0089 9.1686 59.8881 9.2419C59.7673 9.31519 59.6676 9.4187 59.599 9.54223C60.8415 13.8348 58.5598 12.6261 56.1426 11.9258C50.0204 10.1635 44.0903 5.38517 37.4035 10.412L35.2686 11.7337C35.2686 12.8634 35.3477 14.0495 35.3929 15.213C35.6414 19.7315 36.8726 24.3631 34.8281 28.7686C34.8281 30.2598 34.8281 31.7396 34.749 33.2307C38.7363 30.5873 42.893 28.5201 47.8856 28.859C49.5595 29.0257 51.2495 28.8228 52.8363 28.2646C54.4231 27.7063 55.868 26.8063 57.0688 25.6282C58.8422 23.9338 60.6946 23.6175 61.8581 26.4416C64.2259 26.7113 66.6101 26.1001 68.5562 24.7245C69.5728 24.0355 70.612 22.9736 71.9449 24.1258C73.2777 25.2781 72.3289 26.4416 71.8771 27.5825L71.8884 27.6616Z" fill="#7E7C70"/>
<path d="M132.692 34.1912C134.759 30.2826 136.498 26.4193 136.08 21.6748C135.832 19.088 134.488 12.7394 140.971 18.0487C141.388 18.2242 141.835 18.3147 142.287 18.3147C142.739 18.3147 143.187 18.2242 143.603 18.0487C146.574 17.0659 148.212 18.3537 149.183 20.997L142.846 21.4037C141.095 20.997 138.802 20.2741 138.531 22.8045C138.204 25.8319 140.79 25.3235 142.711 25.0637C146.099 25.5608 149.115 25.6398 149.296 21.0196C152.391 20.3644 155.712 20.6356 158.445 18.6361C158.152 21.2681 158.784 23.5048 161.326 24.77C166.002 27.0858 167.052 31.3219 167.199 35.9421C167.346 40.7996 167.199 45.657 167.346 50.5144C167.414 53.203 166.77 55.033 163.833 56.0045C161.1 56.942 159.315 58.9302 160.196 62.5225C161.19 66.4084 159.066 67.9673 155.249 67.9221C151.081 67.8656 146.913 68.0238 142.745 68.0916L142.372 60.3761L142.236 52.2654L142.541 49.204C143.979 49.2786 145.42 49.18 146.834 48.9103C149.974 47.9163 151.555 46.4138 147.5 44.2562C144.586 37.9529 137.007 38.4499 132.692 34.1912ZM157.779 61.1782C159.394 51.3504 157.463 41.6016 158.502 31.8077C159.021 26.9502 155.057 26.5435 151.25 26.5774C147.014 26.5774 147.037 29.2434 147.5 32.3047C148.121 36.281 149.465 39.8055 152.752 42.4714C154.639 43.9851 156.412 45.7022 156.084 48.5376C155.892 50.2885 156.084 51.5311 153.249 50.9776C147.681 49.8479 147.048 53.6887 147.184 58.1508C147.387 65.0189 147.771 65.7532 152.99 65.7645C156.254 65.9339 157.135 65.0641 157.779 61.1782Z" fill="#B78777"/>
<path d="M177.693 -23.8608C176.405 -22.268 174.202 -21.8388 172.101 -21.6015C170.001 -21.3643 168.397 -20.3025 168.86 -17.998C169.323 -15.6935 171.435 -16.1341 173.005 -16.2697C175.58 -16.5069 178.653 -20.1782 180.494 -15.558C181.556 -12.9259 180.81 -10.2713 179.5 -7.54887C178.032 -4.48756 177.433 -0.940501 181.849 0.810434C182.087 2.24507 182.313 3.69101 182.538 5.13694C180.189 9.13585 177.422 9.19233 173.886 6.43602C171.901 5.04734 169.715 3.97287 167.403 3.25045C165.787 2.65174 164.014 3.25045 164.692 5.34028C166.522 10.9885 162.704 13.5188 159.202 16.3542C158.954 15.6651 158.321 14.7953 158.547 14.3096C159.357 12.5048 159.775 10.5491 159.775 8.57103C159.775 6.59294 159.357 4.63725 158.547 2.83248C157.7 0.629693 157.214 -3.00773 161.936 -2.88347C163.438 -2.88347 163.991 -4.31811 164.195 -5.66238C164.635 -8.40739 165.144 -11.1524 165.415 -13.92C166.159 -21.3596 168.925 -28.4537 173.412 -34.4342C175.072 -36.6935 177.422 -40.3422 180.189 -34.9651C180.957 -33.4966 182.742 -34.1179 184.255 -34.1518C188.186 -34.2535 190.942 -37.0324 194.421 -38.1394C193.71 -35.4735 189.011 -32.2201 195.551 -30.616L196.872 -26.8205L189.587 -26.0636L186.594 -25.849C183.273 -27.0464 180.279 -27.0238 177.693 -23.8608ZM167.662 -7.08572C167.73 -5.41386 168.939 -4.962 170.351 -5.22182C172.09 -5.52682 173.502 -6.49831 173.446 -8.41869C173.446 -9.72907 172.237 -10.068 170.927 -9.90981C169.504 -9.49184 167.572 -9.35628 167.662 -7.08572Z" fill="#959793"/>
<path d="M37.4035 10.4119C44.0904 5.38502 50.0205 10.1634 56.1426 11.9708C58.5598 12.6712 60.8415 13.8799 59.599 9.58726C58.6615 9.07893 57.611 8.68356 57.2834 7.49744C55.0921 7.45225 53.5221 6.0628 51.7035 5.1252C50.6693 5.06538 49.696 4.61627 48.9794 3.86814C48.2628 3.12001 47.8558 2.12832 47.8405 1.0924C47.7049 -0.907051 49.7155 -1.34761 51.3872 -1.81076C53.0589 -2.27391 55.2954 -2.71447 55.0921 -4.53318C54.8662 -6.79246 52.4264 -5.78708 50.9128 -5.93393C48.5521 -6.17116 45.9428 -5.66282 44.689 -8.5095C43.7967 -9.49228 42.7801 -10.4412 41.8313 -11.4127C39.6851 -12.8812 40.4081 -15.1405 40.2725 -17.1173C38.3975 -19.8962 40.0692 -23.8951 37.1324 -26.3126L35.054 -25.0587C33.3371 -19.7946 35.054 -14.8016 36.2852 -9.78599C36.967 -7.4558 37.0371 -4.98923 36.4885 -2.6241C36.6128 -1.87854 36.7483 -1.14428 36.8839 -0.364827C38.725 1.725 38.2054 4.04075 37.5616 6.41299L37.4035 10.4119Z" fill="#625952"/>
<path d="M147.455 44.3231C144.586 37.952 137.006 38.449 132.692 34.1564C127.044 34.6761 121.927 32.8122 116.754 31.0386L114.63 33.0381L116.302 35.4442C120.413 37.5002 125.914 37.2629 127.993 42.6965C128.738 44.662 130.647 44.5039 132.33 44.4926L147.455 44.3231Z" fill="#7E7C70"/>
<path d="M137.662 0.809762C124.706 0.809762 111.75 0.222399 98.8054 1.09215C99.9688 3.56585 102.262 2.9333 104.205 2.9333C112.8 3.01237 121.385 2.9333 129.981 3.00108C132.918 3.00108 136.419 2.30076 135.301 7.41759C135.198 7.73715 135.177 8.07751 135.24 8.40727C135.303 8.73703 135.449 9.04557 135.662 9.30442C135.876 9.56328 136.152 9.76411 136.464 9.88839C136.776 10.0127 137.114 10.0564 137.447 10.0155C139.051 9.74445 139.04 8.18568 138.791 6.83023C138.43 4.81964 138.034 2.82035 137.662 0.809762Z" fill="#959793"/>
<path d="M51.7033 5.12529C53.5219 6.06281 55.0919 7.45215 57.2833 7.45215C56.2215 4.06352 57.351 2.84361 60.9769 2.93398C63.5183 2.93398 66.6246 4.31202 68.5335 1.11541C64.2864 1.00246 60.028 0.923389 55.781 0.765253C52.6408 0.595821 51.3419 2.05293 51.7033 5.12529Z" fill="#959793"/>
<path d="M96.6592 18.6356C95.9234 19.3862 94.9305 19.8302 93.8805 19.8781C93.1802 20.025 92.0281 19.2795 91.9038 20.5333C91.9038 20.7479 93.4174 21.1206 94.2307 21.4256C98.0598 21.0754 101.629 24.4076 105.605 22.2615C103.662 18.4323 99.4831 20.2396 96.6592 18.6356Z" fill="#959793"/>
<path d="M138.147 -7.66193C141.773 -5.13175 137.91 -2.45473 138.294 0.131923C139.061 -0.384237 139.747 -1.01247 140.327 -1.73182C141.344 -3.44873 145.015 -3.46002 144.089 -5.80947C143.309 -7.77488 140.339 -7.57156 138.147 -7.66193Z" fill="#959793"/>
<path d="M60.7396 8.45779C60.2087 8.06245 59.8812 7.9382 60.2878 8.78536L60.7396 8.45779Z" fill="#959793"/>
<path d="M60.2878 9.12387L61.8692 9.64346L60.8413 8.51392L60.3895 8.84148L60.2878 9.12387Z" fill="#959793"/>
<path d="M-2.41304 82.5163C-1.99511 87.5997 -6.44551 91.1919 -6.58105 96.0719C-1.36256 100.692 4.71438 98.9412 10.0458 97.2016C14.4397 95.7669 12.6325 90.6949 12.5873 87.0348C10.3847 87.0348 8.18208 87.1704 5.97947 87.0913C4.77086 87.0574 3.40411 86.0408 4.26256 85.058C7.24456 81.7933 6.22797 78.3592 5.6519 74.6879C5.1549 71.4798 7.68508 71.299 10.0458 71.4233C4.98547 66.4077 4.98547 66.4077 10.5541 62.5556L10.1814 55.7778C9.2607 55.9254 8.40822 56.3542 7.74086 57.0054C7.0735 57.6566 6.62395 58.4984 6.45388 59.4153C5.43729 62.8042 2.99747 63.8095 -0.074885 64.1597C-1.99511 67.4696 -0.955929 71.0957 -1.20443 74.5976C-1.36256 76.6083 -0.865565 78.7433 -2.33397 80.5169C-2.34527 81.1607 -2.37915 81.8385 -2.41304 82.5163Z" fill="#7E7C70"/>
<path d="M34.4214 51.3494L34.523 53.4392C38.3296 53.3714 40.0239 54.2638 39.4479 58.9744C38.6346 65.628 39.2784 72.4622 39.2784 79.5564C44.1693 78.0765 44.9261 72.9819 49.1732 72.4171C49.1732 70.4289 48.9134 68.3956 50.4157 66.7689C50.6115 64.2762 50.796 61.7721 50.9692 59.2568C51.0483 57.4494 51.116 55.642 51.1838 53.8346C50.0543 51.7447 52.5957 48.898 49.7832 47.1697C45.7281 44.7297 36.8386 47.1471 34.4214 51.3494Z" fill="#0B274D"/>
<path d="M61.8694 26.4867C60.7398 23.6626 58.8535 23.9789 57.0801 25.6734C55.879 26.855 54.4328 27.758 52.8438 28.3183C51.2549 28.8785 49.5621 29.0824 47.8856 28.9154C42.893 28.5765 38.7363 30.6438 34.749 33.2871C34.749 36.8267 34.749 40.3699 34.749 43.917C38.3974 44.109 42.0572 44.1203 45.683 44.5383C50.8676 45.137 53.2961 43.0472 53.0024 37.8283C53.0024 35.0832 54.5273 33.7051 57.0688 33.2081L61.8694 26.4867Z" fill="#959793"/>
<path d="M49.1281 72.4173C44.881 72.9821 44.1242 78.0655 39.2333 79.5566C39.2333 72.4625 38.6346 65.6282 39.4479 58.9746C40.0239 54.264 38.3183 53.3264 34.5231 53.4394C34.4214 54.569 34.3084 55.6987 34.2068 56.8283C35.9802 57.5061 36.0818 58.3081 34.3762 59.2344C34.3762 59.8783 34.4779 60.5222 34.5456 61.1774C36.6805 63.0865 35.8672 65.6959 35.9237 67.9552C36.1044 76.4162 35.5058 84.8998 38.8944 93.0218L39.301 92.7394C39.301 90.9094 39.1655 89.0794 39.222 87.2494C39.2784 85.4194 39.0073 83.3634 41.402 82.7309C43.5481 82.2112 45.4344 82.5953 46.2703 84.9901C47.0271 80.8782 46.9932 76.3597 49.1281 72.4173Z" fill="#625952"/>
<path d="M-0.0748802 64.1148C2.99748 63.7646 5.39211 62.8044 6.45388 59.4155C6.64338 58.5088 7.10692 57.6823 7.78172 57.0478C8.45653 56.4134 9.31 56.0017 10.2266 55.8684V51.2821C8.14819 50.9771 5.57284 52.1971 4.30775 49.3617C4.09313 48.5258 3.87852 47.6899 3.6752 46.8652L-0.96722 45.7356C-0.752606 51.8582 -2.22101 58.0712 -0.0748802 64.1148Z" fill="#625952"/>
<path d="M52.9911 37.8163C53.2848 43.0352 50.8563 45.125 45.6717 44.5263C42.0459 44.1084 38.3861 44.0971 34.7377 43.905C33.3032 45.3622 33.2806 47.1471 33.6082 49.011L33.9809 50.5134C33.9502 50.6847 33.9795 50.8614 34.0639 51.0137C34.1482 51.166 34.2825 51.2845 34.444 51.3493C36.8613 47.1471 45.7395 44.6958 49.7606 47.1358C52.5732 48.8641 50.0882 51.6543 51.1613 53.8006L56.7299 53.4053C58.8535 53.2471 60.3896 51.3493 59.3392 50.1293C56.1426 46.4693 56.7299 41.047 52.9911 37.8163Z" fill="#625952"/>
<path d="M10.091 71.4237C7.73024 71.322 5.20006 71.4237 5.69706 74.6883C6.27313 78.3596 7.28971 81.7937 4.26254 85.0584C3.3589 86.0411 4.72565 87.0578 5.93426 87.103C8.13687 87.1821 10.3395 87.103 12.5421 87.0465C13.1069 84.9906 11.5594 83.3526 11.4125 81.3983C9.18735 78.3596 11.1528 74.677 10.091 71.4237Z" fill="#625952"/>
<path d="M10.0909 71.4231C11.1527 74.6765 9.18731 78.3591 11.4916 81.443C13.6151 75.0267 11.0398 68.8476 10.5992 62.5555C5.03059 66.4075 5.03059 66.4075 10.0909 71.4231Z" fill="#959793"/>
<path d="M34.7602 99.2575C34.026 93.463 30.1516 92.3899 25.2155 92.9208L24.8654 93.2597C24.7072 94.5812 24.3684 95.7898 22.8887 96.2416C23.1372 97.2695 23.3857 98.2861 23.6455 99.314C27.3843 97.7665 31.123 95.7559 34.7263 99.5964L34.7602 99.2575Z" fill="#625952"/>
<path d="M34.7603 99.5967C31.157 95.7563 27.4182 97.7669 23.6795 99.3144C22.5499 101.845 23.013 103.437 26.108 102.613C29.2029 101.788 31.8912 100.625 34.7603 99.5967Z" fill="#B78777"/>
<path d="M-2.10797 114.124C-3.7458 114.124 -5.28198 114.395 -5.28198 116.451C-5.28198 117.863 -4.15244 118.371 -3.0229 118.235C-1.5319 118.089 0.207598 117.761 0.489983 116.044C0.874028 114.113 -0.944536 114.338 -2.10797 114.124Z" fill="#B78777"/>
<path d="M37.4033 10.4111C37.4597 9.05565 37.5049 7.7002 37.5614 6.34475L36.4318 3.9953C33.303 6.15273 34.794 9.03306 35.2232 11.7327L37.4033 10.4111Z" fill="#959793"/>
<path d="M-0.323459 125.115C0.806084 124.234 1.7436 123.251 0.873856 121.658C-1.38523 122.426 -4.36722 121.06 -6.01636 123.827L-5.24827 124.539C-3.55395 124.222 -1.84834 123.94 -0.323459 125.115Z" fill="#7E7C70"/>
<path d="M4.34155 49.3166C5.60664 52.1517 8.182 50.9318 10.2604 51.2368C10.4298 50.6156 10.5992 49.983 10.7574 49.3505L4.34155 49.3166Z" fill="#7E7C70"/>
<path d="M34.828 28.8138C36.8725 24.363 35.6413 19.7767 35.3928 15.2582C33.9018 19.6976 34.7603 24.2727 34.828 28.8138Z" fill="#959793"/>
<path d="M36.4771 3.99513L37.6066 6.34458C38.2504 4.00643 38.7361 1.69086 36.9289 -0.432678L36.4771 3.99513Z" fill="#7E7C70"/>
<path d="M22.9339 96.2418C24.4136 95.7899 24.7524 94.5813 24.9106 93.2598C23.3292 93.6438 22.5272 94.5474 22.9339 96.2418Z" fill="#7E7C70"/>
<path d="M34.3761 59.2571C36.0818 58.3308 35.9801 57.5289 34.2067 56.8511C33.9558 57.2112 33.8357 57.6463 33.8666 58.084C33.8974 58.5218 34.0772 58.9358 34.3761 59.2571Z" fill="#7E7C70"/>
<path d="M33.9582 50.5141L33.6306 49.0118L33.9582 50.5141Z" fill="#7E7C70"/>
<path d="M-0.93323 45.7242L3.70919 46.8538C4.98558 46.707 6.26196 46.5037 7.54964 46.4246C8.54364 46.4246 9.58282 46.2777 9.59411 45.0803C9.60541 43.8829 8.55493 43.849 7.58352 43.6909C2.36504 42.8323 4.74837 40.8216 6.84932 38.7882C10.4752 35.2977 15.0837 34.8119 19.7374 34.1341C21.556 33.8743 24.6848 33.9534 24.617 31.4795C24.5493 29.2202 21.6576 29.0621 19.6357 28.8023C12.1695 27.7856 4.81614 25.9669 -2.80827 28.5763C-6.58095 29.8641 -6.66001 31.6151 -5.90322 34.8345C-4.9657 38.856 -2.37905 42.0077 -0.93323 45.7242Z" fill="#7E7C70"/>
<path d="M2.70386 140.603C5.47124 139.789 7.00742 138.039 8.35157 135.384C10.012 132.244 11.7402 128.9 14.9255 126.674C17.5348 124.867 16.9587 123.387 13.796 123.037C8.61137 127.94 4.59019 133.588 2.70386 140.603Z" fill="#7E7C70"/>
<path d="M110.157 57.9019C114.574 55.1908 119.533 53.6771 119.318 47.2608C121.046 46.8089 121.916 47.5206 122.571 49.1698C124.084 52.6697 124.794 56.464 124.649 60.2742C124.649 62.7706 124.017 65.3349 125.429 67.6846C124.808 70.2037 123.746 72.8244 126.863 74.5753C124.243 75.4678 124.243 77.6479 124.943 79.5683C125.779 81.8276 127.812 79.9976 129.28 80.2461C130.361 82.2663 130.934 84.5185 130.952 86.8093L128.162 87.0239C126.253 83.635 124.977 84.4258 124.039 87.6226C123.983 89.3171 123.915 91.0115 123.859 92.6834C122.936 94.2868 122.435 96.0979 122.402 97.9475C122.097 105.561 118.787 110.893 111.106 112.847C108.327 112.079 108.926 108.634 106.757 107.38C106.057 103.991 102.081 101.98 103.64 97.5295C104.193 95.9481 101.46 96.5129 100.251 97.2132C97.4613 98.8512 95.0553 98.501 92.8866 96.1627C98.444 93.7001 96.5802 88.8539 96.3543 84.7082C96.1623 82.7426 94.6261 83.138 93.4966 84.1208C89.7013 87.2612 89.2043 91.5651 89.3399 96.0836C90.5485 98.3429 89.1139 99.6871 87.6342 101.02C86.5047 100.828 84.9685 100.613 84.5958 101.562C82.6868 106.341 76.689 107.651 75.277 112.746L75.0963 112.915C74.8227 112.885 74.5457 112.912 74.283 112.994C74.1175 112.468 73.7995 112.002 73.3692 111.656C72.939 111.31 72.4157 111.1 71.8658 111.051L70.7928 111.413L66.3875 110.464C66.2765 109.913 65.9688 109.421 65.522 109.08C65.0752 108.739 64.5197 108.573 63.959 108.611L63.8912 108.532V106.002C63.8009 102.15 64.3092 98.4333 62.7617 94.5134C61.2142 90.5936 65.5291 91.7119 67.3815 91.181C69.234 90.6501 72.2499 92.7512 72.8033 89.2945C73.289 86.2558 73.7748 83.0137 71.109 80.3704C64.9982 74.2929 66.139 69.989 74.5767 66.9503C74.9382 69.1079 71.8545 71.5931 75.1867 73.4796C78.7673 74.9142 82.2463 76.7216 85.9512 77.7157C90.7744 79.0035 91.2488 73.57 93.0448 71.3559C94.5922 69.4694 90.187 69.6162 88.3459 69.0966C85.8609 68.4753 83.2855 68.159 80.7553 67.7185C79.6258 65.0864 77.4571 66.0466 75.5142 66.2499C75.5184 61.4375 74.606 56.6683 72.8259 52.1973C78.8012 51.0676 83.5679 54.5582 88.809 56.2865C89.498 57.9019 90.5259 58.1278 91.87 57.0434L97.8679 58.286C101.979 59.201 105.741 60.6243 110.157 57.9019ZM110.157 81.1724C113.083 81.918 115.737 81.6469 117.827 79.1843C120.368 79.5909 121.848 78.4161 122.074 75.9648C122.3 74.5616 122.085 73.123 121.46 71.8467C120.835 70.5703 119.83 69.5188 118.584 68.8368C112.699 65.5608 104.171 69.5824 102.533 76.01C102.137 77.061 102.136 78.2202 102.531 79.2717C102.926 80.3232 103.689 81.1954 104.679 81.7259C106.159 84.4935 107.503 84.8776 108.666 81.5226L110.157 81.1724Z" fill="#B78777"/>
<path d="M129.28 80.2463C130.361 82.2665 130.934 84.5187 130.952 86.8095C129.835 90.9219 129.355 95.1811 129.529 99.4389C129.529 101.698 130.568 102.941 132.918 102.715C137.684 102.252 142.451 102.975 147.285 102.195C151.386 101.54 152.786 99.8455 152.515 96.0725C149.443 94.7057 149.386 92.0849 149.736 89.2947C146.167 88.1651 142.609 87.6455 139.119 89.5771C139.701 92.7224 139.307 95.9707 137.989 98.8853C137.832 99.1974 137.608 99.4707 137.332 99.6856C137.057 99.9005 136.737 100.052 136.397 100.128C135.267 100.128 134.962 99.1451 135.041 98.1285C135.244 95.3496 135.47 92.5707 135.685 89.7918C133.234 86.6175 136.43 83.4093 135.685 80.2238C133.335 70.8704 135.527 64.4089 142.349 60.4325C142.304 57.7365 142.263 55.0366 142.225 52.333C139.424 52.0054 136.408 55.0781 133.787 51.8247C133.173 52.043 132.621 52.4082 132.18 52.8887C131.739 53.3691 131.422 53.9501 131.257 54.581C132.613 56.1851 133.008 57.6988 130.805 58.9414C128.207 61.3588 126.795 64.4879 125.451 67.6735C124.83 70.1926 123.768 72.8133 126.886 74.5643L128.185 75.1178L128.953 75.886L129.28 80.2463Z" fill="#C4BCA9"/>
<path d="M170.825 117.309C166.747 115.762 161.54 118.089 158.321 113.638C158.422 117.637 158.422 117.637 162.907 120.099C165.663 119.625 168.554 118.97 170.972 120.856C177.923 126.203 183.441 133.189 187.034 141.19C189.959 140.636 194.432 142.737 194.263 136.931C191.529 132.898 189.44 128.357 185.339 125.375L185.249 125.296C182.064 123.296 178.314 122.031 176.326 118.518L170.825 117.309Z" fill="#959793"/>
<path d="M195.076 107.493C195.991 108.961 196.838 110.498 198.714 110.961C198.938 110.558 199.265 110.223 199.662 109.988C200.059 109.754 200.512 109.63 200.973 109.628L201.052 109.549C201.492 107.753 201.944 105.945 202.396 104.138L200.137 101.596C197.878 101.72 196.048 100.93 195.201 98.6253C194.938 98.5138 194.685 98.3816 194.444 98.2299C192.919 98.2299 192.185 97.4844 192.185 95.9707L189.926 92.514C186.435 93.1353 181.782 91.1019 180.675 97.0325C179.059 105.539 180.81 107.47 189.508 106.408C190.426 106.393 191.344 106.484 192.241 106.68L194.049 106.612L195.076 107.493Z" fill="#625952"/>
<path d="M142.327 60.4432C135.549 64.3744 133.29 70.8811 135.662 80.2344C137.323 80.3813 139.051 78.9693 140.655 80.6298C142.485 80.1441 144.416 78.4722 146.178 80.4943C147.941 82.5163 145.715 83.7024 144.834 85.1258C146.766 88.0515 148.765 87.6787 149.093 84.4593C149.42 81.2398 151.352 76.6648 144.879 75.682C140.734 75.0494 143.117 70.8133 142.699 68.1586L142.327 60.4432Z" fill="#959793"/>
<path d="M170.825 117.31L176.326 118.44C178.867 113.469 176.925 108.589 175.874 103.754C175.467 101.89 173.897 100.286 171.683 101.823C168.984 103.698 163.991 101.303 163.099 106.409C162.207 111.515 166.036 113.017 169.47 114.949C170.147 115.356 170.385 116.508 170.825 117.31Z" fill="#625952"/>
<path d="M187.045 141.168C183.445 133.169 177.924 126.184 170.972 120.834C168.588 118.971 165.663 119.603 162.907 120.078L166.013 125.082L167.673 126.449C170.497 127.85 173.186 129.375 173.773 132.888C174.001 133.02 174.201 133.197 174.36 133.407L174.823 133.498L174.914 133.961C175.103 134.113 175.251 134.312 175.343 134.537L184.278 143.077H185.803C185.748 142.663 185.843 142.243 186.071 141.893C186.299 141.543 186.644 141.286 187.045 141.168V141.168Z" fill="#C4BCA9"/>
<path d="M156.096 78.1107C153.735 84.4366 156.31 89.7798 156.74 95.0552C156.92 97.2241 159.597 97.755 160.75 95.3828C162.082 92.6378 163.698 89.5539 161.879 86.3457C160.286 83.7927 158.366 81.364 156.096 78.1107Z" fill="#959793"/>
<path d="M123.994 87.6566C123.938 89.3509 123.87 91.0452 123.813 92.7169C125.835 93.5076 122.932 98.7261 127.699 97.0431C127.846 93.7222 128.004 90.4014 128.151 87.0805L123.994 87.6566Z" fill="#0B274D"/>
<path d="M155.395 108.452C155.08 108.266 154.795 108.034 154.548 107.763C152.447 104.6 149.431 104.555 146.257 105.504C146.081 105.563 145.925 105.673 145.81 105.819C145.694 105.965 145.624 106.142 145.607 106.328C145.59 106.513 145.628 106.7 145.715 106.865C145.803 107.029 145.936 107.165 146.099 107.255C148.934 108.667 151.16 112.835 155.136 109.514C155.109 109.142 155.2 108.77 155.395 108.452Z" fill="#959793"/>
<path d="M135.719 89.8028C135.504 92.5814 135.278 95.3601 135.075 98.1388C134.996 99.1554 135.301 100.127 136.43 100.138C136.771 100.062 137.091 99.9106 137.366 99.6958C137.642 99.4809 137.866 99.2076 138.023 98.8956C139.341 95.9811 139.735 92.7332 139.153 89.5881L135.719 89.8028Z" fill="#959793"/>
<path d="M155.396 108.453C155.228 108.744 155.145 109.077 155.158 109.413C160.32 107.651 161.71 104.567 158.897 101.144C158.287 100.399 157.587 99.7664 156.57 100.263C156.348 100.333 156.144 100.452 155.975 100.611C155.805 100.771 155.674 100.967 155.592 101.184C155.509 101.402 155.477 101.635 155.498 101.867C155.518 102.099 155.592 102.323 155.712 102.522C157.033 104.601 157.271 106.566 155.396 108.453Z" fill="#625952"/>
<path d="M161.088 19.5052C160.975 21.0978 161.676 21.8546 163.02 21.7642C164.974 21.6626 166.815 21.0978 167.041 18.7822C167.199 17.0766 165.911 16.6248 164.454 16.6135C162.399 16.6248 161.54 17.9464 161.088 19.5052Z" fill="#959793"/>
<path d="M144.834 85.1253C145.715 83.7021 147.963 82.55 146.179 80.4942C144.394 78.4384 142.485 80.144 140.655 80.6297C140.994 82.0078 141.333 83.3745 141.66 84.7526C142.017 84.7707 142.366 84.859 142.688 85.0124L144.834 85.1253Z" fill="#C4BCA9"/>
<path d="M149.725 89.3057C149.375 92.0843 149.431 94.7049 152.504 96.0829C152.447 93.4624 154.492 89.9834 149.725 89.3057Z" fill="#959793"/>
<path d="M142.688 85.0135C142.366 84.8601 142.017 84.7718 141.66 84.7537C141.852 85.1377 142.044 85.533 142.225 85.8832L142.688 85.0135Z" fill="#959793"/>
<path d="M139.266 105.042L138.972 104.816L139.198 105.109L139.266 105.042Z" fill="#0B274D"/>
<path d="M63.8571 106.002C63.7667 102.15 64.275 98.4334 62.7276 94.5135C61.1801 90.5937 65.4949 91.712 67.3474 91.1811C69.1998 90.6502 72.2157 92.7513 72.7692 89.2946C73.2549 86.2559 73.7406 83.0138 71.0749 80.3705C64.9641 74.293 66.1049 69.9891 74.5313 66.9504L75.4236 66.3065C75.4278 61.4941 74.5154 56.7249 72.7353 52.2538L70.2842 51.8359C68.6464 52.7848 66.8956 52.2312 65.1674 52.2764C64.9835 52.605 64.8285 52.9489 64.7043 53.3044C66.0258 62.1946 58.1981 66.7697 55.1145 73.6378C53.149 79.8508 53.9849 86.0638 55.25 92.2204C62.4 92.9207 59.8811 98.7045 60.7735 102.692C61.0919 102.727 61.4037 102.807 61.6997 102.929L62.095 102.715L61.6884 102.918L61.8917 105.098L63.8571 106.002Z" fill="#C4BCA9"/>
<path d="M65.755 124.11C67.2234 124.223 67.6752 125.387 68.1948 126.471C71.5156 128.459 73.6844 131.679 76.463 134.254C77.315 134.264 78.1539 134.466 78.9168 134.845C79.6797 135.225 80.3468 135.772 80.8682 136.446H80.936C86.1484 138.73 92.0057 139.075 97.4499 137.417L100.274 135.666C97.6307 131.385 93.1464 132.684 90.1079 133.712C83.0934 136.118 72.5661 129.363 73.3116 121.817C73.6618 118.281 71.6964 115.762 69.5841 115.22C67.2573 114.61 63.5636 112.678 61.4966 116.542C61.4966 119.535 63.7557 121.309 65.2128 123.557C65.2872 123.547 65.3629 123.555 65.4338 123.58C65.5048 123.604 65.569 123.645 65.6215 123.699C65.6741 123.752 65.7135 123.817 65.7366 123.889C65.7598 123.96 65.766 124.036 65.755 124.11V124.11Z" fill="#0B274D"/>
<path d="M98.6812 125.25L100.037 125.499L102.013 123.127C103.233 120.438 104.442 117.738 105.65 115.05C105.199 112.915 101.754 112.689 102.341 109.887C96.5577 112.271 91.0455 108.871 85.3978 109.051C81.4782 109.74 80.7215 112.44 80.8796 115.829C81.003 115.982 81.102 116.154 81.1733 116.337L81.851 117.196C82.0769 117.998 82.3028 118.8 82.5174 119.602C85.7027 118.947 87.3971 123.782 90.9212 121.861C91.2262 119.749 90.2096 117.422 91.9717 115.547C99.0314 114.745 99.2234 114.903 97.6194 120.133L98.6812 125.25Z" fill="#B78777"/>
<path d="M80.9133 115.897C80.6987 112.509 81.4555 109.752 85.4315 109.12C86.7756 106.759 88.8201 107.391 90.8533 107.798C92.8864 108.205 95.8007 109.605 96.2073 107.436C96.7608 104.545 93.406 105.335 91.5875 105.279C88.7071 105.177 87.555 103.799 87.6341 101.088C86.5045 100.896 84.9683 100.681 84.5956 101.63C82.6867 106.409 76.6888 107.719 75.2769 112.814C77.5811 112.96 78.8123 115.22 80.9133 115.897Z" fill="#7E7C70"/>
<path d="M92.0281 115.603C90.266 117.478 91.2826 119.805 90.9777 121.917L91.2713 122.222L90.9551 121.951C87.4309 123.838 85.7366 119.003 82.5513 119.692C84.5844 125.95 92.1863 128.593 98.6811 125.34C98.3536 123.657 98.0373 121.951 97.7097 120.28C94.8746 119.828 91.5763 120.031 92.0281 115.603Z" fill="#7E7C70"/>
<path d="M102.341 109.888C101.753 112.689 105.199 112.915 105.65 115.05C107.706 114.937 110.248 116.021 111.016 112.791C108.237 112.011 108.836 108.566 106.667 107.312C104.6 107.132 103.482 108.532 102.341 109.888Z" fill="#7E7C70"/>
<path d="M63.8572 106.002L61.937 105.053C61.7993 105.407 61.7414 105.787 61.7672 106.166C61.793 106.545 61.902 106.913 62.0864 107.245C62.2708 107.578 62.526 107.865 62.834 108.087C63.142 108.31 63.4952 108.461 63.8685 108.532C63.8685 107.685 63.8572 106.86 63.8572 106.002Z" fill="#7E7C70"/>
<path d="M66.3875 110.464C66.2764 109.913 65.9688 109.422 65.522 109.081C65.0752 108.74 64.5196 108.573 63.959 108.612C63.9936 108.894 64.0844 109.167 64.2259 109.414C64.3675 109.661 64.5569 109.877 64.7832 110.049C65.0095 110.222 65.2679 110.348 65.5435 110.419C65.819 110.49 66.1059 110.505 66.3875 110.464V110.464Z" fill="#7E7C70"/>
<path d="M102.013 123.127L100.037 125.499C102.781 126.448 101.912 124.38 102.013 123.127Z" fill="#7E7C70"/>
<path d="M75.0398 112.915C74.7662 112.885 74.4892 112.912 74.2266 112.994C74.3282 113.288 74.4186 113.593 74.5089 113.887L75.0398 112.915Z" fill="#7E7C70"/>
<path d="M81.8847 117.253L81.207 116.395L81.8847 117.253Z" fill="#7E7C70"/>
<path d="M71.8094 111.052L70.7363 111.413L71.8094 111.052Z" fill="#7E7C70"/>
<path d="M97.4499 137.462C92.0057 139.119 86.1483 138.775 80.9359 136.491C79.5918 140.467 82.619 140.534 85.0927 141.212C90.0175 142.545 94.4453 142.409 97.4499 137.462Z" fill="#7E7C70"/>
<path d="M80.8681 136.445C80.3467 135.771 79.6796 135.224 78.9167 134.845C78.1538 134.465 77.3149 134.263 76.4629 134.254C76.9712 136.919 78.9931 136.547 80.8681 136.445Z" fill="#7E7C70"/>
<path d="M39.3349 96.6925C43.3334 96.2859 45.3779 91.8355 49.5007 91.7564L48.3712 90.3106C44.9826 89.8814 42.2717 91.779 39.3349 92.7165L38.9282 92.9989L39.3349 96.6925Z" fill="#625952"/>
<path d="M65.2579 123.556C64.8964 124.267 65.0771 124.459 65.8001 124.098C65.8116 124.024 65.8056 123.948 65.7825 123.877C65.7593 123.806 65.7197 123.742 65.6668 123.689C65.614 123.636 65.5494 123.596 65.4783 123.573C65.4073 123.55 65.3317 123.544 65.2579 123.556V123.556Z" fill="#B78777"/>
<path d="M48.3938 90.3565L49.5233 91.8025C50.1171 92.484 50.8447 93.0363 51.6607 93.4249C52.4768 93.8135 53.3641 94.0303 54.2674 94.0617C54.6176 93.4179 54.9452 92.774 55.284 92.1301C54.0415 85.9623 53.1831 79.7719 55.1485 73.5701C54.4707 70.6444 52.1665 68.8483 50.3592 66.702C48.8569 68.3625 49.0941 70.3959 49.1167 72.3501C46.9932 76.3603 47.0271 80.8789 46.2703 85.0924C47.6052 86.5238 48.3618 88.3995 48.3938 90.3565V90.3565Z" fill="#B78777"/>
<path d="M173.773 132.91C173.186 129.397 170.497 127.872 167.674 126.471C167.504 130.707 170.633 131.814 173.773 132.91Z" fill="#7E7C70"/>
<path d="M174.914 133.983L174.823 133.519L174.36 133.429L174.473 133.87L174.914 133.983Z" fill="#7E7C70"/>
<path d="M186.684 -25.8606C183.295 -27.0467 180.279 -26.9903 177.648 -23.8612C176.36 -22.2684 174.157 -21.8391 172.056 -21.6019C169.955 -21.3647 168.351 -20.3028 168.815 -17.9984C169.278 -15.6939 171.435 -16.1345 173.005 -16.27C175.581 -16.5072 178.653 -20.1786 180.494 -15.5583C181.556 -12.9263 180.81 -10.2716 179.5 -7.54922C178.032 -4.48791 177.433 -0.940855 181.849 0.810081C182.301 -4.56699 183.148 -9.7972 186.435 -14.327C187.667 -16.0328 187.497 -17.5465 185.193 -18.1113C183.476 -18.5406 181.081 -17.9645 181.002 -20.7095C180.923 -23.4545 183.374 -23.5675 185.272 -24.2452C185.859 -24.4599 186.221 -25.3071 186.684 -25.8606Z" fill="#7E7C70"/>
<path d="M189.316 46.5149C188.436 46.7835 187.499 46.8022 186.609 46.5688C185.72 46.3354 184.912 45.8592 184.278 45.1934C182.459 45.9389 179.409 45.4419 180.81 49.1919C181.77 51.7899 180.11 55.9692 185.249 55.7433C186.729 55.6642 188.22 55.7433 189.7 55.7433C192.704 52.6371 188.932 49.6325 189.316 46.5149Z" fill="#C4BCA9"/>
<path d="M113.444 35.5236H110.056C110.181 35.8694 110.279 36.2244 110.349 36.5855C110.485 38.0201 113.139 39.6129 110.812 40.7651C108.486 41.9174 106.215 40.2116 104.035 39.274C103.143 38.8899 101.584 38.359 102.341 37.0147C103.358 35.196 105.266 36.2014 106.859 36.1336C107.951 36.0216 109.034 35.8367 110.101 35.5801C108.474 32.7786 105.696 33.479 103.211 33.3208C100.726 33.1627 98.2859 33.3208 97.755 30.0675L90.9777 29.819C90.0515 34.6877 87.1373 34.4279 83.6809 32.5979C82.3819 31.9201 80.97 30.4855 79.6936 31.7281C78.4172 32.9707 80.36 33.784 80.9813 34.7555C81.241 35.1621 81.4896 36.0433 81.2862 36.2353C76.9714 40.3924 81.2862 42.0868 83.2291 45.0352C85.6237 48.6726 88.8768 48.3111 92.175 49.2713C96.3995 50.48 100.082 47.7576 104.713 49.2713C107.39 50.1411 113.998 47.4074 116.991 43.6231C120.143 39.6016 114.732 38.2348 113.422 35.5688L113.444 35.5236Z" fill="#0B274D"/>
<path d="M50.9238 59.2238C51.0029 57.4164 51.0707 55.609 51.1384 53.8016L56.7071 53.4062C58.8306 53.248 60.3668 51.3502 59.3163 50.1302C56.1423 46.4702 56.7297 41.0932 52.9909 37.8172C52.9909 35.0722 54.5158 33.694 57.0572 33.197C57.9835 35.5128 59.4519 36.2583 60.8073 33.7731C62.3548 30.9151 64.7833 30.9942 67.3474 30.9829C66.9859 33.4116 67.8557 37.6365 65.2125 37.6591C60.0505 37.6591 62.0272 40.9237 61.8239 43.1039C61.5189 46.0861 63.8006 48.0517 65.2125 50.311C65.2125 50.9549 65.1448 51.5988 65.0996 52.2314C64.924 52.5625 64.773 52.9061 64.6478 53.2593C59.7456 54.3325 56.5715 59.6531 50.9238 59.2238ZM64.3315 34.6994L64.1282 34.3379L63.9023 34.0329L64.0265 34.4396L64.3315 34.6994Z" fill="#7E7C70"/>
<path d="M97.8679 58.2858C101.979 59.1669 105.775 60.545 110.157 57.8678C114.54 55.1906 119.533 53.643 119.318 47.2266L97.8679 58.2858Z" fill="#7E7C70"/>
<path d="M71.8544 45.6104C71.4365 41.3859 73.4358 38.2119 73.9328 34.6652C68.3641 34.8798 70.1827 40.0418 68.2851 42.651C67.517 43.7919 69.7761 44.831 71.8544 45.6104Z" fill="#7E7C70"/>
<path d="M125.429 67.6833C126.773 64.4979 128.185 61.3691 130.783 58.9632L129.89 57.7772L124.649 60.2735C124.627 62.8036 123.994 65.3338 125.429 67.6833Z" fill="#7E7C70"/>
<path d="M130.161 54.2078C130.12 54.029 130.09 53.848 130.071 53.6656C129.992 51.7115 130.444 49.5202 127.925 48.6052C127.1 48.3116 126.287 48.6052 126.298 49.4411C126.298 51.9148 126.807 54.2417 130.037 54.3772L130.161 54.2078Z" fill="#0B274D"/>
<path d="M133.765 51.8356C136.385 55.0887 139.412 52.0163 142.202 52.3439C142.293 51.316 142.394 50.2881 142.496 49.2715C139.808 50.9772 136.668 50.9433 133.765 51.8356Z" fill="#959793"/>
<path d="M67.4041 31.0273C69.6631 30.937 71.4139 30.135 71.9222 27.6387C69.4146 27.4015 66.9184 27.1869 67.4041 31.0273Z" fill="#7E7C70"/>
<path d="M90.9551 29.7846L97.7323 30.0331C95.462 30.0444 93.4288 24.0352 90.9551 29.7846Z" fill="#7E7C70"/>
<path d="M65.3144 50.3788C65.3144 51.0227 65.2466 51.6665 65.2014 52.2991C66.9296 52.2991 68.6917 52.8074 70.3295 51.8585C69.7361 51.1404 68.9416 50.6159 68.0481 50.3522C67.1545 50.0886 66.2026 50.0978 65.3144 50.3788V50.3788Z" fill="#959793"/>
<path d="M129.89 57.7772L130.771 58.9632C132.974 57.7094 132.579 56.1958 131.223 54.5919L130.094 54.2078L129.969 54.3773C129.992 55.5068 129.936 56.6363 129.89 57.7772Z" fill="#959793"/>
<path d="M88.7637 56.343C89.4527 57.9582 90.4806 58.1842 91.8247 57.0998C91.0566 55.8347 89.9836 55.8121 88.7637 56.343Z" fill="#7E7C70"/>
<path d="M116.302 35.4788L114.63 33.0729L113.501 35.524L116.302 35.4788Z" fill="#0B274D"/>
<path d="M67.3474 30.9814C66.8617 27.1748 69.358 27.3894 71.8656 27.5928C72.3174 26.4632 73.2098 25.2659 71.9334 24.1364C70.657 23.0068 69.5727 24.046 68.5448 24.735C66.6093 26.117 64.2337 26.74 61.8692 26.4858L57.0686 33.1953C57.9948 35.5109 59.4632 36.2563 60.8187 33.7714C62.3549 30.9136 64.7834 30.9927 67.3474 30.9814Z" fill="#625952"/>
<path d="M152.978 65.753C156.254 65.9337 157.135 65.0752 157.779 61.2344C159.394 51.4066 157.463 41.6578 158.502 31.8639C159.021 27.0064 155.057 26.5998 151.25 26.6337C147.014 26.6337 147.037 29.2996 147.5 32.3609C148.121 36.3372 149.465 39.8617 152.752 42.5276C154.639 44.0414 156.412 45.7584 156.085 48.5938C155.893 50.3447 156.085 51.5873 153.249 51.0338C147.681 49.9042 147.048 53.7449 147.184 58.207C147.387 65.0639 147.771 65.753 152.978 65.753Z" fill="#C4BCA9"/>
<path d="M149.138 21.0076L142.801 21.4142L142.666 25.1191C146.054 25.6161 149.07 25.6952 149.251 21.0753L149.138 21.0076Z" fill="#625952"/>
<path d="M142.666 25.1314L142.801 21.4265C141.05 21.0199 138.757 20.2969 138.486 22.8271C138.159 25.8543 140.7 25.346 142.666 25.1314Z" fill="#7E7C70"/>
<path d="M64.7497 53.3046C59.7458 54.3326 56.5718 59.6532 50.9241 59.2239C50.7434 61.7317 50.5589 64.2357 50.3706 66.736C52.1779 68.8823 54.4821 70.6784 55.1599 73.6042C58.2435 66.7699 66.0713 62.1949 64.7497 53.3046Z" fill="#959793"/>
<path d="M48.3937 90.3555C48.3617 88.3986 47.6051 86.5231 46.2702 85.0918C45.4343 82.6633 43.548 82.2792 41.4019 82.8327C39.0072 83.4201 39.2783 85.521 39.2218 87.3509C39.1654 89.1807 39.2218 91.0106 39.3009 92.8405C42.2942 91.8239 45.0277 89.9149 48.3937 90.3555Z" fill="#0B274D"/>
<path d="M102.341 109.887C103.47 108.531 104.6 107.131 106.667 107.357C105.967 103.968 101.991 101.957 103.549 97.5062C104.103 95.9247 101.369 96.4895 100.161 97.1899C97.3708 98.8278 94.9648 98.4777 92.7961 96.1393L89.2832 96.0828C90.4918 98.3421 89.0573 99.6864 87.5776 101.019C87.4985 103.73 88.6507 105.109 91.531 105.21C93.3496 105.21 96.7043 104.476 96.1508 107.368C95.7442 109.537 92.6831 108.102 90.7968 107.729C88.9105 107.357 86.7192 106.69 85.375 109.051C91.0566 108.87 96.5575 112.27 102.341 109.887Z" fill="#625952"/>
<path d="M117.827 79.1846C120.368 79.5913 121.848 78.4165 122.074 75.9652C122.3 74.562 122.085 73.1234 121.46 71.8471C120.835 70.5707 119.83 69.5192 118.584 68.8372C112.699 65.5612 104.171 69.5827 102.533 76.0104C102.153 77.0527 102.161 78.1969 102.555 79.2339C102.949 80.271 103.703 81.1316 104.679 81.6585L108.666 81.4665L110.191 81.1163L110.293 77.3546C109.965 72.8361 106.43 77.5693 104.894 75.4455C107.717 72.4746 110.948 72.4746 114.438 73.5026C116.63 74.1465 119.691 73.977 118.075 77.8065L117.827 79.1846Z" fill="#625952"/>
<path d="M75.1414 73.4793C78.722 74.9138 82.201 76.7211 85.9059 77.7151C90.7291 79.0028 91.2035 73.5697 92.9994 71.3558C94.5469 69.4694 90.1417 69.6163 88.3005 69.0967C85.8155 68.4754 83.2402 68.1591 80.71 67.7186C77.6038 69.2096 82.4382 70.1246 80.6083 71.8189C79.027 72.1351 76.1128 69.8422 75.1414 73.4793Z" fill="#625952"/>
<path d="M89.2834 96.0837L92.7963 96.1402C98.3536 93.6776 96.4899 88.8314 96.264 84.6857C96.1623 82.7427 94.6261 83.1381 93.4966 84.1209C89.6449 87.2612 89.1479 91.5651 89.2834 96.0837Z" fill="#C4BCA9"/>
<path d="M75.1415 73.4784C76.1129 69.8413 79.0272 72.1342 80.6085 71.8744C82.4384 70.1801 77.6039 69.2652 80.7102 67.7742C79.5806 65.1424 77.4119 66.1025 75.4691 66.3058L74.5203 66.9496C74.893 69.1071 71.8094 71.592 75.1415 73.4784Z" fill="#7E7C70"/>
<path d="M129.28 80.2456C129.167 78.7997 129.043 77.3426 128.93 75.8968C128.587 75.7456 128.313 75.4716 128.162 75.1287L126.863 74.5753C124.243 75.4676 124.243 77.6476 124.943 79.5678C125.779 81.8834 127.812 79.9971 129.28 80.2456Z" fill="#7E7C70"/>
<path d="M110.259 77.4112L110.157 81.1726C113.083 81.9181 115.737 81.647 117.827 79.1846C117.895 78.744 117.974 78.3035 118.041 77.863L117.906 77.9759L116.663 77.1062C114.529 77.2305 112.439 78.1454 110.259 77.4112Z" fill="#7E7C70"/>
<path d="M108.632 81.522L104.645 81.714C106.125 84.4927 107.469 84.8767 108.632 81.522Z" fill="#7E7C70"/>
<path d="M123.994 87.6565L128.117 87.0578C126.253 83.5901 124.943 84.4034 123.994 87.6565Z" fill="#7E7C70"/>
<path d="M128.162 75.1286C128.313 75.4715 128.587 75.7454 128.93 75.8967C128.67 75.6369 128.411 75.3884 128.162 75.1286Z" fill="#B78777"/>
<path d="M61.7336 102.873L62.1403 102.67L61.7449 102.884L61.7336 102.873Z" fill="#B78777"/>
<path d="M92.0281 115.604C91.5763 120.032 94.8746 119.828 97.6759 120.19C99.2798 114.96 99.1443 114.768 92.0281 115.604Z" fill="#625952"/>
<path d="M90.9551 121.953L91.2713 122.224L90.9777 121.919L90.9551 121.953Z" fill="#B78777"/>
<path d="M110.078 35.5235C109.011 35.78 107.928 35.9649 106.837 36.0769C105.255 36.1447 103.346 35.1394 102.318 36.958C101.562 38.3134 103.12 38.8443 104.013 39.2171C106.17 40.1546 108.531 41.8263 110.79 40.7081C113.049 39.5898 110.44 37.952 110.316 36.54C110.245 36.179 110.147 35.824 110.022 35.4783L110.078 35.5235Z" fill="#625952"/>
<path d="M64.1283 34.3373L63.9023 34.0323L64.0266 34.4389L64.1283 34.3373Z" fill="#625952"/>
<path d="M63.9702 34.4392L64.3317 34.699L64.0719 34.3376L63.9702 34.4392Z" fill="#625952"/>
<path d="M110.259 77.4101C112.439 78.1443 114.529 77.2293 116.663 77.1051L117.906 77.9748L118.041 77.8619C119.657 74.0327 116.596 74.2022 114.404 73.5583C110.914 72.5304 107.627 72.5304 104.86 75.5011C106.396 77.6247 109.931 72.8467 110.259 77.4101Z" fill="#0B274D"/>
<path d="M117.906 77.9759L116.663 77.1062L117.906 77.9759Z" fill="#625952"/>
</g>
<defs>
<clipPath id="clip0_193_7067">
<path d="M0 90C0 40.2944 40.2944 0 90 0V0C139.706 0 180 40.2944 180 90V90C180 139.706 139.706 180 90 180V180C40.2944 180 0 139.706 0 90V90Z" fill="white"/>
</clipPath>
</defs>
</svg>
