<svg width="180" height="180" viewBox="0 0 180 180" fill="none" xmlns="http://www.w3.org/2000/svg">
<g clip-path="url(#clip0_193_7068)">
<path d="M160.058 149.966V158.446C158.346 158.446 158.391 159.34 158.479 160.742C158.689 164.055 158.678 167.312 158.589 170.591C158.578 173.908 159.073 177.207 160.058 180.374V183.918C159.529 184.635 159.243 185.501 159.243 186.392C159.243 187.282 159.529 188.149 160.058 188.865V190.985C159.473 191.526 158.821 193.293 158.457 190.83C157.664 186.205 157.251 181.523 157.22 176.83C157.309 176.631 157.905 176.587 157.419 176.2L157.242 176.852C155.641 172.866 156.878 168.714 156.536 164.651C156.337 162.321 156.469 159.892 154.195 158.214C154.409 160.644 154.476 163.085 154.394 165.523C153.61 165.28 151.379 166.384 152.185 164.872C154.493 160.61 149.767 159.925 149.193 157.231C148.519 160.543 149.889 163.723 149.436 166.937L148.729 167.654L148.023 169.068C146.918 166.318 147.139 163.337 146.521 160.51C146.123 158.655 145.77 156.524 142.921 157.75C141.696 157.584 142.513 155.542 140.956 155.641C139.377 154.835 138.538 155.354 138.549 157.098C138.549 158.026 138.726 158.942 138.814 159.87L138.67 160.002L138.803 159.859C139.686 160.643 139.487 161.703 139.532 162.697L139.377 162.829L139.51 162.686C142.745 169.951 141.928 177.724 142.358 185.332L142.193 185.475L142.347 185.321C143.175 186.116 143.153 187.253 143.374 188.258C143.705 189.782 144.666 192.144 142.756 192.52C141.088 192.851 141.32 190.245 141.033 188.909C138.913 179.082 140.106 168.78 136.705 159.097C136.633 158.632 136.633 158.159 136.705 157.695L136.837 157.573L136.716 157.706C135.612 156.226 135.833 154.393 135.258 152.77C136.738 152.329 136.462 150.142 138.129 149.899C138.703 150.032 139.443 150.198 139.554 149.447C139.719 148.409 138.913 148.42 138.173 148.552C134.717 148.232 131.339 147.724 128.899 144.412C128.766 147.172 129.042 147.514 132.288 149.524C132.885 149.888 134.143 149.899 133.68 151.026C133.547 151.346 132.421 151.246 131.747 151.346C131.522 150.965 131.213 150.64 130.844 150.395C130.475 150.15 130.055 149.992 129.616 149.933C129.397 149.541 129.087 149.207 128.713 148.959C128.338 148.711 127.91 148.557 127.463 148.508C127.11 146.3 126.514 144.666 124.018 146.786C122.848 148.475 124.813 149.734 124.648 151.291C123.378 152.108 122.373 151.489 121.335 150.054C121.248 152.699 121.718 155.332 122.715 157.783C124.228 162.52 125.829 167.224 127.397 171.949L123.853 170.923C123.389 170.591 123.51 169.52 122.517 169.874C120.993 169.564 120.308 168.074 118.983 167.433C119.061 165.888 117.802 164.441 118.564 162.454L120.673 166.804C122.009 162.829 119.701 159.428 119.171 155.762C118.575 151.754 120.275 147.824 119.005 143.617C122.373 145.328 122.318 142.954 121.611 141.408C119.822 137.246 122.55 138.416 124.272 139.134C128.015 140.669 131.935 141.806 135.512 144.036C136.318 141.828 134.861 141.232 133.503 141.011C129.263 140.315 125.719 137.698 121.556 136.881C120.519 136.671 119.555 136.193 118.759 135.496C117.964 134.799 117.363 133.906 117.018 132.906C116.245 131.162 116.068 128.943 114.026 127.916L113.175 125.244C113.175 123.985 113.175 122.726 113.175 121.467C113.694 119.778 116.322 119.513 116.002 117.272C118.486 114.765 119.436 111.508 120.419 108.262C122.627 100.632 122.914 92.6599 124.67 84.9419C125.487 82.3361 127.563 80.3817 127.75 77.3011C127.971 73.7457 126.646 69.2408 131.515 67.2754C132.079 67.0546 131.769 66.4693 131.67 66.0387C130.82 62.2956 131.449 58.3759 130.157 54.6659C127.95 48.7728 125.039 43.1674 121.49 37.9711C119.027 34.1617 115.119 31.2909 111.861 28.0337C110.757 25.3064 108.284 24.5666 105.866 23.6833L105.225 22.9656C103.459 22.9656 101.681 22.1706 99.9365 23.0871L99.0422 22.3804C98.8103 21.2762 97.938 20.8346 97.0989 20.3487C94.0072 17.8534 94.482 21.3977 93.4993 22.4687L91.4345 22.3031C90.9045 21.1989 90.1979 21.0996 89.3035 21.9167H87.835C87.6142 20.945 86.9517 20.7021 86.0242 20.7021C81.2211 20.7021 76.9591 22.5902 72.6197 24.2464C72.3513 24.3655 72.1196 24.5542 71.9488 24.793C71.7779 25.0318 71.6741 25.312 71.6481 25.6045C71.5772 25.6681 71.4918 25.7133 71.3995 25.7364C71.3071 25.7595 71.2105 25.7597 71.1181 25.737C64.5815 25.0414 62.1413 26.4658 61.7107 31.2578C59.5686 32.0528 58.0449 33.9961 55.7151 34.4267C52.7891 34.7249 51.0224 36.0498 51.4862 39.3623C50.923 40.6983 51.1439 42.4539 49.4104 43.1385C46.407 43.8121 42.6971 51.4859 44.0883 54.1801C44.1656 54.3347 44.5079 54.3568 44.7177 54.434L44.3644 55.8253C42.3548 59.0273 42.8958 60.8713 45.9433 61.1804L45.5348 63.6537C43.7902 65.5198 44.6956 66.2375 46.7493 66.4583V74.3309C45.5568 76.208 46.2856 77.5219 47.997 78.5488C48.3835 79.7965 47.5443 81.3534 48.9466 82.3582C48.7467 83.1907 48.7767 84.0619 49.0334 84.8787C49.2901 85.6954 49.7639 86.4272 50.4041 86.9956L50.5808 88.4089L52.4689 95.4203L53.0099 96.3257C53.0207 96.4875 53.0207 96.6498 53.0099 96.8116C47.0806 95.7074 41.35 94.2278 36.9996 89.6456C33.8418 86.3331 27.8462 88.3206 24.3129 85.4277C22.491 83.904 1.37956 75.6118 -0.97229 75.7995C-0.97229 54.5776 20.5808 36.0498 20.5808 14.85C72.2222 -7.10057 87.4485 -12.6103 154.371 14.9494C158.954 16.8375 159.329 14.9494 159.329 20.0175C159.329 61.7472 159.329 103.473 159.329 145.196C159.318 146.797 158.887 148.519 160.058 149.966ZM141.453 149.524C144.765 153.521 150.286 153.786 152.141 149.866C148.453 151.467 145.052 149.778 141.453 149.524ZM137.113 144.257C139.874 146.753 140.868 146.973 143.959 145.748C141.287 143.948 139.521 143.562 137.113 144.257Z" fill="#B5B1B7"/>
<path d="M-1.5023 49.8187C0.893723 49.631 13.3155 60.7278 26.7089 80.6246C29.2595 84.4229 33.8638 86.311 37.0217 89.6456C41.3721 94.2278 47.1027 95.7516 53.032 96.8116C55.2403 98.8653 54.9753 103.205 59.2373 103.227C64.1619 110.514 64.471 118.111 60.8273 125.994L60.3746 126.05C57.4707 127.673 56.5101 133.514 58.6742 136.373C59.3146 138.394 58.4423 140.602 59.403 142.59C59.6299 143.352 59.8142 144.126 59.955 144.909C60.0544 145.659 60.5292 146.62 59.69 147.117C58.8509 147.614 58.4203 146.355 57.6474 146.245C57.4817 145.074 57.7357 143.76 56.5432 142.358C56.1064 144.198 56.0091 146.103 56.2561 147.978C56.5322 152.395 56.9076 156.867 57.0842 161.316C57.0842 162.421 57.7357 164.276 56.1347 164.629C54.8538 164.905 54.9311 162.873 54.0036 162.211L51.6407 159.815C50.6279 157.897 50.2126 155.721 50.4483 153.565H50.371C50.8601 153 51.2258 152.338 51.4445 151.624C51.6631 150.909 51.73 150.156 51.6407 149.414L53.1424 146.675C51.442 146.764 50.8458 148.74 49.1564 148.221C50.2605 146.885 50.8237 145.417 52.6566 144.622C54.4895 143.827 54.5116 141.309 53.7607 140.017C53.0099 138.725 51.5524 140.481 50.4483 140.856C50.1146 140.974 49.8155 141.172 49.5783 141.435C49.3411 141.697 49.1733 142.014 49.0901 142.358L48.8031 143.606C48.5863 143.602 48.3702 143.632 48.1627 143.694L47.1689 144.334H46.8377L45.8771 145.052L43.9558 146.234C43.7429 146.322 43.5255 146.4 43.3044 146.465H41.7475C41.576 146.465 41.4052 146.487 41.2396 146.532C39.0313 146.951 37.9934 149.723 35.4096 149.281C35.4096 149.093 35.3324 148.917 35.3103 148.729C35.2566 148.59 35.1736 148.464 35.0669 148.36C34.9602 148.255 34.8323 148.176 34.6918 148.125C34.5514 148.075 34.4018 148.055 34.2532 148.068C34.1046 148.081 33.9605 148.126 33.8307 148.199C29.7343 150.794 24.7545 151.125 20.5808 153.488C-10.0485 123.477 -1.5023 74.8057 -1.5023 49.8187Z" fill="#A18F8F"/>
<path d="M50.4152 153.543C50.1795 155.698 50.5948 157.875 51.6076 159.792C51.0887 160.024 50.1391 160.234 50.1281 160.477C50.0287 163.403 48.3725 166.241 48.6595 168.891C48.8473 170.646 48.2068 173.429 50.5587 174.787C49.4545 176.741 50.1943 179.049 49.4545 181.069C48.9475 180.16 48.5755 179.182 48.3504 178.166C47.7873 171.772 47.3787 165.368 46.8487 158.975C46.7604 157.871 47.5996 155.917 45.5017 156.16C43.8344 156.347 44.2319 157.948 44.3975 159.307C44.9606 163.458 46.1531 167.742 45.6342 171.783C44.7177 178.994 48.6154 185.354 47.9971 192.387C49.9625 189.538 48.7479 185.85 51.0445 183.245C52.4137 185.751 50.9672 188.765 52.4358 191.625C54.2024 189.362 52.237 187.341 52.7228 185.409L53.1645 185.331C54.5889 184.614 53.9926 183.454 53.838 182.383L54.0147 180.451C54.3194 180.256 54.671 180.147 55.0325 180.136C55.3939 180.124 55.7518 180.21 56.0684 180.385C56.4549 183.212 55.3507 186.149 56.7972 188.876C56.7972 189.461 56.7972 190.046 56.7972 190.62C56.8855 191.471 56.5653 192.762 57.9013 192.707C58.9392 192.707 58.8509 191.515 58.8067 190.742C58.7074 188.942 59.3478 187.021 58.1442 185.354C58.0559 183.278 58.078 181.191 57.8461 179.137C57.7026 177.823 58.0559 177.128 59.3588 176.929C59.5312 177.175 59.7272 177.405 59.944 177.613C60.8274 177.117 60.4299 176.189 60.6507 175.405L61.0703 174.632C61.7548 174.456 61.6444 173.804 61.8432 173.34C63.9411 172.236 63.3448 176.818 65.3654 175.151C66.6683 174.047 65.6083 171.971 66.2708 170.459C66.4347 170.149 66.6349 169.86 66.8671 169.597L68.6889 171.265C68.5454 172.17 68.0817 173.175 68.3356 173.948C68.9981 176.034 67.6952 179.358 71.5708 179.623C72.4099 179.192 72.5645 178.729 71.6481 178.21C72.2112 176.377 70.9414 174.334 72.145 172.391C73.8453 173.407 74.6624 176.708 77.2572 174.08C77.6195 174.734 78.119 175.301 78.7213 175.743C79.3236 176.185 80.0144 176.492 80.7463 176.642C82.2369 176.863 83.4626 177.006 84.2575 178.386C84.9311 182.748 87.0179 186.844 86.5873 191.415C86.4769 192.597 87.3602 193.061 88.4644 192.939C89.5685 192.818 90.0433 192.034 89.6458 190.941C88.7183 188.445 90.0985 185.961 89.5354 183.421C91.1254 185.63 90.9267 189.141 94.9789 190.046C93.1902 186.833 96.0168 183.764 94.0183 180.959C94.5262 179.491 93.8637 178.166 93.5656 176.796C93.5938 176.654 93.5938 176.508 93.5656 176.366L96.602 175.968C96.751 175.991 96.8937 176.043 97.0216 176.123C95.4316 180.827 96.337 185.552 97.0216 190.256C97.143 191.161 96.7897 192.873 98.2803 192.674C99.7709 192.475 99.1857 190.786 99.1968 189.715C99.0819 189.154 98.8648 188.619 98.5564 188.136C98.5564 185.707 98.468 183.278 98.5564 180.86C98.6337 179.491 97.8166 177.746 99.7488 176.896C100.919 180.804 100.323 184.857 100.643 188.821C100.643 189.98 100.213 191.25 101.041 192.21C101.438 192.685 102.145 192.21 102.587 191.835C103.956 190.919 103.691 189.715 103.315 188.423C103.013 187.182 102.975 185.892 103.205 184.636C103.777 181.386 103.714 178.056 103.017 174.831L103.083 174.544C105.137 175.074 104.938 176.752 104.828 178.232C104.497 182.648 105.623 186.822 106.274 191.084C106.385 191.769 106.352 192.674 107.257 192.696C108.428 192.696 108.461 191.658 108.361 190.896C108.03 187.893 107.544 184.901 107.257 181.898C107.069 180.23 106.363 178.265 108.891 177.591C109.156 181.158 109.013 184.779 110.614 188.125C111.541 187.728 112.369 189.041 113.573 188.302C112.771 186.63 112.446 184.769 112.634 182.924C112.833 181.644 111.895 181.125 110.735 180.981C111.331 177.083 112.414 173.252 112.093 169.233C112.005 168.007 113.197 168.206 113.783 167.831L113.915 167.974C113.264 170.326 113.032 172.612 114.832 174.599C113.959 175.88 114.578 177.337 114.324 178.707C113.562 182.814 115.218 186.822 114.92 190.93C114.854 191.912 115.45 192.906 116.609 192.729C117.956 192.52 117.713 191.36 117.382 190.521C116.863 188.909 117.305 187.209 116.918 185.652C115.936 181.577 117.106 177.26 115.439 173.296C115.439 171.839 115.373 170.37 116.543 169.233L118.321 171.298L118.42 173.329C118.221 174.5 117.316 175.538 117.68 176.807C117.239 179.016 118.376 181.08 118.575 183.212C118.707 184.68 119.083 184.967 120.441 184.846C122.152 184.702 121.545 183.742 121.655 182.637C121.81 180.153 119.226 179.027 119.038 176.785C119.127 175.593 119.226 174.4 119.314 173.208C119.438 173.1 119.536 172.966 119.602 172.816C119.668 172.666 119.699 172.503 119.694 172.339C119.688 172.175 119.647 172.014 119.571 171.869C119.496 171.723 119.39 171.596 119.259 171.496L121.655 171.618L122.759 172.998C122.285 179.027 123.201 184.945 124.029 190.874C124.14 191.658 124.029 192.774 125.211 192.674C126.392 192.575 126.238 191.493 126.171 190.698C125.855 186.487 125.487 182.288 125.067 178.099C124.913 176.576 124.239 174.908 126.734 174.787L127.529 175.383H128.269H128.38C128.586 178.438 128.792 181.504 128.998 184.581C128.846 184.541 128.691 184.511 128.534 184.492C128.446 182.659 128.347 180.827 128.258 178.972C126.149 182.439 127.883 185.696 128.137 189.351C129.362 188.401 128.965 187.507 129.119 186.745H129.506C129.705 187.352 129.351 188.136 130.29 188.754C131.206 184.15 129.583 179.756 129.782 175.328L131.35 176.322C131.983 180.937 132.616 185.556 133.249 190.179C133.404 191.283 133.017 192.851 134.795 192.762C136.352 192.696 138.107 192.674 138.98 190.852C139.708 189.373 137.798 188.644 138.185 187.297V176.818C138.913 175.217 136.418 175.372 136.606 173.859C136.646 173.382 136.512 172.905 136.227 172.52C135.943 172.134 135.528 171.864 135.06 171.761C133.514 171.53 134.276 173.517 133.26 173.903C132.921 173.568 132.5 173.326 132.04 173.202C131.579 173.078 131.094 173.076 130.632 173.197L130.334 173.097L130.113 171.541L129.219 172.777L127.563 171.971C125.995 167.245 124.394 162.542 122.881 157.805C121.884 155.354 121.414 152.72 121.501 150.076C122.517 151.511 123.521 152.13 124.813 151.312C125.432 152.671 121.291 153.068 124.107 154.857C124.184 155.332 124.239 155.851 124.913 155.762C125.244 155.762 125.719 155.398 125.432 155.111C125.144 154.824 124.581 154.912 124.129 154.835C124.184 153.62 126.337 152.825 124.835 151.301C125.001 149.745 123.036 148.486 124.206 146.796L127.651 148.519C127.651 148.983 127.651 149.457 127.651 149.921C127.204 150.403 126.919 151.012 126.836 151.663C126.753 152.315 126.876 152.976 127.187 153.554C129.705 158.357 131.096 163.558 132.851 168.637C133.326 170.006 134.232 170.293 135.557 170.227C137.235 170.149 136.815 168.637 137.036 167.864C137.367 166.76 136.296 166.009 135.203 165.788C134.552 165.655 133.304 166.406 134.099 164.772C137.047 161.184 134.629 157.982 133.392 154.691C133.344 154.234 133.466 153.775 133.735 153.402C134.004 153.029 134.401 152.769 134.85 152.671C135.059 152.69 135.266 152.727 135.468 152.781C136.042 154.404 135.877 156.237 136.926 157.717C136.854 158.181 136.854 158.654 136.926 159.119C140.327 168.758 139.134 179.06 141.254 188.931C141.541 190.267 141.254 192.873 142.977 192.542C144.887 192.166 143.926 189.803 143.595 188.28C143.374 187.275 143.396 186.138 142.568 185.343C142.137 177.735 142.954 169.962 139.719 162.696C139.719 161.703 139.874 160.643 138.991 159.859C138.902 158.931 138.726 158.015 138.726 157.087C138.726 155.343 139.554 154.879 141.133 155.63C140.437 159.086 142.546 162.144 142.557 165.501C143.064 166.791 143.319 168.167 143.308 169.553C143.308 172.181 142.535 174.941 144.213 177.437C144.644 178.077 143.97 179.535 145.616 179.192C146.157 179.082 146.996 179.027 147.15 178.696C147.287 178.305 147.296 177.881 147.177 177.484C147.058 177.087 146.817 176.739 146.488 176.487C144.688 175.03 145.24 173.694 145.638 171.651C146.101 169.266 148.034 165.821 144.092 164.043C143.805 161.934 144.809 159.627 143.098 157.761C145.947 156.535 146.3 158.666 146.698 160.521C147.316 163.348 147.117 166.329 148.199 169.078C148.125 173.883 148.849 178.666 150.341 183.234C150.584 185.906 150.827 188.589 151.081 191.261C151.147 191.979 151.258 192.807 152.185 192.751C153.113 192.696 153.102 191.857 153.201 191.15C153.385 188.572 153.131 185.981 152.45 183.488C151.346 177.967 151.412 172.325 149.646 166.925C150.098 163.712 148.729 160.565 149.403 157.22C149.977 159.914 154.703 160.598 152.395 164.86C151.578 166.373 153.808 165.269 154.901 165.898L154.592 165.512C154.576 165.74 154.576 165.969 154.592 166.196C154.653 166.412 154.731 166.622 154.824 166.826C154.935 166.66 155.045 166.506 154.89 165.898C154.747 163.094 154.515 160.676 154.382 158.169C156.657 159.848 156.525 162.277 156.723 164.606C157.066 168.67 155.829 172.821 157.43 176.807C157.461 181.5 157.874 186.183 158.667 190.808C159.031 193.27 159.682 191.504 160.268 190.963C160.544 192.862 160.411 193.878 157.805 193.867C112.955 193.767 68.1148 193.8 23.264 193.723C22.5463 193.723 21.1771 194.827 20.7906 193.083C21.9224 187.007 21.9224 180.774 20.7906 174.698V162.696L22.7671 162.233C21.5967 165.435 24.4675 168.118 23.7277 171.231C22.2702 173.727 23.4737 176.277 23.4958 178.817C23.4958 183.344 23.4958 187.871 23.4958 192.398H24.7767C23.816 182.383 25.8808 172.59 26.0685 162.652C28.1333 162.917 27.8572 164.518 27.8572 165.898C27.8572 173.859 29.0387 181.787 28.6081 189.77C28.5529 190.874 28.067 192.818 30.0435 192.718C32.0199 192.619 31.3133 190.764 31.3353 189.594C31.3208 182.439 30.8969 175.29 30.0656 168.184C29.8205 166.786 30.0417 165.347 30.6949 164.088C31.7991 163.889 32.1303 164.982 32.8039 165.479C31.1587 170.083 32.9032 174.489 33.6099 178.961C32.8228 183.616 32.9616 188.381 34.0184 192.983C36.3482 193.248 37.1432 192.221 36.6353 189.98C36.3813 188.876 36.282 187.772 36.1053 186.668C36.3924 181.014 35.3876 175.427 35.2661 169.796C36.2599 170.249 37.2426 170.79 37.2757 172.004C37.4192 177.713 39.0203 183.333 38.3799 189.097C38.1627 189.798 38.1775 190.551 38.4222 191.243C38.6668 191.935 39.1283 192.53 39.738 192.939C39.1307 187.838 41.2948 183.399 40.1023 179.093C38.9098 174.787 39.0755 170.492 38.9982 166.174C38.9982 164.529 38.9982 162.862 38.9982 161.239C38.9982 160.665 38.9982 159.958 38.1701 159.958C37.8772 159.958 37.5964 160.074 37.3893 160.281C37.1822 160.488 37.0659 160.769 37.0659 161.062C36.9886 162.464 37.0659 163.878 36.9445 165.28C36.8782 166.263 37.2757 167.82 35.8403 167.875C34.4049 167.93 34.9349 166.274 34.5926 165.368C33.7203 163.966 34.1951 162.729 35.0563 161.537C36.1605 159.936 34.4491 160.786 34.1178 160.433V156.292C35.6747 158.235 36.9113 159.417 38.8105 157.728C39.7269 156.911 40.2569 157.628 40.533 158.545C41.2727 164.739 41.0409 170.955 41.074 177.183C41.0133 178.951 41.5118 180.694 42.4984 182.163C42.4432 183.267 42.1229 184.459 43.194 185.331C43.0394 187.661 42.8517 189.991 43.9448 192.255V185.331C45.3029 184.029 44.8502 182.737 43.9448 181.445C43.9448 179.491 43.9448 177.547 43.8123 175.604C43.8123 175.129 43.724 174.268 42.929 174.61C42.6309 174.743 42.664 175.615 42.5425 176.145C42.3404 176.161 42.1373 176.161 41.9352 176.145C43.0394 170.326 42.3107 164.452 42.4211 158.6C42.8627 157.496 41.5157 155.817 42.6309 155.398C45.1783 154.595 47.7796 153.976 50.4152 153.543ZM148.188 192.895C148.63 192.895 149.292 192.895 149.193 192.332C148.553 189.571 148.685 186.612 147.205 184.051C148.045 182.593 147.349 181.588 146.157 180.849C145.295 180.319 144.014 180.981 144.346 181.533C145.582 183.653 143.584 187.198 147.239 188.158L147.371 189.549C146.002 189.814 146.024 190.963 146.101 191.901C146.212 193.226 147.327 192.917 148.188 192.895ZM80.7022 181.058C79.8299 181.312 79.3551 181.71 80.1832 182.549C80.3267 186.082 78.9466 189.803 81.4751 193.05L82.9326 192.961C84.6109 188.832 83.7717 184.713 82.5682 180.716C82.1265 179.259 81.0444 179.314 80.7022 181.058ZM155.31 175.361C155.774 174.257 156.414 172.843 155.111 172.137C154.692 171.916 153.323 171.033 152.682 171.872C151.644 173.23 153.599 174.08 153.599 175.284C151.964 179.071 153.389 182.383 155.31 186.524V175.361ZM73.0062 193.027C74.5851 189.969 73.8122 186.91 73.0062 183.863C73.0062 181.964 71.5929 181.114 70.2789 181.655C68.711 182.251 70.6543 183.3 70.5881 184.183C70.5218 185.067 70.2458 186.016 70.2016 186.933C70.0802 189.362 70.2568 191.736 73.0062 192.994V193.027ZM68.8104 189.605C68.3356 186.513 67.8277 183.178 67.3088 179.833C67.1983 179.181 67.4081 178.21 66.4696 178.166C65.5311 178.121 65.3654 179.126 65.255 179.932C65.0673 183.333 66.2929 186.623 65.9617 190.046C65.8623 191.095 65.5531 192.774 67.2425 192.807C69.2741 192.84 68.446 190.952 68.8104 189.527V189.605ZM75.888 186.966C75.888 188.379 75.888 189.792 75.888 191.206C75.888 191.78 75.888 192.509 76.683 192.553C76.8328 192.553 76.981 192.523 77.1187 192.464C77.2564 192.405 77.3807 192.318 77.484 192.21C77.5873 192.102 77.6674 191.973 77.7195 191.833C77.7717 191.692 77.7947 191.543 77.7872 191.393C77.8534 188.331 77.8534 185.273 77.7872 182.218C77.7962 182.067 77.7744 181.917 77.7229 181.775C77.6715 181.633 77.5916 181.503 77.4882 181.394C77.3847 181.284 77.2599 181.197 77.1215 181.137C76.983 181.078 76.8338 181.047 76.683 181.047C75.9101 181.047 75.877 181.798 75.866 182.372C75.8549 183.874 75.888 185.409 75.888 186.933V186.966ZM25.5606 192.354L25.9471 192.232V177.382H25.5606V192.354ZM122.207 192.354C122.486 191.488 122.41 190.547 121.998 189.737C121.777 188.887 122.097 187.728 120.982 187.341C120.275 187.087 119.878 187.761 119.878 188.313C119.767 189.417 118.674 190.83 120.485 191.625C120.982 191.846 121.523 192.056 122.207 192.343V192.354ZM127.794 159.781C127.353 158.611 127.165 157.209 125.509 157.12C124.681 157.12 124.195 157.441 124.305 158.357C124.353 159.058 124.664 159.715 125.176 160.197C125.688 160.678 126.363 160.948 127.066 160.952C127.872 161.018 127.971 160.433 127.794 159.77V159.781ZM111.718 190.51C111.055 190.598 110.614 190.952 110.779 191.614C110.81 191.962 110.975 192.284 111.239 192.512C111.502 192.741 111.844 192.858 112.193 192.84C112.335 192.853 112.478 192.831 112.61 192.778C112.742 192.725 112.859 192.64 112.952 192.532C113.045 192.424 113.11 192.296 113.144 192.157C113.177 192.018 113.176 191.874 113.142 191.736C113.032 190.93 112.414 190.631 111.718 190.51ZM153.93 168.725C153.742 168.857 153.378 168.979 153.289 169.211C153.234 169.31 153.206 169.423 153.207 169.536C153.208 169.65 153.238 169.762 153.294 169.861C153.351 169.959 153.432 170.042 153.53 170.1C153.628 170.158 153.739 170.191 153.852 170.194C154.006 170.197 154.158 170.163 154.295 170.094C154.431 170.024 154.549 169.922 154.636 169.796C154.857 169.288 154.504 168.968 153.93 168.725ZM138.107 171.861L137.82 171.287C137.688 171.441 137.434 171.618 137.456 171.728C137.552 171.984 137.682 172.225 137.842 172.446L138.107 171.861Z" fill="#D1CFD1"/>
<path d="M30.5072 164.132C29.8539 165.392 29.6328 166.831 29.8778 168.229C30.7091 175.335 31.1331 182.483 31.1476 189.638C31.1476 190.809 31.7438 192.664 29.8557 192.763C27.9676 192.862 28.3651 190.952 28.4203 189.815C28.8509 181.832 27.6805 173.904 27.6695 165.943C27.6695 164.563 27.9455 162.962 25.8808 162.697C23.9485 164.022 25.0306 166.009 24.7766 167.732C24.5779 168.991 25.3397 170.569 23.5179 171.232C24.2577 168.118 21.3868 165.435 22.5573 162.233L20.5808 162.697V158.446C22.7891 157.231 25.2293 159.429 27.9676 157.629L20.5808 156.326V153.499C24.7656 151.136 29.7453 150.805 33.8307 148.21C33.9605 148.137 34.1046 148.092 34.2532 148.08C34.4018 148.067 34.5514 148.086 34.6918 148.137C34.8322 148.187 34.9602 148.267 35.0669 148.371C35.1736 148.475 35.2566 148.601 35.3103 148.74C33.9411 151.103 31.5782 151.964 29.2043 152.815C26.6978 152.616 24.6772 153.786 22.6897 155.023C26.4108 156.591 29.3809 154.493 32.6272 153.234C34.7582 152.406 35.7298 151.468 35.3986 149.259C37.9823 149.701 39.0533 146.93 41.2285 146.51L41.5046 146.665L41.7475 146.466H43.2712C43.6135 146.731 43.7902 146.543 43.9227 146.234L45.8329 145.008L46.7935 144.291H47.1247L48.1185 143.65C48.3261 143.588 48.5421 143.558 48.7589 143.562C49.046 143.462 49.4987 143.451 49.598 143.253C49.863 142.767 49.4103 142.535 49.046 142.314C49.1291 141.97 49.297 141.653 49.5342 141.391C49.7714 141.128 50.0704 140.93 50.4041 140.813C51.5082 140.437 52.9988 138.748 53.7165 139.973C54.4342 141.199 54.3459 143.827 52.6124 144.578C50.8789 145.328 50.1832 146.786 49.1122 148.177C50.8016 148.696 51.3978 146.72 53.0982 146.631L51.5966 149.37C49.9072 150.363 50.2937 151.998 50.3268 153.521H50.4041C47.7888 153.935 45.206 154.533 42.675 155.31C41.5708 155.73 42.9069 157.43 42.4652 158.512H40.5108C40.2348 157.596 39.7048 156.878 38.7883 157.695C36.8892 159.384 35.6525 158.203 34.0957 156.26V160.422C33.9897 160.519 33.866 160.594 33.7313 160.643H32.6272L32.5609 159.87L32.7265 159.705L32.583 159.892C32.2137 159.898 31.8607 160.045 31.5974 160.305C31.3342 160.564 31.181 160.914 31.1697 161.284C30.618 162.124 30.3831 163.134 30.5072 164.132ZM46.4954 150.628C46.2635 149.69 45.612 149.833 44.8612 149.789C42.4873 149.668 40.6544 150.893 38.7442 151.998C38.1038 152.373 37.4634 152.627 37.9381 153.543C38.4129 154.46 39.2521 154.493 39.8925 153.786C40.4663 153.063 41.2288 152.512 42.0958 152.194C42.9628 151.877 43.9007 151.805 44.806 151.987C45.0078 152.019 45.2142 152.009 45.4118 151.957C45.6095 151.905 45.794 151.812 45.9533 151.684C46.1126 151.556 46.2432 151.396 46.3366 151.214C46.43 151.032 46.4841 150.833 46.4954 150.628ZM28.5639 160.246C28.0228 160.135 27.6805 159.959 27.4597 160.036C27.2389 160.113 27.0401 160.466 26.8303 160.698C27.1395 160.809 27.4707 161.041 27.7468 160.985C28.0228 160.93 28.1664 160.599 28.5639 160.246Z" fill="#B5B1B7"/>
<path d="M160.058 149.966C158.887 148.519 159.318 146.797 159.318 145.196C153.963 107.08 150.562 101.913 150.562 50.3487C150.562 29.5464 158.788 17.224 154.371 14.9494C76.418 -24.8775 58.6742 5.68554 20.5809 14.8611C20.3379 13.7569 21.2434 14.3311 21.685 14.1655C66.039 -4.0752 102.553 -16.519 158.291 14.0882C160.5 15.2917 160.047 15.4794 160.047 16.6277C177.559 58.5305 193.591 102.299 160.058 149.966Z" fill="#D1CFD1"/>
<path d="M160.058 180.375C159.073 177.207 158.578 173.908 158.589 170.592C158.678 167.279 158.689 163.967 158.479 160.743C158.391 159.34 158.346 158.402 160.058 158.446V180.375Z" fill="#D1CFD1"/>
<path d="M20.5808 174.721C21.7126 180.797 21.7126 187.03 20.5808 193.105V174.721Z" fill="#B5B1B7"/>
<path d="M20.5808 156.325L27.9676 157.628C25.2293 159.428 22.745 157.231 20.5808 158.445V156.325Z" fill="#A18F8F"/>
<path d="M60.8273 125.994C64.4711 118.111 64.1398 110.536 59.2374 103.227C60.8826 102.299 60.3415 100.809 60.1317 99.4727C59.8005 97.8827 59.2815 96.3258 58.8509 94.7579C58.8509 91.4454 59.0276 88.133 55.3287 86.3774C54.9643 86.2118 54.5005 85.5713 54.5668 85.2732C55.6709 80.3487 52.7339 81.6074 50.1502 82.281C49.7306 82.1153 49.2668 81.3866 48.9245 82.3693C47.5223 81.3645 48.3614 79.8076 47.975 78.5599C48.4608 76.8816 47.5996 75.6119 46.7273 74.3421V66.4694C46.7604 65.9398 46.6699 65.4097 46.4629 64.9211C46.2559 64.4324 45.9382 63.9986 45.5348 63.6538C45.6673 62.8368 45.8108 62.0197 45.9433 61.2026C47.0475 58.9391 45.3581 57.4927 44.3644 55.8475C44.4858 55.3837 44.5963 54.92 44.7177 54.4562C46.3408 53.3521 46.3187 51.4198 46.5948 49.7856C47.0254 47.3013 47.3566 44.8721 49.4104 43.1607C51.1439 42.4761 50.9231 40.7205 51.4751 39.3845C52.9326 37.7614 55.0968 36.7566 55.7041 34.4158C58.0338 33.9852 59.5576 32.0419 61.6996 31.2469C65.6746 30.8494 68.5344 28.5527 71.107 25.7261C71.1995 25.7488 71.2961 25.7486 71.3885 25.7255C71.4808 25.7024 71.5661 25.6571 71.637 25.5936C72.5532 25.8263 73.524 25.6915 74.3422 25.2182C78.5848 23.2672 83.1604 22.1429 87.824 21.9057H89.2925C89.5771 22.1611 89.927 22.3325 90.3033 22.4008C90.6795 22.469 91.0674 22.4314 91.4235 22.2922L93.5104 22.5461C94.7581 23.0209 96.0058 23.6503 97.2424 22.5461L99.0532 22.4799L99.9476 23.1865C103.558 25.715 107.379 27.7246 111.872 28.1331C115.13 31.4456 119.038 34.2943 121.501 38.0705C125.054 43.2842 127.965 48.9083 130.168 54.8206C131.46 58.5306 130.831 62.4503 131.681 66.1934C131.78 66.624 132.09 67.2092 131.526 67.4301C126.646 69.3955 127.982 73.9004 127.761 77.4558C127.574 80.5364 125.498 82.4907 124.681 85.0965C122.793 84.5666 121.512 80.7572 118.939 84.0697C116.146 85.7038 113.496 87.9453 109.918 86.1345C111.42 85.4609 113.231 86.002 114.655 85.0303C115.582 84.4672 116.046 83.8489 115.638 82.7557C115.373 82.027 114.975 81.4418 114.125 81.751C109.598 83.3741 106.186 80.0064 102.222 79.1231L103.183 78.1404C107.279 77.2902 111.342 77.7981 115.406 78.4274C116.179 78.5489 117.239 78.5268 117.228 77.3233C117.228 76.451 116.344 76.3406 115.638 76.2964C114.931 76.2523 113.992 76.2964 113.164 76.2964C110.801 76.2964 110.205 75.1923 111.387 73.1606L112.634 72.9729C114.445 73.3815 116.245 73.8783 118.089 74.1764C119.712 74.4414 120.838 73.4808 120.297 71.9681C118.641 66.878 120.297 61.7216 119.712 56.6204C119.389 54.906 118.413 53.384 116.989 52.3748C115.566 51.3657 113.807 50.9481 112.082 51.21C111.166 51.4088 110.161 52.7337 109.3 51.3977C108.582 50.2936 109.94 49.5206 110.15 48.5932C110.492 47.0142 112.524 45.0157 109.753 43.8232C108.1 43.2632 106.4 42.8566 104.673 42.6086L103.415 42.4982C100.842 42.5534 97.8939 41.1732 96.1051 44.309L95.3764 44.4526C93.1681 44.7949 91.81 46.5505 89.9219 47.4007C89.5244 45.5678 88.4975 45.9101 87.3271 46.6388C86.764 46.9811 86.2229 47.6767 85.4611 47.213C81.729 44.9384 81.7953 45.0046 78.5049 47.6325C77.1689 48.7367 75.9322 50.2383 73.757 49.9844C76.7603 45.4684 81.2653 43.0061 85.1519 39.8372C86.0684 39.0974 86.6204 38.1478 86.1015 37.2424C85.5825 36.337 84.5998 37.0989 83.8932 37.397C82.789 37.8276 81.7953 38.4349 80.7353 38.9428C74.2981 41.9793 69.5391 47.8865 62.1965 49.4323C62.848 50.7352 64.8906 49.7084 64.7913 51.5633C64.725 52.7669 67.8608 50.7573 66.591 53.2196C65.9101 54.179 65.1727 55.097 64.3827 55.9689C64.0395 56.5773 63.7549 57.2169 63.5325 57.8791C63.4629 57.9583 63.4002 58.0433 63.3448 58.1331C63.3448 58.1331 63.4773 58.3097 63.5104 58.2987C63.6255 58.2614 63.7337 58.2054 63.8307 58.1331C64.6529 58.088 65.4477 57.8222 66.1317 57.3637C66.8156 56.9051 67.3633 56.2707 67.7173 55.5273C68.2476 54.4697 69.0273 53.5572 69.9892 52.8685C70.951 52.1798 72.0661 51.7357 73.2381 51.5744C69.9256 53.6944 72.4099 60.0653 66.4475 60.231C66.061 60.231 65.5973 61.3351 65.3433 61.9424C64.7471 63.4551 64.2392 65.012 63.7313 66.5578C61.523 68.1367 58.7295 72.6417 58.862 74.2869C62.4946 70.864 62.4946 70.864 63.6982 66.4805C65.1446 66.7344 65.1004 64.7911 66.6683 64.5813C65.774 69.1084 63.3559 72.995 62.8811 77.4227C62.8463 77.5952 62.7752 77.7583 62.6724 77.9011C62.5695 78.0439 62.4374 78.1631 62.2848 78.2508C59.5576 79.5868 60.3967 81.762 60.6507 84.0255C61.0592 87.7686 64.2944 90.4959 64.3054 94.1838C64.3054 98.7439 65.6194 103.216 64.9127 107.864C64.79 109.103 64.9432 110.353 65.3613 111.525C65.7794 112.697 66.452 113.763 67.3308 114.644C68.2694 115.682 69.0864 116.852 70.0691 117.846C73.216 121.07 75.9212 124.89 80.8236 125.785C81.5744 125.928 82.524 126.215 82.7559 127.11C83.4957 129.925 85.6267 131.14 88.089 132.189C96.0499 135.601 103.216 133.403 107.356 126.856C108.451 125.174 109.403 123.405 110.205 121.567C111.232 119.171 113.021 117.15 116.112 117.393C116.433 119.601 113.805 119.9 113.297 121.589C111.089 122.815 111.906 124.084 113.242 125.365L114.092 128.037C113.231 132.454 112.8 137.047 111.111 141.287C110.084 138.482 110.978 135.49 110.294 132.664C110.062 131.703 109.863 129.605 108.35 130.82C105.91 132.785 102.973 134.541 102.178 138.008C101.722 137.994 101.267 138.073 100.842 138.24C98.0595 140.095 95.3212 141.276 92.4393 138.394C92.0047 138.093 91.5124 137.886 90.9935 137.785C90.4747 137.685 89.9406 137.693 89.425 137.809C89.1967 137.754 88.9638 137.721 88.7294 137.71C88.365 136.396 87.1836 136.396 86.1898 136.175C80.0728 134.795 74.7839 132.156 70.842 127.054C69.8704 125.807 68.2473 125.067 66.9223 124.106C65.3875 123.002 64.714 123.367 64.4931 125.277C63.7352 130.506 63.6054 135.807 64.1067 141.066C64.2613 142.17 64.4379 143.197 63.0025 143.562C61.1255 141.563 61.0592 138.88 60.2753 136.473C60.0876 132.995 62.0309 129.583 60.8273 125.994ZM60.8273 60.0212L60.1096 60.7278C59.7378 60.7665 59.3941 60.9435 59.1467 61.2237C58.8992 61.5039 58.7661 61.8668 58.7736 62.2405L58.6522 62.4613L58.8067 62.2626C59.169 62.2418 59.5149 62.105 59.7933 61.8723C60.0717 61.6396 60.2678 61.3235 60.3526 60.9707L61.0923 60.2862C61.1711 60.2021 61.2346 60.1049 61.2801 59.9991C61.2801 59.9991 61.1476 59.8114 61.1034 59.8335C61.0102 59.8835 60.9247 59.9468 60.8494 60.0212H60.8273ZM56.5984 63.5765L55.958 64.0734L56.7972 63.7753C56.8755 63.7008 56.9425 63.6153 56.9959 63.5213C56.9959 63.5213 56.8634 63.3557 56.8413 63.3668C56.763 63.4315 56.6892 63.5016 56.6205 63.5765H56.5984Z" fill="#47362A"/>
<path d="M116.068 117.393C112.977 117.195 111.188 119.171 110.161 121.567C109.391 123.402 108.472 125.171 107.412 126.856C103.271 133.404 96.1051 135.601 88.1441 132.189C85.6818 131.14 83.5508 129.981 82.811 127.11C82.5792 126.216 81.6296 125.928 80.8788 125.785C75.9763 124.891 73.2711 121.07 70.1243 117.846C69.1416 116.841 68.3245 115.638 67.386 114.644C66.4952 113.761 65.8128 112.69 65.3887 111.509C64.9646 110.329 64.8095 109.068 64.9347 107.82C65.6414 103.172 64.3495 98.7 64.3275 94.1398C64.3275 90.4519 61.0812 87.7246 60.6727 83.9816C60.4187 81.7732 59.5685 79.5649 62.3069 78.2068C62.4594 78.1192 62.5916 77.9999 62.6944 77.8571C62.7972 77.7143 62.8684 77.5512 62.9031 77.3787C63.3337 72.9621 65.796 69.0644 66.6904 64.5374C65.1224 64.7472 65.1666 66.6905 63.7202 66.4365C64.2502 64.8907 64.736 63.3338 65.3322 61.8211C65.5862 61.1807 66.0499 60.1207 66.4364 60.1097C72.3988 59.9441 69.9145 53.5731 73.227 51.4531C72.055 51.6144 70.9399 52.0586 69.9781 52.7473C69.0162 53.436 68.2364 54.3485 67.7062 55.406C67.3701 56.1706 66.8314 56.8289 66.1483 57.3095C65.4653 57.7902 64.6638 58.0751 63.8306 58.1333L63.6098 57.9235C63.8303 57.2306 64.1188 56.5611 64.471 55.9249C65.2609 55.0531 65.9984 54.135 66.6793 53.1756C67.9491 50.7133 64.8133 52.7229 64.8795 51.5194C64.9789 49.6644 62.9362 50.6912 62.2848 49.3883C69.6274 47.8425 74.4305 41.9353 80.8235 38.8989C81.9277 38.3909 82.8994 37.7947 83.9814 37.353C84.6881 37.0549 85.715 36.3593 86.1897 37.1985C86.6645 38.0376 86.1897 39.0534 85.2402 39.7932C81.3535 42.9622 76.8486 45.4244 73.8453 49.9404C76.0536 50.1944 77.2571 48.6596 78.5932 47.5886C81.9056 44.9386 81.8173 44.8944 85.5493 47.169C86.3112 47.6327 86.8522 46.9371 87.4154 46.5948C88.5858 45.8661 89.6237 45.4907 90.0101 47.3567C91.8982 46.5065 93.3226 44.7509 95.5309 44.4196C95.7738 45.7998 94.6697 46.5065 94.0072 47.445C89.3145 54.07 80.9671 55.8256 75.2365 61.1476C75.2365 61.1476 74.9053 60.9268 74.6403 60.7391L76.164 57.0291C72.2553 57.4597 71.2395 59.5466 71.6149 62.8701C71.913 65.509 73.0392 67.9161 73.1165 70.6654C73.1828 72.5867 74.839 74.4858 77.7098 73.6577C79.6606 73.2357 81.638 72.9479 83.6281 72.7965L89.8887 72.8627C90.231 75.6452 93.687 76.5395 93.8747 79.4103C88.3539 76.2966 82.8331 78.0522 77.3123 79.5428C77.1375 79.5723 76.9701 79.6359 76.8199 79.7301C76.6697 79.8244 76.5395 79.9473 76.437 80.092C76.3344 80.2366 76.2614 80.4001 76.2221 80.573C76.1828 80.746 76.1781 80.9249 76.2082 81.0997C76.3186 82.3143 77.4227 81.9499 78.0632 82.3143C76.429 85.4722 73.6465 84.8428 71.1511 84.0699C70.1022 83.7386 69.4287 82.6786 68.1037 83.5951C66.7787 84.5115 67.1431 85.4832 67.1431 86.7088C67.3639 95.3102 69.0864 103.404 74.8721 110.183C75.093 110.448 75.3911 110.79 75.3801 111.078C75.1261 115.329 79.0017 116.411 81.2983 118.63C82.0381 119.337 83.3521 119.657 83.0871 120.838C82.6344 122.903 83.8269 124.029 84.8979 125.498C86.3775 127.529 88.5416 128.347 90.3635 129.694C91.6023 130.719 93.0918 131.397 94.679 131.657C96.2662 131.917 97.8941 131.75 99.3955 131.173C104.143 129.627 105.292 124.902 107.412 121.236C108.284 119.723 108.825 118.277 110.371 117.228C114.445 114.467 117.183 110.89 116.841 105.612C116.708 104.431 116.947 103.238 117.526 102.2C119.247 99.2409 120.467 96.0174 121.136 92.6602C121.876 89.4692 121.644 86.3886 118.928 83.9816C121.501 80.6691 122.781 84.4784 124.67 85.0084C122.914 92.7375 122.605 100.698 120.419 108.328C119.502 111.63 118.553 114.887 116.068 117.393Z" fill="#835A49"/>
<path d="M111.066 141.32C112.756 137.047 113.186 132.487 114.048 128.07C116.09 129.097 116.256 131.317 117.04 133.061C117.385 134.061 117.986 134.954 118.782 135.651C119.577 136.348 120.541 136.825 121.578 137.036C125.741 137.886 129.307 140.47 133.525 141.166C134.883 141.386 136.341 141.983 135.535 144.191C131.957 141.983 128.037 140.879 124.294 139.289C122.572 138.571 119.878 137.4 121.633 141.563C122.318 143.131 122.395 145.505 119.027 143.771C120.253 147.967 118.597 151.898 119.193 155.917C119.723 159.572 122.031 162.973 120.695 166.959L118.586 162.608C117.824 164.596 119.083 166.042 119.005 167.588C118.188 167.809 117.901 167.224 117.559 166.661C117.586 166.315 117.518 165.969 117.362 165.66C117.206 165.35 116.969 165.089 116.676 164.905C116.208 164.946 115.742 164.805 115.376 164.51C115.009 164.216 114.771 163.792 114.71 163.326C114.815 161.958 114.638 160.582 114.191 159.285C114.237 157.778 114.19 156.27 114.048 154.769C113.551 151.379 114.909 147.813 113.131 144.544C113.264 143.264 112.966 142.336 111.42 142.336L111.066 141.32ZM116.952 142.667V152.417C117.029 149.359 119.038 146.3 116.952 142.667Z" fill="#A18F8F"/>
<path d="M58.8508 94.7579C59.2814 96.3258 59.8004 97.8827 60.1316 99.4727C60.3966 100.809 60.8825 102.299 59.2373 103.227C54.9752 103.227 55.1961 98.8102 53.0319 96.8117C53.0427 96.6499 53.0427 96.4876 53.0319 96.3258L52.4909 95.4204L50.5807 88.409C51.994 88.2876 51.3094 86.2007 52.6896 86.0461C55.5163 89.1709 52.5461 94.0402 56.245 97.176C56.5763 95.7738 55.1409 94.25 56.6646 93.5434C57.0952 93.3336 58.1 94.3163 58.8508 94.7579Z" fill="#AF7E67"/>
<path d="M58.8508 94.7578C58.1 94.3162 57.0952 93.3335 56.6425 93.5433C55.174 94.2499 56.5542 95.7516 56.2229 97.1759C52.524 94.0401 55.4942 89.1708 52.6676 86.046C51.2874 86.2227 51.9719 88.2544 50.5586 88.4089C50.4813 87.9452 50.4151 87.4704 50.3488 86.9956C51.5413 85.3615 49.8188 83.8598 50.117 82.2698C52.7117 81.5963 55.6377 80.3376 54.5336 85.2621C54.4673 85.5713 54.9311 86.2117 55.2955 86.3662C59.0275 88.1329 58.906 91.4454 58.8508 94.7578Z" fill="#835A49"/>
<path d="M117.559 166.628C117.879 167.191 118.188 167.732 119.005 167.555C120.308 168.196 121.015 169.686 122.539 169.995L121.578 171.652L119.182 171.53L118.243 171.32L116.466 169.256C115.98 168.008 114.865 168.151 113.827 168.008L113.694 167.875C113.44 165.777 112.59 164.828 110.47 166.131L111.309 162.145C112.833 161.394 113.518 163.139 114.732 163.249C114.793 163.715 115.032 164.139 115.398 164.433C115.764 164.728 116.23 164.869 116.698 164.828C116.612 165.181 116.651 165.553 116.808 165.881C116.965 166.209 117.23 166.473 117.559 166.628Z" fill="#47362A"/>
<path d="M111.873 28.1218C107.379 27.7133 103.558 25.7037 99.9476 23.1752C101.692 22.2587 103.47 23.0206 105.237 23.0537C105.104 23.2856 104.795 23.6389 104.872 23.7494C105.137 24.18 105.535 24.1027 105.877 23.7494C108.295 24.6548 110.801 25.3945 111.873 28.1218Z" fill="#835A49"/>
<path d="M71.107 25.6927C68.5343 28.4972 65.6745 30.7939 61.6996 31.2135C62.1302 26.4214 64.5704 25.0081 71.107 25.6927Z" fill="#A18F8F"/>
<path d="M135.247 152.814C135.045 152.76 134.838 152.723 134.629 152.704L131.747 151.368C132.421 151.268 133.547 151.368 133.68 151.047C134.143 149.943 132.885 149.943 132.288 149.546C129.042 147.536 128.766 147.194 128.899 144.434C131.339 147.746 134.717 148.254 138.173 148.574C138.173 149.027 138.173 149.469 138.173 149.921C136.451 150.186 136.705 152.372 135.247 152.814Z" fill="#A18F8F"/>
<path d="M87.8239 21.8726C83.1603 22.1099 78.5847 23.2341 74.3421 25.1851C73.524 25.6585 72.5531 25.7932 71.637 25.5605C71.668 25.262 71.78 24.9777 71.961 24.7383C72.142 24.4989 72.3851 24.3136 72.6638 24.2024C77.0032 22.5462 81.2652 20.625 86.0683 20.6581C86.9406 20.6581 87.6031 20.901 87.8239 21.8726Z" fill="#A18F8F"/>
<path d="M141.453 149.524C145.052 149.734 148.453 151.467 152.141 149.866C150.275 153.786 144.765 153.521 141.453 149.524Z" fill="#A18F8F"/>
<path d="M49.4104 43.1051C47.3566 44.8718 47.0254 47.3009 46.5948 49.73C46.3187 51.3642 46.3408 53.2523 44.7177 54.4006C44.5079 54.3233 44.1656 54.3012 44.0883 54.1467C42.6971 51.5077 46.4071 43.7786 49.4104 43.1051Z" fill="#A18F8F"/>
<path d="M142.932 157.75C144.644 159.627 143.639 161.924 143.926 164.033C143.727 164.85 143.374 165.512 142.391 165.512C142.391 162.2 140.271 159.097 140.967 155.641C142.524 155.509 141.707 157.585 142.932 157.75Z" fill="#A18F8F"/>
<path d="M137.114 144.257C139.521 143.616 141.287 144.003 143.959 145.747C140.868 146.918 139.874 146.697 137.114 144.257Z" fill="#A18F8F"/>
<path d="M44.3643 55.8476C45.358 57.4928 47.0584 58.9392 45.9432 61.2028C42.8516 60.8936 42.3547 59.0496 44.3643 55.8476Z" fill="#A18F8F"/>
<path d="M97.2423 22.5353C96.0057 23.6394 94.758 23.0321 93.5103 22.5353C94.493 21.4311 94.0182 17.9199 97.1098 20.4153L97.2423 22.5353Z" fill="#A18F8F"/>
<path d="M55.704 34.3602C55.0967 36.701 52.9326 37.6727 51.4751 39.3289C51.0224 36.0496 52.789 34.7246 55.704 34.3602Z" fill="#A18F8F"/>
<path d="M127.419 175.372L126.624 174.776C126.491 173.009 124.924 173.296 123.875 172.854V171.044L127.419 172.07L129.075 172.876C129.329 173.373 129.727 173.395 130.179 173.197L130.477 173.296C129.826 173.901 128.971 174.24 128.081 174.246C127.286 174.268 127.529 174.93 127.419 175.372Z" fill="#47362A"/>
<path d="M50.1391 82.2699C49.841 83.8599 51.5635 85.3615 50.371 86.9957C49.7307 86.4272 49.257 85.6955 49.0003 84.8787C48.7435 84.0619 48.7136 83.1907 48.9135 82.3582C49.2558 81.3755 49.7195 82.1043 50.1391 82.2699Z" fill="#AF7E67"/>
<path d="M46.7162 74.3309C47.5885 75.6007 48.4498 76.8705 47.9639 78.5488C46.2525 77.5219 45.5237 76.208 46.7162 74.3309Z" fill="#A18F8F"/>
<path d="M127.485 148.586L124.04 146.863C126.536 144.743 127.132 146.466 127.485 148.586Z" fill="#A18F8F"/>
<path d="M123.875 171.044V172.866L122.638 173.031L121.534 171.651L122.494 169.995C123.532 169.653 123.455 170.757 123.875 171.044Z" fill="#835A49"/>
<path d="M45.5347 63.6542C45.9406 63.9956 46.2616 64.4267 46.4724 64.9134C46.6832 65.4001 46.778 65.9291 46.7493 66.4587C44.6955 66.2379 43.7901 65.5202 45.5347 63.6542Z" fill="#A18F8F"/>
<path d="M113.197 125.365C111.861 124.084 111.078 122.814 113.253 121.589C113.231 122.847 113.209 124.106 113.197 125.365Z" fill="#A18F8F"/>
<path d="M91.4345 22.3033C91.0783 22.4425 90.6905 22.4801 90.3142 22.4119C89.938 22.3437 89.588 22.1723 89.3035 21.9169C90.1868 21.0998 90.8935 21.2323 91.4345 22.3033Z" fill="#A18F8F"/>
<path d="M97.2424 22.5347L97.1099 20.4368C97.9601 20.9227 98.8213 21.3974 99.0532 22.4685L97.2424 22.5347Z" fill="#835A49"/>
<path d="M138.118 149.943C138.118 149.491 138.118 149.049 138.118 148.596C138.858 148.464 139.664 148.453 139.498 149.491C139.432 150.242 138.692 150.076 138.118 149.943Z" fill="#47362A"/>
<path d="M127.474 149.955V148.552C127.921 148.601 128.349 148.755 128.724 149.003C129.098 149.251 129.408 149.585 129.627 149.977L127.474 149.955Z" fill="#A18F8F"/>
<path d="M129.605 149.977C130.044 150.037 130.464 150.195 130.833 150.439C131.202 150.684 131.511 151.009 131.736 151.39C130.754 151.324 129.848 151.147 129.616 149.966L129.605 149.977Z" fill="#A18F8F"/>
<path d="M157.242 176.852L157.419 176.2C157.905 176.587 157.309 176.631 157.22 176.83L157.242 176.852Z" fill="#D1CFD1"/>
<path d="M148.034 169.068L148.74 167.655L148.023 169.068H148.034Z" fill="#D1CFD1"/>
<path d="M138.814 159.848L138.681 159.991L138.836 159.87L138.814 159.848Z" fill="#D1CFD1"/>
<path d="M139.532 162.674L139.388 162.829L139.543 162.696L139.532 162.674Z" fill="#D1CFD1"/>
<path d="M136.705 157.75L136.837 157.617L136.694 157.728L136.705 157.75Z" fill="#D1CFD1"/>
<path d="M52.4689 95.4204L53.0099 96.3258L52.4689 95.4204Z" fill="#A18F8F"/>
<path d="M148.74 167.655L149.447 166.937L148.74 167.655Z" fill="#D1CFD1"/>
<path d="M53.9706 162.189C54.8981 162.851 54.8208 164.883 56.1016 164.607C57.7026 164.254 57.0953 162.399 57.0512 161.295C56.8745 156.878 56.4991 152.406 56.223 147.956C55.9761 146.081 56.0733 144.177 56.5101 142.336C57.7357 143.739 57.4818 145.052 57.6143 146.223C58.2768 148.84 57.548 151.666 58.7847 154.206C58.2105 159.627 60.8384 164.618 60.993 169.951C60.5072 170.404 60.0324 170.868 59.5576 171.331C59.4582 170.536 59.5576 169.686 58.8399 169.123L58.7626 166.341C58.2768 164.132 57.5149 165.766 56.8414 166.197C56.2782 165.744 56.0022 166.031 55.9801 166.595C55.9509 166.739 55.9564 166.888 55.9964 167.03C56.0364 167.172 56.1096 167.302 56.21 167.41C56.3104 167.518 56.435 167.601 56.5736 167.651C56.7122 167.701 56.8608 167.717 57.007 167.699C58.1112 168.935 55.9028 171.442 58.6522 172.115C58.6852 172.257 58.6852 172.404 58.6522 172.546L53.1314 178.067C51.6629 177.504 53.0652 175.03 50.9893 174.887C52.3033 172.491 49.8852 169.841 51.5745 167.268L53.6172 172.855C55.2183 172.093 55.4612 170.956 54.8208 169.83C53.4737 167.279 53.827 164.74 53.9706 162.189Z" fill="#D1CFD1"/>
<path d="M58.8177 154.195C57.5811 151.655 58.3098 148.829 57.6473 146.212C58.4202 146.322 58.8398 147.581 59.69 147.084C60.5402 146.587 60.0544 145.649 59.955 144.876C59.8142 144.093 59.6299 143.319 59.4029 142.557C59.4029 140.459 59.4802 138.35 59.5134 136.241L60.1979 136.484C60.9819 138.902 61.0481 141.585 62.9252 143.584L64.5483 147.04C63.6208 147.327 62.34 145.649 61.7106 147.625C60.22 149.072 61.1586 150.617 61.5008 152.141C59.7894 157.596 62.605 162.564 63.1571 167.765C62.989 168.281 62.7013 168.75 62.3175 169.134C61.9338 169.517 61.4648 169.805 60.9488 169.973C60.8163 164.64 58.1884 159.649 58.7405 154.228C58.8509 154.018 59.4471 153.952 58.9282 153.565L58.8177 154.195Z" fill="#B5B1B7"/>
<path d="M53.9705 162.189C53.8269 164.74 53.4736 167.279 54.8317 169.697C55.4721 170.801 55.2292 171.961 53.6282 172.723L51.5855 167.136C49.9513 169.708 52.3142 172.358 51.0003 174.754C50.8549 174.787 50.704 174.787 50.5586 174.754C48.2068 173.396 48.8472 170.614 48.6595 168.858C48.3724 166.208 50.0286 163.337 50.128 160.444C50.128 160.201 51.0886 159.992 51.6076 159.76C52.3915 160.588 53.1755 161.394 53.9705 162.189Z" fill="#B5B1B7"/>
<path d="M29.2153 152.815C31.5892 151.965 33.9521 151.103 35.3213 148.741C35.3213 148.928 35.3875 149.105 35.4206 149.293C35.7519 151.501 34.7802 152.44 32.6492 153.268C29.3367 154.526 26.4218 156.58 22.7118 155.056C25.1189 155.034 27.537 155.012 29.2153 152.815Z" fill="#D1CFD1"/>
<path d="M58.6743 136.363C56.466 133.514 57.4707 127.673 60.3747 126.05L59.1822 130.4L58.7295 133.591V134.519L58.6743 136.363Z" fill="#B5B1B7"/>
<path d="M59.1821 130.4L60.3746 126.05L60.8273 125.994C62.0308 129.583 60.0875 132.995 60.198 136.528L59.5134 136.274L59.1821 130.4Z" fill="#835A49"/>
<path d="M59.1821 130.4L59.5134 136.274C59.5134 138.383 59.4361 140.492 59.4029 142.59C58.4423 140.603 59.3146 138.394 58.6742 136.374C58.6742 135.755 58.6742 135.137 58.6742 134.519V133.591L59.1821 130.4Z" fill="#AF7E67"/>
<path d="M50.3378 153.532C50.3378 152.008 49.9183 150.374 51.6076 149.38C51.6969 150.122 51.63 150.875 51.4113 151.59C51.1927 152.305 50.827 152.966 50.3378 153.532Z" fill="#D1CFD1"/>
<path d="M49.0571 142.325C49.4215 142.546 49.8742 142.778 49.6092 143.264C49.5098 143.462 49.0571 143.473 48.77 143.573C48.8584 143.153 48.9577 142.745 49.0571 142.325Z" fill="#D1CFD1"/>
<path d="M43.9559 146.234C43.8234 146.543 43.6467 146.731 43.3044 146.466C43.5256 146.4 43.743 146.322 43.9559 146.234Z" fill="#D1CFD1"/>
<path d="M41.7475 146.466L41.5157 146.687L41.2396 146.532C41.4053 146.488 41.576 146.465 41.7475 146.466Z" fill="#D1CFD1"/>
<path d="M46.8045 144.257L45.8439 144.975L46.8045 144.257Z" fill="#D1CFD1"/>
<path d="M48.1295 143.661L47.1357 144.302L48.1295 143.661Z" fill="#D1CFD1"/>
<path d="M93.5214 176.377C93.5496 176.519 93.5496 176.665 93.5214 176.808C92.2626 176.686 90.8051 177.481 89.8556 175.361C89.7783 181.434 89.7783 181.434 93.9741 180.97C95.9726 183.775 93.146 186.844 94.9347 190.057C90.8824 189.13 91.0812 185.641 89.4912 183.432C90.0543 185.972 88.6741 188.456 89.6016 190.952C89.9991 192.056 89.6016 192.807 88.4202 192.95C87.2387 193.094 86.4327 192.608 86.5431 191.427C86.9737 186.855 84.8869 182.759 84.2133 178.398C85.0856 178.088 85.8364 179.502 86.8854 178.398L80.5255 173.495C80.9892 172.038 79.6752 170.492 80.7684 169.078C82.0161 169.962 83.2085 170.922 84.5225 171.706C85.6266 172.358 85.4721 174.831 86.9406 174.213C88.4091 173.594 86.9406 171.43 87.6031 170.05C87.7356 169.796 87.5037 169.377 87.4485 169.023C86.5321 162.707 86.8854 162.122 92.8589 160.024C96.5688 158.721 97.5515 159.384 97.6951 163.271C97.6951 164.099 97.6951 164.927 97.6951 165.744C97.9049 167.455 98.7992 168.007 100.389 167.179L101.184 167.003C101.184 168.681 100.268 170.503 101.979 171.916C101.531 172.411 100.986 172.809 100.379 173.086C99.7711 173.363 99.1135 173.514 98.4459 173.528C98.043 173.368 97.6098 173.297 97.1768 173.322C96.7438 173.347 96.3214 173.466 95.9395 173.672C94.1397 173.606 93.8526 175.008 93.5214 176.377Z" fill="#B5B1B7"/>
<path d="M111.42 142.248C112.966 142.248 113.264 143.23 113.131 144.456C111.828 150.993 110.503 157.529 109.211 164.066C109.055 164.512 109.012 164.99 109.088 165.457C109.163 165.923 109.353 166.364 109.642 166.738C109.41 170.349 110.746 174.081 108.803 177.57C106.274 178.243 106.981 180.209 107.169 181.876C107.511 184.879 107.997 187.871 108.273 190.875C108.361 191.637 108.273 192.708 107.169 192.675C106.263 192.675 106.296 191.747 106.186 191.062C105.535 186.8 104.408 182.605 104.74 178.21C104.85 176.731 105.049 175.052 102.995 174.522C103.15 173.043 104.397 172.976 105.435 172.491C107.091 171.707 107.069 171.155 105.623 170.006C105.501 168.184 106.606 166.329 105.49 164.485C106.311 163.265 106.823 161.863 106.981 160.4C108.085 157.496 109.079 154.559 108.549 151.357C109.169 148.224 110.132 145.17 111.42 142.248Z" fill="#B5B1B7"/>
<path d="M33.4222 179.005C32.7155 174.533 30.971 170.171 32.6162 165.523L34.5705 165.39C34.9128 166.296 34.3497 167.952 35.8182 167.897C37.2868 167.842 36.812 166.285 36.9224 165.302C37.0218 163.9 36.9224 162.487 37.0438 161.084C37.0438 160.791 37.1602 160.511 37.3672 160.304C37.5743 160.096 37.8552 159.98 38.148 159.98C38.943 159.98 38.9651 160.687 38.9761 161.261C38.9761 162.906 38.9761 164.573 38.9761 166.196C39.0865 170.514 38.9761 174.787 40.0803 179.115C41.1844 183.443 39.1086 187.86 39.7159 192.961C39.1062 192.552 38.6448 191.957 38.4001 191.265C38.1554 190.573 38.1406 189.82 38.3578 189.119C38.9761 183.355 37.3751 177.735 37.2536 172.026C37.2536 170.801 36.2378 170.26 35.2441 169.818C32.7487 169.741 34.1399 171.165 34.2393 172.225C34.5595 174.511 35.9728 177.006 33.4222 179.005Z" fill="#B5B1B7"/>
<path d="M50.9672 183.244C48.6706 185.85 49.8631 189.538 47.9198 192.387C48.5381 185.353 44.6073 178.993 45.5569 171.783C46.0758 167.742 44.8833 163.458 44.3202 159.306C44.1325 157.948 43.735 156.347 45.4244 156.16C47.5223 155.917 46.6831 157.893 46.7715 158.975C47.3014 165.368 47.71 171.772 48.2731 178.165C48.4982 179.182 48.8702 180.16 49.3773 181.069C49.6315 181.091 49.8781 181.168 50.1004 181.293C50.3228 181.418 50.5157 181.59 50.6663 181.796C50.8169 182.002 50.9217 182.238 50.9736 182.488C51.0255 182.737 51.0233 182.995 50.9672 183.244Z" fill="#B5B1B7"/>
<path d="M129.627 149.944C129.859 151.125 130.731 151.302 131.747 151.368L134.629 152.704C134.18 152.802 133.783 153.063 133.514 153.436C133.245 153.809 133.123 154.268 133.172 154.725C132.178 158.17 133.017 161.482 133.878 164.806C133.127 166.44 134.375 165.689 134.982 165.822C136.087 166.043 137.191 166.749 136.815 167.897C136.595 168.67 137.014 170.183 135.336 170.26C134.011 170.327 133.127 170.04 132.631 168.67C130.875 163.591 129.484 158.391 126.966 153.588C126.655 153.009 126.532 152.348 126.615 151.697C126.698 151.045 126.983 150.436 127.43 149.955L129.627 149.944Z" fill="#B5B1B7"/>
<path d="M138.074 187.396C137.688 188.721 139.598 189.472 138.869 190.952C137.964 192.774 136.241 192.796 134.684 192.862C132.907 192.95 133.293 191.382 133.139 190.278C132.513 185.663 131.88 181.044 131.239 176.421C132.995 176.421 134.452 177.404 136.009 178.055C135.943 181.335 135.744 184.647 138.074 187.396Z" fill="#B5B1B7"/>
<path d="M148.729 167.643L149.436 166.926C151.203 172.292 151.18 177.967 152.24 183.488C152.921 185.982 153.175 188.573 152.991 191.151C152.892 191.858 152.87 192.708 151.975 192.752C151.081 192.796 150.949 191.979 150.871 191.261C150.617 188.589 150.374 185.906 150.131 183.234L150.297 183.091L150.143 183.245C148.65 178.678 147.926 173.894 148 169.09C148.254 168.549 148.486 168.107 148.729 167.643Z" fill="#B5B1B7"/>
<path d="M61.0039 169.951C61.52 169.782 61.989 169.495 62.3727 169.111C62.7565 168.727 63.0441 168.258 63.2123 167.742C63.4489 167.697 63.6727 167.6 63.8681 167.459C64.0634 167.318 64.2257 167.136 64.3434 166.925C64.4612 166.715 64.5316 166.482 64.5498 166.241C64.5681 166.001 64.5336 165.76 64.4489 165.534L64.3495 164.739L64.482 163.966L65.2881 163.359C67.4964 162.122 69.0091 162.707 69.8703 165.114C70.165 165.726 70.536 166.297 70.9745 166.815L72.454 168.935L70.1132 171.077L68.6668 171.265L66.8228 169.652C66.1051 168.902 65.5199 168.029 64.217 168.913C62.5829 170.017 61.2137 171.121 61.7989 173.396C61.6002 173.859 61.7106 174.5 61.026 174.687C60.8273 174.069 61.2248 173.164 60.1979 172.932C59.9583 172.749 59.7731 172.504 59.6622 172.224C59.5513 171.944 59.5189 171.639 59.5685 171.342L61.0039 169.951Z" fill="#835A49"/>
<path d="M122.638 173.031L123.875 172.866C124.979 173.296 126.491 173.009 126.624 174.776C124.129 174.941 124.802 176.609 124.957 178.088C125.369 182.284 125.737 186.484 126.061 190.687C126.127 191.482 126.182 192.575 125.1 192.663C124.018 192.751 123.996 191.647 123.919 190.863C123.08 184.978 122.163 179.06 122.638 173.031Z" fill="#B5B1B7"/>
<path d="M115.351 173.318C117.018 177.282 115.847 181.6 116.83 185.674C117.217 187.22 116.83 188.986 117.294 190.543C117.581 191.416 117.868 192.575 116.521 192.752C115.417 192.928 114.765 191.934 114.832 190.952C115.13 186.844 113.473 182.836 114.235 178.729C114.489 177.36 113.871 175.902 114.743 174.621C114.942 174.202 115.141 173.76 115.351 173.318Z" fill="#B5B1B7"/>
<path d="M108.803 177.625C110.691 174.136 109.41 170.404 109.653 166.793L110.47 166.13C112.568 164.828 113.44 165.777 113.694 167.875C113.054 168.239 111.917 168.041 112.005 169.266C112.325 173.274 111.243 177.117 110.647 181.014C111.486 183.41 110.481 185.773 110.525 188.158C108.924 184.813 109.101 181.191 108.803 177.625Z" fill="#A18F8F"/>
<path d="M53.1424 177.934L58.6632 172.414C58.9503 173.396 59.2374 174.379 59.5355 175.362L59.3699 176.886C58.067 177.062 57.7136 177.758 57.8572 179.094C58.0891 181.148 58.067 183.234 58.1553 185.31C57.8742 185.587 57.6619 185.926 57.5354 186.3C57.4088 186.674 57.3716 187.072 57.4266 187.463L56.7089 188.91C55.2624 186.183 56.3666 183.245 55.9801 180.419L56.1457 180.297L56.0022 180.441C55.6855 180.268 55.3286 180.182 54.9679 180.192C54.6071 180.201 54.2554 180.306 53.9485 180.496C53.7056 180.231 53.4626 180.043 53.1645 180.43C52.1377 179.591 53.4406 178.752 53.1424 177.934Z" fill="#B5B1B7"/>
<path d="M142.391 165.512C143.374 165.512 143.727 164.85 143.926 164.033C147.868 165.81 145.936 169.255 145.472 171.64C145.074 173.683 144.522 175.019 146.322 176.477C146.651 176.728 146.892 177.077 147.011 177.473C147.13 177.87 147.121 178.294 146.985 178.685C146.83 179.016 145.991 179.071 145.45 179.182C143.805 179.524 144.478 178.078 144.048 177.426C142.369 174.931 143.131 172.17 143.142 169.542C143.151 168.164 142.896 166.796 142.391 165.512Z" fill="#B5B1B7"/>
<path d="M68.8104 189.527C68.446 190.907 69.2742 192.773 67.2425 192.729C65.5531 192.729 65.8623 191.018 65.9617 189.969C66.2929 186.546 65.0673 183.256 65.255 179.855C65.3102 179.049 65.3654 178.033 66.4696 178.088C67.5738 178.143 67.1983 179.104 67.3088 179.755C67.8277 183.145 68.3356 186.48 68.8104 189.527Z" fill="#B5B1B7"/>
<path d="M99.7046 176.929C97.7724 177.779 98.6005 179.524 98.5122 180.893C98.3907 183.311 98.5122 185.74 98.5122 188.169L98.3465 188.302L98.4901 188.147C98.7985 188.63 99.0156 189.165 99.1305 189.726C99.1305 190.83 99.7819 192.476 98.214 192.685C96.6461 192.895 97.1099 191.173 96.9553 190.267C96.3259 185.564 95.4205 180.838 96.9553 176.134C97.6178 175.737 98.2361 175.163 99.1636 175.439L99.7046 176.929Z" fill="#B5B1B7"/>
<path d="M33.4221 179.005C35.9727 177.006 34.5263 174.511 34.2281 172.17C34.0846 171.066 32.7375 169.686 35.2329 169.763C35.3544 175.394 36.3371 180.981 36.0721 186.635C35.6414 186.138 35.1556 185.177 34.7802 185.221C33.676 185.343 34.1067 186.447 34.0735 187.154C33.9852 189.097 34.0073 191.04 33.9852 192.983C32.8828 188.406 32.6915 183.656 33.4221 179.005Z" fill="#A18F8F"/>
<path d="M102.973 174.865C103.669 178.09 103.733 181.42 103.161 184.67C102.931 185.926 102.969 187.216 103.271 188.457C103.613 189.749 103.912 190.952 102.542 191.869C102.046 192.2 101.438 192.719 100.997 192.244C100.168 191.283 100.61 190.036 100.599 188.854C101.825 187.596 101.262 186.006 101.372 184.537C101.615 181.468 101.85 178.398 102.079 175.328L102.973 174.865Z" fill="#B5B1B7"/>
<path d="M23.518 171.232C25.3398 170.569 24.6221 169.023 24.7767 167.732C25.0307 166.031 23.9486 164.022 25.8809 162.697C25.7263 172.634 23.6725 182.428 24.589 192.443H23.3082C23.3082 187.916 23.3082 183.388 23.3082 178.861C23.264 176.278 22.0605 173.727 23.518 171.232Z" fill="#A18F8F"/>
<path d="M40.5109 158.545H42.4431C42.3327 164.397 43.0063 170.271 41.9573 176.09C42.134 178.121 42.2996 180.142 42.4763 182.174C41.4897 180.705 40.9912 178.962 41.0519 177.194C41.0188 170.955 41.2506 164.739 40.5109 158.545Z" fill="#A18F8F"/>
<path d="M53.1424 177.934C53.4405 178.751 52.1376 179.568 53.1424 180.374C53.1424 180.849 53.1424 181.323 53.1424 181.798C52.1928 182.902 52.513 184.161 52.6566 185.409C52.1707 187.341 54.1361 189.362 52.3695 191.625C50.901 188.765 52.3695 185.751 50.9782 183.245C51.0396 182.996 51.0469 182.737 50.9995 182.485C50.9521 182.233 50.8512 181.995 50.7036 181.785C50.556 181.576 50.3651 181.401 50.1439 181.272C49.9227 181.142 49.6763 181.062 49.4214 181.036C50.2053 179.016 49.4214 176.708 50.5255 174.754C50.6709 174.787 50.8218 174.787 50.9672 174.754C53.0761 174.897 51.6849 177.382 53.1424 177.934Z" fill="#A18F8F"/>
<path d="M70.0912 171.121L72.432 168.979L75.093 169.785L76.6057 170.514C75.9653 171.839 77.1909 172.855 77.2351 174.069C74.6403 176.697 73.8232 173.396 72.1228 172.38C70.9193 174.323 72.1891 176.366 71.626 178.188C70.1243 176.046 70.5549 173.484 70.0912 171.121Z" fill="#A18F8F"/>
<path d="M77.235 174.07C77.235 172.855 75.9652 171.862 76.6056 170.515C76.7736 170.459 76.9481 170.426 77.1246 170.415C77.9527 171.795 79.3329 172.513 80.5475 173.507L86.9074 178.409C85.8033 179.513 85.1076 178.067 84.2354 178.409C83.4404 177.029 82.2148 176.886 80.7241 176.665C79.9892 176.511 79.2965 176.199 78.694 175.751C78.0916 175.303 77.5937 174.73 77.235 174.07Z" fill="#835A49"/>
<path d="M102.973 174.864L102.079 175.328C101.89 175.121 101.659 174.957 101.401 174.849C101.143 174.74 100.864 174.689 100.584 174.7C100.305 174.71 100.031 174.782 99.7813 174.909C99.5321 175.037 99.3137 175.218 99.1416 175.438C98.2582 175.162 97.6399 175.736 96.9333 176.134C96.8054 176.054 96.6626 176.002 96.5137 175.979C96.5137 175.593 96.5137 175.195 96.5137 174.809C97.3528 174.676 98.2251 174.599 98.4791 173.539C99.1449 173.524 99.8006 173.373 100.406 173.096C101.012 172.819 101.555 172.421 102.001 171.927L103.448 171.265L105.656 170.061C107.103 171.165 107.125 171.761 105.468 172.545C104.43 173.031 103.183 173.097 103.028 174.577L102.973 174.864Z" fill="#835A49"/>
<path d="M61.799 173.385C61.2138 171.176 62.5829 170.072 64.2171 168.902C65.52 168.019 66.1052 168.902 66.8229 169.642C66.5907 169.904 66.3905 170.193 66.2266 170.503C65.5642 172.016 66.6241 174.114 65.3212 175.196C63.3006 176.863 63.8969 172.303 61.799 173.385Z" fill="#B5B1B7"/>
<path d="M118.961 176.819C119.149 179.027 121.733 180.131 121.578 182.671C121.501 183.775 122.075 184.725 120.363 184.879C119.005 185.001 118.63 184.714 118.497 183.245C118.299 181.114 117.161 179.094 117.603 176.841L118.961 176.819Z" fill="#B5B1B7"/>
<path d="M155.31 175.361V186.524C153.389 182.384 151.998 179.071 153.599 175.284L155.31 175.361Z" fill="#A18F8F"/>
<path d="M93.9962 180.97C89.8004 181.434 89.8004 181.434 89.8777 175.361C90.8273 177.481 92.2848 176.686 93.5435 176.808C93.8417 178.177 94.5041 179.502 93.9962 180.97Z" fill="#A18F8F"/>
<path d="M136.009 178.055C134.452 177.404 132.995 176.465 131.239 176.421L129.671 175.428H128.269H128.159L128.093 174.257C128.982 174.251 129.837 173.913 130.489 173.308C130.95 173.187 131.435 173.189 131.896 173.313C132.357 173.437 132.777 173.679 133.116 174.014C134.508 174.622 134.905 176.057 135.733 177.139L136.009 178.055Z" fill="#835A49"/>
<path d="M136.009 178.055C135.921 177.746 135.833 177.437 135.733 177.128L138.041 176.918V187.396C135.744 184.647 135.943 181.334 136.009 178.055Z" fill="#A18F8F"/>
<path d="M70.0912 171.121C70.5549 173.484 70.0912 176.046 71.626 178.188V178.254L71.5597 179.668C67.6841 179.403 68.987 176.079 68.3245 173.992C68.0706 173.219 68.5343 172.215 68.6779 171.309L70.0912 171.121Z" fill="#B5B1B7"/>
<path d="M99.1636 175.439C99.3357 175.218 99.5541 175.037 99.8033 174.91C100.053 174.782 100.327 174.711 100.606 174.7C100.886 174.69 101.165 174.74 101.423 174.849C101.681 174.957 101.912 175.121 102.101 175.328C101.872 178.398 101.637 181.467 101.394 184.537C101.284 186.005 101.847 187.595 100.621 188.854C100.301 184.89 100.897 180.838 99.7267 176.929L99.1636 175.439Z" fill="#A18F8F"/>
<path d="M34.5705 165.391L32.6161 165.523C31.9426 165.026 31.6555 163.933 30.5072 164.132C30.3934 163.125 30.6441 162.11 31.2138 161.272L32.6713 160.632H33.7755C33.9101 160.583 34.0339 160.508 34.1398 160.411C34.4711 160.764 36.2377 159.914 35.0784 161.515C34.173 162.752 33.6982 163.988 34.5705 165.391Z" fill="#A18F8F"/>
<path d="M133.878 164.806C133.017 161.493 132.178 158.181 133.172 154.725C134.408 158.015 136.826 161.217 133.878 164.806Z" fill="#A18F8F"/>
<path d="M128.269 175.406H129.672C129.473 179.822 131.096 184.239 130.179 188.832C129.241 188.214 129.594 187.43 129.396 186.822C129.518 186.443 129.536 186.037 129.446 185.648C129.357 185.259 129.164 184.902 128.888 184.614L128.269 175.406Z" fill="#A18F8F"/>
<path d="M138.041 176.918L135.733 177.128C134.905 176.024 134.508 174.61 133.116 174.003C134.132 173.617 133.37 171.629 134.916 171.861C135.384 171.964 135.799 172.233 136.084 172.619C136.368 173.005 136.503 173.481 136.462 173.959C136.274 175.472 138.77 175.317 138.041 176.918Z" fill="#B5B1B7"/>
<path d="M82.9325 192.962C82.4135 189.484 83.86 185.73 81.475 182.505L80.7131 181.07C81.0554 179.326 82.1375 179.27 82.5792 180.728C83.7717 184.714 84.6108 188.832 82.9325 192.962Z" fill="#A18F8F"/>
<path d="M115.351 173.318C115.141 173.76 114.942 174.202 114.743 174.654C112.943 172.645 113.175 170.359 113.827 168.029C114.865 168.118 116.035 168.029 116.466 169.277C115.284 170.392 115.339 171.861 115.351 173.318Z" fill="#A18F8F"/>
<path d="M25.5605 192.321V177.382H25.947V192.233L25.5605 192.321Z" fill="#A18F8F"/>
<path d="M127.794 159.771C127.971 160.433 127.794 161.019 127.066 160.941C126.363 160.937 125.688 160.668 125.176 160.186C124.664 159.705 124.353 159.048 124.305 158.346C124.195 157.43 124.681 157.055 125.509 157.11C127.165 157.198 127.353 158.611 127.794 159.771Z" fill="#B5B1B7"/>
<path d="M155.31 175.361L153.599 175.284C153.599 174.047 151.644 173.23 152.682 171.872C153.323 171.033 154.692 171.872 155.111 172.137C156.436 172.844 155.774 174.224 155.31 175.361Z" fill="#B5B1B7"/>
<path d="M128.976 186.789C128.821 187.551 129.219 188.445 127.993 189.395C127.739 185.74 126.006 182.483 128.115 179.016C128.203 180.849 128.302 182.682 128.391 184.537C128.28 184.93 128.276 185.346 128.378 185.742C128.481 186.138 128.687 186.499 128.976 186.789Z" fill="#A18F8F"/>
<path d="M42.4762 182.163C42.2996 180.131 42.1339 178.11 41.9573 176.079C42.1594 176.095 42.3625 176.095 42.5646 176.079C43.7681 177.647 42.686 179.822 43.9668 181.379V185.309H43.216C43.3194 184.762 43.311 184.199 43.1915 183.654C43.072 183.109 42.8437 182.595 42.5204 182.14L42.4762 182.163Z" fill="#B5B1B7"/>
<path d="M43.9559 181.423C42.675 179.866 43.7571 177.691 42.5536 176.123C42.675 175.593 42.6419 174.721 42.94 174.588C43.735 174.246 43.8013 175.107 43.8234 175.582C43.9559 177.526 43.9559 179.469 43.9559 181.423Z" fill="#A18F8F"/>
<path d="M96.5689 174.809C96.5689 175.196 96.5689 175.593 96.5689 175.98L93.5325 176.377C93.8637 175.008 94.1508 173.606 96.0279 173.683C96.0058 174.147 95.9947 174.621 96.5689 174.809Z" fill="#A18F8F"/>
<path d="M124.67 151.368C126.193 152.892 124.018 153.687 123.963 154.901C121.147 153.112 125.288 152.693 124.67 151.357V151.368Z" fill="#B5B1B7"/>
<path d="M118.961 176.818H117.603C117.272 175.538 118.144 174.511 118.343 173.34L119.237 173.23C119.149 174.433 119.038 175.626 118.961 176.818Z" fill="#A18F8F"/>
<path d="M153.93 168.725C154.504 168.968 154.857 169.288 154.637 169.829C154.549 169.955 154.431 170.057 154.295 170.127C154.158 170.196 154.006 170.23 153.853 170.227C153.739 170.224 153.628 170.192 153.53 170.133C153.432 170.075 153.351 169.992 153.294 169.894C153.238 169.795 153.208 169.683 153.207 169.569C153.206 169.456 153.234 169.343 153.289 169.244C153.378 168.979 153.742 168.857 153.93 168.725Z" fill="#B5B1B7"/>
<path d="M119.237 173.241L118.343 173.351L118.244 171.32L119.182 171.53C119.312 171.629 119.419 171.756 119.494 171.902C119.569 172.048 119.611 172.208 119.616 172.372C119.622 172.536 119.59 172.699 119.525 172.849C119.459 173 119.361 173.133 119.237 173.241Z" fill="#B5B1B7"/>
<path d="M130.19 173.197C129.727 173.396 129.329 173.374 129.086 172.877L129.981 171.64L130.19 173.197Z" fill="#835A49"/>
<path d="M53.2859 182.417C53.2566 182.206 53.2048 181.999 53.1313 181.799C53.1313 181.324 53.1313 180.849 53.1313 180.375C53.4295 179.988 53.6724 180.176 53.9153 180.441C53.9153 181.092 53.7938 181.733 53.7386 182.384L53.2859 182.417Z" fill="#835A49"/>
<path d="M138.107 171.861L137.842 172.447C137.682 172.226 137.552 171.984 137.456 171.729C137.456 171.618 137.688 171.442 137.82 171.287L138.107 171.861Z" fill="#B5B1B7"/>
<path d="M123.963 154.901C124.416 154.978 125.067 154.901 125.266 155.177C125.465 155.453 125.078 155.773 124.747 155.829C124.073 155.917 124.018 155.398 123.941 154.923L123.963 154.901Z" fill="#B5B1B7"/>
<path d="M60.198 172.965C61.2249 173.186 60.8274 174.069 61.0261 174.71L60.6065 175.483C60.4848 175.438 60.3591 175.405 60.2311 175.383L60.198 172.965Z" fill="#B5B1B7"/>
<path d="M59.3147 176.929L59.4803 175.405L60.2311 175.35C60.3591 175.371 60.4848 175.405 60.6066 175.449C60.3857 176.189 60.7832 177.117 59.8999 177.658C59.6808 177.435 59.4847 177.191 59.3147 176.929Z" fill="#A18F8F"/>
<path d="M155.001 166.34L154.636 166.881C154.543 166.678 154.465 166.467 154.405 166.252C154.388 166.024 154.388 165.795 154.405 165.567L155.001 166.34Z" fill="#B5B1B7"/>
<path d="M128.092 174.246L128.159 175.416H127.419C127.529 174.931 127.286 174.268 128.092 174.246Z" fill="#B5B1B7"/>
<path d="M71.5597 179.668L71.637 178.254C72.5203 178.773 72.3657 179.237 71.5597 179.668Z" fill="#A18F8F"/>
<path d="M46.4954 150.628C46.4841 150.832 46.43 151.031 46.3367 151.213C46.2433 151.395 46.1127 151.555 45.9534 151.683C45.794 151.811 45.6096 151.904 45.4119 151.957C45.2142 152.009 45.0078 152.019 44.8061 151.986C43.9048 151.799 42.9696 151.864 42.1029 152.174C41.2362 152.484 40.4715 153.026 39.8926 153.741C39.2522 154.448 38.4793 154.536 37.9382 153.499C37.3972 152.461 38.1038 152.328 38.7442 151.953C40.6544 150.849 42.4873 149.645 44.8613 149.744C45.6121 149.833 46.2636 149.689 46.4954 150.628Z" fill="#A18F8F"/>
<path d="M29.2153 152.815C27.537 155.023 25.1189 155.023 22.7008 155.023C24.6883 153.787 26.7089 152.616 29.2153 152.815Z" fill="#A18F8F"/>
<path d="M28.5639 160.245C28.1664 160.598 27.9566 160.94 27.6916 160.985C27.4266 161.029 27.0843 160.808 26.7751 160.698C26.9849 160.466 27.1506 160.112 27.4045 160.035C27.6585 159.958 28.0228 160.134 28.5639 160.245Z" fill="#D1CFD1"/>
<path d="M32.6714 160.632L31.2139 161.272C31.2252 160.903 31.3784 160.552 31.6416 160.293C31.9049 160.034 32.2579 159.886 32.6272 159.881L32.6714 160.632Z" fill="#D1CFD1"/>
<path d="M32.6383 159.87L32.7708 159.682L32.6162 159.848L32.6383 159.87Z" fill="#D1CFD1"/>
<path d="M118.939 84.0363C121.6 86.4434 121.832 89.5571 121.147 92.715C120.465 96.0908 119.226 99.3297 117.482 102.299C116.903 103.337 116.664 104.53 116.797 105.711C117.139 110.989 114.401 114.544 110.327 117.327C108.781 118.431 108.24 119.822 107.368 121.335C105.248 125.001 104.055 129.726 99.3513 131.272C97.8476 131.841 96.2197 132 94.6345 131.732C93.0493 131.464 91.5639 130.779 90.3304 129.748C88.5085 128.401 86.3444 127.54 84.8648 125.553C83.7607 124.084 82.6013 122.958 83.054 120.893C83.319 119.656 81.9498 119.336 81.2653 118.685C78.9686 116.476 75.093 115.372 75.347 111.132C75.347 110.845 75.0599 110.503 74.8391 110.238C69.0864 103.403 67.3639 95.3098 67.1431 86.7084C67.1431 85.4828 66.856 84.5001 68.0816 83.6168C69.3073 82.7334 70.0802 83.7603 71.1291 84.0916C73.6245 84.8645 76.407 85.4938 78.0411 82.3359L83.5619 83.3738L84.4784 83.8928C91.1033 87.6359 91.9645 89.9105 89.3919 97.1427C89.3195 97.5999 89.3195 98.0656 89.3919 98.5229C89.3919 102.641 90.3304 103.492 95.8291 104.64C95.9947 106.716 96.6903 107.522 98.468 105.744L100.422 105.38C101.239 106.108 103.139 105.954 102.94 107.367C102.741 108.78 100.93 108.792 99.7488 108.924C95.2218 109.244 90.6837 109.421 86.1456 109.609C84.6219 109.675 83.054 109.443 82.1044 111.044C82.0434 111.105 81.9879 111.172 81.9388 111.243C81.9735 111.289 82.0144 111.329 82.0603 111.364C82.1314 111.315 82.1979 111.26 82.259 111.199C83.8111 111.616 85.3851 111.948 86.9738 112.192C89.9881 112.501 92.9804 114.003 96.061 112.501L99.2741 113.319L101.979 115.251C98.9759 117.779 95.1114 115.946 91.7768 117.371C93.3558 119.215 95.0893 118.729 96.7124 118.917C105.479 119.91 105.479 119.899 107.644 111.773L109.024 111.055C110.128 111.53 111.232 112.281 112.27 111.188C113.308 110.094 112.69 108.692 112.502 107.467C112.248 105.832 110.901 106.76 110.006 106.517C107.844 106.071 105.897 104.903 104.486 103.204L104.916 101.979L105.479 101.14L105.789 99.7595C106.716 97.9708 106.175 96.1821 105.888 94.3602C105.093 89.2811 106.385 86.7194 109.951 86.1011C113.518 87.9451 116.146 85.6705 118.939 84.0363ZM77.5774 94.1283C77.4182 94.6122 77.4011 95.1315 77.5284 95.6248C77.6556 96.118 77.9217 96.5643 78.2951 96.9108C80.5034 99.4835 83.2969 99.3179 86.0242 96.3256C86.6204 95.6741 87.7577 95.0779 87.316 94.029C86.8744 92.98 85.5936 92.8696 84.5667 92.8585C83.5398 92.8475 82.3584 93.4548 81.2542 92.4942C78.7588 90.3411 77.8534 91.8869 77.5774 94.1283ZM81.994 86.0128C81.4744 85.8526 80.9363 85.7598 80.393 85.7367C80.1722 85.7367 79.7967 86.2336 79.8519 86.3882C80.0176 86.8851 80.5365 86.9292 80.9561 86.7967C81.2763 86.7305 81.4971 86.4434 81.983 86.0128H81.994ZM84.5777 85.4276C84.4229 85.5435 84.2754 85.6688 84.1361 85.803C84.1845 85.8849 84.2399 85.9625 84.3017 86.0349C84.4611 85.929 84.6091 85.8069 84.7434 85.6705C84.6924 85.5841 84.6332 85.5027 84.5667 85.4276H84.5777Z" fill="#AF7E67"/>
<path d="M83.6281 72.818C81.638 72.9695 79.6606 73.2573 77.7098 73.6793C74.839 74.5074 73.1828 72.5751 73.1165 70.687C73.0392 67.9377 71.913 65.5306 71.6149 62.8917C71.2395 59.5792 72.2553 57.4813 76.164 57.0507L74.5851 60.7717C74.8501 60.9594 75.1482 61.2134 75.1813 61.1802C80.8677 55.8582 89.2151 54.1468 93.952 47.4777C94.6144 46.5391 95.7186 45.8325 95.4757 44.4523L96.2044 44.2977C98.7992 44.375 101.438 44.5627 103.503 42.4869L104.762 42.5973C106.561 45.1258 106.694 48.1181 106.661 50.9889C106.661 52.9543 107.401 53.9591 109.377 53.5726C111.806 53.0978 112.623 54.8424 112.292 56.3661C111.32 60.7165 112.645 64.6252 114.379 68.3131C115.604 70.9189 115.13 72.1003 112.678 72.9726L111.431 73.1603C107.367 72.6414 105.965 76.4728 103.227 78.1622L102.266 79.1449C100.754 80.7128 101.482 82.634 101.372 84.4448C101.008 89.9656 103.79 95.0226 103.58 100.51C101.67 102.465 99.7267 103.348 97.695 100.654C98.3686 100.455 99.0532 100.289 99.7046 100.035C100.665 99.6822 101.339 99.0749 101.085 97.9266C100.897 97.0322 100.345 96.3807 99.4065 96.4691C98.225 96.5795 98.0263 97.5732 97.9269 98.5338C97.9269 99.2295 97.7392 99.914 97.6398 100.61C96.4474 101.107 95.5088 99.8588 94.3274 100.102C93.9369 98.8969 93.8609 97.6122 94.1065 96.3697C94.8242 91.9531 95.2107 87.4702 95.5861 83.0094C95.6419 82.5338 95.5539 82.0524 95.3335 81.6273C95.1131 81.2022 94.7703 80.8529 94.3495 80.6244L93.952 79.4319C93.7642 76.5611 90.3082 75.6668 89.966 72.8843C91.9534 71.5041 93.433 72.4426 94.9567 73.8118C95.8401 74.6178 97.0325 76.1195 98.203 74.9159C99.3734 73.7124 100.544 74.0105 101.946 73.9664C104.022 73.9001 106.363 73.072 106.672 70.7422C106.981 68.1695 104.464 67.8493 102.575 67.3193C100.069 66.6348 98.9979 69.1964 96.9553 69.7154C95.3984 70.1129 94.1176 70.8195 93.8305 68.6775C93.5986 67.0102 91.5339 64.5479 94.9347 63.8413C97.2534 63.3554 98.1698 62.6598 96.7786 60.3963C96.6993 60.1831 96.6739 59.9536 96.7048 59.7282C96.7356 59.5028 96.8216 59.2885 96.9553 59.1044C99.4065 56.7636 97.1871 54.5222 96.6461 52.3912C96.5795 52.0599 96.4055 51.7598 96.151 51.5376C95.8965 51.3153 95.5758 51.1832 95.2386 51.1618C94.9013 51.1404 94.5665 51.2309 94.2859 51.4192C94.0054 51.6076 93.7949 51.8832 93.687 52.2035C92.8147 53.8266 91.6332 53.8045 90.0764 54.1136C87.9206 54.5847 85.9167 55.5867 84.2464 57.0286C82.8552 58.2211 85.0745 59.8 84.8537 61.2354C84.4893 63.5542 87.062 66.1158 84.4893 68.1475C82.7006 69.5718 82.9656 71.0845 83.6281 72.818Z" fill="#AF7E67"/>
<path d="M101.261 167.014L100.466 167.19C98.5011 162.465 99.8481 158.07 101.769 153.709C102.476 152.097 102.995 150.396 103.635 148.762C104.53 146.454 103.039 145.45 101.317 144.765C99.1856 143.915 98.8544 145.428 98.3686 147.073C97.4742 150.076 96.2817 152.991 92.5497 153.786C91.7547 152.229 95.4205 148.928 90.9155 149.303C85.3947 149.767 81.7068 146.134 77.7429 143.396C74.7727 141.342 74.8942 141.188 73.5361 144.633C72.178 148.078 74.7838 151.037 74.2869 154.294C73.1828 154.239 71.0407 152.792 72.3436 155.829C72.6336 156.691 72.8443 157.578 72.973 158.479C70.6301 156.07 68.7013 153.29 67.2645 150.253C67.1982 149.093 67.4632 147.779 67.0105 146.797C65.3828 143.134 64.9951 139.04 65.9064 135.137C66.1935 133.668 65.9064 131.824 67.5847 131.206C68.4664 130.884 69.4143 130.786 70.3433 130.921C71.2723 131.056 72.1531 131.419 72.9067 131.979C75.2034 133.536 75.91 136.086 77.4006 138.14C78.0852 139.079 78.7698 140.448 80.1389 139.553C82.7889 137.82 85.7922 138.24 88.6409 137.765C88.8754 137.776 89.1083 137.809 89.3366 137.864C89.3149 138.276 89.4063 138.686 89.6009 139.05C89.7955 139.414 90.0859 139.718 90.4407 139.929C91.8209 141.033 92.362 142.137 91.048 143.76C90.5732 144.334 89.8666 145.141 90.783 145.869C91.6995 146.598 92.2184 145.748 92.8478 145.251C93.4771 144.754 94.1507 144.677 94.6255 144.213C96.9332 141.938 101.25 142.005 102.112 138.063C102.579 138.074 103.041 137.964 103.454 137.744C103.866 137.523 104.214 137.199 104.464 136.804C105.965 134.916 106.981 135.181 107.853 137.445C108.924 140.155 109.072 143.144 108.273 145.947C107.268 149.855 105.49 153.676 105.512 157.783C105.247 158.001 105.039 158.282 104.908 158.6C104.777 158.918 104.727 159.263 104.762 159.605C104.486 162.432 102.41 164.496 101.261 167.014Z" fill="#AF7E67"/>
<path d="M112.634 72.9726C115.086 72.1003 115.56 70.9189 114.335 68.3131C112.601 64.6252 111.309 60.7165 112.248 56.3661C112.579 54.8424 111.762 53.0536 109.333 53.5726C107.356 53.9591 106.584 52.9543 106.617 50.9889C106.617 48.0629 106.517 45.1258 104.718 42.5973C106.444 42.8453 108.145 43.2519 109.797 43.8119C112.568 45.0043 110.536 47.0029 110.194 48.5818C109.984 49.5093 108.626 50.2933 109.344 51.3864C110.205 52.7224 111.21 51.3864 112.126 51.1987C113.851 50.9368 115.61 51.3544 117.034 52.3635C118.457 53.3727 119.433 54.8947 119.756 56.609C120.33 61.7102 118.652 66.8666 120.341 71.9568C120.838 73.4805 119.712 74.4412 118.133 74.1651C116.245 73.878 114.445 73.3812 112.634 72.9726Z" fill="#835A49"/>
<path d="M88.6521 137.765C85.8034 138.24 82.8001 137.765 80.1501 139.554C78.7809 140.448 78.0963 139.079 77.4118 138.14C75.9212 136.087 75.2035 133.536 72.9179 131.979C72.1643 131.419 71.2834 131.056 70.3544 130.921C69.4254 130.786 68.4775 130.884 67.5958 131.206C65.8733 131.825 66.2046 133.668 65.9175 135.137C65.0062 139.04 65.3939 143.134 67.0217 146.797C67.4744 147.78 67.2094 149.094 67.2756 150.253C66.2929 149.259 65.9065 147.757 64.5594 147.073L62.9363 143.617C64.3717 143.253 64.195 142.27 64.0404 141.122C63.5392 135.862 63.6689 130.561 64.4269 125.332C64.6367 123.422 65.3213 123.046 66.856 124.162C68.181 125.122 69.8041 125.862 70.7758 127.11C74.7176 132.211 80.0065 134.839 86.1236 136.23C87.1063 136.451 88.2877 136.451 88.6521 137.765Z" fill="#835A49"/>
<path d="M103.492 100.511C103.746 94.9899 100.963 89.966 101.284 84.4452C101.394 82.6344 100.665 80.7132 102.178 79.1453C106.142 80.0286 109.554 83.3963 114.081 81.7732C114.931 81.464 115.328 82.0492 115.593 82.7779C116.002 83.8821 115.593 84.4894 114.611 85.0525C113.142 85.9689 111.376 85.4279 109.874 86.1567C106.308 86.775 105.016 89.3366 105.811 94.4157C106.098 96.2376 106.639 98.0263 105.711 99.8151L103.492 100.511Z" fill="#835A49"/>
<path d="M105.535 157.761C105.535 153.609 107.29 149.833 108.295 145.924C109.094 143.121 108.947 140.133 107.875 137.422C107.003 135.214 105.987 134.894 104.486 136.782C104.236 137.177 103.888 137.501 103.476 137.721C103.063 137.942 102.601 138.052 102.134 138.041C102.929 134.574 105.866 132.818 108.306 130.853C109.819 129.638 110.017 131.736 110.249 132.697C110.934 135.523 110.04 138.515 111.066 141.32L111.42 142.248C110.14 145.203 109.192 148.292 108.593 151.456L106.959 156.314L105.535 157.761Z" fill="#835A49"/>
<path d="M102.101 138.063C101.184 142.049 96.9552 141.939 94.6144 144.257C94.1396 144.721 93.3778 144.876 92.8367 145.295C92.2957 145.715 91.6553 146.62 90.772 145.913C89.8886 145.207 90.5622 144.379 91.037 143.805C92.3509 142.237 91.8099 141.055 90.4297 139.973C90.0749 139.762 89.7845 139.459 89.5899 139.095C89.3953 138.731 89.3038 138.32 89.3255 137.908C89.8411 137.792 90.3752 137.784 90.8941 137.885C91.4129 137.986 91.9052 138.193 92.3399 138.494C95.2548 141.375 97.96 140.194 100.742 138.339C101.171 138.154 101.634 138.06 102.101 138.063Z" fill="#835A49"/>
<path d="M103.183 78.1625C105.921 76.4953 107.323 72.6417 111.387 73.1607C110.205 75.2144 110.801 76.2523 113.164 76.2965C113.992 76.2965 114.81 76.2965 115.638 76.2965C116.466 76.2965 117.217 76.4511 117.228 77.3234C117.228 78.4938 116.123 78.5159 115.406 78.4275C111.309 77.8202 107.279 77.3123 103.183 78.1625Z" fill="#835A49"/>
<path d="M63.7533 66.4811C62.5497 70.8977 62.5497 70.8977 58.9171 74.2875C58.7846 72.5981 61.6223 68.0711 63.8306 66.5142L63.7533 66.4811Z" fill="#835A49"/>
<path d="M103.459 42.4872C101.394 44.5631 98.755 44.3754 96.1603 44.2981C97.9601 41.1623 100.886 42.5425 103.459 42.4872Z" fill="#835A49"/>
<path d="M60.3746 60.9703C60.2898 61.3231 60.0937 61.6392 59.8153 61.8718C59.5369 62.1045 59.191 62.2414 58.8288 62.2621C58.8212 61.8884 58.9544 61.5255 59.2019 61.2453C59.4493 60.9651 59.793 60.7881 60.1648 60.7495L60.3746 60.9703Z" fill="#835A49"/>
<path d="M56.8193 63.7751L55.9801 64.0732L56.6205 63.5764L56.8193 63.7751Z" fill="#835A49"/>
<path d="M56.6205 63.5765C56.6963 63.5008 56.7774 63.4306 56.8634 63.3667C56.8634 63.3667 57.029 63.4992 57.018 63.5213C56.9645 63.6152 56.8976 63.7008 56.8192 63.7752L56.6205 63.5765Z" fill="#835A49"/>
<path d="M58.8288 62.2623L58.6742 62.4611C58.7212 62.3912 58.7618 62.3173 58.7956 62.2402L58.8288 62.2623Z" fill="#835A49"/>
<path d="M61.1144 60.3413L60.3746 61.0259L60.1317 60.783L60.8494 60.0763L61.1144 60.3413Z" fill="#835A49"/>
<path d="M60.8494 60.0213C60.9313 59.9451 61.0244 59.8818 61.1254 59.8336C61.1254 59.8336 61.3131 59.955 61.3021 59.9992C61.2566 60.105 61.1931 60.2022 61.1144 60.2863L60.8494 60.0213Z" fill="#835A49"/>
<path d="M63.8305 58.1333C63.7602 58.2146 63.6784 58.2853 63.5876 58.343C63.5876 58.343 63.411 58.2105 63.422 58.1774C63.4773 58.0876 63.5401 58.0027 63.6097 57.9235L63.8305 58.1333Z" fill="#835A49"/>
<path d="M83.6282 72.8181C82.9657 71.0846 82.7007 69.5719 84.4894 68.1254C87.018 66.0938 84.4894 63.5321 84.8538 61.2134C85.0746 59.778 82.8553 58.199 84.2465 57.0066C85.9223 55.5709 87.93 54.5765 90.0875 54.1137C91.6444 53.8045 92.8258 53.8266 93.6981 52.2035C93.806 51.8833 94.0165 51.6076 94.2971 51.4193C94.5776 51.2309 94.9125 51.1404 95.2497 51.1618C95.5869 51.1832 95.9077 51.3153 96.1622 51.5376C96.4166 51.7599 96.5907 52.0599 96.6572 52.3912C97.1983 54.5222 99.4176 56.8078 96.9664 59.1045C96.825 59.2736 96.7261 59.4741 96.6781 59.6892C96.6301 59.9044 96.6343 60.1279 96.6904 60.3411C98.0816 62.5494 97.1651 63.3002 94.8464 63.7861C91.4567 64.4927 93.5214 66.955 93.7423 68.6223C94.0293 70.7091 95.3102 70.0577 96.867 69.6602C98.9097 69.1412 99.9807 66.5796 102.487 67.2642C104.43 67.7942 106.904 68.1144 106.584 70.6871C106.308 73.0168 103.934 73.8449 101.858 73.9112C100.456 73.9112 99.3514 73.5468 98.1147 74.8608C96.8781 76.1747 95.7518 74.5958 94.8685 73.7566C93.3448 72.3875 91.8652 71.4489 89.8777 72.8291L83.6282 72.8181Z" fill="#A18F8F"/>
<path d="M93.8748 79.432L94.2723 80.6245H92.064H89.9661C86.9186 79.3105 84.909 80.5251 83.5509 83.2855L78.0301 82.2476C77.3897 81.8832 76.2856 82.2476 76.1752 81.033C76.1451 80.8582 76.1498 80.6793 76.1891 80.5063C76.2283 80.3334 76.3013 80.1699 76.4039 80.0253C76.5065 79.8806 76.6366 79.7577 76.7869 79.6634C76.9371 79.5692 77.1044 79.5056 77.2793 79.4761C82.8001 78.0739 88.3209 76.3183 93.8748 79.432Z" fill="#47362A"/>
<path d="M110.47 166.131L109.653 166.793C109.361 166.421 109.167 165.981 109.09 165.514C109.013 165.047 109.055 164.568 109.211 164.121C110.503 157.585 111.828 151.048 113.131 144.511C114.909 147.824 113.551 151.346 114.048 154.736C114.19 156.237 114.238 157.745 114.191 159.252C112.16 159.152 111.376 160.301 111.287 162.145L110.47 166.131Z" fill="#D1CFD1"/>
<path d="M111.309 162.145C111.398 160.301 112.182 159.152 114.213 159.252C114.66 160.549 114.837 161.924 114.732 163.293C113.518 163.138 112.811 161.394 111.309 162.145Z" fill="#B5B1B7"/>
<path d="M116.952 142.667C119.05 146.3 117.029 149.359 116.952 152.417V142.667Z" fill="#B5B1B7"/>
<path d="M117.559 166.627C117.235 166.478 116.971 166.223 116.811 165.904C116.65 165.585 116.603 165.221 116.676 164.872C116.969 165.056 117.206 165.317 117.362 165.626C117.518 165.936 117.586 166.282 117.559 166.627Z" fill="#B5B1B7"/>
<path d="M105.877 23.7716C105.535 24.1029 105.137 24.1801 104.872 23.7716C104.795 23.6612 105.104 23.3079 105.236 23.076L105.877 23.7716Z" fill="#B5B1B7"/>
<path d="M58.6521 172.027C55.9249 171.397 58.1663 168.891 57.0069 167.61L56.8413 166.119C57.5148 165.689 58.2767 164.088 58.7625 166.263C57.6584 167.213 58.0448 168.118 58.8398 169.012L58.6521 172.027Z" fill="#B5B1B7"/>
<path d="M58.6521 172.026L58.8509 169.089C59.5796 169.685 59.4692 170.536 59.5686 171.298C59.5189 171.595 59.5513 171.9 59.6622 172.18C59.7731 172.46 59.9583 172.705 60.1979 172.888V175.317L59.4471 175.372C59.149 174.389 58.8619 173.406 58.5748 172.424C58.6289 172.298 58.6552 172.163 58.6521 172.026Z" fill="#AF7E67"/>
<path d="M58.8398 169.056C58.0448 168.162 57.7356 167.257 58.7625 166.307C58.7845 167.224 58.8177 168.14 58.8398 169.056Z" fill="#A18F8F"/>
<path d="M56.8413 166.164L57.0069 167.654C56.8607 167.673 56.7121 167.657 56.5735 167.607C56.4349 167.556 56.3102 167.474 56.2099 167.366C56.1095 167.258 56.0363 167.128 55.9963 166.986C55.9563 166.844 55.9507 166.695 55.98 166.55C56.0021 165.998 56.2781 165.711 56.8413 166.164Z" fill="#A18F8F"/>
<path d="M64.3937 165.578C64.4784 165.804 64.5129 166.045 64.4946 166.286C64.4764 166.526 64.406 166.759 64.2882 166.97C64.1705 167.18 64.0082 167.362 63.8129 167.503C63.6175 167.644 63.3937 167.741 63.1571 167.787C62.5608 162.586 59.8446 157.617 61.5008 152.163C61.6885 152.704 61.8542 153.267 62.086 153.786C62.4062 154.471 62.4725 155.652 63.5546 155.332C64.9127 154.923 64.2391 153.786 63.9079 153.035C63.1129 151.257 63.2012 149.126 61.6996 147.647C62.2737 145.67 63.6098 147.349 64.5373 147.062C64.5291 147.751 64.6489 148.436 64.8906 149.082C67.7835 153.554 69.1085 158.655 70.8309 163.602C71.1843 164.629 72.0455 165.733 70.9414 166.848C70.5029 166.33 70.1319 165.759 69.8372 165.148C68.976 162.741 67.4743 162.155 65.255 163.392C65.0448 163.338 64.8306 163.301 64.6145 163.282C64.6145 162.873 64.6145 162.465 64.6145 162.056C64.783 161.866 64.9063 161.641 64.9751 161.397C65.044 161.153 65.0565 160.896 65.0119 160.646C64.9673 160.397 64.8666 160.16 64.7174 159.955C64.5683 159.75 64.3746 159.581 64.1508 159.461C63.5766 160.323 63.9079 161.118 63.941 161.902L64.4268 163.491C64.4192 163.664 64.4455 163.837 64.5041 163.999L64.3716 164.772C64.3164 164.861 64.217 164.96 64.2281 165.037C64.2678 165.222 64.3232 165.403 64.3937 165.578Z" fill="#D1CFD1"/>
<path d="M61.7106 147.658C63.2012 149.137 63.1129 151.268 63.9189 153.046C64.2502 153.797 64.9237 154.934 63.5656 155.343C62.4614 155.663 62.4614 154.482 62.0971 153.797C61.8652 153.278 61.6996 152.693 61.5119 152.174C61.1585 150.65 60.22 149.104 61.7106 147.658Z" fill="#A18F8F"/>
<path d="M58.8177 154.194L59.0055 153.532C59.5244 153.918 58.9282 153.985 58.8177 154.194Z" fill="#D1CFD1"/>
<path d="M74.2759 154.294C74.7838 150.981 72.1339 148.132 73.5361 144.632C74.9384 141.132 74.7728 141.32 77.743 143.396C81.7069 146.134 85.3396 149.767 90.9156 149.303C95.4205 148.927 91.7547 152.229 92.5497 153.786C96.2818 152.991 97.4742 150.076 98.3686 147.073C98.8544 145.427 99.1857 143.915 101.317 144.765C103.039 145.449 104.53 146.454 103.635 148.762C102.995 150.407 102.531 152.074 101.769 153.708C99.8482 158.07 98.4569 162.464 100.467 167.19C98.8655 168.018 97.9822 167.466 97.7724 165.755C97.673 164.938 97.7724 164.11 97.7724 163.282C97.6288 159.395 96.6682 158.732 92.9362 160.035C86.9627 162.133 86.6093 162.718 87.5258 169.034C87.5258 169.387 87.8129 169.807 87.6804 170.061C87.0068 171.441 88.5968 173.561 87.0179 174.224C85.4389 174.886 85.7039 172.369 84.5998 171.717C83.2858 170.933 82.0934 169.973 80.8457 169.089L80.7132 168.88C82.3473 164.253 79.609 161.018 77.1799 157.65L75.899 156.403C75.7665 155.42 75.6451 154.426 74.3311 154.316L74.2759 154.294Z" fill="#A18F8F"/>
<path d="M105.535 157.761L106.959 156.315L107.025 160.499C106.867 161.962 106.356 163.364 105.535 164.585C102.045 165.954 104.707 169.2 103.503 171.265L102.057 171.927C100.345 170.514 101.284 168.692 101.262 167.014C102.366 164.496 104.486 162.432 104.828 159.539L105.579 157.717L105.535 157.761Z" fill="#A18F8F"/>
<path d="M80.5476 173.506C79.3772 172.513 77.9529 171.795 77.1248 170.415L78.3835 167.732L80.6581 168.836L80.7906 169.046C79.6974 170.503 81.0114 172.049 80.5476 173.506Z" fill="#A18F8F"/>
<path d="M96.5689 174.809C95.9947 174.621 96.0058 174.147 96.0168 173.705C96.3988 173.5 96.8211 173.38 97.2541 173.355C97.6871 173.331 98.1203 173.401 98.5233 173.561C98.2803 174.599 97.4081 174.677 96.5689 174.809Z" fill="#47362A"/>
<path d="M103.503 171.265C104.706 169.2 102.045 165.954 105.535 164.585C106.639 166.385 105.535 168.24 105.667 170.106L103.503 171.265Z" fill="#D1CFD1"/>
<path d="M107.025 160.5L106.959 156.315L108.593 151.457C109.101 154.659 108.174 157.596 107.025 160.5Z" fill="#D1CFD1"/>
<path d="M70.9525 166.859C72.0566 165.755 71.1954 164.651 70.8421 163.613C69.1196 158.666 67.7946 153.565 64.9017 149.093C64.66 148.447 64.5402 147.762 64.5484 147.073C65.8954 147.757 66.2819 149.281 67.2646 150.253C68.7014 153.29 70.6302 156.07 72.9731 158.479C73.0282 158.7 73.0282 158.931 72.9731 159.152C72.5093 159.715 72.432 160.201 73.2822 160.466L73.3485 160.245H73.5804C73.2732 160.863 73.1235 161.547 73.1447 162.237C73.1659 162.927 73.3573 163.6 73.7018 164.198C74.5862 165.939 75.0727 167.855 75.1262 169.807L72.4652 169.001L70.9525 166.859Z" fill="#B5B1B7"/>
<path d="M64.5925 163.293C64.8085 163.313 65.0227 163.35 65.2329 163.403L64.4268 164.011C64.3682 163.848 64.3419 163.675 64.3496 163.503L64.5925 163.293Z" fill="#B5B1B7"/>
<path d="M64.3938 165.578C64.2974 165.409 64.2161 165.232 64.1509 165.048C64.1509 164.971 64.2392 164.872 64.2944 164.783L64.3938 165.578Z" fill="#B5B1B7"/>
<path d="M75.0931 169.785C75.0461 167.818 74.5595 165.886 73.6687 164.132C73.3242 163.536 73.1328 162.864 73.1116 162.176C73.0904 161.488 73.2401 160.806 73.5473 160.19L77.6106 165.302C76.5064 166.539 77.0254 167.245 78.3835 167.687L77.0806 170.414C76.904 170.425 76.7296 170.458 76.5616 170.514L75.0931 169.785Z" fill="#D1CFD1"/>
<path d="M92.075 80.6576H94.2833C94.7042 80.8861 95.0469 81.2354 95.2673 81.6605C95.4878 82.0856 95.5757 82.567 95.5199 83.0426C95.0893 87.4592 94.7581 91.9863 94.0404 96.4029C93.7947 97.6454 93.8708 98.9301 94.2612 100.135C91.545 102.873 90.4519 100.687 89.3588 98.5229C89.2864 98.062 89.2864 97.5926 89.3588 97.1316C91.9314 89.9436 91.1033 87.669 84.4453 83.8818L83.5288 83.3628C84.8869 80.6024 86.8413 79.3879 89.944 80.7018C90.6506 81.806 88.8398 84.2793 91.3462 84.0143C93.0025 83.9259 92.7154 82.0158 92.075 80.6576Z" fill="#835A49"/>
<path d="M96.0609 112.458C92.9803 113.96 89.988 112.458 86.9737 112.149C85.385 111.905 83.811 111.573 82.259 111.155L82.1044 111C83.0539 109.399 84.6218 109.631 86.1456 109.565C90.6837 109.377 95.2217 109.201 99.7488 108.88C100.93 108.792 102.697 108.88 102.896 107.324C103.094 105.767 101.195 106.065 100.378 105.336L104.464 103.128C105.875 104.826 107.822 105.994 109.984 106.44C110.879 106.683 112.193 105.756 112.48 107.39C112.667 108.615 113.319 109.996 112.248 111.111C111.177 112.226 110.04 111.453 109.002 110.978C106.175 108.306 103.381 110.481 100.577 110.978C98.9612 111.03 97.3942 111.544 96.0609 112.458Z" fill="#835A49"/>
<path d="M107.643 111.729C105.435 119.856 105.435 119.867 96.7123 118.873C95.1334 118.685 93.3998 119.171 91.7767 117.327C95.0892 115.903 98.9758 117.736 101.979 115.207L99.274 113.275L102.586 112.369L107.643 111.729Z" fill="#835A49"/>
<path d="M104.464 103.139L100.378 105.347L98.4238 105.722L95.7849 104.618C90.2641 103.514 89.3918 102.62 89.3477 98.5012C90.4518 100.71 91.556 102.863 94.2501 100.124C95.4205 99.8814 96.3591 101.129 97.5626 100.632C99.5942 103.326 101.538 102.443 103.448 100.489L105.656 99.7379L105.358 101.052L104.795 101.891L104.464 103.139Z" fill="#47362A"/>
<path d="M77.5774 94.1286C77.8535 91.9203 78.7589 90.3413 81.2874 92.4944C82.3916 93.455 83.4957 92.8478 84.5999 92.8588C85.704 92.8698 86.8965 92.9471 87.3492 94.0292C87.8019 95.1113 86.6536 95.6744 86.0574 96.3258C83.297 99.3181 80.5366 99.4837 78.3283 96.9111C77.9491 96.5683 77.6767 96.1237 77.5436 95.6303C77.4104 95.1368 77.4222 94.6155 77.5774 94.1286Z" fill="#A18F8F"/>
<path d="M107.644 111.729L102.553 112.369C102.388 111.21 101.449 111.21 100.599 111.066C103.404 110.514 106.197 108.339 109.024 111.066L107.644 111.729Z" fill="#47362A"/>
<path d="M100.599 111.066C101.449 111.21 102.388 111.21 102.553 112.369L99.2409 113.274L96.0278 112.457C97.3864 111.564 98.9734 111.082 100.599 111.066Z" fill="#A18F8F"/>
<path d="M95.7848 104.596L98.4237 105.7C96.646 107.478 95.9504 106.716 95.7848 104.596Z" fill="#835A49"/>
<path d="M81.9829 86.0125C81.475 86.4431 81.2762 86.7302 81.0222 86.8075C80.5806 86.94 80.0616 86.8958 79.9181 86.3989C79.9181 86.2444 80.2383 85.7806 80.4591 85.7475C80.9759 85.7734 81.4877 85.8624 81.9829 86.0125Z" fill="#835A49"/>
<path d="M84.5667 85.428C84.6294 85.5036 84.6848 85.5849 84.7323 85.6709C84.598 85.8073 84.45 85.9294 84.2906 86.0353C84.2289 85.9629 84.1734 85.8853 84.125 85.8034C84.2643 85.6692 84.4118 85.5439 84.5667 85.428Z" fill="#835A49"/>
<path d="M82.259 111.132C82.1979 111.193 82.1314 111.249 82.0603 111.298C82.0145 111.263 81.9736 111.222 81.9388 111.176C81.988 111.105 82.0434 111.039 82.1045 110.978L82.259 111.132Z" fill="#835A49"/>
<path d="M104.894 101.912L105.457 101.073L104.894 101.912Z" fill="#835A49"/>
<path d="M97.5516 100.61C97.651 99.9142 97.7835 99.2296 97.8387 98.534C97.9381 97.5403 98.1368 96.5797 99.3183 96.4693C100.257 96.3809 100.809 97.0324 100.997 97.9267C101.251 99.0309 100.577 99.6824 99.6164 100.036C98.965 100.29 98.2804 100.455 97.6068 100.654L97.5516 100.61Z" fill="#B5B1B7"/>
<path d="M77.6104 165.347L73.5471 160.235H73.3153L73.249 160.455C73.5803 159.914 73.249 159.528 72.9399 159.141C72.995 158.92 72.995 158.689 72.9399 158.468C72.8111 157.567 72.6005 156.68 72.3105 155.818C71.0076 152.782 73.1607 154.228 74.2538 154.283C74.1972 154.781 74.3376 155.282 74.6449 155.678C74.9523 156.074 75.4024 156.334 75.899 156.403L77.0804 157.651C76.0536 159.285 76.705 160.687 77.6104 162.068C78.3392 163.172 79.1452 164.287 77.6104 165.347Z" fill="#835A49"/>
<path d="M105.579 157.717L104.828 159.539C104.793 159.197 104.844 158.851 104.975 158.534C105.106 158.216 105.313 157.935 105.579 157.717Z" fill="#835A49"/>
<path d="M92.0749 80.6579C92.7154 82.016 93.0024 83.9704 91.3793 84.0697C88.9281 84.2906 90.6837 81.7841 89.9771 80.7573L92.0749 80.6579Z" fill="#AF7E67"/>
<path d="M63.8307 161.924C63.8307 161.14 63.4663 160.345 64.0405 159.484C64.2642 159.603 64.4579 159.772 64.6071 159.977C64.7562 160.182 64.8569 160.419 64.9016 160.668C64.9462 160.918 64.9336 161.175 64.8648 161.419C64.796 161.663 64.6727 161.889 64.5042 162.078C64.2772 162.039 64.0523 161.987 63.8307 161.924Z" fill="#A18F8F"/>
<path d="M63.8306 161.924C64.0522 161.987 64.2771 162.039 64.5041 162.078C64.5041 162.487 64.5041 162.895 64.5041 163.304L64.2612 163.514C64.1839 163.028 64.0293 162.443 63.8306 161.924Z" fill="#B5B1B7"/>
<path d="M77.6106 165.347C79.1453 164.243 78.3393 163.138 77.6106 162.1C76.7052 160.687 76.0537 159.285 77.0806 157.684C79.4766 161.052 82.248 164.309 80.6139 168.913L78.3393 167.809C77.0806 167.29 76.4733 166.583 77.6106 165.347Z" fill="#AF7E67"/>
<path d="M75.8992 156.403C75.423 156.316 74.9971 156.053 74.7064 155.667C74.4157 155.28 74.2817 154.797 74.3313 154.316C75.6452 154.371 75.7667 155.365 75.8992 156.403Z" fill="#AF7E67"/>
<path d="M72.9399 159.152C73.2491 159.539 73.5803 159.925 73.2491 160.466C72.3989 160.201 72.4762 159.715 72.9399 159.152Z" fill="#D1CFD1"/>
</g>
<defs>
<clipPath id="clip0_193_7068">
<path d="M0 90C0 40.2944 40.2944 0 90 0V0C139.706 0 180 40.2944 180 90V90C180 139.706 139.706 180 90 180V180C40.2944 180 0 139.706 0 90V90Z" fill="white"/>
</clipPath>
</defs>
</svg>
